<svg xmlns="http://www.w3.org/2000/svg" xmlns:xlink="http://www.w3.org/1999/xlink" width="400" height="335" viewBox="0 0 400 335">
  <defs>
    <clipPath id="clip-path">
      <rect id="Rectángulo_414643" data-name="Rectángulo 414643" width="400" height="335" transform="translate(180 5226)" fill="#fff" stroke="#707070" stroke-width="1"/>
    </clipPath>
    <clipPath id="clip-path-2">
      <rect id="Rectángulo_414642" data-name="Rectángulo 414642" width="431.292" height="402.922" fill="none"/>
    </clipPath>
    <clipPath id="clip-path-4">
      <rect id="Rectángulo_414616" data-name="Rectángulo 414616" width="84.557" height="76.865" fill="none"/>
    </clipPath>
    <clipPath id="clip-path-6">
      <path id="Trazado_1026706" data-name="Trazado 1026706" d="M213.678,0C95.666,0,0,124.517,0,218.576S95.666,388.885,213.678,388.885s213.677-76.25,213.677-170.309S331.689,0,213.678,0Z" fill="none"/>
    </clipPath>
    <clipPath id="clip-path-7">
      <rect id="Rectángulo_414622" data-name="Rectángulo 414622" width="24.186" height="21.376" fill="none"/>
    </clipPath>
    <clipPath id="clip-path-9">
      <rect id="Rectángulo_414627" data-name="Rectángulo 414627" width="19.775" height="55.337" fill="none"/>
    </clipPath>
    <clipPath id="clip-path-10">
      <rect id="Rectángulo_414628" data-name="Rectángulo 414628" width="117.759" height="189.786" fill="none"/>
    </clipPath>
    <clipPath id="clip-path-11">
      <rect id="Rectángulo_414629" data-name="Rectángulo 414629" width="43.255" height="57.065" fill="none"/>
    </clipPath>
    <clipPath id="clip-path-12">
      <rect id="Rectángulo_414630" data-name="Rectángulo 414630" width="54.106" height="93.942" fill="none"/>
    </clipPath>
    <clipPath id="clip-path-14">
      <rect id="Rectángulo_414632" data-name="Rectángulo 414632" width="10.7" height="39.359" fill="none"/>
    </clipPath>
    <clipPath id="clip-path-15">
      <rect id="Rectángulo_414635" data-name="Rectángulo 414635" width="18.765" height="56.485" fill="none"/>
    </clipPath>
    <clipPath id="clip-path-16">
      <rect id="Rectángulo_414636" data-name="Rectángulo 414636" width="30.11" height="41.295" fill="none"/>
    </clipPath>
    <clipPath id="clip-path-17">
      <rect id="Rectángulo_414637" data-name="Rectángulo 414637" width="12.966" height="45.154" fill="none"/>
    </clipPath>
    <clipPath id="clip-path-18">
      <rect id="Rectángulo_414638" data-name="Rectángulo 414638" width="30.921" height="47.751" fill="none"/>
    </clipPath>
    <clipPath id="clip-path-20">
      <rect id="Rectángulo_414640" data-name="Rectángulo 414640" width="65.008" height="24.185" fill="none"/>
    </clipPath>
  </defs>
  <g id="Enmascarar_grupo_1098720" data-name="Enmascarar grupo 1098720" transform="translate(-180 -5226)" clip-path="url(#clip-path)">
    <rect id="Rectángulo_414644" data-name="Rectángulo 414644" width="400" height="64" transform="translate(180 5497)" fill="#1c4880"/>
    <g id="Grupo_1172469" data-name="Grupo 1172469" transform="translate(168.708 5212.796)">
      <g id="Grupo_1172517" data-name="Grupo 1172517" clip-path="url(#clip-path-2)">
        <rect id="Rectángulo_414614" data-name="Rectángulo 414614" width="68.141" height="47.314" transform="translate(77.012 77.439)" fill="#4070a3"/>
        <rect id="Rectángulo_414615" data-name="Rectángulo 414615" width="55.74" height="34.914" transform="translate(83.213 83.639)" fill="#497db3"/>
        <g id="Grupo_1172473" data-name="Grupo 1172473">
          <g id="Grupo_1172472" data-name="Grupo 1172472" clip-path="url(#clip-path-2)">
            <g id="Grupo_1172471" data-name="Grupo 1172471" transform="translate(228.025 61.741)" opacity="0.2" style="mix-blend-mode: multiply;isolation: isolate">
              <g id="Grupo_1172470" data-name="Grupo 1172470">
                <g id="Grupo_1172469-2" data-name="Grupo 1172469" clip-path="url(#clip-path-4)">
                  <path id="Trazado_1026679" data-name="Trazado 1026679" d="M235.155,117.389l-2.9,10.543,79.285,11.819,5.271-76.865Z" transform="translate(-232.255 -62.886)" fill="#254262"/>
                </g>
              </g>
            </g>
          </g>
        </g>
        <rect id="Rectángulo_414618" data-name="Rectángulo 414618" width="71.234" height="75.916" transform="translate(226.114 119.714) rotate(-80.662)" fill="#497db3"/>
        <g id="Grupo_1172475" data-name="Grupo 1172475">
          <g id="Grupo_1172474" data-name="Grupo 1172474" clip-path="url(#clip-path-2)">
            <path id="Trazado_1026680" data-name="Trazado 1026680" d="M286.128,103.327q1.006,6.944,2.011,13.887" transform="translate(-5.211 -1.882)" fill="none" stroke="#4f87c2" stroke-linecap="round" stroke-linejoin="round" stroke-width="1" stroke-dasharray="3 6"/>
            <path id="Trazado_1026681" data-name="Trazado 1026681" d="M287.109,99.929c-.679,0-1.37-.044-2.051-.1l-22.636-1.795c-3.222-.256-7.645-1.007-8.835-4.563-.634-1.895-.041-3.855.676-5.864a.089.089,0,0,1,.008-.021c1.227-3.068,2.323-6.269,3.384-9.364.542-1.585,1.085-3.167,1.645-4.739.218-.609.409-1.281.608-1.971.834-2.908,1.871-6.527,5.459-6.836,3.093-.274,7.024.92,10.489,1.968,1.594.482,3.1.938,4.427,1.229a28.363,28.363,0,0,0,5.4.419c3.9.062,7.926.126,10.142,3.142,2.854,3.883,1.37,8.909-.067,13.77a37.248,37.248,0,0,0-1.6,6.954c-.208,2.386-.56,4.842-2.342,6.37a6.963,6.963,0,0,1-4.709,1.4M255.336,88c-.671,1.879-1.183,3.56-.664,5.107.74,2.219,3.232,3.423,7.842,3.787l22.634,1.8c2.189.175,4.447.238,5.927-1.032,1.455-1.247,1.759-3.451,1.947-5.6a38.059,38.059,0,0,1,1.638-7.179c1.42-4.8,2.76-9.343.242-12.77-1.879-2.559-5.455-2.615-9.24-2.675a29.119,29.119,0,0,1-5.624-.446c-1.369-.3-2.9-.762-4.511-1.251-3.369-1.017-7.189-2.166-10.06-1.923-2.8.243-3.645,3.176-4.458,6.013-.205.714-.4,1.41-.63,2.04-.559,1.568-1.1,3.146-1.642,4.725-1.063,3.105-2.164,6.317-3.4,9.408" transform="translate(-4.613 -1.177)" fill="#4f87c2"/>
            <path id="Trazado_1026682" data-name="Trazado 1026682" d="M251.772,111.65a.572.572,0,0,1-.5-.846l5.694-10.379a.571.571,0,1,1,1,.55l-5.694,10.379a.57.57,0,0,1-.5.3" transform="translate(-4.575 -1.823)" fill="#4f87c2"/>
            <path id="Trazado_1026683" data-name="Trazado 1026683" d="M300.688,88.243a.571.571,0,0,1-.362-1.013l8.466-6.941a.572.572,0,0,1,.726.884l-8.467,6.941a.57.57,0,0,1-.362.13" transform="translate(-5.465 -1.46)" fill="#4f87c2"/>
            <path id="Trazado_1026684" data-name="Trazado 1026684" d="M253.827,76.077a.573.573,0,0,1-.554-.428,42.672,42.672,0,0,0-4.778-11.371.571.571,0,1,1,.978-.59,43.82,43.82,0,0,1,4.908,11.674.572.572,0,0,1-.411.7.545.545,0,0,1-.142.019" transform="translate(-4.524 -1.155)" fill="#4f87c2"/>
            <path id="Trazado_1026685" data-name="Trazado 1026685" d="M268.2,82.53a2.953,2.953,0,0,1-1.882-.651,4.271,4.271,0,0,1,1.693-7.206c2.515-.735,3.95.482,4.455,1.867a4.57,4.57,0,0,1-2.554,5.6,4.248,4.248,0,0,1-1.712.393m1.481-.915h0Zm-.255-6.018a3.923,3.923,0,0,0-1.094.173,3.133,3.133,0,0,0-1.3,5.218,2.25,2.25,0,0,0,2.418.105,3.413,3.413,0,0,0,1.944-4.161,1.949,1.949,0,0,0-1.969-1.335" transform="translate(-4.825 -1.356)" fill="#4f87c2"/>
            <path id="Trazado_1026686" data-name="Trazado 1026686" d="M283.151,85.6a3.3,3.3,0,0,1-2.865-1.321,4.48,4.48,0,0,1,.066-4.5,5.251,5.251,0,0,1,4.6-2.98c2.3.023,3.7,1.082,3.812,2.957a5.912,5.912,0,0,1-4.959,5.8,5.759,5.759,0,0,1-.651.038m.586-.606h0Zm1.285-7.05h-.063a4.125,4.125,0,0,0-3.592,2.363,3.4,3.4,0,0,0-.138,3.322,2.513,2.513,0,0,0,2.444.8,4.829,4.829,0,0,0,3.947-4.6c-.1-1.552-1.45-1.886-2.6-1.886" transform="translate(-5.094 -1.399)" fill="#4f87c2"/>
            <path id="Trazado_1026687" data-name="Trazado 1026687" d="M276.528,93.689a14.04,14.04,0,0,1-3.212-.371,14.23,14.23,0,0,1-8.829-6.392.571.571,0,1,1,.975-.6,13,13,0,0,0,18,4.235.572.572,0,1,1,.608.968,14.227,14.227,0,0,1-7.54,2.156" transform="translate(-4.815 -1.567)" fill="#4f87c2"/>
            <rect id="Rectángulo_414619" data-name="Rectángulo 414619" width="13.141" height="4.571" transform="translate(245.067 57.022) rotate(-63.958)" fill="#4070a3"/>
            <rect id="Rectángulo_414620" data-name="Rectángulo 414620" width="4.57" height="13.141" transform="matrix(0.776, -0.63, 0.63, 0.776, 302.083, 60.623)" fill="#4070a3"/>
          </g>
        </g>
        <g id="Grupo_1172480" data-name="Grupo 1172480">
          <g id="Grupo_1172479" data-name="Grupo 1172479" clip-path="url(#clip-path-6)">
            <path id="Trazado_1026688" data-name="Trazado 1026688" d="M406.851,154.532c0,.456-.013.9-.032,1.352a28.747,28.747,0,0,1-13.113,22.811c-.359.238-.725.461-1.1.679a28.655,28.655,0,0,1-13.876,3.916c-.212.007-.43.007-.641.007s-.429,0-.641-.007a28.661,28.661,0,0,1-17.516-6.447v-.007c-.341-.269-.673-.558-1-.846a28.646,28.646,0,0,1-9.563-20.106c-.026-.448-.038-.9-.038-1.352,0-.974.051-1.942.14-2.9.045-.429.1-.858.167-1.281a28.7,28.7,0,0,1,9.646-17.581c.327-.289.661-.565,1.006-.827a28.6,28.6,0,0,1,17.158-6.167c.212-.006.429-.006.641-.006s.429,0,.641.006a28.7,28.7,0,0,1,17.523,6.454c.333.27.66.552.981.834a28.691,28.691,0,0,1,9.306,17.286c.07.423.122.852.166,1.281.09.955.141,1.923.141,2.9" transform="translate(-6.362 -2.29)" fill="#497db3"/>
            <path id="Trazado_1026689" data-name="Trazado 1026689" d="M379.255,125.779V183.29c-.211.006-.429.006-.641.006s-.429,0-.641-.006V125.779c.212-.007.43-.007.641-.007s.43,0,.641.007" transform="translate(-6.883 -2.29)" fill="#4f87c2"/>
            <path id="Trazado_1026690" data-name="Trazado 1026690" d="M366.3,157.818a44.494,44.494,0,0,1-6.185,19.132c-.34-.269-.673-.558-1-.846a42.41,42.41,0,0,0,5.973-24.355c-.026-.43-.058-.859-.1-1.282a43.451,43.451,0,0,0-5.525-17.581c.327-.289.66-.564,1.006-.827a44.817,44.817,0,0,1,5.8,18.408c.038.423.071.852.089,1.282a42.628,42.628,0,0,1-.064,6.069" transform="translate(-6.54 -2.405)" fill="#4f87c2"/>
            <path id="Trazado_1026691" data-name="Trazado 1026691" d="M394.424,178.814c-.359.238-.725.461-1.1.679a48.737,48.737,0,0,1-4.5-22.664,46.569,46.569,0,0,1,.532-5.076c.064-.429.14-.852.218-1.282a49.069,49.069,0,0,1,7.4-18.119c.334.269.661.552.981.834a47.922,47.922,0,0,0-7.07,17.285c-.082.43-.16.853-.237,1.282a46,46,0,0,0-.538,5.141,47.408,47.408,0,0,0,4.313,21.919" transform="translate(-7.08 -2.41)" fill="#4f87c2"/>
            <path id="Trazado_1026692" data-name="Trazado 1026692" d="M406.851,155.065c0,.456-.013.9-.032,1.352H349.372c-.026-.448-.038-.9-.038-1.352Z" transform="translate(-6.362 -2.824)" fill="#4f87c2"/>
            <g id="Grupo_1172478" data-name="Grupo 1172478" transform="translate(349.917 128.9)" opacity="0.3" style="mix-blend-mode: soft-light;isolation: isolate">
              <g id="Grupo_1172477" data-name="Grupo 1172477">
                <g id="Grupo_1172476" data-name="Grupo 1172476" clip-path="url(#clip-path-7)">
                  <path id="Trazado_1026693" data-name="Trazado 1026693" d="M370.162,132.7c2.192-1.1,4.794-1.949,7.05-.991,2.322.987,3.552,3.725,3.364,6.24a12.176,12.176,0,0,1-3.174,6.734,23.864,23.864,0,0,1-11.409,7.424c-2.634.774-5.675,1.016-7.772-1.058a5.266,5.266,0,0,1-1.071-6.666c2.708-4.993,8.019-9.184,13.013-11.683" transform="translate(-356.408 -131.291)" fill="#f9f1d7"/>
                </g>
              </g>
            </g>
            <rect id="Rectángulo_414623" data-name="Rectángulo 414623" width="89.536" height="126.545" transform="translate(326.084 178.055)" fill="#4070a3"/>
            <rect id="Rectángulo_414624" data-name="Rectángulo 414624" width="77.229" height="27.525" transform="translate(332.237 183.819)" fill="#497db3"/>
            <rect id="Rectángulo_414625" data-name="Rectángulo 414625" width="77.229" height="27.525" transform="translate(332.237 222.974)" fill="#497db3"/>
            <rect id="Rectángulo_414626" data-name="Rectángulo 414626" width="77.229" height="27.525" transform="translate(332.237 262.128)" fill="#497db3"/>
            <path id="Trazado_1026694" data-name="Trazado 1026694" d="M382.064,202.043a4.773,4.773,0,1,1-4.773-4.773,4.774,4.774,0,0,1,4.773,4.773" transform="translate(-6.784 -3.593)" fill="#f4f0e3"/>
            <path id="Trazado_1026695" data-name="Trazado 1026695" d="M382.064,242.347a4.773,4.773,0,1,1-4.773-4.771,4.774,4.774,0,0,1,4.773,4.771" transform="translate(-6.784 -4.327)" fill="#f4f0e3"/>
            <path id="Trazado_1026696" data-name="Trazado 1026696" d="M382.064,282.652a4.773,4.773,0,1,1-4.773-4.773,4.774,4.774,0,0,1,4.773,4.773" transform="translate(-6.784 -5.06)" fill="#f4f0e3"/>
            <path id="Trazado_1026697" data-name="Trazado 1026697" d="M73.893,280.306a.944.944,0,0,0,.353-.145.955.955,0,0,0,.264-1.326C48.964,240.612,53.543,145.583,53.593,144.627a.957.957,0,1,0-1.911-.1c-.05.962-4.661,96.62,21.237,135.369a.956.956,0,0,0,.973.408" transform="translate(-0.935 -2.615)" fill="#4070a3"/>
            <path id="Trazado_1026698" data-name="Trazado 1026698" d="M58.859,241.9s-9.838-21.372-35.612-14c0,0,11.164,27.718,35.612,14" transform="translate(-0.423 -4.122)" fill="#4070a3"/>
            <path id="Trazado_1026699" data-name="Trazado 1026699" d="M54.658,218.871s-.68-23.517-27.285-26.826c0,0-.583,29.876,27.285,26.826" transform="translate(-0.498 -3.497)" fill="#4070a3"/>
            <path id="Trazado_1026700" data-name="Trazado 1026700" d="M52.257,188.161s-.595-20.572-23.869-23.469c0,0-.511,26.137,23.869,23.469" transform="translate(-0.517 -2.999)" fill="#4070a3"/>
            <path id="Trazado_1026701" data-name="Trazado 1026701" d="M56.173,225.525s1.452-25.248,30.141-27.989c0,0-.29,32.12-30.141,27.989" transform="translate(-1.023 -3.597)" fill="#4070a3"/>
            <path id="Trazado_1026702" data-name="Trazado 1026702" d="M53.246,199.467s1.161-20.183,24.094-22.373c0,0-.232,25.676-24.094,22.373" transform="translate(-0.97 -3.225)" fill="#4070a3"/>
            <path id="Trazado_1026703" data-name="Trazado 1026703" d="M52.9,172.13s1-17.455,20.838-19.35c0,0-.2,22.207-20.838,19.35" transform="translate(-0.963 -2.782)" fill="#4070a3"/>
            <path id="Trazado_1026704" data-name="Trazado 1026704" d="M52.107,158.456S35.52,146.78,48.137,130.044c0,0,21.889,14.011,3.969,28.412" transform="translate(-0.79 -2.368)" fill="#4070a3"/>
            <path id="Trazado_1026705" data-name="Trazado 1026705" d="M88.5,318.782H28.151L15.4,252.33H102.1Z" transform="translate(-0.28 -4.595)" fill="#4070a3"/>
          </g>
        </g>
        <g id="Grupo_1172494" data-name="Grupo 1172494">
          <g id="Grupo_1172493" data-name="Grupo 1172493" clip-path="url(#clip-path-2)">
            <path id="Trazado_1026707" data-name="Trazado 1026707" d="M109.343,167.791H210.556c6.046-32.418-1.978-83.185-1.978-83.185s3.245-8.024,3.566-11.983a12.523,12.523,0,0,0-.784-3.941c-2.265-7.294-8.756-20.988-11.805-23.894-3.8-3.621-21.861-10.932-29.833-11.627-26.64-2.353-42.422,24.358-43.705,30.725-1.267,6.347.963,35.592.963,35.592L115.3,144.7Z" transform="translate(-1.991 -0.601)" fill="#ebc68b"/>
            <path id="Trazado_1026708" data-name="Trazado 1026708" d="M239.593,202.549l22,38.928L245.051,263.96l-29.81-44.016Z" transform="translate(-3.92 -3.689)" fill="#f3a080"/>
            <path id="Trazado_1026709" data-name="Trazado 1026709" d="M244.963,207.283,232.2,214.17,213.5,224.262l-1.081-25.456L210.409,151.4s7.855,2.51,10.4,4.561,24.151,51.322,24.151,51.322" transform="translate(-3.832 -2.757)" fill="#65afa0"/>
            <g id="Grupo_1172483" data-name="Grupo 1172483" transform="translate(208.591 166.169)" opacity="0.6" style="mix-blend-mode: multiply;isolation: isolate">
              <g id="Grupo_1172482" data-name="Grupo 1172482">
                <g id="Grupo_1172481" data-name="Grupo 1172481" clip-path="url(#clip-path-9)">
                  <path id="Trazado_1026710" data-name="Trazado 1026710" d="M232.235,214.495l-18.694,10.093-1.081-25.456,4.089-29.881s13.288,21.193,15.686,45.244" transform="translate(-212.46 -169.251)" fill="#5ea28d"/>
                </g>
              </g>
            </g>
            <path id="Trazado_1026711" data-name="Trazado 1026711" d="M228.793,335.813c-30.565,1.442-53.348,1.467-70.277.771-40.421-1.629-47.481-7.308-47.481-7.308l14.12-55.474-1.206-8.986-4.238-31.621-6.7-50.066-2.933-21.9-.746-5.618,15.923-7.024,5.307-2.337,5.221-2.3,27.444-12.106,32.926,13.946,3.419,1.454,4.449,1.877,4.55,1.926s15.065,35.772,15.4,55.635a25.133,25.133,0,0,1-.286,5.059,160.308,160.308,0,0,1-9.484,33.622Z" transform="translate(-1.991 -2.401)" fill="#f4f0e3"/>
            <g id="Grupo_1172486" data-name="Grupo 1172486" transform="translate(109.043 144.841)" opacity="0.2" style="mix-blend-mode: multiply;isolation: isolate">
              <g id="Grupo_1172485" data-name="Grupo 1172485">
                <g id="Grupo_1172484" data-name="Grupo 1172484" clip-path="url(#clip-path-10)">
                  <path id="Trazado_1026712" data-name="Trazado 1026712" d="M228.825,336.1c-30.565,1.442-53.348,1.467-70.277.771-40.421-1.629-47.481-7.308-47.481-7.308l14.12-55.474L123.98,265.1c58.917-13.7,72.7-92.277,75.622-117.572l4.449,1.877,4.55,1.926S223.666,187.1,224,206.966a25.133,25.133,0,0,1-.286,5.059,160.307,160.307,0,0,1-9.484,33.622Z" transform="translate(-111.066 -147.528)" fill="#5ea28d"/>
                </g>
              </g>
            </g>
            <path id="Trazado_1026713" data-name="Trazado 1026713" d="M194.412,232.485c1.806,2.783-18.706,13-18.706,13l.646,6.334,8.972-3.468,13.9,1.792s.813,2.6,1.617,5.847c.105.4.2.819.3,1.238a54.851,54.851,0,0,1,1.094,5.855c.029.175.045.356.07.527a17.3,17.3,0,0,1,.089,2.467,3.807,3.807,0,0,1-.455,1.826l-10.881.986s-8.4,12.5-10.445,13.534c-.812.408-4.774.055-9.255-.517-2.149-.281-10.5-1.428-12.6-1.75l-3.3-9.327,5.171-11.456c.562-1.375,1.34-3.182,2.277-5.166l0,0c.459-.976.958-1.991,1.485-3.021a46.032,46.032,0,0,1,6.685-10.172,11.182,11.182,0,0,1,3.142-2.459c7.266-3.527,18.4-8.848,20.2-6.069" transform="translate(-2.831 -4.22)" fill="#f3a080"/>
            <path id="Trazado_1026714" data-name="Trazado 1026714" d="M202.795,263.631c.029.176.045.357.07.527-.456-.016-1.051-.048-1.767-.081-1.627-.066-3.828-.119-6.208-.131a36.3,36.3,0,0,0-6.125.452c-.4.079-.767.151-1.091.212-.316.093-.593.165-.817.235-.46.121-.728.192-.728.192s.2-.186.6-.5c.191-.16.437-.353.723-.57.3-.185.645-.392,1.043-.615a14.285,14.285,0,0,1,6.6-1.639,17.08,17.08,0,0,1,6.328,1.27c.557.232,1.014.456,1.376.648" transform="translate(-3.39 -4.766)" fill="#b54b57"/>
            <path id="Trazado_1026715" data-name="Trazado 1026715" d="M201.407,256.422c.1.4.2.819.3,1.237a2.764,2.764,0,0,1-.286-.006c-1.626-.066-3.827-.12-6.2-.128a36.149,36.149,0,0,0-6.13.448c-.4.079-.763.145-1.081.211-.322.089-.6.171-.823.231l-.723.2s.2-.178.587-.5c.2-.155.437-.353.727-.565.3-.189.649-.4,1.038-.62a14.277,14.277,0,0,1,6.6-1.635,16.863,16.863,0,0,1,5.988,1.131" transform="translate(-3.396 -4.649)" fill="#b54b57"/>
            <path id="Trazado_1026716" data-name="Trazado 1026716" d="M157.51,280s-51.327,12.279-63.672,9.227c-13.135-3.248-3.39-61.663-3.39-61.663l26.04-4.849v34.9l44.567-.937,6.511,14.517Z" transform="translate(-1.584 -4.056)" fill="#f3a080"/>
            <path id="Trazado_1026717" data-name="Trazado 1026717" d="M119.1,233.635l-37.935,6.14-5.319.858s.758-4.649,1.876-11.423c2.921-17.662,8.316-49.793,9.236-51.856,5.2-11.622,21.764-21.3,21.764-21.3l.745,5.619,2.934,21.9Z" transform="translate(-1.381 -2.842)" fill="#65afa0"/>
            <g id="Grupo_1172489" data-name="Grupo 1172489" transform="translate(74.462 180.724)" opacity="0.6" style="mix-blend-mode: multiply;isolation: isolate">
              <g id="Grupo_1172488" data-name="Grupo 1172488">
                <g id="Grupo_1172487" data-name="Grupo 1172487" clip-path="url(#clip-path-11)">
                  <path id="Trazado_1026718" data-name="Trazado 1026718" d="M119.1,234.142l-43.256,7s.759-4.649,1.877-11.423c7.234-.944,33.025-4.4,33.647-6.153.435-1.23.808-22.659,1.032-39.489Z" transform="translate(-75.844 -184.076)" fill="#5ea28d"/>
                </g>
              </g>
            </g>
            <g id="Grupo_1172492" data-name="Grupo 1172492" transform="translate(74.464 143.848)" style="mix-blend-mode: soft-light;isolation: isolate">
              <g id="Grupo_1172491" data-name="Grupo 1172491">
                <g id="Grupo_1172490" data-name="Grupo 1172490" clip-path="url(#clip-path-12)">
                  <path id="Trazado_1026719" data-name="Trazado 1026719" d="M129.952,146.516c-5.282,3.729-13.225,9.421-20.485,14.978-7.569,5.8-14.38,11.459-16.592,14.542C87.493,183.531,81.937,232.5,81.166,239.6l-5.32.859s.758-4.649,1.876-11.423c2.922-17.662,8.317-49.793,9.236-51.856,5.2-11.622,21.764-21.3,21.764-21.3l15.922-7.023Z" transform="translate(-75.846 -146.516)" fill="#f9f1d7"/>
                </g>
              </g>
            </g>
            <path id="Trazado_1026720" data-name="Trazado 1026720" d="M149.14,136.606a30.92,30.92,0,0,0,28.472,11.758c3.44-.411,7.132-10.152,7.132-10.152-1.728-.89-5.481-1.755-5.422-4.3a109.055,109.055,0,0,1,1.693-14.139l-20.021-5.345s-.412,5.649-1.122,11.647c-.714,6.076-7.537,8.673-10.731,10.53" transform="translate(-2.716 -2.084)" fill="#f3a080"/>
            <path id="Trazado_1026721" data-name="Trazado 1026721" d="M182.141,136.19s6.671,4.482,8.916,5.626-5.923,17.926-5.923,17.926l-10.871-7.126-12.114,7.126s-14.172-11.849-18.727-21.413a78.334,78.334,0,0,1,10.51-5.585l21.088,13.988Z" transform="translate(-2.612 -2.417)" fill="#65afa0"/>
            <path id="Trazado_1026722" data-name="Trazado 1026722" d="M160.074,126.068c5.655,3.63,12.591,7.908,14.8,8.491a6.368,6.368,0,0,0,4.638-.647,109.777,109.777,0,0,1,1.7-14.133L161.2,114.433s-.42,5.655-1.123,11.635" transform="translate(-2.915 -2.084)" fill="#ea7c6f"/>
            <path id="Trazado_1026723" data-name="Trazado 1026723" d="M146.166,59.129c9.853-13.03,27.561-17.987,42.25-10.84,3.377,1.644,6.12,3.586,7.452,5.846,5.325,9.035,14.412,43.026,8.442,60.1s-17.373,15.6-21.46,14.714-23.46-7.395-28.245-13.223-16.357-36.84-14.862-45.24c.5-2.8,3.134-7,6.423-11.353" transform="translate(-2.542 -0.82)" fill="#f8bf92"/>
            <path id="Trazado_1026724" data-name="Trazado 1026724" d="M144.68,56.691c9.852-13.03,27.561-17.987,42.25-10.84,3.377,1.644,6.12,3.587,7.452,5.846,5.325,9.035,14.412,43.026,8.442,60.1s-17.373,15.6-21.46,14.714-23.46-7.395-28.245-13.223-16.357-36.84-14.862-45.24c.5-2.8,3.134-7,6.423-11.353" transform="translate(-2.515 -0.775)" fill="#f3a080"/>
            <path id="Trazado_1026725" data-name="Trazado 1026725" d="M151.555,99.64c-1.039-.406-6.592-6.666-9.845-2.365s-3.708,11.042-.074,14.532c3.316,3.186,7.855,6.552,12.961,4.838Z" transform="translate(-2.533 -1.744)" fill="#f3a080"/>
            <path id="Trazado_1026726" data-name="Trazado 1026726" d="M142.26,102.442a5.07,5.07,0,0,0,.423,2.672c1.482,3.627,5.218,6.173,8.789,8.53a9.874,9.874,0,0,1-1.666-5.734c.013-.7.1-1.4.042-2.091-.21-2.8-6.766-8.733-7.588-3.377" transform="translate(-2.59 -1.826)" fill="#ea7c6f"/>
            <path id="Trazado_1026727" data-name="Trazado 1026727" d="M153.258,114.56l-.2-.1c-.128-.068-.332-.154-.568-.3a7.817,7.817,0,0,1-1.785-1.448,7.391,7.391,0,0,1-1.609-2.843,6.563,6.563,0,0,1,.092-3.949,3.417,3.417,0,0,1,.2-.51l.056-.125c.014-.031.006-.012.008-.015v0l0,0h0s0,0-.011-.019l-.065-.1-.131-.2c-.089-.133-.177-.266-.268-.395a16.649,16.649,0,0,0-1.139-1.449c-.392-.447-.793-.855-1.186-1.224a10.028,10.028,0,0,0-1.148-.959,2.291,2.291,0,0,0-1.127-.417,1.636,1.636,0,0,0-.908.241.91.91,0,0,0-.377.43.8.8,0,0,0-.043.192.7.7,0,0,1-.007-.2.89.89,0,0,1,.3-.536,1.815,1.815,0,0,1,1.028-.444,2.829,2.829,0,0,1,1.472.316,9.294,9.294,0,0,1,1.388.884,14.418,14.418,0,0,1,1.394,1.176,13.321,13.321,0,0,1,1.323,1.469c.1.134.2.272.305.411l.147.212.2.3.136.211c-.025.076-.065.154-.1.231l-.143.33a3.153,3.153,0,0,0-.173.443,6.929,6.929,0,0,0-.248,3.506,7.725,7.725,0,0,0,1.124,2.75,8.189,8.189,0,0,0,1.408,1.611c.2.175.369.292.476.382l.17.134" transform="translate(-2.605 -1.824)" fill="#b54b57"/>
            <path id="Trazado_1026728" data-name="Trazado 1026728" d="M201.015,74.287s-5.241-3.458-8.318-2.933-3.8,3.435-2.537,3.909,10.855-.977,10.855-.977" transform="translate(-3.452 -1.298)" fill="#ebc68b"/>
            <path id="Trazado_1026729" data-name="Trazado 1026729" d="M157.459,81.781s6.682-6.812,11.423-8.081,6.749,1.409,5.025,2.667-16.448,5.415-16.448,5.415" transform="translate(-2.868 -1.336)" fill="#ebc68b"/>
            <path id="Trazado_1026730" data-name="Trazado 1026730" d="M171.2,101.083c-.086,1.488-3.342,2.509-7.273,2.282s-7.046-1.619-6.96-3.107,3.343-2.509,7.273-2.282,7.046,1.619,6.96,3.107" transform="translate(-2.859 -1.784)" fill="#ea7c6f"/>
            <path id="Trazado_1026731" data-name="Trazado 1026731" d="M209.34,90.59c.556.983-1.4,3.136-4.357,4.809s-5.813,2.232-6.369,1.248,1.4-3.136,4.358-4.808,5.813-2.233,6.368-1.249" transform="translate(-3.615 -1.641)" fill="#ea7c6f"/>
            <path id="Trazado_1026732" data-name="Trazado 1026732" d="M161.8,82.808c.531,1.237,2.2,2.16,3.366,2.674a2.785,2.785,0,0,1,2.037-1.147c1.977-.072,3.672,2.444,3.787,5.618s-1.4,5.8-3.371,5.876-3.672-2.444-3.786-5.618a8.62,8.62,0,0,1,.326-2.732c-1.556-1.271-2.358-4.671-2.358-4.671" transform="translate(-2.947 -1.508)" fill="#1d1e1e"/>
            <path id="Trazado_1026733" data-name="Trazado 1026733" d="M167.325,90.583a5.529,5.529,0,0,1-6.859-2.378,5.526,5.526,0,0,1,6.859,2.378" transform="translate(-2.922 -1.6)" fill="#fff"/>
            <path id="Trazado_1026734" data-name="Trazado 1026734" d="M199.66,81.937a4.691,4.691,0,0,1-2.254,2.071,1.983,1.983,0,0,0-1.505-.71c-1.408.05-2.483,1.923-2.4,4.183s1.287,4.052,2.694,4,2.483-1.922,2.4-4.182a6.105,6.105,0,0,0-.372-1.924c1.041-.983,1.437-3.438,1.437-3.438" transform="translate(-3.524 -1.492)" fill="#1d1e1e"/>
            <path id="Trazado_1026735" data-name="Trazado 1026735" d="M196.162,87.743a3.937,3.937,0,0,0,4.75-2.039,3.936,3.936,0,0,0-4.75,2.039" transform="translate(-3.572 -1.558)" fill="#fff"/>
            <path id="Trazado_1026736" data-name="Trazado 1026736" d="M184.593,98.329a5.878,5.878,0,0,0-2.6.016,8.377,8.377,0,0,0,5.542,3.058.958.958,0,0,0,.992-.368,9.849,9.849,0,0,0,2.113-3.223,1.9,1.9,0,0,0,.18-.759c-.027-.867-.54-.537-.973-.216a7.823,7.823,0,0,1-5.256,1.492" transform="translate(-3.314 -1.757)" fill="#ea7c6f"/>
            <path id="Trazado_1026737" data-name="Trazado 1026737" d="M187.648,100.613c.377-.578.835-1.1,1.227-1.676a13.133,13.133,0,0,0,1.254-2.231c-3.142-1.113-3.858-3.888-4.575-7.058a9.47,9.47,0,0,1,1.488-7.51,3.4,3.4,0,0,1,.781-.756c-.113.231-.166.478-.262.709a18.074,18.074,0,0,0-.714,1.812,11.687,11.687,0,0,0-.187,5.861,9.523,9.523,0,0,0,1.585,3.51,7.506,7.506,0,0,0,3.575,2.708c.012,0-1.243,2.6-1.375,2.817a9.836,9.836,0,0,1-1.182,1.59,3.431,3.431,0,0,1-1.6,1.188,1.105,1.105,0,0,1-.621-.016,2.3,2.3,0,0,0,.243-.334c.03-.052.059-.105.087-.159.083-.156.176-.307.272-.456" transform="translate(-3.375 -1.482)" fill="#dd5b67"/>
            <path id="Trazado_1026738" data-name="Trazado 1026738" d="M189.689,108.393l-21.695-.888s2.507,10.87,11.236,10.8,10.459-9.912,10.459-9.912" transform="translate(-3.059 -1.958)" fill="#fff"/>
            <path id="Trazado_1026739" data-name="Trazado 1026739" d="M172.649,57.559c-4.265,11.59-15.033,21.483-27.967,23.708l4.5,15.917s-7.306-2.227-9.764,3.7c0,0-6.114-27.228-5.8-31.372s17.32-26.643,27.966-27.828,28.993.4,32.691,4.861S206.16,74.593,206.16,74.593s-21.779-6.56-33.511-17.034" transform="translate(-2.433 -0.752)" fill="#ebc68b"/>
            <path id="Trazado_1026740" data-name="Trazado 1026740" d="M115.41,144.7a44.508,44.508,0,0,0,11.18-16.28c3.941-9.576,5.243-20.008,6.526-30.3.2-1.6.446-3.316,1.552-4.51s3.37-1.392,4.173.017c.107-6.312-.179-13.142-.072-19.472a43.136,43.136,0,0,0,33.684-28.335,138.668,138.668,0,0,0,39.016,22.861,107.327,107.327,0,0,0-4.6-11.5c-2.585-5.528-5.457-10.735-7.2-12.392-3.8-3.621-21.861-10.932-29.833-11.627-26.641-2.353-42.422,24.358-43.7,30.725-1.267,6.347.961,35.592.961,35.592l-3.673,14.194Z" transform="translate(-2.102 -0.601)" fill="#f5db9e"/>
            <path id="Trazado_1026741" data-name="Trazado 1026741" d="M123.564,113.673a54.248,54.248,0,0,0,7.061-26.73,2.74,2.74,0,0,1,3.049,2.942,68.323,68.323,0,0,0,1.213-22.451A78.026,78.026,0,0,0,172.12,37a57.049,57.049,0,0,0,34.9,20.186c-2.586-5.528-5.457-10.735-7.2-12.393-3.8-3.62-21.861-10.931-29.833-11.627-26.641-2.353-42.422,24.359-43.705,30.725-1.267,6.347.963,35.593.963,35.593Z" transform="translate(-2.25 -0.601)" fill="#f8e8ad"/>
            <path id="Trazado_1026742" data-name="Trazado 1026742" d="M181.4,170.867a4.663,4.663,0,1,1-4.663-4.663,4.664,4.664,0,0,1,4.663,4.663" transform="translate(-3.134 -3.027)" fill="#65afa0"/>
            <path id="Trazado_1026743" data-name="Trazado 1026743" d="M181.823,192.518a4.663,4.663,0,1,1-4.663-4.663,4.664,4.664,0,0,1,4.663,4.663" transform="translate(-3.141 -3.421)" fill="#65afa0"/>
            <path id="Trazado_1026744" data-name="Trazado 1026744" d="M183.62,212.316a4.663,4.663,0,1,1-4.663-4.663,4.664,4.664,0,0,1,4.663,4.663" transform="translate(-3.174 -3.782)" fill="#65afa0"/>
          </g>
        </g>
        <g id="Grupo_1172511" data-name="Grupo 1172511">
          <g id="Grupo_1172510" data-name="Grupo 1172510" clip-path="url(#clip-path-6)">
            <path id="Trazado_1026745" data-name="Trazado 1026745" d="M246.376,335.393c1.861-24.777,8.212-116.5,8.212-116.5l27.927-7.658,17.538,2.428,26.52,9.227s7.08,89.774,8.007,112.566c0,0-51.221,9.106-88.2-.066" transform="translate(-4.487 -3.847)" fill="#e9ae2a"/>
            <g id="Grupo_1172497" data-name="Grupo 1172497" transform="translate(247.325 222.704)" opacity="0.7" style="mix-blend-mode: multiply;isolation: isolate">
              <g id="Grupo_1172496" data-name="Grupo 1172496">
                <g id="Grupo_1172495" data-name="Grupo 1172495" clip-path="url(#clip-path-14)">
                  <path id="Trazado_1026746" data-name="Trazado 1026746" d="M255.216,226.835s7.219,7.463,7.395,10.666-10.7,28.693-10.7,28.693,7.125-26.795,6.879-29.347-3.577-10.012-3.577-10.012" transform="translate(-251.913 -226.835)" fill="#e9ae2a"/>
                </g>
              </g>
            </g>
            <path id="Trazado_1026747" data-name="Trazado 1026747" d="M300.781,212.588s6.61,1.657,8.875,3.57l-3.376,15.594-15.354-6.876-14.316,4.7s-1.651-15.806-1.069-16.983,7.5-2.063,7.5-2.063Z" transform="translate(-5.016 -3.834)" fill="#f4f0e3"/>
            <path id="Trazado_1026748" data-name="Trazado 1026748" d="M282.253,214.976s3.6,3.848,7.458,5.18,10.011-1.482,10.011-1.482l1.183-6.313,2.06-11-16.821-3.312L283.6,209.1Z" transform="translate(-5.14 -3.607)" fill="#f3a080"/>
            <path id="Trazado_1026749" data-name="Trazado 1026749" d="M283.629,209.1c2.87,1.6,6.792,3.636,9.008,4.159,2.074.485,5.566-.187,8.293-.9l2.061-11-16.822-3.312Z" transform="translate(-5.165 -3.607)" fill="#ea7c6f"/>
            <path id="Trazado_1026750" data-name="Trazado 1026750" d="M319.85,199.911c5.031.27,9.214-2.9,11.627-5.73a16.264,16.264,0,0,0,1.35-1.814c1.917-3.04,4.07-14.274.832-17.462-2.269-2.232-4.539.147-5.7,1.775v.006a12.008,12.008,0,0,0-.782,1.246Z" transform="translate(-5.825 -3.169)" fill="#ea7c6f"/>
            <path id="Trazado_1026751" data-name="Trazado 1026751" d="M318.939,199.864c5.031.27,10.108-2.837,12.522-5.664q.324-.439.577-.843c1.918-3.039,4.069-14.272.832-17.458-1.837-1.81-3.676-.593-4.923.8v.006a12.207,12.207,0,0,0-.783,1.247Z" transform="translate(-5.808 -3.187)" fill="#f3a080"/>
            <path id="Trazado_1026752" data-name="Trazado 1026752" d="M333.509,184.2a6.174,6.174,0,0,1-.589,2.711c-1.582,3.638-5.011,6.07-8.281,8.315a11.812,11.812,0,0,0,1.918-5.782c.047-.713.035-1.431.139-2.138.417-2.845,6.558-8.614,6.813-3.105" transform="translate(-5.912 -3.313)" fill="#ea7c6f"/>
            <path id="Trazado_1026753" data-name="Trazado 1026753" d="M323.008,196.081l.181-.091c.116-.064.3-.143.513-.278a7.356,7.356,0,0,0,1.658-1.4,8.3,8.3,0,0,0,1.624-2.832,7.941,7.941,0,0,0,.255-4.037,3.872,3.872,0,0,0-.131-.53l-.038-.13,0-.016v0l0,0h0s0,0,.011-.019l.064-.1.13-.2c.088-.132.175-.263.265-.391a17.562,17.562,0,0,1,1.1-1.428c.375-.439.755-.837,1.124-1.2a9.6,9.6,0,0,1,1.068-.927,1.845,1.845,0,0,1,1-.375,1.209,1.209,0,0,1,.761.287.867.867,0,0,1,.288.458.947.947,0,0,1,.022.2.622.622,0,0,0,.023-.2.945.945,0,0,0-.215-.562,1.409,1.409,0,0,0-.846-.5,2.175,2.175,0,0,0-1.293.255,8.351,8.351,0,0,0-1.268.84,13.764,13.764,0,0,0-2.561,2.578c-.1.133-.2.269-.3.407l-.145.21-.194.3-.135.209c.015.079.043.16.064.241l.1.344a3.3,3.3,0,0,1,.111.459,8.329,8.329,0,0,1-.082,3.593,9.09,9.09,0,0,1-1.2,2.759,8.46,8.46,0,0,1-1.348,1.581c-.183.171-.342.282-.442.369l-.157.129" transform="translate(-5.882 -3.311)" fill="#b54b57"/>
            <path id="Trazado_1026754" data-name="Trazado 1026754" d="M273.261,191.53c-4.885-1.231-7.941-5.5-9.409-8.916a16.3,16.3,0,0,1-.752-2.133c-.932-3.471.34-14.838,4.376-16.925,2.829-1.459,4.292,1.485,4.915,3.382v.006a12.09,12.09,0,0,1,.379,1.423Z" transform="translate(-4.786 -2.971)" fill="#ea7c6f"/>
            <path id="Trazado_1026755" data-name="Trazado 1026755" d="M274.142,191.753c-4.885-1.231-8.814-5.7-10.283-9.117q-.178-.514-.3-.977c-.932-3.471.34-14.838,4.376-16.922,2.29-1.185,3.687.522,4.465,2.222v.007a12.114,12.114,0,0,1,.379,1.422Z" transform="translate(-4.794 -2.993)" fill="#f3a080"/>
            <path id="Trazado_1026756" data-name="Trazado 1026756" d="M265.028,172.5a6.143,6.143,0,0,0-.241,2.764c.433,3.943,2.989,7.281,5.448,10.393a11.816,11.816,0,0,1-.121-6.09c.166-.7.39-1.377.5-2.083.444-2.842-3.713-10.169-5.586-4.984" transform="translate(-4.821 -3.109)" fill="#ea7c6f"/>
            <path id="Trazado_1026757" data-name="Trazado 1026757" d="M271.532,186.953l-.145-.139c-.091-.1-.243-.226-.408-.417a7.388,7.388,0,0,1-1.17-1.827,8.315,8.315,0,0,1-.713-3.185,7.948,7.948,0,0,1,.952-3.933,3.87,3.87,0,0,1,.282-.466l.075-.114c.019-.027.008-.009.01-.013l0,0,0,0h0s0,.007,0-.021l-.03-.117-.065-.229c-.045-.152-.088-.3-.136-.453a17.882,17.882,0,0,0-.629-1.691c-.228-.529-.472-1.022-.719-1.477a9.637,9.637,0,0,0-.746-1.2,1.845,1.845,0,0,0-.848-.656,1.218,1.218,0,0,0-.812.048.828.828,0,0,0-.489.535.6.6,0,0,1,.039-.2.942.942,0,0,1,.371-.474,1.408,1.408,0,0,1,.956-.225,2.159,2.159,0,0,1,1.159.626,8.307,8.307,0,0,1,.962,1.177,13.711,13.711,0,0,1,1.683,3.222c.058.156.111.315.164.476l.076.243.1.343.067.24c-.036.072-.087.139-.132.211l-.193.3a3.286,3.286,0,0,0-.242.406,8.352,8.352,0,0,0-.986,3.455,9.076,9.076,0,0,0,.329,2.991,8.443,8.443,0,0,0,.819,1.909c.124.218.243.372.313.484l.112.169" transform="translate(-4.843 -3.108)" fill="#b54b57"/>
            <path id="Trazado_1026758" data-name="Trazado 1026758" d="M275.765,149.56l27.522,2.479.1.016,26.972,6.014S327.105,181.96,326.2,184.8s-6.515,16.634-11.347,20.987c-.955.861-3.031,1.482-5.508,1.926a44.673,44.673,0,0,1-28.383-4.351c-2.358-1.22-4.273-2.489-4.938-3.627-3.279-5.617-4.421-20.467-4.423-23.445s4.166-26.726,4.166-26.726" transform="translate(-4.946 -2.724)" fill="#f8bf92"/>
            <path id="Trazado_1026759" data-name="Trazado 1026759" d="M275.788,149.56l27.524,2.479.1.016,26.974,6.014s-4.07,22.321-4.935,25-6.225,15.708-10.863,19.809c-.917.812-2.913,1.392-5.295,1.806a43.792,43.792,0,0,1-27.327-4.19c-2.273-1.16-4.119-2.365-4.763-3.442-3.171-5.319-4.31-19.361-4.32-22.176s2.905-25.315,2.905-25.315" transform="translate(-4.97 -2.724)" fill="#f3a080"/>
            <path id="Trazado_1026760" data-name="Trazado 1026760" d="M323.652,173.157s-8.678-6.536-11.7-5.693-3.742,2.806-2.408,3.737,14.11,1.957,14.11,1.957" transform="translate(-5.625 -3.048)" fill="#444"/>
            <path id="Trazado_1026761" data-name="Trazado 1026761" d="M280.006,166.066s9.067-5.986,12.033-4.957,3.56,3.033,2.172,3.88-14.2,1.077-14.2,1.077" transform="translate(-5.099 -2.932)" fill="#444"/>
            <path id="Trazado_1026762" data-name="Trazado 1026762" d="M270.147,178.994c-.521,1.535,1.907,3.747,5.421,4.939s6.786.915,7.307-.62-1.907-3.747-5.421-4.939-6.786-.915-7.307.62" transform="translate(-4.918 -3.235)" fill="#ea7c6f"/>
            <path id="Trazado_1026763" data-name="Trazado 1026763" d="M326.392,186.014c.29,1.594-2.436,3.425-6.087,4.09s-6.848-.091-7.138-1.686,2.436-3.426,6.087-4.09,6.848.091,7.138,1.686" transform="translate(-5.703 -3.352)" fill="#ea7c6f"/>
            <path id="Trazado_1026764" data-name="Trazado 1026764" d="M295.179,185.366a6.885,6.885,0,0,0,7.406-.009,3.927,3.927,0,0,1-3.657,3.407,4.013,4.013,0,0,1-3.749-3.4" transform="translate(-5.376 -3.376)" fill="#ea7c6f"/>
            <path id="Trazado_1026765" data-name="Trazado 1026765" d="M299.484,188.054a5.053,5.053,0,0,0,1.567-.727,2.255,2.255,0,0,0,1.031-1.453,1.323,1.323,0,0,0-.752-1.349,2.452,2.452,0,0,0-1.118-.319,2.487,2.487,0,0,0-.439.007c-.024-.181-.036-.377-.055-.6a18.226,18.226,0,0,1,.151-3.614,17.751,17.751,0,0,1,1.489-5.031,33.9,33.9,0,0,1-.348,5.19c-.173,1.272-.416,2.418-.626,3.315a2.588,2.588,0,0,1,1.358.17,2.512,2.512,0,0,1,1.112.833,2.089,2.089,0,0,1,.367,1.543,2.91,2.91,0,0,1-1.666,2.155,4.309,4.309,0,0,1-2.009.45,3.908,3.908,0,0,1-1.328-.233c-.216-.082-.358-.152-.422-.182a4.892,4.892,0,0,0,1.688-.155" transform="translate(-5.423 -3.186)" fill="#dd5b67"/>
            <path id="Trazado_1026766" data-name="Trazado 1026766" d="M286.087,175c-.175,2.326.858,4.3,2.306,4.407s2.764-1.689,2.938-4.015-.859-4.3-2.307-4.407-2.764,1.689-2.937,4.015" transform="translate(-5.21 -3.114)" fill="#1d1e1e"/>
            <path id="Trazado_1026767" data-name="Trazado 1026767" d="M283.715,172.486a5.41,5.41,0,0,0,5.612,2.776,5.412,5.412,0,0,0-5.612-2.776" transform="translate(-5.167 -3.14)" fill="#fff"/>
            <path id="Trazado_1026768" data-name="Trazado 1026768" d="M315.848,179.675c-.374,1.942-1.657,3.327-2.867,3.095s-1.886-2-1.512-3.938,1.657-3.327,2.867-3.095,1.886,2,1.512,3.938" transform="translate(-5.67 -3.2)" fill="#1d1e1e"/>
            <path id="Trazado_1026769" data-name="Trazado 1026769" d="M318.089,178.375a4.925,4.925,0,0,1-4.917.967,4.925,4.925,0,0,1,4.917-.967" transform="translate(-5.703 -3.243)" fill="#fff"/>
            <path id="Trazado_1026770" data-name="Trazado 1026770" d="M289.624,188.536A13.729,13.729,0,0,0,295.947,193a10.151,10.151,0,0,0,8.031-.539,3.25,3.25,0,0,1-2.567,2.236,10.636,10.636,0,0,1-7.513-.95,8.984,8.984,0,0,1-4.274-5.212" transform="translate(-5.274 -3.433)" fill="#dd5b67"/>
            <path id="Trazado_1026771" data-name="Trazado 1026771" d="M292.52,194.6a6.6,6.6,0,0,0,5.774,2.057,2.806,2.806,0,0,1-3.292.72,5.244,5.244,0,0,1-2.482-2.777" transform="translate(-5.327 -3.544)" fill="#ea7c6f"/>
            <path id="Trazado_1026772" data-name="Trazado 1026772" d="M266.309,138.4a13.618,13.618,0,0,0,4.5,8.017,6.844,6.844,0,0,0-.9,4.818,7.453,7.453,0,0,0,.932,2.591l-1.753,8.554,3.175,7.2,3.581-4.5,1.648-8.167a6.947,6.947,0,0,0,4.4-2.26c1.379,2.334,4.436,3.235,7.11,2.738a6.538,6.538,0,0,0,2.1-.812,6.875,6.875,0,0,0,9.552-1.29,12.237,12.237,0,0,0,8.244,6.442,12.1,12.1,0,0,0,10.138-2.354,25.279,25.279,0,0,0,5.817,6.124.314.314,0,0,1,.081.054l2.182,13.518,4.469-5.882,1.08-6.4a2.164,2.164,0,0,0,.228-.08,5.734,5.734,0,0,0,2.641-2.394,4.693,4.693,0,0,0,.284-4.561c2.2.6,4.938-.678,5.522-2.884,1.13-4.3-1.11-5.952-2.747-7.07a8.783,8.783,0,0,0-3.057-16.3,10.579,10.579,0,0,0-6.637-9.07c-3.646-1.381-7.107.632-10.045,2.8-2.433-2.255-5.431-5.509-8.958-5.971a16.608,16.608,0,0,0-13.965,2.352,13.359,13.359,0,0,0-1.7,1.419,10.872,10.872,0,0,0-5.671-2.267,11.172,11.172,0,0,0-10.788,6.3c-2.807-1.39-6.372-1.4-8.654.744a9.948,9.948,0,0,0-2.8,8.581" transform="translate(-4.848 -2.197)" fill="#1d1e1e"/>
            <path id="Trazado_1026773" data-name="Trazado 1026773" d="M266.21,137.17a11.421,11.421,0,0,0,.1,1.23,13.615,13.615,0,0,0,4.5,8.018,6.843,6.843,0,0,0-.9,4.818l.118.015c2.9.338,6.156-2.334,5.351-5.147.56,1.454,2.853,1.374,3.886.217a5.057,5.057,0,0,0,1.067-2.666,4.094,4.094,0,0,0,4.526,3.041,4.761,4.761,0,0,0,3.448-4.647,9.576,9.576,0,0,0,18.625-.077,12.607,12.607,0,0,0,21.2,7.535,27.692,27.692,0,0,0,.5,8.112,9.214,9.214,0,0,0,4.826,6.223,5.818,5.818,0,0,0,2.069.478,4.7,4.7,0,0,0,.284-4.562c2.2.6,4.938-.677,5.522-2.884,1.13-4.3-1.11-5.952-2.747-7.069a9.045,9.045,0,0,0,4.344-6.834,7.98,7.98,0,0,0-.088-2.393,9.017,9.017,0,0,0-7.313-7.071,10.581,10.581,0,0,0-6.637-9.07c-3.646-1.381-7.107.633-10.045,2.8-2.433-2.255-5.431-5.508-8.958-5.971a16.615,16.615,0,0,0-13.965,2.352,13.359,13.359,0,0,0-1.7,1.419,10.879,10.879,0,0,0-5.671-2.266,11.17,11.17,0,0,0-10.788,6.3c-2.807-1.391-6.372-1.4-8.654.744a9.773,9.773,0,0,0-2.9,7.35" transform="translate(-4.848 -2.197)" fill="#444"/>
            <path id="Trazado_1026774" data-name="Trazado 1026774" d="M266.21,137.17a9.6,9.6,0,0,1,2.359-2.235c3.453-2.287,8.789-1.684,11,1.814a8.547,8.547,0,0,1,16.075-3.434,11.261,11.261,0,0,1,22.1,1.108,6.762,6.762,0,1,1,11.9,6.314,13.706,13.706,0,0,1,9.59-.328,9.429,9.429,0,0,1,3.687,2.561,7.98,7.98,0,0,0-.088-2.393,9.017,9.017,0,0,0-7.313-7.071,10.581,10.581,0,0,0-6.637-9.07c-3.646-1.381-7.107.633-10.045,2.8-2.433-2.255-5.431-5.508-8.958-5.971a16.615,16.615,0,0,0-13.965,2.352,13.359,13.359,0,0,0-1.7,1.419,10.879,10.879,0,0,0-5.671-2.266,11.17,11.17,0,0,0-10.788,6.3c-2.807-1.391-6.372-1.4-8.654.744a9.773,9.773,0,0,0-2.9,7.35" transform="translate(-4.848 -2.197)" fill="#595959"/>
            <rect id="Rectángulo_414633" data-name="Rectángulo 414633" width="428.516" height="115.015" transform="translate(2.777 287.908)" fill="#1c4880"/>
            <path id="Trazado_1026775" data-name="Trazado 1026775" d="M218.023,319.558,169.4,318.57l-18.629,42.812,77.911-1.638Z" transform="translate(-2.746 -5.802)" fill="#e6e1d1"/>
            <path id="Trazado_1026776" data-name="Trazado 1026776" d="M202.353,309.15l-48.625-.988L135.1,350.974l77.91-1.638Z" transform="translate(-2.46 -5.612)" fill="#f4f0e3"/>
            <path id="Trazado_1026777" data-name="Trazado 1026777" d="M334.047,300.876h-3.635l-43.372,4.331-43.371-4.331h-3.635l-23.744,45.192h141.5Z" transform="translate(-3.939 -5.479)" fill="#db4770"/>
            <path id="Trazado_1026778" data-name="Trazado 1026778" d="M287.174,342.7V300.793s-8.507-10.055-43.372,0L223.544,342.7s50.878-12.295,63.63,0" transform="translate(-4.071 -5.396)" fill="#f4f0e3"/>
            <path id="Trazado_1026779" data-name="Trazado 1026779" d="M288.354,342.7V300.793s8.507-10.055,43.371,0L351.984,342.7s-50.878-12.295-63.63,0" transform="translate(-5.251 -5.396)" fill="#f4f0e3"/>
            <path id="Trazado_1026780" data-name="Trazado 1026780" d="M282.89,282.693s10.117-.584,12.308,3.357,1.989,11,.709,11.707-13.377-7.721-13.017-15.064" transform="translate(-5.152 -5.148)" fill="#f3a080"/>
            <path id="Trazado_1026781" data-name="Trazado 1026781" d="M245.659,269.523l-7.439,13.872-6.193,11.564-12.946-1.873-7.553-1.1.834-2.57c.012-.012.012-.034.024-.058l10.261-31.377L228,260.667Z" transform="translate(-3.852 -4.698)" fill="#f3a080"/>
            <path id="Trazado_1026782" data-name="Trazado 1026782" d="M282.852,252.655,296.7,299.607l-.451,5.66a.037.037,0,0,1,0,.026l-.106,1.377a.46.46,0,0,1-.34.422.487.487,0,0,1-.526-.167l-.853-1.118-3.437-4.5-.014-.008-13.8-46.787a3.1,3.1,0,0,1,1.75-3.8,1.671,1.671,0,0,1,.227-.079,2.984,2.984,0,0,1,3.707,2.027" transform="translate(-5.045 -4.562)" fill="#254262"/>
            <path id="Trazado_1026783" data-name="Trazado 1026783" d="M282.851,252.655l1.293,4.384-5.732,1.691-1.293-4.384a2.988,2.988,0,1,1,5.732-1.691" transform="translate(-5.044 -4.562)" fill="#f4f0e3"/>
            <rect id="Rectángulo_414634" data-name="Rectángulo 414634" width="5.976" height="1.246" transform="translate(272.835 252.359) rotate(-16.434)" fill="#254262"/>
            <path id="Trazado_1026784" data-name="Trazado 1026784" d="M296.96,300.518l-.451,5.661a.035.035,0,0,1,0,.025,1.976,1.976,0,0,1-1.825.515l-3.437-4.5a5.26,5.26,0,0,0,5.718-1.7" transform="translate(-5.304 -5.473)" fill="#f9f1d7"/>
            <g id="Grupo_1172500" data-name="Grupo 1172500" transform="translate(271.99 246.066)" opacity="0.2" style="mix-blend-mode: multiply;isolation: isolate">
              <g id="Grupo_1172499" data-name="Grupo 1172499">
                <g id="Grupo_1172498" data-name="Grupo 1172498" clip-path="url(#clip-path-15)">
                  <path id="Trazado_1026785" data-name="Trazado 1026785" d="M279.145,250.63,295.8,307.095a.486.486,0,0,1-.525-.167l-.854-1.117-3.436-4.5-.015-.008-13.8-46.787a3.1,3.1,0,0,1,1.75-3.8,1.719,1.719,0,0,1,.227-.079" transform="translate(-277.035 -250.63)" fill="#254262"/>
                </g>
              </g>
            </g>
            <path id="Trazado_1026786" data-name="Trazado 1026786" d="M291.528,299.7a.037.037,0,0,1-.012.023c-.011.024-.023.081-.057.16v.012c-.057.16-.16.422-.274.754l-.526,1.337c-.205.513-.434,1.074-.685,1.668-.114.274-.229.549-.354.823a38.053,38.053,0,0,1-1.851,3.737c-.057.1-.126.217-.183.32a12.653,12.653,0,0,1-.983,1.417,2.77,2.77,0,0,1-1.029.834l-6.49-4.011-.012-.011s-9.964,3.451-11.541,3.176a8.6,8.6,0,0,1-2.262-1.645v-.011c-.8-.7-1.726-1.589-2.7-2.526-.343-.331-.983-.959-1.737-1.713-1.657-1.645-3.862-3.84-4.582-4.571l2.079-6.6,4.559-2.5,3.154-1.737c.891-.537,2.079-1.211,3.439-1.931v-.011c.674-.343,1.372-.709,2.1-1.063a32.3,32.3,0,0,1,8.021-2.88,7.765,7.765,0,0,1,2.8-.057c5.542,1.086,9.279,14.706,9.119,17.014" transform="translate(-4.667 -5.146)" fill="#f3a080"/>
            <path id="Trazado_1026787" data-name="Trazado 1026787" d="M288.17,308.573c-.057.11-.125.219-.184.324-.246-.2-.566-.469-.954-.788-.883-.722-2.091-1.677-3.42-2.685a25.5,25.5,0,0,0-3.618-2.325c-.257-.125-.492-.238-.7-.34-.217-.081-.4-.156-.557-.213l-.488-.2s.191-.017.545-.029c.174-.009.394-.015.644-.015.247.024.525.052.842.093a10.03,10.03,0,0,1,4.384,1.861,11.945,11.945,0,0,1,3.006,3.373c.214.364.376.682.5.943" transform="translate(-5.067 -5.505)" fill="#b54b57"/>
            <path id="Trazado_1026788" data-name="Trazado 1026788" d="M290.427,303.953c-.113.27-.234.542-.352.819a1.943,1.943,0,0,1-.158-.124c-.883-.722-2.092-1.677-3.418-2.681a25.438,25.438,0,0,0-3.618-2.329l-.694-.337c-.219-.085-.406-.155-.559-.217l-.486-.194s.186-.016.538-.032c.175,0,.393-.015.646-.011.246.02.529.051.84.09a10,10,0,0,1,4.386,1.864,11.815,11.815,0,0,1,2.875,3.152" transform="translate(-5.12 -5.442)" fill="#b54b57"/>
            <path id="Trazado_1026789" data-name="Trazado 1026789" d="M291.706,300.858q-.1-.309-.24-.651a10.93,10.93,0,0,0-.743-1.589c-.137-.241-.286-.492-.446-.731a10.094,10.094,0,0,0-3.52-3.21c-.057-.024-.114-.058-.159-.081-.229-.1-.435-.205-.606-.274-.241-.091-.446-.149-.618-.206-.343-.1-.514-.148-.514-.148s.137.126.389.343c.126.114.274.241.458.389l.548.548a26.282,26.282,0,0,1,2.652,3.394l.343.514.011.011c.743,1.143,1.417,2.194,1.92,3.029Z" transform="translate(-5.188 -5.353)" fill="#b54b57"/>
            <path id="Trazado_1026790" data-name="Trazado 1026790" d="M264.45,308.278v.012s-46.529-3.977-48.369-5.1a9.624,9.624,0,0,1-4.559-10.764,14.861,14.861,0,0,1,.835-2.57c.011-.012.011-.034.023-.058a22.83,22.83,0,0,1,2.673-4.513c1.234-1.656,3.6-2.537,6.628-2.88,4.525-.48,10.535.241,16.534,1.428a200.037,200.037,0,0,1,23.858,6.525l1.874,14.111Z" transform="translate(-3.847 -5.14)" fill="#f3a080"/>
            <path id="Trazado_1026791" data-name="Trazado 1026791" d="M278.253,306.316s-9.964,3.451-11.541,3.176a8.573,8.573,0,0,1-2.262-1.645s-46.53-3.976-48.369-5.1a9.624,9.624,0,0,1-4.559-10.764,14.853,14.853,0,0,1,.834-2.57c.012-.012.012-.034.024-.058l10.261-31.377,5.36,2.685c-1.212,3.839-4.1,13.14-6.32,21.3-1.188,4.377-2.183,8.422-2.6,11.118a7.432,7.432,0,0,0-.1,3.155c1.143,2.616,30.292,6.147,41.045,7.358,2.445.274,3.931.434,3.931.434l4.045,3.222Z" transform="translate(-3.847 -4.698)" fill="#ea7c6f"/>
            <path id="Trazado_1026792" data-name="Trazado 1026792" d="M254.31,218.923l-2.731,54.219-23.652-11.758-6.868-3.417s14.386-29.892,18.385-32.611c2.229-1.52,8.067-3.862,11.724-5.268,1.852-.7,3.143-1.165,3.143-1.165" transform="translate(-4.026 -3.987)" fill="#e9ae2a"/>
            <g id="Grupo_1172503" data-name="Grupo 1172503" transform="translate(217.033 216.102)" style="mix-blend-mode: soft-light;isolation: isolate">
              <g id="Grupo_1172502" data-name="Grupo 1172502">
                <g id="Grupo_1172501" data-name="Grupo 1172501" clip-path="url(#clip-path-16)">
                  <path id="Trazado_1026793" data-name="Trazado 1026793" d="M251.169,220.11c-3.154,2.754-7.782,6.981-9.472,9.518-2.229,3.348-10.981,24.865-13.77,31.778l-6.868-3.417s14.386-29.893,18.386-32.612c2.228-1.519,8.067-3.861,11.724-5.267" transform="translate(-221.059 -220.11)" fill="#f9f1d7"/>
                </g>
              </g>
            </g>
            <path id="Trazado_1026794" data-name="Trazado 1026794" d="M374.524,312.092l-5.873.845L355.076,314.9l-5.873-10.97-12.421-23.2,19.562-7.656,5.668-2.217,11.929,39.319c.012.011.012.024.024.046Z" transform="translate(-6.133 -4.933)" fill="#f3a080"/>
            <path id="Trazado_1026795" data-name="Trazado 1026795" d="M332.1,319.346c-.594.606-2.263,2.274-3.714,3.725-.983.971-1.862,1.84-2.274,2.239-.914.9-1.8,1.726-2.56,2.4a7.557,7.557,0,0,1-2.148,1.566c-1.5.263-10.946-3.017-10.946-3.017l-6.16,3.817a2.4,2.4,0,0,1-.937-.755l-.034-.033a10.99,10.99,0,0,1-.937-1.349,2.659,2.659,0,0,1-.172-.3,36.971,36.971,0,0,1-1.759-3.554c-.115-.263-.229-.514-.332-.778-.868-2.033-1.474-3.747-1.474-3.747l6.661-6.491,6.148-1.737-2.194-3.622s-14.958,2.754-15.106.56,7.873-3.816,13.14-4.833a7.184,7.184,0,0,1,2.652.046,30.59,30.59,0,0,1,7.6,2.73c.7.343,1.36.674,2,1.017,1.279.674,2.422,1.325,3.267,1.828l2.994,1.645,4.319,2.377Z" transform="translate(-5.357 -5.524)" fill="#f3a080"/>
            <path id="Trazado_1026796" data-name="Trazado 1026796" d="M302.362,327.977c.054.1.119.207.174.307.235-.19.538-.445.905-.748.837-.683,1.983-1.59,3.243-2.546a24.247,24.247,0,0,1,3.43-2.205l.664-.322c.205-.077.381-.148.527-.2l.463-.188s-.182-.016-.516-.028c-.165-.008-.373-.014-.612-.014-.234.022-.5.049-.8.089a9.483,9.483,0,0,0-4.156,1.764,11.332,11.332,0,0,0-2.852,3.2c-.2.345-.355.647-.471.893" transform="translate(-5.506 -5.865)" fill="#b54b57"/>
            <path id="Trazado_1026797" data-name="Trazado 1026797" d="M300.233,323.6c.106.256.221.514.335.777a1.88,1.88,0,0,0,.149-.118c.836-.683,1.983-1.59,3.241-2.542a24.018,24.018,0,0,1,3.431-2.209c.245-.119.463-.227.659-.319s.385-.147.528-.205l.461-.185s-.177-.016-.511-.031c-.166,0-.373-.014-.613-.01s-.5.048-.8.084a9.487,9.487,0,0,0-4.158,1.769,11.2,11.2,0,0,0-2.726,2.989" transform="translate(-5.468 -5.805)" fill="#b54b57"/>
            <path id="Trazado_1026798" data-name="Trazado 1026798" d="M369.962,322.883c-1.737,1.063-45.866,4.822-45.866,4.822l.548-4.113,1.714-12.89a189.394,189.394,0,0,1,22.614-6.181c6-1.189,12.009-1.885,16.362-1.257,2.549.365,4.537,1.188,5.611,2.639a20.736,20.736,0,0,1,2.765,4.868c.012.012.012.024.024.046a14.91,14.91,0,0,1,.56,1.862,9.164,9.164,0,0,1-4.331,10.2" transform="translate(-5.902 -5.518)" fill="#f3a080"/>
            <path id="Trazado_1026799" data-name="Trazado 1026799" d="M369.588,322.3c-1.737,1.063-45.866,4.822-45.866,4.822a7.571,7.571,0,0,1-2.148,1.566c-1.5.263-10.947-3.017-10.947-3.017l-6.159,3.817a2.408,2.408,0,0,1-.938-.754c2.022-1.349,6.148-4.045,7.21-4.5,1.429-.617,6,1.4,7.279,1.4s4.217-1.005,4.639-2.136c.058-.16.652-.32,1.611-.491,1.041-.172,2.537-.354,4.286-.526,7.747-.754,20.4-1.382,20.4-1.382s20.419-3.325,19.094-8.159c-.366-1.36-1.566-5.3-3.086-10.261-3.1-10.021-7.529-24.19-9.221-29.6l5.668-2.217,11.929,39.319c.012.012.012.024.024.046a14.91,14.91,0,0,1,.56,1.862,9.164,9.164,0,0,1-4.331,10.2" transform="translate(-5.528 -4.933)" fill="#ea7c6f"/>
            <path id="Trazado_1026800" data-name="Trazado 1026800" d="M364.689,271.249l-6.263,2.388-29.607,11.324-1.3-62.058s2.822,1.325,6.25,2.983c3.713,1.783,8.113,3.93,10.364,5.176,4.342,2.377,20.558,40.188,20.558,40.188" transform="translate(-5.964 -4.059)" fill="#e9ae2a"/>
            <g id="Grupo_1172506" data-name="Grupo 1172506" transform="translate(316.668 231.546)" opacity="0.7" style="mix-blend-mode: multiply;isolation: isolate">
              <g id="Grupo_1172505" data-name="Grupo 1172505">
                <g id="Grupo_1172504" data-name="Grupo 1172504" clip-path="url(#clip-path-17)">
                  <path id="Trazado_1026801" data-name="Trazado 1026801" d="M335.508,235.841s-6.774,9.633-8.379,12.609S329.938,281,329.938,281s-8.1-29.513-7.346-33.461,12.916-11.694,12.916-11.694" transform="translate(-322.542 -235.841)" fill="#e9ae2a"/>
                </g>
              </g>
            </g>
            <g id="Grupo_1172509" data-name="Grupo 1172509" transform="translate(327.803 221.826)" style="mix-blend-mode: soft-light;isolation: isolate">
              <g id="Grupo_1172508" data-name="Grupo 1172508">
                <g id="Grupo_1172507" data-name="Grupo 1172507" clip-path="url(#clip-path-18)">
                  <path id="Trazado_1026802" data-name="Trazado 1026802" d="M364.8,271.3l-6.263,2.388c-2.959-6.455-12.763-34.771-14.181-38.028-.994-2.274-6.536-6.741-10.478-9.724,3.713,1.783,8.113,3.93,10.364,5.176C348.589,233.494,364.8,271.3,364.8,271.3" transform="translate(-333.883 -225.941)" fill="#f9f1d7"/>
                </g>
              </g>
            </g>
          </g>
        </g>
        <g id="Grupo_1172516" data-name="Grupo 1172516">
          <g id="Grupo_1172515" data-name="Grupo 1172515" clip-path="url(#clip-path-2)">
            <path id="Trazado_1026804" data-name="Trazado 1026804" d="M337.36,47.482s1.689-9.5,2.861-9.947,1.077,8.706,3.08,9.947c2.709,1.68,6.579.666,5.8,2.141-.476.907-5.195.551-6.452,3.352s-.893,8.4-2.029,8.745-1.42-9.825-2.754-9.755-6.024-.474-6.979-1.047,6.88-1.911,6.47-3.436" transform="translate(-6.024 -0.683)" fill="#e9ae2a"/>
            <path id="Trazado_1026805" data-name="Trazado 1026805" d="M394.3,327.908s1.354-7.615,2.293-7.973.863,6.978,2.468,7.973c2.172,1.346,5.273.533,4.653,1.716-.383.728-4.165.442-5.173,2.686s-.716,6.73-1.627,7.01-1.137-7.875-2.207-7.819a19.3,19.3,0,0,1-5.593-.838c-.764-.459,5.515-1.532,5.186-2.755" transform="translate(-7.085 -5.826)" fill="#e9ae2a"/>
            <path id="Trazado_1026806" data-name="Trazado 1026806" d="M30.124,312.97s2.256-12.691,3.822-13.289,1.439,11.63,4.114,13.289c3.619,2.243,8.788.889,7.753,2.861-.636,1.212-6.94.735-8.62,4.476S36,331.524,34.482,331.989s-1.9-13.125-3.679-13.03-8.048-.634-9.322-1.4,9.192-2.553,8.643-4.591" transform="translate(-0.389 -5.457)" fill="#e9ae2a"/>
            <path id="Trazado_1026807" data-name="Trazado 1026807" d="M92.927,160.623q-.119.705-.37,1.83a11.475,11.475,0,0,1-.706,2.156,5.3,5.3,0,0,1-1.175,1.714,1.969,1.969,0,0,1-1.778.506,2.782,2.782,0,0,1-2.072-1.317,3.435,3.435,0,0,1-.348-2.475,9.794,9.794,0,0,1-3.129,1.243,8.849,8.849,0,0,1-3.336.081,4.54,4.54,0,0,1-2.061-.911,6.812,6.812,0,0,1-1.563-1.714,7.131,7.131,0,0,1-.926-2.149,5.4,5.4,0,0,1-.109-2.214,5.1,5.1,0,0,1,1.711-3.094,10.784,10.784,0,0,1,3.245-1.928,16.886,16.886,0,0,1,3.851-.981,21.2,21.2,0,0,1,3.519-.21,2.874,2.874,0,0,1,.079-.35,2.99,2.99,0,0,0,.08-.349,2.868,2.868,0,0,0-.335-2.07,2.426,2.426,0,0,0-1.753-1.062,3.994,3.994,0,0,0-1.741.048,11.246,11.246,0,0,0-1.456.519q-.7.306-1.379.533a3.007,3.007,0,0,1-1.465.094,2.144,2.144,0,0,1-1.376-.8,1.839,1.839,0,0,1-.368-1.512,3.965,3.965,0,0,1,1.16-2.22,6.847,6.847,0,0,1,2.22-1.458,10.52,10.52,0,0,1,2.7-.712,8.737,8.737,0,0,1,2.557.008,9.186,9.186,0,0,1,2.071.613,7.908,7.908,0,0,1,3.349,2.7,6.205,6.205,0,0,1,.933,1.99,17.085,17.085,0,0,1,.616,3.265,28.168,28.168,0,0,1,.1,3.44q-.053,1.744-.262,3.459t-.481,3.321m-6.053-2.311.332-2.682a.6.6,0,0,1-.152-.046.689.689,0,0,0-.154-.045,4.26,4.26,0,0,0-1.316.038,6.72,6.72,0,0,0-1.587.458,5.786,5.786,0,0,0-1.363.8,1.72,1.72,0,0,0-.681,1.053.761.761,0,0,0,.265.809,2,2,0,0,0,.868.349A4.473,4.473,0,0,0,85,158.9q1.053-.284,1.871-.59" transform="translate(-1.371 -2.581)" fill="#40658d"/>
            <path id="Trazado_1026808" data-name="Trazado 1026808" d="M226.489,33.513a3.748,3.748,0,0,1,.8,2.046,7.79,7.79,0,0,1-.159,2.487,9.418,9.418,0,0,1-.875,2.381,5.559,5.559,0,0,1-1.345,1.731,5.4,5.4,0,0,1-2.827,1.237,7.491,7.491,0,0,1-3.035-.258,9.935,9.935,0,0,1-2.836-1.355,10.769,10.769,0,0,1-2.275-2.059,14.124,14.124,0,0,1-1.79-2.883,12.027,12.027,0,0,1-1.056-3.4,8.417,8.417,0,0,1,.158-3.379,5.332,5.332,0,0,1,1.88-2.839,5.865,5.865,0,0,1,1.811-1.015,5.061,5.061,0,0,1,3.855.2,4.638,4.638,0,0,1,1.636,1.3,6.237,6.237,0,0,1,1.266,2.54,7.334,7.334,0,0,1,.125,2.782,8.564,8.564,0,0,1-.883,2.693,7.819,7.819,0,0,1-1.734,2.251,1.781,1.781,0,0,0,1.408.554,2.57,2.57,0,0,0,1.39-.609,2.613,2.613,0,0,0,.75-1.021,10.907,10.907,0,0,0,.452-1.284q.19-.661.416-1.254a2.218,2.218,0,0,1,.665-.95,1.753,1.753,0,0,1,1.135-.4,1.312,1.312,0,0,1,1.065.509m-8.819-2.734a1.89,1.89,0,0,0-.708-.517.727.727,0,0,0-.814.1,1.856,1.856,0,0,0-.672,1.017,3.03,3.03,0,0,0-.03,1.2,5.086,5.086,0,0,0,.37,1.221,5.63,5.63,0,0,0,.578,1.029q.281-.35.656-.861a6.1,6.1,0,0,0,.631-1.065,3.29,3.29,0,0,0,.3-1.12,1.358,1.358,0,0,0-.313-1" transform="translate(-3.842 -0.472)" fill="#40658d"/>
            <path id="Trazado_1026809" data-name="Trazado 1026809" d="M238.1,148.342a1.706,1.706,0,0,1-.263.8,8.233,8.233,0,0,0-.405.8,29.978,29.978,0,0,0-1.314,3.761,14.629,14.629,0,0,0-.55,3.954,15.276,15.276,0,0,0,.562,4.036,24.014,24.014,0,0,0,1.4,3.845,7.379,7.379,0,0,0,.37.658,1.256,1.256,0,0,1,.2.68.65.65,0,0,1-.227.525.842.842,0,0,1-.562.191,1.456,1.456,0,0,1-.8-.239,3.235,3.235,0,0,1-.68-.6,5.88,5.88,0,0,1-.562-.764q-.25-.406-.417-.74a15.79,15.79,0,0,1-1.338-3.679,17.2,17.2,0,0,1-.454-3.893,11.86,11.86,0,0,1,.167-1.959,17.6,17.6,0,0,1,.454-1.994q.287-.991.657-1.923t.8-1.791q.143-.287.358-.693a5.355,5.355,0,0,1,.5-.776,3.624,3.624,0,0,1,.621-.633,1.137,1.137,0,0,1,.716-.262.807.807,0,0,1,.538.19.626.626,0,0,1,.227.5" transform="translate(-4.244 -2.689)" fill="#40658d"/>
            <path id="Trazado_1026810" data-name="Trazado 1026810" d="M249.7,159.967a.481.481,0,0,1-.287.442,2.489,2.489,0,0,1-.669.239,4.867,4.867,0,0,1-.764.108c-.255.016-.439.024-.55.024-.318.016-.632.028-.943.036s-.617.012-.92.012c-.015.112-.027.283-.035.513s-.024.494-.048.788-.055.6-.1.907a4.939,4.939,0,0,1-.18.848,3.069,3.069,0,0,1-.274.645.52.52,0,0,1-.395.287q-.334.024-.561-.5a6.341,6.341,0,0,1-.37-1.207c-.1-.454-.168-.9-.215-1.325s-.08-.717-.1-.86q-.264,0-.932-.012c-.447-.008-.907-.031-1.385-.072a6.652,6.652,0,0,1-1.267-.215c-.365-.1-.549-.258-.549-.465q0-.43.573-.645a5.507,5.507,0,0,1,1.314-.3,11.155,11.155,0,0,1,1.444-.072c.47.008.792.012.968.012V158.7q0-.239.036-.836a7.993,7.993,0,0,1,.167-1.217,4.69,4.69,0,0,1,.357-1.087.7.7,0,0,1,.633-.466q.334,0,.525.55a5.961,5.961,0,0,1,.275,1.242,13.493,13.493,0,0,1,.1,1.349q.01.658.011.872.455.025.908.036c.3.008.606.02.908.035.111,0,.295.009.549.024a5.535,5.535,0,0,1,.776.108,2.748,2.748,0,0,1,.693.239.468.468,0,0,1,.3.418" transform="translate(-4.356 -2.824)" fill="#40658d"/>
            <path id="Trazado_1026811" data-name="Trazado 1026811" d="M255.982,157.441v.143a11.731,11.731,0,0,1-.168,1.935,15.44,15.44,0,0,1-.465,1.982q-.3.979-.68,1.934a18.346,18.346,0,0,1-.812,1.767q-.143.287-.37.693a5.553,5.553,0,0,1-.513.764,3.834,3.834,0,0,1-.621.621,1.142,1.142,0,0,1-.716.263.841.841,0,0,1-.513-.191.579.579,0,0,1-.251-.478,1.658,1.658,0,0,1,.263-.812,6.412,6.412,0,0,0,.405-.812,34.233,34.233,0,0,0,1.35-3.786,14.155,14.155,0,0,0,.585-4,15.677,15.677,0,0,0-.526-3.988,23.221,23.221,0,0,0-1.361-3.822,4.793,4.793,0,0,0-.347-.657,1.214,1.214,0,0,1-.2-.657.686.686,0,0,1,.227-.537.78.78,0,0,1,.538-.2,1.5,1.5,0,0,1,.812.24,3.052,3.052,0,0,1,.692.6,5.225,5.225,0,0,1,.55.764q.239.406.406.74a17.019,17.019,0,0,1,1.277,3.654,17.234,17.234,0,0,1,.442,3.846" transform="translate(-4.569 -2.688)" fill="#40658d"/>
            <path id="Trazado_1026812" data-name="Trazado 1026812" d="M343.089,98.548a1.734,1.734,0,0,1,.09.854,8.71,8.71,0,0,0-.044.914,30.833,30.833,0,0,0,.348,4.048,14.923,14.923,0,0,0,1.138,3.907,15.553,15.553,0,0,0,2.207,3.522,24.563,24.563,0,0,0,2.905,2.994,7.6,7.6,0,0,0,.618.457,1.28,1.28,0,0,1,.472.548.664.664,0,0,1,.009.584.862.862,0,0,1-.442.412,1.486,1.486,0,0,1-.844.111,3.256,3.256,0,0,1-.883-.272,5.975,5.975,0,0,1-.841-.476c-.268-.182-.5-.353-.7-.514a16.158,16.158,0,0,1-2.778-2.864,17.474,17.474,0,0,1-2.046-3.432,12.047,12.047,0,0,1-.663-1.893,17.85,17.85,0,0,1-.409-2.045q-.147-1.04-.191-2.063t0-2c.009-.216.025-.481.044-.793a5.6,5.6,0,0,1,.142-.931,3.725,3.725,0,0,1,.314-.849,1.162,1.162,0,0,1,.558-.543.821.821,0,0,1,.578-.045.631.631,0,0,1,.42.371" transform="translate(-6.21 -1.787)" fill="#40658d"/>
            <path id="Trazado_1026813" data-name="Trazado 1026813" d="M358.329,105c.059.134,0,.29-.179.467a5.156,5.156,0,0,1-.739.585c-.313.21-.666.427-1.057.646s-.767.421-1.131.6-.692.342-.985.483-.5.237-.617.289q-.224.1-.917.4t-1.468.565a7.827,7.827,0,0,1-1.427.36c-.436.061-.7-.012-.792-.219q-.171-.378.364-.885a7.545,7.545,0,0,1,1.322-.98c.525-.315,1.053-.6,1.59-.859s.926-.444,1.178-.556c.148-.067.362-.154.644-.262s.588-.214.923-.321.686-.2,1.053-.3.7-.165,1.012-.214a3.039,3.039,0,0,1,.8-.037.481.481,0,0,1,.427.237" transform="translate(-6.355 -1.908)" fill="#40658d"/>
            <path id="Trazado_1026814" data-name="Trazado 1026814" d="M363,99.79l.06.134a11.947,11.947,0,0,1,.651,1.869,16.021,16.021,0,0,1,.395,2.039q.13,1.035.173,2.083a18.408,18.408,0,0,1-.017,1.984q-.015.325-.057.8a5.59,5.59,0,0,1-.158.924,3.94,3.94,0,0,1-.318.836,1.17,1.17,0,0,1-.558.545.857.857,0,0,1-.558.036.585.585,0,0,1-.431-.34,1.7,1.7,0,0,1-.1-.866,6.3,6.3,0,0,0,.039-.925,34.872,34.872,0,0,0-.324-4.083,14.359,14.359,0,0,0-1.125-3.966,16.032,16.032,0,0,0-2.153-3.493,23.682,23.682,0,0,0-2.86-2.988,5.077,5.077,0,0,0-.6-.466,1.233,1.233,0,0,1-.462-.525.7.7,0,0,1-.014-.6A.8.8,0,0,1,355,92.38a1.514,1.514,0,0,1,.855-.116,3.1,3.1,0,0,1,.894.266,5.165,5.165,0,0,1,.829.482c.261.186.491.358.686.519A17.793,17.793,0,0,1,363,99.79" transform="translate(-6.456 -1.68)" fill="#40658d"/>
            <path id="Trazado_1026815" data-name="Trazado 1026815" d="M240.946,110.392l26.26-19.118,5.835,17.114Z" transform="translate(-4.388 -1.662)" fill="#fff"/>
            <path id="Trazado_1026816" data-name="Trazado 1026816" d="M230.84,106.7,230.756,86.3l10.911,2.7Z" transform="translate(-4.202 -1.572)" fill="#fff"/>
            <path id="Trazado_1026817" data-name="Trazado 1026817" d="M240.355,125.239l21.519,2.5-2.128,10.09Z" transform="translate(-4.377 -2.281)" fill="#fff"/>
            <path id="Trazado_1026818" data-name="Trazado 1026818" d="M138.329,308.768,84.3,326.942l-6.606-.277a.038.038,0,0,1-.029,0l-1.608-.063a.537.537,0,0,1-.506-.377.568.568,0,0,1,.171-.62l1.264-1.043,5.089-4.2.008-.018,53.842-18.11a3.614,3.614,0,0,1,4.5,1.869,1.905,1.905,0,0,1,.1.26,3.476,3.476,0,0,1-2.2,4.4" transform="translate(-1.375 -5.5)" fill="#db4770"/>
            <path id="Trazado_1026819" data-name="Trazado 1026819" d="M139.359,308.767l-5.044,1.7-2.219-6.6,5.044-1.7a3.479,3.479,0,1,1,2.219,6.6" transform="translate(-2.406 -5.5)" fill="#f4f0e3"/>
            <rect id="Rectángulo_414639" data-name="Rectángulo 414639" width="1.45" height="6.959" transform="translate(130.396 298.131) rotate(-18.594)" fill="#db4770"/>
            <path id="Trazado_1026820" data-name="Trazado 1026820" d="M84.325,327.281,77.717,327a.035.035,0,0,1-.029,0,2.3,2.3,0,0,1-.678-2.1l5.089-4.2c-.092.27-1.194,3.588,2.227,6.579" transform="translate(-1.402 -5.84)" fill="#f9f1d7"/>
            <g id="Grupo_1172514" data-name="Grupo 1172514" transform="translate(74.142 296.536)" opacity="0.2" style="mix-blend-mode: multiply;isolation: isolate">
              <g id="Grupo_1172513" data-name="Grupo 1172513">
                <g id="Grupo_1172512" data-name="Grupo 1172512" clip-path="url(#clip-path-20)">
                  <path id="Trazado_1026821" data-name="Trazado 1026821" d="M140.526,304.365,75.548,326.22a.567.567,0,0,1,.171-.619l1.264-1.043,5.089-4.2.009-.017,53.841-18.11a3.614,3.614,0,0,1,4.5,1.869,1.787,1.787,0,0,1,.1.26" transform="translate(-75.518 -302.036)" fill="#254262"/>
                </g>
              </g>
            </g>
          </g>
        </g>
      </g>
    </g>
  </g>
</svg>
