<svg xmlns="http://www.w3.org/2000/svg" xmlns:xlink="http://www.w3.org/1999/xlink" width="113" height="113" viewBox="0 0 113 113">
  <defs>
    <filter id="Trazado_982547" x="0" y="0" width="113" height="113" filterUnits="userSpaceOnUse">
      <feOffset dy="3" input="SourceAlpha"/>
      <feGaussianBlur stdDeviation="3" result="blur"/>
      <feFlood flood-opacity="0.161"/>
      <feComposite operator="in" in2="blur"/>
      <feComposite in="SourceGraphic"/>
    </filter>
  </defs>
  <g id="Grupo_1172132" data-name="Grupo 1172132" transform="translate(-271.5 -1298.145)">
    <g id="Grupo_1171046" data-name="Grupo 1171046" transform="translate(280.5 1304.145)">
      <g id="Grupo_1148525" data-name="Grupo 1148525" transform="translate(0)">
        <g transform="matrix(1, 0, 0, 1, -9, -6)" filter="url(#Trazado_982547)">
          <g id="Trazado_982547-2" data-name="Trazado 982547" transform="translate(9 6)" fill="#f4fdfe">
            <path d="M 47.5 93.5 C 41.28937149047852 93.5 35.26533508300781 92.28397369384766 29.59518623352051 89.88570404052734 C 24.11771965026855 87.56893157958984 19.19813346862793 84.25196075439453 14.97309303283691 80.02691650390625 C 10.74804019927979 75.80186462402344 7.431066513061523 70.88229370117188 5.114293098449707 65.40481567382812 C 2.716026782989502 59.73468017578125 1.5 53.71062850952148 1.5 47.5 C 1.5 41.28937149047852 2.716026782989502 35.26533508300781 5.114293098449707 29.59518623352051 C 7.431066513061523 24.11771965026855 10.74804019927979 19.19813346862793 14.97309303283691 14.97309303283691 C 19.19813346862793 10.74804019927979 24.11771965026855 7.431066513061523 29.59518623352051 5.114293098449707 C 35.26533508300781 2.716026782989502 41.28937149047852 1.5 47.5 1.5 C 53.71062850952148 1.5 59.73468017578125 2.716026782989502 65.40481567382812 5.114293098449707 C 70.88229370117188 7.431066513061523 75.80186462402344 10.74804019927979 80.02691650390625 14.97309303283691 C 84.25196075439453 19.19813346862793 87.56893157958984 24.11771965026855 89.88570404052734 29.59518623352051 C 92.28397369384766 35.26533508300781 93.5 41.28937149047852 93.5 47.5 C 93.5 53.71062850952148 92.28397369384766 59.73468017578125 89.88570404052734 65.40481567382812 C 87.56893157958984 70.88229370117188 84.25196075439453 75.80186462402344 80.02691650390625 80.02691650390625 C 75.80186462402344 84.25196075439453 70.88229370117188 87.56893157958984 65.40481567382812 89.88570404052734 C 59.73468017578125 92.28397369384766 53.71062850952148 93.5 47.5 93.5 Z" stroke="none"/>
            <path d="M 47.5 3 C 41.49121475219727 3 35.66376876831055 4.176155090332031 30.17950439453125 6.495796203613281 C 24.88084411621094 8.736953735351562 20.12152099609375 11.94598388671875 16.03375244140625 16.03375244140625 C 11.94598388671875 20.12152099609375 8.736953735351562 24.88084411621094 6.495796203613281 30.17950439453125 C 4.176155090332031 35.66376876831055 3 41.49121475219727 3 47.5 C 3 53.50878524780273 4.176155090332031 59.33623123168945 6.495796203613281 64.82049560546875 C 8.736953735351562 70.11915588378906 11.94598388671875 74.87847900390625 16.03375244140625 78.96624755859375 C 20.12152099609375 83.05401611328125 24.88084411621094 86.26304626464844 30.17950439453125 88.50419616699219 C 35.66376876831055 90.82384490966797 41.49121475219727 92 47.5 92 C 53.50878524780273 92 59.33623123168945 90.82384490966797 64.82049560546875 88.50419616699219 C 70.11915588378906 86.26304626464844 74.87847900390625 83.05401611328125 78.96624755859375 78.96624755859375 C 83.05401611328125 74.87847900390625 86.26304626464844 70.11915588378906 88.50419616699219 64.82049560546875 C 90.82384490966797 59.33623123168945 92 53.50878524780273 92 47.5 C 92 41.49121475219727 90.82384490966797 35.66376876831055 88.50419616699219 30.17950439453125 C 86.26304626464844 24.88084411621094 83.05401611328125 20.12152099609375 78.96624755859375 16.03375244140625 C 74.87847900390625 11.94598388671875 70.11915588378906 8.736953735351562 64.82049560546875 6.495796203613281 C 59.33623123168945 4.176155090332031 53.50878524780273 3 47.5 3 M 47.5 0 C 73.7335205078125 0 95 21.2664794921875 95 47.5 C 95 73.7335205078125 73.7335205078125 95 47.5 95 C 21.2664794921875 95 0 73.7335205078125 0 47.5 C 0 21.2664794921875 21.2664794921875 0 47.5 0 Z" stroke="none" fill="#5692e8"/>
          </g>
        </g>
      </g>
    </g>
    <g id="dyslexia_3997864" transform="translate(278.334 1321.969)">
      <g id="Grupo_1172466" data-name="Grupo 1172466" transform="translate(23.48 0.871)">
        <path id="Trazado_1026667" data-name="Trazado 1026667" d="M81.835,26.67C80.35,17.127,72.691,12.5,64.049,10.687c0,0,.217.52-.016-.039-.623-.132-1.43-.358-2.254-.474-4.04-.554-8.693-1.069-12.928.07q-1.018.274-2.032.642l.01,0a21.463,21.463,0,0,0-3.164,1.446,16.152,16.152,0,0,0-8.581,13.451c-.138,2.12-1.052,3.145-1.259,4.032-.251,1.077.894,2.183,1.352,3.247a1.568,1.568,0,0,1-.077,1.382,12.574,12.574,0,0,1-3.54,3.908c-.824.635-1.453,1.2-1.451,2.19,0,1.153.724,1.905,2.273,2.382,2.967.912-.62,3.238-.62,3.238a.988.988,0,0,0,.315,1.363,10.223,10.223,0,0,1,1.231,1.14.232.232,0,0,1-.027.334,1.667,1.667,0,0,0-.7,1.382.916.916,0,0,0,.628.814,3.855,3.855,0,0,1,.937.452.854.854,0,0,1,.273,1.056,3.531,3.531,0,0,0-.545,2.931c.545,2.215,2.4,3.034,4.268,3.34,1.308.214,4.017-.24,6.773-.613,4.867-.66,7.1,3.358,8.538,6.816h0a2.129,2.129,0,0,0,.348.71c.547.746,2.171.842,3.129.562l16.022-4.262a2.338,2.338,0,0,0,1.606-3.079c-1.39-3.745-2.884-8.974-1.053-11.088.088-.1.017-.022.2-.21C79.13,42.906,81.2,39.634,81.8,34.6c0,0-.65,0,0,0a32.283,32.283,0,0,0,.039-7.932Z" transform="translate(-30.109 -9.326)" fill="#fed2a4"/>
        <path id="Trazado_1026668" data-name="Trazado 1026668" d="M212.639,43.512a22.567,22.567,0,0,0,3.456-4.479c1.77-3.021,2.123-6.807,2.147-10.511a21.078,21.078,0,0,0-.8-6.146,17.833,17.833,0,0,0-6.481-9.119h0a28.568,28.568,0,0,0-11.394-4.946,0,0,0,0,1,0,0c-.622-.132-1.588-.308-2.412-.424a30.87,30.87,0,0,0-13.493.814,33,33,0,0,1,10.711-.118c.824.116,1.79.292,2.412.424a0,0,0,0,0,0,0c8.642,1.81,16.934,6.931,18.419,16.474a25.662,25.662,0,0,1,.255,3.736c0,1.521-.108,3-.239,4.346a15.64,15.64,0,0,1-2.952,7.794,43.986,43.986,0,0,1-3.4,3.369,4.89,4.89,0,0,0-.35.359c-1.9,2.187-1.628,6.451.816,13.036a.6.6,0,0,1-.03.49.589.589,0,0,1-.378.3L189.56,64.072a2.548,2.548,0,0,0,1.975,1.055,1.948,1.948,0,0,0,.549-.078l17.281-4.455a2.338,2.338,0,0,0,1.606-3.079c-1.39-3.744-2.964-9.176-1.134-11.291l.036-.041C210.4,45.638,210.341,45.841,212.639,43.512Z" transform="translate(-165.864 -7.511)" fill="#ffbd86"/>
        <g id="Grupo_1172465" data-name="Grupo 1172465" transform="translate(9.365 3.61)">
          <g id="Grupo_1172463" data-name="Grupo 1172463">
            <path id="Trazado_1026669" data-name="Trazado 1026669" d="M146.846,56.642a.471.471,0,0,1,.128-.572,5.769,5.769,0,0,0,2.131-2.96,5.693,5.693,0,0,0-4.058-6.757.462.462,0,0,1-.323-.347,5.164,5.164,0,0,0-3.766-4.328,6.063,6.063,0,0,0-2.882-.152,5.76,5.76,0,0,0-1.585.663.458.458,0,0,1-.633-.159A6.775,6.775,0,0,0,125.353,40.5a.467.467,0,0,1-.554.063,5.158,5.158,0,0,0-7.444,2.805.46.46,0,0,1-.374.308,6.081,6.081,0,0,0-4.883,8.18.457.457,0,0,1-.07.445,5.312,5.312,0,0,0,7.832,7.135,1.263,1.263,0,0,1,1.842.094,9.847,9.847,0,0,0,5.115,3.2l.051.013a1.877,1.877,0,0,1,.991.631,5.735,5.735,0,0,0,7.568,1.129.7.7,0,0,1,.876.086,6.8,6.8,0,0,0,3.522,1.843,6.424,6.424,0,0,0,7.355-4.773A7,7,0,0,0,146.846,56.642Z" transform="translate(-110.897 -38.654)" fill="#faf8f8"/>
          </g>
          <g id="Grupo_1172464" data-name="Grupo 1172464" transform="translate(27.18 2.7)">
            <path id="Trazado_1026670" data-name="Trazado 1026670" d="M354.516,77.381a6.814,6.814,0,0,1-7.4,9.646l-.13-.027a6.812,6.812,0,0,0,4.752-9.619.465.465,0,0,1,.131-.567,5.7,5.7,0,0,0,1.956-3.045,5.766,5.766,0,0,0-3.912-6.912.462.462,0,0,1-.321-.347,5.736,5.736,0,0,0-4.2-4.387l-.028-.007a5.737,5.737,0,0,1,7.008,4.393.462.462,0,0,0,.321.347,5.766,5.766,0,0,1,3.912,6.912,5.7,5.7,0,0,1-1.956,3.045.465.465,0,0,0-.131.567Z" transform="translate(-345.361 -61.944)" fill="#f0e9e6"/>
          </g>
        </g>
      </g>
      <g id="Grupo_1172467" data-name="Grupo 1172467" transform="translate(22.611 0)">
        <path id="Trazado_1026671" data-name="Trazado 1026671" d="M76.72,21.384A18.875,18.875,0,0,0,67.557,4.835,34.481,34.481,0,0,0,49.433,0,25.3,25.3,0,0,0,34.72,4.32a16.823,16.823,0,0,0-7.132,12.95,6.941,6.941,0,0,1-.792,2.754,5.781,5.781,0,0,0-.446,1.137,3.806,3.806,0,0,0,.872,2.862,7.247,7.247,0,0,1,.527.925.7.7,0,0,1-.037.614A11.57,11.57,0,0,1,24.4,29.208a3.632,3.632,0,0,0-1.79,2.881c0,1.543.975,2.623,2.887,3.211a1.418,1.418,0,0,1,.558.268,3.808,3.808,0,0,1-1.4,1.41.871.871,0,0,0-.241.234,1.854,1.854,0,0,0,.487,2.539c.29.231.527.442.713.619a2.335,2.335,0,0,0-.167,2.744.877.877,0,0,0,.534.36A3.461,3.461,0,0,1,27,43.889a4.429,4.429,0,0,0-.595,3.5c.541,2.2,2.213,3.538,4.972,3.99a24.04,24.04,0,0,0,5.755-.433c.421-.059.847-.119,1.275-.177,4.22-.571,6.215,2.828,7.741,6.587a3.217,3.217,0,0,0,2.975,2,3.182,3.182,0,0,0,.795-.1l4.977-1.283a.869.869,0,1,0-.434-1.684l-4.977,1.283a1.47,1.47,0,0,1-1.724-.867c-1.031-2.54-3.446-8.488-9.586-7.655-.431.058-.86.119-1.284.178a25.016,25.016,0,0,1-5.232.439c-2.063-.338-3.2-1.192-3.564-2.689a2.794,2.794,0,0,1,.46-2.3,1.719,1.719,0,0,0-.536-2.2,4.761,4.761,0,0,0-1.194-.576c-.014-.206.089-.484.526-.8a.869.869,0,0,0,.181-1.234,14.544,14.544,0,0,0-1.664-1.609c.72-.512,2.1-1.671,1.917-2.952-.075-.536-.443-1.261-1.773-1.67-1.456-.448-1.658-1.011-1.659-1.553s.327-.894,1.112-1.5a13.536,13.536,0,0,0,3.768-4.171,2.448,2.448,0,0,0,.118-2.152,8.568,8.568,0,0,0-.655-1.167c-.362-.573-.736-1.166-.649-1.54a4.637,4.637,0,0,1,.324-.788,8.65,8.65,0,0,0,.956-3.384c.7-10.807,10.607-15.645,20.109-15.645A32.707,32.707,0,0,1,66.62,6.3a17.209,17.209,0,0,1,8.362,15.083c0,7.894-1.038,11.129-7.908,17.346-1.975,1.788-1.747,5.859.7,12.448a1.468,1.468,0,0,1-1.007,1.935l-8.389,2.162a.869.869,0,1,0,.434,1.684L67.2,54.8a3.207,3.207,0,0,0,2.2-4.223c-2.048-5.521-2.471-9.368-1.161-10.554,7.254-6.565,8.48-10.411,8.48-18.635Z" transform="translate(-22.611 0)"/>
        <path id="Trazado_1026672" data-name="Trazado 1026672" d="M171.065,49.32a6.469,6.469,0,0,0-4.179-7.72,6.469,6.469,0,0,0-9.269-4.17A7.482,7.482,0,0,0,146.46,35.9a5.9,5.9,0,0,0-8.168,3.112,6.819,6.819,0,0,0-2.874,1.223.869.869,0,1,0,1.028,1.4,5.076,5.076,0,0,1,2.57-.967.869.869,0,0,0,.763-.631A4.165,4.165,0,0,1,146.1,37.7a.869.869,0,0,0,1.111-.122,5.744,5.744,0,0,1,9.315,1.447.869.869,0,0,0,1.293.321,4.729,4.729,0,0,1,7.459,3.08.87.87,0,0,0,.654.709l.037.008a4.727,4.727,0,0,1,1.544,8.448.869.869,0,0,0-.262,1.131,5.78,5.78,0,0,1-.106,5.763.869.869,0,1,0,1.49.9,7.522,7.522,0,0,0,.465-6.834,6.463,6.463,0,0,0,1.962-3.226Z" transform="translate(-122.027 -30.113)"/>
        <path id="Trazado_1026673" data-name="Trazado 1026673" d="M108.285,125.684a6.041,6.041,0,0,0,8.548,1.815,1.55,1.55,0,0,1,1.957.135,10.518,10.518,0,0,0,4.775,2.689c.118.03.239.059.361.085a6.466,6.466,0,0,0,8.609,1.609,7.494,7.494,0,0,0,8.241,1.4.869.869,0,1,0-.712-1.586,5.767,5.767,0,0,1-6.755-1.523.869.869,0,0,0-1.212-.111,4.728,4.728,0,0,1-6.935-1.053.869.869,0,0,0-.569-.376c-.2-.037-.407-.081-.6-.13a8.777,8.777,0,0,1-3.985-2.243,3.292,3.292,0,0,0-4.156-.333,4.306,4.306,0,0,1-3.64.576,4.315,4.315,0,0,1-2.049-6.969.869.869,0,0,0,.143-.913,5.017,5.017,0,0,1-.252-3.246.869.869,0,0,0-1.685-.43,6.734,6.734,0,0,0,.149,3.867,6.038,6.038,0,0,0-.235,6.736Z" transform="translate(-97.545 -101.162)"/>
        <path id="Trazado_1026674" data-name="Trazado 1026674" d="M151.969,120.486a.869.869,0,0,0-1.157.417l-3.268,6.956-.011.024a1.034,1.034,0,0,0,1.336,1.372l.019-.008,7.066-3.044a.869.869,0,0,0-.688-1.6l-1.209.521-2.229-2.3.558-1.188a.87.87,0,0,0-.417-1.157Zm.379,5.376-2.438,1.05,1.127-2.4Z" transform="translate(-132.976 -106.446)"/>
        <path id="Trazado_1026675" data-name="Trazado 1026675" d="M337.937,165.422a2.666,2.666,0,0,0-1.394-3.5l-2.083-.9a.869.869,0,0,0-1.142.454l-1.423,3.3h0l-1.667,3.87a.869.869,0,0,0,.458,1.144s1.919.817,2.447,1.044a2.97,2.97,0,0,0,3.755-4.2A2.649,2.649,0,0,0,337.937,165.422Zm-3.367-2.46,1.285.554a.928.928,0,1,1-.734,1.7l-.763-.327-.522-.225Zm.87,5.633a1.234,1.234,0,0,1-1.62.644c-.3-.13-1.057-.452-1.651-.705l.977-2.267.519.221,1.131.487A1.234,1.234,0,0,1,335.44,168.594Z" transform="translate(-294.504 -142.292)"/>
        <path id="Trazado_1026676" data-name="Trazado 1026676" d="M217.75,78.881a4.561,4.561,0,0,0,2.813-2.107c1.191-1.932.7-5.013-1.566-6.058a.869.869,0,1,0-.752,1.568,2.61,2.61,0,0,1,.822,3.6,2.852,2.852,0,0,1-5.14-2.414.869.869,0,1,0-1.637-.586,4.592,4.592,0,0,0,5.46,5.994Z" transform="translate(-190.064 -62.442)"/>
        <path id="Trazado_1026677" data-name="Trazado 1026677" d="M236.875,152.8a3.621,3.621,0,0,0,3.22,1.779,5.3,5.3,0,0,0,2.587-.722c2.374-1.338,3.211-3.584,2.081-5.589l-1.025-1.82a.87.87,0,0,0-1.186-.33s-2.469,1.4-3.2,1.81c-.893.5-3.217,1.824-3.217,1.824a.869.869,0,0,0-.326,1.186C235.838,150.988,236.574,152.283,236.875,152.8Zm3.329-3.357,2.446-1.383.6,1.061c.763,1.354-.233,2.551-1.42,3.22s-2.732.808-3.453-.422c-.145-.248-.4-.694-.625-1.086C238.508,150.4,239.641,149.756,240.2,149.439Z" transform="translate(-210.992 -129.077)"/>
        <path id="Trazado_1026678" data-name="Trazado 1026678" d="M316.763,93.27l1.993,1.645a.869.869,0,1,0,1.107-1.341l-1.323-1.092.845-1.024,1.176.97a.869.869,0,0,0,1.107-1.341l-1.176-.97.845-1.024,1.323,1.092a.869.869,0,0,0,1.107-1.341L321.774,87.2a.87.87,0,0,0-1.224.117l-3.9,4.731A.87.87,0,0,0,316.763,93.27Z" transform="translate(-282.385 -76.913)"/>
      </g>
    </g>
  </g>
</svg>
