<svg xmlns="http://www.w3.org/2000/svg" xmlns:xlink="http://www.w3.org/1999/xlink" width="113" height="113" viewBox="0 0 113 113">
  <defs>
    <filter id="Trazado_982547" x="0" y="0" width="113" height="113" filterUnits="userSpaceOnUse">
      <feOffset dy="3" input="SourceAlpha"/>
      <feGaussianBlur stdDeviation="3" result="blur"/>
      <feFlood flood-opacity="0.161"/>
      <feComposite operator="in" in2="blur"/>
      <feComposite in="SourceGraphic"/>
    </filter>
  </defs>
  <g id="Grupo_1172447" data-name="Grupo 1172447" transform="translate(-271.5 -3042.645)">
    <g id="Grupo_1172010" data-name="Grupo 1172010" transform="translate(0 1744.5)">
      <g id="Grupo_1171046" data-name="Grupo 1171046" transform="translate(280.5 1304.145)">
        <g id="Grupo_1148525" data-name="Grupo 1148525" transform="translate(0)">
          <g transform="matrix(1, 0, 0, 1, -9, -6)" filter="url(#Trazado_982547)">
            <g id="Trazado_982547-2" data-name="Trazado 982547" transform="translate(9 6)" fill="#f4fdfe">
              <path d="M 47.5 93.5 C 41.28937149047852 93.5 35.26533508300781 92.28397369384766 29.59518623352051 89.88570404052734 C 24.11771965026855 87.56893157958984 19.19813346862793 84.25196075439453 14.97309303283691 80.02691650390625 C 10.74804019927979 75.80186462402344 7.431066513061523 70.88229370117188 5.114293098449707 65.40481567382812 C 2.716026782989502 59.73468017578125 1.5 53.71062850952148 1.5 47.5 C 1.5 41.28937149047852 2.716026782989502 35.26533508300781 5.114293098449707 29.59518623352051 C 7.431066513061523 24.11771965026855 10.74804019927979 19.19813346862793 14.97309303283691 14.97309303283691 C 19.19813346862793 10.74804019927979 24.11771965026855 7.431066513061523 29.59518623352051 5.114293098449707 C 35.26533508300781 2.716026782989502 41.28937149047852 1.5 47.5 1.5 C 53.71062850952148 1.5 59.73468017578125 2.716026782989502 65.40481567382812 5.114293098449707 C 70.88229370117188 7.431066513061523 75.80186462402344 10.74804019927979 80.02691650390625 14.97309303283691 C 84.25196075439453 19.19813346862793 87.56893157958984 24.11771965026855 89.88570404052734 29.59518623352051 C 92.28397369384766 35.26533508300781 93.5 41.28937149047852 93.5 47.5 C 93.5 53.71062850952148 92.28397369384766 59.73468017578125 89.88570404052734 65.40481567382812 C 87.56893157958984 70.88229370117188 84.25196075439453 75.80186462402344 80.02691650390625 80.02691650390625 C 75.80186462402344 84.25196075439453 70.88229370117188 87.56893157958984 65.40481567382812 89.88570404052734 C 59.73468017578125 92.28397369384766 53.71062850952148 93.5 47.5 93.5 Z" stroke="none"/>
              <path d="M 47.5 3 C 41.49121475219727 3 35.66376876831055 4.176155090332031 30.17950439453125 6.495796203613281 C 24.88084411621094 8.736953735351562 20.12152099609375 11.94598388671875 16.03375244140625 16.03375244140625 C 11.94598388671875 20.12152099609375 8.736953735351562 24.88084411621094 6.495796203613281 30.17950439453125 C 4.176155090332031 35.66376876831055 3 41.49121475219727 3 47.5 C 3 53.50878524780273 4.176155090332031 59.33623123168945 6.495796203613281 64.82049560546875 C 8.736953735351562 70.11915588378906 11.94598388671875 74.87847900390625 16.03375244140625 78.96624755859375 C 20.12152099609375 83.05401611328125 24.88084411621094 86.26304626464844 30.17950439453125 88.50419616699219 C 35.66376876831055 90.82384490966797 41.49121475219727 92 47.5 92 C 53.50878524780273 92 59.33623123168945 90.82384490966797 64.82049560546875 88.50419616699219 C 70.11915588378906 86.26304626464844 74.87847900390625 83.05401611328125 78.96624755859375 78.96624755859375 C 83.05401611328125 74.87847900390625 86.26304626464844 70.11915588378906 88.50419616699219 64.82049560546875 C 90.82384490966797 59.33623123168945 92 53.50878524780273 92 47.5 C 92 41.49121475219727 90.82384490966797 35.66376876831055 88.50419616699219 30.17950439453125 C 86.26304626464844 24.88084411621094 83.05401611328125 20.12152099609375 78.96624755859375 16.03375244140625 C 74.87847900390625 11.94598388671875 70.11915588378906 8.736953735351562 64.82049560546875 6.495796203613281 C 59.33623123168945 4.176155090332031 53.50878524780273 3 47.5 3 M 47.5 0 C 73.7335205078125 0 95 21.2664794921875 95 47.5 C 95 73.7335205078125 73.7335205078125 95 47.5 95 C 21.2664794921875 95 0 73.7335205078125 0 47.5 C 0 21.2664794921875 21.2664794921875 0 47.5 0 Z" stroke="none" fill="#56838a"/>
            </g>
          </g>
        </g>
      </g>
    </g>
    <g id="tutoring_12925074" transform="translate(288.989 3018.235)">
      <g id="Grupo_1172442" data-name="Grupo 1172442" transform="translate(7.5 52.047)">
        <path id="Trazado_1026581" data-name="Trazado 1026581" d="M12.459,282.109h18.45a9.313,9.313,0,0,1,9.313,9.313v13.237H12.588A5.088,5.088,0,0,1,7.5,299.572v-12.5A4.959,4.959,0,0,1,12.459,282.109Z" transform="translate(-7.5 -252.936)" fill="#0593fc"/>
        <path id="Trazado_1026582" data-name="Trazado 1026582" d="M175.193,291.424v13.237h-3.809V291.424a9.313,9.313,0,0,0-9.314-9.312h3.809A9.313,9.313,0,0,1,175.193,291.424Z" transform="translate(-142.47 -252.939)" fill="#0182fc"/>
        <path id="Trazado_1026583" data-name="Trazado 1026583" d="M260.05,131.879h23.623v-5.989a3.322,3.322,0,0,0-3.322-3.322h0a2.927,2.927,0,0,0-2.927-2.927H266.251a6.2,6.2,0,0,0-6.2,6.2v6.037Z" transform="translate(-228.026 -111.071)" fill="#70838c"/>
        <path id="Trazado_1026584" data-name="Trazado 1026584" d="M381.41,125.891v5.989h-3.182v-5.989a3.324,3.324,0,0,0-2.492-3.218,1.292,1.292,0,0,1-.938-.893,2.929,2.929,0,0,0-2.819-2.138h3.181a2.927,2.927,0,0,1,2.927,2.927A3.322,3.322,0,0,1,381.41,125.891Z" transform="translate(-325.763 -111.071)" fill="#596c76"/>
        <path id="Trazado_1026585" data-name="Trazado 1026585" d="M231.828,339.4H253.65a4.989,4.989,0,0,1,4.989,4.989v10.3h-31.8v-10.3A4.989,4.989,0,0,1,231.828,339.4Z" transform="translate(-199.026 -302.967)" fill="#99e6fc"/>
        <path id="Trazado_1026586" data-name="Trazado 1026586" d="M417.038,344.392v10.3H413.23v-10.3a4.99,4.99,0,0,0-4.99-4.99h3.809A4.989,4.989,0,0,1,417.038,344.392Z" transform="translate(-357.425 -302.964)" fill="#62dbfb"/>
        <path id="Trazado_1026587" data-name="Trazado 1026587" d="M280.228,192.737v7.306a5.846,5.846,0,0,0,5.846,5.846h.423v2.948h5.969v-2.948h.423a5.846,5.846,0,0,0,5.846-5.846v-7.306a2.861,2.861,0,0,0-2.861-2.861H283.089A2.861,2.861,0,0,0,280.228,192.737Z" transform="translate(-245.645 -172.399)" fill="#ffe5c2"/>
        <path id="Trazado_1026588" data-name="Trazado 1026588" d="M361.091,192.733v7.306a5.846,5.846,0,0,1-5.846,5.846h-.423v2.948H351.64v-2.144a.8.8,0,0,1,.8-.8,5.464,5.464,0,0,0,5.465-5.465v-7.687a2.861,2.861,0,0,0-2.861-2.861h3.182A2.861,2.861,0,0,1,361.091,192.733Z" transform="translate(-308.002 -172.395)" fill="#fed2a4"/>
        <path id="Trazado_1026589" data-name="Trazado 1026589" d="M254.908,221.181h-2.559a1.118,1.118,0,0,1-1.118-1.118v-2.8a1.118,1.118,0,0,1,1.118-1.118h2.559Z" transform="translate(-220.325 -195.34)" fill="#fed2a4"/>
        <path id="Trazado_1026590" data-name="Trazado 1026590" d="M426.17,221.181h2.559a1.118,1.118,0,0,0,1.118-1.118v-2.8a1.118,1.118,0,0,0-1.118-1.118H426.17Z" transform="translate(-373.081 -195.34)" fill="#ffbd86"/>
        <path id="Trazado_1026591" data-name="Trazado 1026591" d="M80.667,90.1v13.354a6.388,6.388,0,0,1-6.387,6.387H73.123l-7.239-.07a6.389,6.389,0,0,1-5.438-6.317V90.1Z" transform="translate(-53.733 -85.272)" fill="#fed2a4"/>
        <path id="Trazado_1026592" data-name="Trazado 1026592" d="M157,90.1v13.354a6.388,6.388,0,0,1-6.387,6.387h-1.156l-1.593-.015a6.387,6.387,0,0,0,5.955-6.372V90.1Z" transform="translate(-130.062 -85.277)" fill="#ffbd86"/>
        <path id="Trazado_1026593" data-name="Trazado 1026593" d="M32.786,142.012h-2.8a1.222,1.222,0,0,1-1.222-1.222v-3.055a1.222,1.222,0,0,1,1.222-1.222h2.8v5.5Z" transform="translate(-26.071 -125.803)" fill="#ffbd86"/>
        <line id="Línea_762" data-name="Línea 762" x2="3.408" transform="translate(59.613 51.723)" fill="none" stroke="#000" stroke-linecap="round" stroke-linejoin="round" stroke-miterlimit="10" stroke-width="1.5"/>
        <path id="Trazado_1026594" data-name="Trazado 1026594" d="M35.313,333.894v4.917H12.587A5.088,5.088,0,0,1,7.5,333.723v-12.5l8.592,2.795v6.746h3.761v1.569l7.361.623,1.2-.969a2.1,2.1,0,0,1,2.194-.268Z" transform="translate(-7.5 -287.088)" fill="#0593fc"/>
        <path id="Trazado_1026595" data-name="Trazado 1026595" d="M33.026,62.758h3.981a2.354,2.354,0,0,0,2.348-2.514l-.17-2.481,10.171-.89,6.684.89V54.03a1.881,1.881,0,0,0-2.13-1.865l-5.3.707L35.7,52.052c-2.026-.129-3.672,2.373-3.431,4.388Z" transform="translate(-29.107 -52.047)" fill="#d9e7ec"/>
        <path id="Trazado_1026596" data-name="Trazado 1026596" d="M191.793,54.733v3.732l-3.182-.424V54.733a1.875,1.875,0,0,0-.9-1.605l1.953-.26A1.882,1.882,0,0,1,191.793,54.733Z" transform="translate(-164.859 -52.749)" fill="#c5d3dd"/>
        <path id="Trazado_1026597" data-name="Trazado 1026597" d="M105.2,250.187H97.491a1.252,1.252,0,0,1-1.252-1.252V246.8a1.252,1.252,0,0,1,1.252-1.252H105.2a1.252,1.252,0,0,1,1.252,1.252v2.132A1.252,1.252,0,0,1,105.2,250.187Z" transform="translate(-84.987 -221.014)" fill="#0182fc"/>
        <path id="Trazado_1026598" data-name="Trazado 1026598" d="M146.284,246.8v2.132a1.252,1.252,0,0,1-1.253,1.253H141.85a1.252,1.252,0,0,0,1.252-1.253V246.8a1.252,1.252,0,0,0-1.252-1.252h3.182A1.252,1.252,0,0,1,146.284,246.8Z" transform="translate(-124.814 -221.015)" fill="#0172fb"/>
        <path id="Trazado_1026599" data-name="Trazado 1026599" d="M120.38,404.832v4.917H104.92v-6.482l7.361.623,1.2-.969a2.1,2.1,0,0,1,2.194-.268Z" transform="translate(-92.567 -358.026)" fill="#fed2a4"/>
        <g id="Grupo_1172441" data-name="Grupo 1172441" transform="translate(23.249 44.08)">
          <path id="Trazado_1026600" data-name="Trazado 1026600" d="M207.129,433.971H192.49a1.647,1.647,0,0,0-1.647,1.647h0a1.647,1.647,0,0,0,1.647,1.647h14.639Z" transform="translate(-190.843 -429.622)" fill="#596c76"/>
          <path id="Trazado_1026601" data-name="Trazado 1026601" d="M319.279,404.025H333.56v-2.98a1.369,1.369,0,0,0-1.369-1.369h-8.563a4.349,4.349,0,0,0-4.349,4.349Z" transform="translate(-302.993 -399.676)" fill="#fff9e2"/>
          <path id="Trazado_1026602" data-name="Trazado 1026602" d="M400.561,401.041v2.98H397.38v-2.98a1.369,1.369,0,0,0-1.37-1.369h3.182A1.369,1.369,0,0,1,400.561,401.041Z" transform="translate(-369.994 -399.672)" fill="#fff2bb"/>
          <path id="Trazado_1026603" data-name="Trazado 1026603" d="M220.94,404.025H206.659v-2.98a1.369,1.369,0,0,1,1.369-1.369h8.563a4.349,4.349,0,0,1,4.349,4.349Z" transform="translate(-204.653 -399.676)" fill="#fff2bb"/>
          <path id="Trazado_1026604" data-name="Trazado 1026604" d="M319.279,433.971h14.639a1.647,1.647,0,0,1,1.647,1.647h0a1.647,1.647,0,0,1-1.647,1.647H319.279Z" transform="translate(-302.993 -429.622)" fill="#70838c"/>
          <path id="Trazado_1026605" data-name="Trazado 1026605" d="M414.459,435.619a1.645,1.645,0,0,1-1.646,1.646H409.63a1.647,1.647,0,1,0,0-3.293h3.183A1.646,1.646,0,0,1,414.459,435.619Z" transform="translate(-381.887 -429.623)" fill="#596c76"/>
        </g>
      </g>
      <g id="Grupo_1172446" data-name="Grupo 1172446" transform="translate(7.5 52.047)">
        <path id="Trazado_1026606" data-name="Trazado 1026606" d="M245.847,339.4H231.828a4.989,4.989,0,0,0-4.988,4.99v2.653" transform="translate(-199.027 -302.964)" fill="none" stroke="#000" stroke-linecap="round" stroke-linejoin="round" stroke-miterlimit="10" stroke-width="1.5"/>
        <path id="Trazado_1026607" data-name="Trazado 1026607" d="M226.84,354.687h31.8v-10.3a4.989,4.989,0,0,0-4.988-4.99H250.3" transform="translate(-199.027 -302.964)" fill="none" stroke="#000" stroke-linecap="round" stroke-linejoin="round" stroke-miterlimit="10" stroke-width="1.5"/>
        <path id="Trazado_1026608" data-name="Trazado 1026608" d="M280.228,192.737v7.306a5.846,5.846,0,0,0,5.846,5.846h.423v2.948h5.969v-2.948h.423a5.846,5.846,0,0,0,5.846-5.846v-7.306a2.861,2.861,0,0,0-2.861-2.861H283.089A2.861,2.861,0,0,0,280.228,192.737Z" transform="translate(-245.645 -172.399)" fill="none" stroke="#000" stroke-linecap="round" stroke-linejoin="round" stroke-miterlimit="10" stroke-width="1.5"/>
        <path id="Trazado_1026609" data-name="Trazado 1026609" d="M254.908,221.181h-2.559a1.118,1.118,0,0,1-1.118-1.118v-2.8a1.118,1.118,0,0,1,1.118-1.118h2.559Z" transform="translate(-220.325 -195.34)" fill="none" stroke="#000" stroke-linecap="round" stroke-linejoin="round" stroke-miterlimit="10" stroke-width="1.5"/>
        <path id="Trazado_1026610" data-name="Trazado 1026610" d="M426.17,221.181h2.559a1.118,1.118,0,0,0,1.118-1.118v-2.8a1.118,1.118,0,0,0-1.118-1.118H426.17Z" transform="translate(-373.081 -195.34)" fill="none" stroke="#000" stroke-linecap="round" stroke-linejoin="round" stroke-miterlimit="10" stroke-width="1.5"/>
        <path id="Trazado_1026611" data-name="Trazado 1026611" d="M40.223,304.661H12.587A5.087,5.087,0,0,1,7.5,299.574v-12.5a4.959,4.959,0,0,1,4.959-4.959h18.45A9.316,9.316,0,0,1,40,289.385" transform="translate(-7.5 -252.939)" fill="none" stroke="#000" stroke-linecap="round" stroke-linejoin="round" stroke-miterlimit="10" stroke-width="1.5"/>
        <path id="Trazado_1026612" data-name="Trazado 1026612" d="M80.667,132.31v8A6.388,6.388,0,0,1,74.28,146.7H73.123l-7.239-.07a6.389,6.389,0,0,1-5.438-6.317v-7.469" transform="translate(-53.733 -122.132)" fill="none" stroke="#000" stroke-linecap="round" stroke-linejoin="round" stroke-miterlimit="10" stroke-width="1.5"/>
        <path id="Trazado_1026613" data-name="Trazado 1026613" d="M32.786,142.012h-2.8a1.222,1.222,0,0,1-1.222-1.222v-3.055a1.222,1.222,0,0,1,1.222-1.222h2.8v5.5Z" transform="translate(-26.071 -125.803)" fill="none" stroke="#000" stroke-linecap="round" stroke-linejoin="round" stroke-miterlimit="10" stroke-width="1.5"/>
        <line id="Línea_769" data-name="Línea 769" x2="3.408" transform="translate(59.613 51.723)" fill="none" stroke="#000" stroke-linecap="round" stroke-linejoin="round" stroke-miterlimit="10" stroke-width="1.5"/>
        <g id="Grupo_1172445" data-name="Grupo 1172445" transform="translate(23.249 44.081)">
          <path id="Trazado_1026614" data-name="Trazado 1026614" d="M207.129,433.971H192.49a1.647,1.647,0,0,0-1.647,1.647h0a1.647,1.647,0,0,0,1.647,1.647h14.639Z" transform="translate(-190.843 -429.622)" fill="none" stroke="#000" stroke-linecap="round" stroke-linejoin="round" stroke-miterlimit="10" stroke-width="1.5"/>
          <path id="Trazado_1026615" data-name="Trazado 1026615" d="M319.279,404.025H333.56v-2.98a1.369,1.369,0,0,0-1.369-1.369h-8.563a4.349,4.349,0,0,0-4.349,4.349Z" transform="translate(-302.993 -399.676)" fill="none" stroke="#000" stroke-linecap="round" stroke-linejoin="round" stroke-miterlimit="10" stroke-width="1.5"/>
          <path id="Trazado_1026616" data-name="Trazado 1026616" d="M220.94,404.025H206.659v-2.98a1.369,1.369,0,0,1,1.369-1.369h8.563a4.349,4.349,0,0,1,4.349,4.349Z" transform="translate(-204.653 -399.676)" fill="none" stroke="#000" stroke-linecap="round" stroke-linejoin="round" stroke-miterlimit="10" stroke-width="1.5"/>
          <path id="Trazado_1026617" data-name="Trazado 1026617" d="M319.279,433.971h14.639a1.647,1.647,0,0,1,1.647,1.647h0a1.647,1.647,0,0,1-1.647,1.647H319.279Z" transform="translate(-302.993 -429.622)" fill="none" stroke="#000" stroke-linecap="round" stroke-linejoin="round" stroke-miterlimit="10" stroke-width="1.5"/>
        </g>
        <path id="Trazado_1026618" data-name="Trazado 1026618" d="M35.313,338.812H12.587A5.088,5.088,0,0,1,7.5,333.725v-12.5" transform="translate(-7.5 -287.09)" fill="none" stroke="#000" stroke-linecap="round" stroke-linejoin="round" stroke-miterlimit="10" stroke-width="1.5"/>
        <path id="Trazado_1026619" data-name="Trazado 1026619" d="M75.26,354.682v5.3h3.761v1.569l7.361.623,1.2-.969a2.1,2.1,0,0,1,2.194-.268l2.142.993" transform="translate(-66.668 -316.307)" fill="none" stroke="#000" stroke-linecap="round" stroke-linejoin="round" stroke-miterlimit="10" stroke-width="1.5"/>
        <path id="Trazado_1026620" data-name="Trazado 1026620" d="M33.026,62.758h3.981a2.354,2.354,0,0,0,2.348-2.514l-.17-2.481,10.171-.89,6.684.89V54.03a1.881,1.881,0,0,0-2.13-1.865l-5.3.707L35.7,52.052c-2.026-.129-3.672,2.373-3.431,4.388Z" transform="translate(-29.107 -52.047)" fill="none" stroke="#000" stroke-linecap="round" stroke-linejoin="round" stroke-miterlimit="10" stroke-width="1.5"/>
        <path id="Trazado_1026621" data-name="Trazado 1026621" d="M105.2,250.187H97.491a1.252,1.252,0,0,1-1.252-1.252V246.8a1.252,1.252,0,0,1,1.252-1.252H105.2a1.252,1.252,0,0,1,1.252,1.252v2.132A1.252,1.252,0,0,1,105.2,250.187Z" transform="translate(-84.987 -221.014)" fill="none" stroke="#000" stroke-linecap="round" stroke-linejoin="round" stroke-miterlimit="10" stroke-width="1.5"/>
        <path id="Trazado_1026622" data-name="Trazado 1026622" d="M283.673,131.879v-5.989a3.322,3.322,0,0,0-3.322-3.322h0a2.927,2.927,0,0,0-2.927-2.927H266.25a6.2,6.2,0,0,0-6.2,6.2v6.037" transform="translate(-228.026 -111.071)" fill="none" stroke="#000" stroke-linecap="round" stroke-linejoin="round" stroke-miterlimit="10" stroke-width="1.5"/>
        <path id="Trazado_1026623" data-name="Trazado 1026623" d="M120.38,409.75H104.92v-6.482l7.361.623,1.2-.969a2.1,2.1,0,0,1,2.194-.268l2.142.993" transform="translate(-92.567 -358.027)" fill="none" stroke="#000" stroke-linecap="round" stroke-linejoin="round" stroke-miterlimit="10" stroke-width="1.5"/>
        <line id="Línea_770" data-name="Línea 770" x1="4.986" y1="5.425" transform="translate(18.127 39.202)" fill="none" stroke="#000" stroke-linecap="round" stroke-linejoin="round" stroke-miterlimit="10" stroke-width="1.5"/>
      </g>
    </g>
  </g>
</svg>
