<svg xmlns="http://www.w3.org/2000/svg" xmlns:xlink="http://www.w3.org/1999/xlink" width="108" height="108" viewBox="0 0 108 108">
  <defs>
    <filter id="Trazado_978624" x="0" y="0" width="108" height="108" filterUnits="userSpaceOnUse">
      <feOffset dy="3" input="SourceAlpha"/>
      <feGaussianBlur stdDeviation="3" result="blur"/>
      <feFlood flood-opacity="0.161"/>
      <feComposite operator="in" in2="blur"/>
      <feComposite in="SourceGraphic"/>
    </filter>
  </defs>
  <g id="Grupo_1172348" data-name="Grupo 1172348" transform="translate(-616 -445.5)">
    <g id="Grupo_1171897" data-name="Grupo 1171897" transform="translate(625 451.5)">
      <g id="Grupo_1171052" data-name="Grupo 1171052" transform="translate(0)">
        <g id="Grupo_1164581" data-name="Grupo 1164581">
          <g id="Grupo_1144123" data-name="Grupo 1144123">
            <g transform="matrix(1, 0, 0, 1, -9, -6)" filter="url(#Trazado_978624)">
              <g id="Trazado_978624-2" data-name="Trazado 978624" transform="translate(9 6)" fill="#f4fdfe">
                <path d="M 45 88.5 C 39.12687683105469 88.5 33.43022537231445 87.35007476806641 28.06830024719238 85.08217620849609 C 22.88852500915527 82.89131164550781 18.23629951477051 79.75458526611328 14.2408504486084 75.75914764404297 C 10.24541282653809 71.76370239257812 7.108687400817871 67.11147308349609 4.917825222015381 61.93170166015625 C 2.649924993515015 56.56977462768555 1.5 50.87312316894531 1.5 45 C 1.5 39.12687683105469 2.649924993515015 33.43022537231445 4.917825222015381 28.06830024719238 C 7.108687400817871 22.88852500915527 10.24541282653809 18.23629951477051 14.2408504486084 14.2408504486084 C 18.23629951477051 10.24541282653809 22.88852500915527 7.108687400817871 28.06830024719238 4.917825222015381 C 33.43022537231445 2.649924993515015 39.12687683105469 1.5 45 1.5 C 50.87312316894531 1.5 56.56977462768555 2.649924993515015 61.93170166015625 4.917825222015381 C 67.11147308349609 7.108687400817871 71.76370239257812 10.24541282653809 75.75914764404297 14.2408504486084 C 79.75458526611328 18.23629951477051 82.89131164550781 22.88852500915527 85.08217620849609 28.06830024719238 C 87.35007476806641 33.43022537231445 88.5 39.12687683105469 88.5 45 C 88.5 50.87312316894531 87.35007476806641 56.56977462768555 85.08217620849609 61.93170166015625 C 82.89131164550781 67.11147308349609 79.75458526611328 71.76370239257812 75.75914764404297 75.75914764404297 C 71.76370239257812 79.75458526611328 67.11147308349609 82.89131164550781 61.93170166015625 85.08217620849609 C 56.56977462768555 87.35007476806641 50.87312316894531 88.5 45 88.5 Z" stroke="none"/>
                <path d="M 45 3 C 39.32871246337891 3 33.82865524291992 4.110054016113281 28.65262985229492 6.299339294433594 C 23.65165710449219 8.414573669433594 19.15968322753906 11.44334411621094 15.301513671875 15.301513671875 C 11.44334411621094 19.15968322753906 8.414573669433594 23.65165710449219 6.299339294433594 28.65262985229492 C 4.110054016113281 33.82865524291992 3 39.32871246337891 3 45 C 3 50.67128753662109 4.110054016113281 56.17134475708008 6.299339294433594 61.34737396240234 C 8.414573669433594 66.34834289550781 11.44334411621094 70.84031677246094 15.301513671875 74.698486328125 C 19.15968322753906 78.55665588378906 23.65165710449219 81.58542633056641 28.65262985229492 83.70066070556641 C 33.82865524291992 85.88994598388672 39.32871246337891 87 45 87 C 50.67128753662109 87 56.17134475708008 85.88994598388672 61.34737396240234 83.70066070556641 C 66.34834289550781 81.58542633056641 70.84031677246094 78.55665588378906 74.698486328125 74.698486328125 C 78.55665588378906 70.84031677246094 81.58542633056641 66.34834289550781 83.70066070556641 61.34737396240234 C 85.88994598388672 56.17134475708008 87 50.67128753662109 87 45 C 87 39.32871246337891 85.88994598388672 33.82865524291992 83.70066070556641 28.65262985229492 C 81.58542633056641 23.65165710449219 78.55665588378906 19.15968322753906 74.698486328125 15.301513671875 C 70.84031677246094 11.44334411621094 66.34834289550781 8.414573669433594 61.34737396240234 6.299339294433594 C 56.17134475708008 4.110054016113281 50.67128753662109 3 45 3 M 45 0 C 69.85281372070312 0 90 20.14718627929688 90 45 C 90 69.85281372070312 69.85281372070312 90 45 90 C 20.14718627929688 90 0 69.85281372070312 0 45 C 0 20.14718627929688 20.14718627929688 0 45 0 Z" stroke="none" fill="#56838a"/>
              </g>
            </g>
          </g>
        </g>
      </g>
    </g>
    <g id="learning_3200615" transform="translate(638 465)">
      <g id="Grupo_1172346" data-name="Grupo 1172346">
        <g id="Grupo_1172336" data-name="Grupo 1172336">
          <path id="Trazado_1026333" data-name="Trazado 1026333" d="M57,32v8l-2.5.78a22.75,22.75,0,0,1-3.21,7.74l1.22,2.33-5.66,5.66-2.33-1.22a22.9,22.9,0,0,1-5.12,2.49h-.01A14.25,14.25,0,0,1,37.01,52H38a9,9,0,0,0,9-9V40h2a4,4,0,1,0,0-8H47V28h1a2.006,2.006,0,0,0,2-2V21.22l1.29,2.26a22.75,22.75,0,0,1,3.21,7.74Z" fill="#fcd770"/>
        </g>
        <g id="Grupo_1172337" data-name="Grupo 1172337">
          <path id="Trazado_1026334" data-name="Trazado 1026334" d="M26,52h.99a14.25,14.25,0,0,1-2.38,5.78H24.6a23.111,23.111,0,0,1-5.12-2.49l-2.33,1.22-5.66-5.66,1.22-2.33A22.75,22.75,0,0,1,9.5,40.78L7,40V32l2.5-.78a22.75,22.75,0,0,1,3.21-7.74L14,21.59V26a2.006,2.006,0,0,0,2,2h1v4H15a4,4,0,1,0,0,8h2v3A9,9,0,0,0,26,52Z" fill="#fcd770"/>
        </g>
        <g id="Grupo_1172338" data-name="Grupo 1172338">
          <path id="Trazado_1026335" data-name="Trazado 1026335" d="M51.83,33.17A4,4,0,0,1,49,40H47V32h2A4.025,4.025,0,0,1,51.83,33.17Z" fill="#f0d0b4"/>
        </g>
        <g id="Grupo_1172339" data-name="Grupo 1172339">
          <path id="Trazado_1026336" data-name="Trazado 1026336" d="M44,62H20l.89-.59a13.933,13.933,0,0,0,3.71-3.63h.01A14.25,14.25,0,0,0,26.99,52H37.01a14.25,14.25,0,0,0,2.38,5.78h.01a13.933,13.933,0,0,0,3.71,3.63Z" fill="#f0d0b4"/>
        </g>
        <g id="Grupo_1172340" data-name="Grupo 1172340">
          <path id="Trazado_1026337" data-name="Trazado 1026337" d="M37.01,52H26a9,9,0,0,1-9-9V28H28a4,4,0,1,0,8,0H47V43a9,9,0,0,1-9,9Z" fill="#f0d0b4"/>
        </g>
        <g id="Grupo_1172341" data-name="Grupo 1172341">
          <path id="Trazado_1026338" data-name="Trazado 1026338" d="M17,32v8H15a4,4,0,0,1,0-8Z" fill="#f0d0b4"/>
        </g>
        <g id="Grupo_1172342" data-name="Grupo 1172342">
          <path id="Trazado_1026339" data-name="Trazado 1026339" d="M14,8V26a2.006,2.006,0,0,0,2,2H28a4,4,0,1,0,8,0H48a2.006,2.006,0,0,0,2-2V8Z" fill="#5cd6b3"/>
        </g>
        <g id="Grupo_1172343" data-name="Grupo 1172343">
          <path id="Trazado_1026340" data-name="Trazado 1026340" d="M36,2a4,4,0,0,0-4,4,4,4,0,0,0-4-4H18V24H46V2Z" fill="#e6e9ed"/>
        </g>
        <g id="Grupo_1172344" data-name="Grupo 1172344">
          <path id="Trazado_1026341" data-name="Trazado 1026341" d="M36,6h6v6H36Z" fill="#ff826e"/>
        </g>
        <g id="Grupo_1172345" data-name="Grupo 1172345">
          <path id="Trazado_1026342" data-name="Trazado 1026342" d="M22,14h6v6H22Z" fill="#ff826e"/>
        </g>
      </g>
      <g id="Grupo_1172347" data-name="Grupo 1172347">
        <path id="Trazado_1026343" data-name="Trazado 1026343" d="M35,19h8v2H35Z"/>
        <path id="Trazado_1026344" data-name="Trazado 1026344" d="M35,15h8v2H35Z"/>
        <path id="Trazado_1026345" data-name="Trazado 1026345" d="M43,5H35v8h8Zm-2,6H37V7h4Z"/>
        <path id="Trazado_1026346" data-name="Trazado 1026346" d="M21,5h8V7H21Z"/>
        <path id="Trazado_1026347" data-name="Trazado 1026347" d="M21,9h8v2H21Z"/>
        <path id="Trazado_1026348" data-name="Trazado 1026348" d="M21,21h8V13H21Zm2-6h4v4H23Z"/>
        <path id="Trazado_1026349" data-name="Trazado 1026349" d="M44.3,61l-.636-.424a13.068,13.068,0,0,1-2.63-2.343,23.976,23.976,0,0,0,3.53-1.791l2.469,1.29,6.695-6.695-1.289-2.469a23.731,23.731,0,0,0,2.9-7L58,40.734V31.265l-2.652-.833a23.644,23.644,0,0,0-3.189-7.449L51,20.954V7H47V1H36a4.982,4.982,0,0,0-4,2.031A4.982,4.982,0,0,0,28,1H17V7H13V21.283l-1.128,1.652a23.781,23.781,0,0,0-3.22,7.5L6,31.266v9.469l2.653.832a23.758,23.758,0,0,0,2.9,7l-1.289,2.469,6.695,6.695,2.469-1.29a23.936,23.936,0,0,0,3.531,1.791,13.1,13.1,0,0,1-2.63,2.343L19.7,61H1v2H63V61ZM53.52,31.422l.121.572,2.359.74v6.531l-2.359.74-.121.572a21.794,21.794,0,0,1-3.068,7.4l-.319.489,1.147,2.2-4.619,4.617-2.2-1.147-.49.319A21.933,21.933,0,0,1,39.8,56.56a13.167,13.167,0,0,1-1.548-3.575A10,10,0,0,0,48,43V41h1a5,5,0,1,0,0-10H48V29a3,3,0,0,0,3-3V24.959a21.722,21.722,0,0,1,2.52,6.463ZM26,51a8.009,8.009,0,0,1-8-8V29h9.1a5,5,0,0,0,9.8,0H46V43a8.009,8.009,0,0,1-8,8ZM16,39H15a3,3,0,0,1,0-6h1Zm32-6h1a3,3,0,0,1,0,6H48ZM36,3h9V23H33V6A3,3,0,0,1,36,3ZM19,3h9a3,3,0,0,1,3,3V23H19ZM15,9h2V25H47V9h2V26a1,1,0,0,1-1,1H35v1a3,3,0,0,1-6,0V27H16a1,1,0,0,1-1-1Zm5.025,45.451-.49-.319-2.2,1.147L12.72,50.662l1.147-2.2-.319-.489a21.762,21.762,0,0,1-3.068-7.4l-.121-.572L8,39.266V32.735l2.359-.741.121-.572A21.721,21.721,0,0,1,13,24.957V26a3,3,0,0,0,3,3v2H15a5,5,0,0,0,0,10h1v2a10,10,0,0,0,9.748,9.987A13.158,13.158,0,0,1,24.2,56.561,21.936,21.936,0,0,1,20.025,54.451ZM27.79,53h8.42a15.194,15.194,0,0,0,4.76,8H23.03a15.194,15.194,0,0,0,4.76-8Z"/>
      </g>
    </g>
  </g>
</svg>
