<svg xmlns="http://www.w3.org/2000/svg" xmlns:xlink="http://www.w3.org/1999/xlink" width="110" height="110" viewBox="0 0 110 110">
  <defs>
    <filter id="Trazado_982547" x="0" y="0" width="110" height="110" filterUnits="userSpaceOnUse">
      <feOffset dy="3" input="SourceAlpha"/>
      <feGaussianBlur stdDeviation="3" result="blur"/>
      <feFlood flood-opacity="0.161"/>
      <feComposite operator="in" in2="blur"/>
      <feComposite in="SourceGraphic"/>
    </filter>
  </defs>
  <g id="Grupo_1171898" data-name="Grupo 1171898" transform="translate(-1112 -1960)">
    <g id="Grupo_1164700" data-name="Grupo 1164700" transform="translate(1121 1966)">
      <g id="Grupo_1160931" data-name="Grupo 1160931" transform="translate(0)">
        <g id="Grupo_1160749" data-name="Grupo 1160749" transform="translate(0)">
          <g id="Grupo_1158891" data-name="Grupo 1158891" transform="translate(0 0)">
            <g id="Grupo_1157406" data-name="Grupo 1157406" transform="translate(0)">
              <g id="Grupo_1155793" data-name="Grupo 1155793" transform="translate(0)">
                <g id="Grupo_1154704" data-name="Grupo 1154704" transform="translate(0)">
                  <g id="Grupo_1150790" data-name="Grupo 1150790" transform="translate(0)">
                    <g id="Grupo_1154214" data-name="Grupo 1154214" transform="translate(0)">
                      <g id="Grupo_1152583" data-name="Grupo 1152583" transform="translate(0 0)">
                        <g id="Grupo_1146973" data-name="Grupo 1146973" transform="translate(0 0)">
                          <g id="Grupo_1146954" data-name="Grupo 1146954">
                            <g transform="matrix(1, 0, 0, 1, -9, -6)" filter="url(#Trazado_982547)">
                              <g id="Trazado_982547-2" data-name="Trazado 982547" transform="translate(9 6)" fill="#edf3fc">
                                <path d="M 46.00000381469727 90.49988555908203 C 39.99188232421875 90.49988555908203 34.16427230834961 89.32352447509766 28.67905807495117 87.00347137451172 C 23.38020324707031 84.76226043701172 18.62104415893555 81.55342864990234 14.53375053405762 77.46615600585938 C 10.44647026062012 73.37887573242188 7.237643718719482 68.61971282958984 4.996417045593262 63.32085800170898 C 2.676363706588745 57.83565902709961 1.500003814697266 52.00806045532227 1.500003814697266 45.99993896484375 C 1.500003814697266 39.99181747436523 2.676363706588745 34.16421890258789 4.996417045593262 28.67901802062988 C 7.237643718719482 23.38017845153809 10.44647026062012 18.62101936340332 14.53375053405762 14.53373908996582 C 18.62104415893555 10.44645881652832 23.38020324707031 7.237632274627686 28.67905807495117 4.996418952941895 C 34.16427230834961 2.676365613937378 39.99188232421875 1.500005602836609 46.00000381469727 1.500005602836609 C 52.00812530517578 1.500005602836609 57.83573532104492 2.676365613937378 63.32094955444336 4.996418952941895 C 68.61980438232422 7.237632274627686 73.37897491455078 10.44645881652832 77.46625518798828 14.53373908996582 C 81.55355072021484 18.62101936340332 84.76236724853516 23.38017845153809 87.00359344482422 28.67901802062988 C 89.32364654541016 34.16421890258789 90.5 39.99181747436523 90.5 45.99993896484375 C 90.5 52.00806045532227 89.32364654541016 57.83565902709961 87.00359344482422 63.32085800170898 C 84.76236724853516 68.61971282958984 81.55355072021484 73.37887573242188 77.46625518798828 77.46615600585938 C 73.37897491455078 81.55342864990234 68.61980438232422 84.76226043701172 63.32094955444336 87.00347137451172 C 57.83573532104492 89.32352447509766 52.00812530517578 90.49988555908203 46.00000381469727 90.49988555908203 Z" stroke="none"/>
                                <path d="M 46.00000381469727 2.999992370605469 C 40.19371795654297 2.999992370605469 34.56270217895508 4.136497497558594 29.26338958740234 6.377906799316406 C 24.14333343505859 8.543510437011719 19.54441833496094 11.64437866210938 15.59440612792969 15.59439849853516 C 11.64440155029297 19.54439544677734 8.54351806640625 24.14329528808594 6.377914428710938 29.26335144042969 C 4.136505126953125 34.56266784667969 3.000007629394531 40.19366836547852 3.000007629394531 45.99993896484375 C 3.000007629394531 51.80620956420898 4.136505126953125 57.43722534179688 6.377914428710938 62.73654174804688 C 8.54351806640625 67.85658264160156 11.64440155029297 72.45548248291016 15.59440612792969 76.40549468994141 C 19.54441833496094 80.35549926757812 24.14333343505859 83.45636749267578 29.26337432861328 85.62196350097656 C 34.56270217895508 87.86338043212891 40.19371795654297 88.9998779296875 46.00000381469727 88.9998779296875 C 51.80628967285156 88.9998779296875 57.43730545043945 87.86338043212891 62.73663330078125 85.62196350097656 C 67.85667419433594 83.45636749267578 72.45558929443359 80.35549926757812 76.40560150146484 76.40549468994141 C 80.35560607910156 72.45548248291016 83.45648956298828 67.85658264160156 85.62208557128906 62.73654174804688 C 87.86350250244141 57.43722534179688 89 51.80620956420898 89 45.99993896484375 C 89 40.19366836547852 87.86350250244141 34.56266784667969 85.62208557128906 29.26335144042969 C 83.45648956298828 24.14329528808594 80.35560607910156 19.54439544677734 76.40560150146484 15.59439849853516 C 72.45558929443359 11.64437866210938 67.85667419433594 8.543510437011719 62.73661804199219 6.377906799316406 C 57.43730545043945 4.136497497558594 51.80628967285156 2.999992370605469 46.00000381469727 2.999992370605469 M 46.00000381469727 -7.62939453125e-06 C 71.40510559082031 -7.62939453125e-06 92 20.59487915039062 92 45.99993896484375 C 92 71.40501403808594 71.40510559082031 91.99988555908203 46.00000381469727 91.99988555908203 C 20.59490203857422 91.99988555908203 7.62939453125e-06 71.40501403808594 7.62939453125e-06 45.99993896484375 C 7.62939453125e-06 20.59487915039062 20.59490203857422 -7.62939453125e-06 46.00000381469727 -7.62939453125e-06 Z" stroke="none" fill="#5692e8"/>
                              </g>
                            </g>
                          </g>
                        </g>
                      </g>
                    </g>
                  </g>
                </g>
              </g>
            </g>
          </g>
        </g>
      </g>
    </g>
    <g id="g3015" transform="translate(1132.49 2663.394)">
      <g id="g3017" transform="translate(0 -682.665)">
        <g id="Grupo_1172350" data-name="Grupo 1172350">
          <g id="g3025" transform="translate(3.402 17.74)">
            <path id="path3027" d="M-102-51a5.144,5.144,0,0,1-5.144,5.144A5.144,5.144,0,0,1-112.286-51a5.144,5.144,0,0,1,5.144-5.144A5.144,5.144,0,0,1-102-51" transform="translate(112.286 56.144)" fill="#82defe"/>
          </g>
          <g id="g3029" transform="translate(2.05 0.916)">
            <path id="path3031" d="M-282.52-28.365a2.972,2.972,0,0,1-2.239-.571,11.1,11.1,0,0,0-6.768-2.29,11.1,11.1,0,0,0-6.769,2.291,2.969,2.969,0,0,1-2.237.57,9.2,9.2,0,0,0-10.481,9.1,9.2,9.2,0,0,0,11.922,8.777,2.958,2.958,0,0,1,2.288.251,11.094,11.094,0,0,0,5.277,1.327,11.094,11.094,0,0,0,5.277-1.327,2.96,2.96,0,0,1,2.289-.251,9.2,9.2,0,0,0,11.922-8.777,9.2,9.2,0,0,0-10.48-9.1" transform="translate(311.014 31.225)" fill="#c2eafb"/>
          </g>
          <g id="g3033" transform="translate(19.444 14.551)">
            <path id="path3035" d="M-212.217-1.419a25.759,25.759,0,0,0-2.711-.143A24.9,24.9,0,0,0-228.07,2.126a22.966,22.966,0,0,0-5.55,4.8,11.18,11.18,0,0,0,2.093.2,11.1,11.1,0,0,0,5.277-1.327,2.959,2.959,0,0,1,2.288-.251,9.214,9.214,0,0,0,11.745-6.959" transform="translate(233.621 1.563)" fill="#82defe"/>
          </g>
          <g id="g3037" transform="translate(8.79 31.663)">
            <path id="path3039" d="M-62.1-31.052a3.132,3.132,0,0,1-3.132,3.132,3.132,3.132,0,0,1-3.132-3.132,3.132,3.132,0,0,1,3.132-3.132A3.132,3.132,0,0,1-62.1-31.052" transform="translate(68.368 34.184)" fill="#82defe"/>
          </g>
          <g id="g3041" transform="translate(23.306 46.661)">
            <path id="path3043" d="M-295.427-148.386a14.965,14.965,0,0,0-14.965-14.966,14.969,14.969,0,0,0-14.81,12.8,1.9,1.9,0,0,0,1.883,2.164Z" transform="translate(325.222 163.352)" fill="#b3afe5"/>
          </g>
          <g id="g3045" transform="translate(25.491 46.661)">
            <path id="path3047" d="M-125.382-103.717a24.161,24.161,0,0,0,12.645-3.5,14.954,14.954,0,0,0-12.645-6.96,14.954,14.954,0,0,0-12.645,6.959,24.16,24.16,0,0,0,12.645,3.5" transform="translate(138.028 114.177)" fill="#a39ddf"/>
          </g>
          <g id="g3049" transform="translate(18.997 18.966)">
            <path id="path3051" d="M-379.526-170.993c0-9.524-8.569-17.246-19.139-17.246s-19.139,7.721-19.139,17.246,8.569,17.246,19.139,17.246,19.139-7.721,19.139-17.246" transform="translate(417.803 188.238)" fill="#ffd4bd"/>
          </g>
          <g id="g3053" transform="translate(18.997 18.966)">
            <path id="path3055" d="M-379.526-170.993c0-9.524-8.569-17.246-19.139-17.246s-19.139,7.721-19.139,17.246,8.569,17.246,19.139,17.246,19.139-7.721,19.139-17.246" transform="translate(417.803 188.238)" fill="#ffd4bd"/>
          </g>
          <g id="g3057" transform="translate(18.997 18.966)">
            <path id="path3059" d="M-379.526-170.993c0-9.524-8.569-17.246-19.139-17.246s-19.139,7.721-19.139,17.246,8.569,17.246,19.139,17.246,19.139-7.721,19.139-17.246" transform="translate(417.803 188.238)" fill="#ffd4bd"/>
          </g>
          <g id="g3061" transform="translate(44.463 41.929)">
            <path id="path3063" d="M-111.685-10.755a7.427,7.427,0,0,0-3.855-1.085,7.4,7.4,0,0,0-4.983,1.925,7.426,7.426,0,0,0-1.818,8.436,18.454,18.454,0,0,0,10.657-9.276" transform="translate(122.949 11.84)" fill="#ffbf9d"/>
          </g>
          <g id="g3065" transform="translate(48.123 45.593)">
            <path id="path3067" d="M-103.788-158.974a1.894,1.894,0,0,0,1.893-2.071,21.747,21.747,0,0,0-5.834-12.733,3.75,3.75,0,0,0-5.3-.256,3.75,3.75,0,0,0-.256,5.3,14.212,14.212,0,0,1,4.005,9.763Z" transform="translate(114.256 175.007)" fill="#ffd4bd"/>
          </g>
          <g id="g3069" transform="translate(51.091 50.165)">
            <path id="path3071" d="M-60.768,0A16.93,16.93,0,0,1-66.9,4.342a13.82,13.82,0,0,1,2.011,7.12H-59.4a1.894,1.894,0,0,0,1.893-2.071A21.113,21.113,0,0,0-60.768,0" transform="translate(66.897)" fill="#a39ddf"/>
          </g>
          <g id="g3073" transform="translate(19.633 18.216)">
            <path id="path3075" d="M-356.083-124.76a1.056,1.056,0,0,0,.952-1.5c-3-6.5-10.1-11.083-18.361-11.083-8.311,0-15.447,4.637-18.416,11.2a.948.948,0,0,0,1.124,1.307,39.943,39.943,0,0,0,9.1-3.951.6.6,0,0,1,.915.571c-.02.2-.037.418-.049.645a3.018,3.018,0,0,0,3.305,3.161c3.063-.295,7.574-1.119,10.424-3.388a.679.679,0,0,1,.8-.041,18.356,18.356,0,0,0,10.208,3.077" transform="translate(391.996 137.342)" fill="#ed9b84"/>
          </g>
          <g id="g3077" transform="translate(10.917 8.264)">
            <path id="path3079" d="M-74.952-37.476a3.78,3.78,0,0,0-3.78-3.78,3.78,3.78,0,0,0-3.78,3.78,3.78,3.78,0,0,0,3.78,3.78,3.78,3.78,0,0,0,3.78-3.78" transform="translate(82.512 41.256)" fill="#54d47b"/>
          </g>
          <g id="g3081" transform="translate(24.249 8.512)">
            <path id="path3083" d="M-55.236,0h-4.077a1.493,1.493,0,0,0-1.493,1.493V5.571a1.493,1.493,0,0,0,1.493,1.493h4.077a1.493,1.493,0,0,0,1.493-1.493V1.493A1.493,1.493,0,0,0-55.236,0" transform="translate(60.807)" fill="#b3afe5"/>
          </g>
          <g id="g3093" transform="translate(19.633 18.216)">
            <path id="path3095" d="M-356.083-124.76a1.056,1.056,0,0,0,.952-1.5c-3-6.5-10.1-11.083-18.361-11.083-8.311,0-15.447,4.637-18.416,11.2a.948.948,0,0,0,1.124,1.307,39.943,39.943,0,0,0,9.1-3.951.6.6,0,0,1,.915.571c-.02.2-.037.418-.049.645a3.018,3.018,0,0,0,3.305,3.161c3.063-.295,7.574-1.119,10.424-3.388a.679.679,0,0,1,.8-.041A18.356,18.356,0,0,0-356.083-124.76Z" transform="translate(391.996 137.342)" fill="none" stroke="#000" stroke-linecap="round" stroke-linejoin="round" stroke-miterlimit="10" stroke-width="2"/>
          </g>
          <g id="g3097" transform="translate(10.917 8.264)">
            <path id="path3099" d="M-74.952-37.476a3.78,3.78,0,0,0-3.78-3.78,3.78,3.78,0,0,0-3.78,3.78,3.78,3.78,0,0,0,3.78,3.78A3.78,3.78,0,0,0-74.952-37.476Z" transform="translate(82.512 41.256)" fill="none" stroke="#000" stroke-linecap="round" stroke-linejoin="round" stroke-miterlimit="10" stroke-width="2"/>
          </g>
          <g id="g3101" transform="translate(24.249 8.512)">
            <path id="path3103" d="M-55.236,0h-4.077a1.493,1.493,0,0,0-1.493,1.493V5.571a1.493,1.493,0,0,0,1.493,1.493h4.077a1.493,1.493,0,0,0,1.493-1.493V1.493A1.493,1.493,0,0,0-55.236,0Z" transform="translate(60.807)" fill="none" stroke="#000" stroke-linecap="round" stroke-linejoin="round" stroke-miterlimit="10" stroke-width="2"/>
          </g>
          <g id="g3105" transform="translate(48.123 45.593)">
            <path id="path3107" d="M-103.788-158.974a1.894,1.894,0,0,0,1.893-2.071,21.747,21.747,0,0,0-5.834-12.733,3.75,3.75,0,0,0-5.3-.256,3.75,3.75,0,0,0-.256,5.3,14.212,14.212,0,0,1,4.005,9.763Z" transform="translate(114.256 175.007)" fill="none" stroke="#000" stroke-linecap="round" stroke-linejoin="round" stroke-miterlimit="10" stroke-width="2"/>
          </g>
          <g id="g3109" transform="translate(18.998 30.59)">
            <path id="path3111" d="M-10.32,0a15.686,15.686,0,0,0-1.041,5.621c0,9.524,8.569,17.246,19.139,17.246a20.6,20.6,0,0,0,10.267-2.69" transform="translate(11.361)" fill="none" stroke="#000" stroke-linecap="round" stroke-linejoin="round" stroke-miterlimit="10" stroke-width="2"/>
          </g>
          <g id="g3113" transform="translate(53.798 30.549)">
            <path id="path3115" d="M0-154.433a16.03,16.03,0,0,0,3.477-9.913,15.691,15.691,0,0,0-1.057-5.663" transform="translate(0 170.009)" fill="none" stroke="#000" stroke-linecap="round" stroke-linejoin="round" stroke-miterlimit="10" stroke-width="2"/>
          </g>
          <g id="g3117" transform="translate(49.718 61.627)">
            <path id="path3119" d="M0,0H3.383" fill="none" stroke="#000" stroke-linecap="round" stroke-linejoin="round" stroke-miterlimit="10" stroke-width="2"/>
          </g>
          <g id="g3121" transform="translate(23.306 50.757)">
            <path id="path3123" d="M-45.056,0A14.93,14.93,0,0,0-49.58,8.706,1.9,1.9,0,0,0-47.7,10.87h20.154" transform="translate(49.6)" fill="none" stroke="#000" stroke-linecap="round" stroke-linejoin="round" stroke-miterlimit="10" stroke-width="2"/>
          </g>
          <g id="g3141" transform="translate(2.05 6.216)">
            <path id="path3143" d="M-28.372,0a9.117,9.117,0,0,0-2.861,6.661,9.2,9.2,0,0,0,11.922,8.777,2.959,2.959,0,0,1,2.288.251,11.094,11.094,0,0,0,5.277,1.327,11.115,11.115,0,0,0,3.533-.574" transform="translate(31.233)" fill="none" stroke="#000" stroke-linecap="round" stroke-linejoin="round" stroke-miterlimit="10" stroke-width="2"/>
          </g>
          <g id="g3145" transform="translate(8.719 0.916)">
            <path id="path3147" d="M-303.18-171.861a9.067,9.067,0,0,0,1.727-5.373,9.2,9.2,0,0,0-10.48-9.1,2.972,2.972,0,0,1-2.239-.571,11.1,11.1,0,0,0-6.768-2.29,11.1,11.1,0,0,0-6.769,2.29,2.968,2.968,0,0,1-2.236.57,9.073,9.073,0,0,0-3.812.259" transform="translate(333.758 189.194)" fill="none" stroke="#000" stroke-linecap="round" stroke-linejoin="round" stroke-miterlimit="10" stroke-width="2"/>
          </g>
          <g id="g3149" transform="translate(3.402 19.396)">
            <path id="path3151" d="M-13.525,0a5.124,5.124,0,0,0-1.364,3.488A5.144,5.144,0,0,0-9.746,8.631,5.144,5.144,0,0,0-4.6,3.488a5.155,5.155,0,0,0-.122-1.114" transform="translate(14.889)" fill="none" stroke="#000" stroke-linecap="round" stroke-linejoin="round" stroke-miterlimit="10" stroke-width="2"/>
          </g>
          <g id="g3153" transform="translate(8.79 31.663)">
            <path id="path3155" d="M-62.1-31.052a3.132,3.132,0,0,1-3.132,3.132,3.132,3.132,0,0,1-3.132-3.132,3.132,3.132,0,0,1,3.132-3.132A3.132,3.132,0,0,1-62.1-31.052Z" transform="translate(68.368 34.184)" fill="none" stroke="#000" stroke-linecap="round" stroke-linejoin="round" stroke-miterlimit="10" stroke-width="2"/>
          </g>
          <g id="g3157" transform="translate(51.091 50.165)">
            <path id="path3159" d="M-60.768,0A16.93,16.93,0,0,1-66.9,4.342" transform="translate(66.897)" fill="none" stroke="#000" stroke-linecap="round" stroke-linejoin="round" stroke-miterlimit="10" stroke-width="2"/>
          </g>
        </g>
      </g>
    </g>
  </g>
</svg>
