<svg xmlns="http://www.w3.org/2000/svg" xmlns:xlink="http://www.w3.org/1999/xlink" width="110" height="110" viewBox="0 0 110 110">
  <defs>
    <filter id="Trazado_982547" x="0" y="0" width="110" height="110" filterUnits="userSpaceOnUse">
      <feOffset dy="3" input="SourceAlpha"/>
      <feGaussianBlur stdDeviation="3" result="blur"/>
      <feFlood flood-opacity="0.161"/>
      <feComposite operator="in" in2="blur"/>
      <feComposite in="SourceGraphic"/>
    </filter>
  </defs>
  <g id="Grupo_1172371" data-name="Grupo 1172371" transform="translate(-592.5 -1703.208)">
    <g id="Grupo_1171904" data-name="Grupo 1171904" transform="translate(-519.5 -256.792)">
      <g id="Grupo_1164700" data-name="Grupo 1164700" transform="translate(1121 1966)">
        <g id="Grupo_1160931" data-name="Grupo 1160931" transform="translate(0)">
          <g id="Grupo_1160749" data-name="Grupo 1160749" transform="translate(0)">
            <g id="Grupo_1158891" data-name="Grupo 1158891" transform="translate(0 0)">
              <g id="Grupo_1157406" data-name="Grupo 1157406" transform="translate(0)">
                <g id="Grupo_1155793" data-name="Grupo 1155793" transform="translate(0)">
                  <g id="Grupo_1154704" data-name="Grupo 1154704" transform="translate(0)">
                    <g id="Grupo_1150790" data-name="Grupo 1150790" transform="translate(0)">
                      <g id="Grupo_1154214" data-name="Grupo 1154214" transform="translate(0)">
                        <g id="Grupo_1152583" data-name="Grupo 1152583" transform="translate(0 0)">
                          <g id="Grupo_1146973" data-name="Grupo 1146973" transform="translate(0 0)">
                            <g id="Grupo_1146954" data-name="Grupo 1146954">
                              <g transform="matrix(1, 0, 0, 1, -9, -6)" filter="url(#Trazado_982547)">
                                <g id="Trazado_982547-2" data-name="Trazado 982547" transform="translate(9 6)" fill="#edf3fc">
                                  <path d="M 46.00000381469727 90.49988555908203 C 39.99188232421875 90.49988555908203 34.16427230834961 89.32352447509766 28.67905807495117 87.00347137451172 C 23.38020324707031 84.76226043701172 18.62104415893555 81.55342864990234 14.53375053405762 77.46615600585938 C 10.44647026062012 73.37887573242188 7.237643718719482 68.61971282958984 4.996417045593262 63.32085800170898 C 2.676363706588745 57.83565902709961 1.500003814697266 52.00806045532227 1.500003814697266 45.99993896484375 C 1.500003814697266 39.99181747436523 2.676363706588745 34.16421890258789 4.996417045593262 28.67901802062988 C 7.237643718719482 23.38017845153809 10.44647026062012 18.62101936340332 14.53375053405762 14.53373908996582 C 18.62104415893555 10.44645881652832 23.38020324707031 7.237632274627686 28.67905807495117 4.996418952941895 C 34.16427230834961 2.676365613937378 39.99188232421875 1.500005602836609 46.00000381469727 1.500005602836609 C 52.00812530517578 1.500005602836609 57.83573532104492 2.676365613937378 63.32094955444336 4.996418952941895 C 68.61980438232422 7.237632274627686 73.37897491455078 10.44645881652832 77.46625518798828 14.53373908996582 C 81.55355072021484 18.62101936340332 84.76236724853516 23.38017845153809 87.00359344482422 28.67901802062988 C 89.32364654541016 34.16421890258789 90.5 39.99181747436523 90.5 45.99993896484375 C 90.5 52.00806045532227 89.32364654541016 57.83565902709961 87.00359344482422 63.32085800170898 C 84.76236724853516 68.61971282958984 81.55355072021484 73.37887573242188 77.46625518798828 77.46615600585938 C 73.37897491455078 81.55342864990234 68.61980438232422 84.76226043701172 63.32094955444336 87.00347137451172 C 57.83573532104492 89.32352447509766 52.00812530517578 90.49988555908203 46.00000381469727 90.49988555908203 Z" stroke="none"/>
                                  <path d="M 46.00000381469727 2.999992370605469 C 40.19371795654297 2.999992370605469 34.56270217895508 4.136497497558594 29.26338958740234 6.377906799316406 C 24.14333343505859 8.543510437011719 19.54441833496094 11.64437866210938 15.59440612792969 15.59439849853516 C 11.64440155029297 19.54439544677734 8.54351806640625 24.14329528808594 6.377914428710938 29.26335144042969 C 4.136505126953125 34.56266784667969 3.000007629394531 40.19366836547852 3.000007629394531 45.99993896484375 C 3.000007629394531 51.80620956420898 4.136505126953125 57.43722534179688 6.377914428710938 62.73654174804688 C 8.54351806640625 67.85658264160156 11.64440155029297 72.45548248291016 15.59440612792969 76.40549468994141 C 19.54441833496094 80.35549926757812 24.14333343505859 83.45636749267578 29.26337432861328 85.62196350097656 C 34.56270217895508 87.86338043212891 40.19371795654297 88.9998779296875 46.00000381469727 88.9998779296875 C 51.80628967285156 88.9998779296875 57.43730545043945 87.86338043212891 62.73663330078125 85.62196350097656 C 67.85667419433594 83.45636749267578 72.45558929443359 80.35549926757812 76.40560150146484 76.40549468994141 C 80.35560607910156 72.45548248291016 83.45648956298828 67.85658264160156 85.62208557128906 62.73654174804688 C 87.86350250244141 57.43722534179688 89 51.80620956420898 89 45.99993896484375 C 89 40.19366836547852 87.86350250244141 34.56266784667969 85.62208557128906 29.26335144042969 C 83.45648956298828 24.14329528808594 80.35560607910156 19.54439544677734 76.40560150146484 15.59439849853516 C 72.45558929443359 11.64437866210938 67.85667419433594 8.543510437011719 62.73661804199219 6.377906799316406 C 57.43730545043945 4.136497497558594 51.80628967285156 2.999992370605469 46.00000381469727 2.999992370605469 M 46.00000381469727 -7.62939453125e-06 C 71.40510559082031 -7.62939453125e-06 92 20.59487915039062 92 45.99993896484375 C 92 71.40501403808594 71.40510559082031 91.99988555908203 46.00000381469727 91.99988555908203 C 20.59490203857422 91.99988555908203 7.62939453125e-06 71.40501403808594 7.62939453125e-06 45.99993896484375 C 7.62939453125e-06 20.59487915039062 20.59490203857422 -7.62939453125e-06 46.00000381469727 -7.62939453125e-06 Z" stroke="none" fill="#5692e8"/>
                                </g>
                              </g>
                            </g>
                          </g>
                        </g>
                      </g>
                    </g>
                  </g>
                </g>
              </g>
            </g>
          </g>
        </g>
      </g>
    </g>
    <g id="tutoring_12925163" transform="translate(612.637 1720.345)">
      <g id="Grupo_1172366" data-name="Grupo 1172366" transform="translate(7.5 7.5)">
        <path id="Trazado_1026374" data-name="Trazado 1026374" d="M305.5,91.848H285.365V86.411a3.688,3.688,0,0,1,3.688-3.688h12.758a3.688,3.688,0,0,1,3.688,3.688Z" transform="translate(-254.769 -74.44)" fill="#809096"/>
        <path id="Trazado_1026375" data-name="Trazado 1026375" d="M415.412,86.416v5.436h-2.846V86.416a3.687,3.687,0,0,0-3.688-3.688h2.846A3.688,3.688,0,0,1,415.412,86.416Z" transform="translate(-364.681 -74.444)" fill="#70838c"/>
        <path id="Trazado_1026376" data-name="Trazado 1026376" d="M247.11,319.15v16.937h22.339l6-8.959v-7.979a3.9,3.9,0,0,0-3.9-3.9H251.322A4.172,4.172,0,0,0,247.11,319.15Z" transform="translate(-220.726 -281.361)" fill="#62dbfb"/>
        <rect id="Rectángulo_414604" data-name="Rectángulo 414604" width="8.895" height="8.469" transform="translate(26.384 46.257)" fill="#ffe5c2"/>
        <path id="Trazado_1026377" data-name="Trazado 1026377" d="M433.745,319.151v7.979l-6,8.959H424.99l6-8.959v-7.979a3.9,3.9,0,0,0-3.9-3.9h2.753A3.9,3.9,0,0,1,433.745,319.151Z" transform="translate(-379.019 -281.363)" fill="#01d0fb"/>
        <path id="Trazado_1026378" data-name="Trazado 1026378" d="M319.718,147.673v7.071c0,3.018-1.854,5.466-4.874,5.466h-.4v3.942h-5.58V160.21h-.4a4.874,4.874,0,0,1-4.874-4.874v-7.664a16.428,16.428,0,0,0,7.2-1.89,2.461,2.461,0,0,1,2.524.043,12,12,0,0,0,3.553,1.456A13.413,13.413,0,0,0,319.718,147.673Z" transform="translate(-270.996 -130.265)" fill="#ffe5c2"/>
        <path id="Trazado_1026379" data-name="Trazado 1026379" d="M384.4,162.431V169.5c0,3.018-1.854,5.466-4.874,5.466h-.4v3.942H376.29v-3a.946.946,0,0,1,.946-.946,3.822,3.822,0,0,0,3.293-1.6,6.681,6.681,0,0,0,1.03-3.865V162.04A13.409,13.409,0,0,0,384.4,162.431Z" transform="translate(-335.682 -145.023)" fill="#fed2a4"/>
        <path id="Trazado_1026380" data-name="Trazado 1026380" d="M449.98,170.61h2.551a1.115,1.115,0,0,0,1.115-1.115v-2.788a1.115,1.115,0,0,0-1.115-1.115H449.98Z" transform="translate(-401.258 -148.184)" fill="#ffbd86"/>
        <path id="Trazado_1026381" data-name="Trazado 1026381" d="M309.323,402.585h14.418V392.24a2.265,2.265,0,0,0-2.265-2.265h-9.888a2.265,2.265,0,0,0-2.265,2.265Z" transform="translate(-276.089 -347.86)" fill="#f2fbff"/>
        <path id="Trazado_1026382" data-name="Trazado 1026382" d="M397.182,392.242v10.346h-3.066V392.242a2.265,2.265,0,0,0-2.265-2.264h3.065A2.265,2.265,0,0,1,397.182,392.242Z" transform="translate(-349.529 -347.863)" fill="#dff6fd"/>
        <path id="Trazado_1026383" data-name="Trazado 1026383" d="M273.971,170.61H271.42A1.115,1.115,0,0,1,270.3,169.5v-2.788a1.115,1.115,0,0,1,1.115-1.115h2.551Z" transform="translate(-241.367 -148.184)" fill="#fed2a4"/>
        <path id="Trazado_1026384" data-name="Trazado 1026384" d="M309.323,364.73v1.7a1.183,1.183,0,0,0,1.183,1.184h15.9a4.408,4.408,0,0,0,4.407-4.409V350.68l-7.074,6.592v4.88l-6.988.555-3.282-1.325a.981.981,0,0,0-1.23.442l-.693,1.28-1.438.513A1.183,1.183,0,0,0,309.323,364.73Z" transform="translate(-276.089 -312.892)" fill="#ffe5c2"/>
        <path id="Trazado_1026385" data-name="Trazado 1026385" d="M446.631,350.68v12.529a4.408,4.408,0,0,1-4.408,4.409H439.47a4.408,4.408,0,0,0,4.408-4.409v-9.963Z" transform="translate(-391.905 -312.892)" fill="#fed2a4"/>
        <rect id="Rectángulo_414605" data-name="Rectángulo 414605" width="7.074" height="8.468" transform="translate(47.652 37.788)" fill="#62dbfb"/>
        <rect id="Rectángulo_414606" data-name="Rectángulo 414606" width="2.753" height="8.469" transform="translate(51.973 37.788)" fill="#01d0fb"/>
        <path id="Trazado_1026386" data-name="Trazado 1026386" d="M337.8,297.714l-1.827,2.651a.607.607,0,0,1-.984.021l-2.013-2.672,2.034-2.17Z" transform="translate(-297.14 -263.827)" fill="#0593fc"/>
        <path id="Trazado_1026387" data-name="Trazado 1026387" d="M376.792,297.714l1.827,2.651a.607.607,0,0,0,.984.021l2.013-2.672-2.034-2.17Z" transform="translate(-336.128 -263.827)" fill="#0593fc"/>
        <path id="Trazado_1026388" data-name="Trazado 1026388" d="M32.787,252l-1.38,5.559a4.585,4.585,0,0,0,2.05,5.01l-.608,2.451,6.086,1.511.557-2.244a4.631,4.631,0,0,0,6-3.234l1.38-5.559Z" transform="translate(-28.654 -225.08)" fill="#ffe5c2"/>
        <path id="Trazado_1026389" data-name="Trazado 1026389" d="M120.774,276.248l-1.38,5.559a4.607,4.607,0,0,1-5.074,3.443,10.45,10.45,0,0,0,2.713-9.93Z" transform="translate(-102.558 -245.83)" fill="#fed2a4"/>
        <path id="Trazado_1026390" data-name="Trazado 1026390" d="M25.791,219.79s3.624-.584,4.933-3.028l-.045-.011a1.539,1.539,0,0,1-1.123-1.864h0a1.539,1.539,0,0,1,1.864-1.123l.045.011a11.133,11.133,0,0,0,7.738-1.059,2.834,2.834,0,0,0,2.779-1.841,3.224,3.224,0,0,0-.582-3.711,3.8,3.8,0,0,0-3.557-.793,8.99,8.99,0,0,0-6-2.436c-4.345.213-4.9,2.111-4.9,2.111s-2.342.424-3.159,2.1C22.524,210.719,21.407,217.632,25.791,219.79Z" transform="translate(-20.988 -182.298)" fill="#fee45a"/>
        <path id="Trazado_1026391" data-name="Trazado 1026391" d="M169.872,229.514a2.835,2.835,0,0,1-2.779,1.841c-.213.118-.425.225-.638.324a8.807,8.807,0,0,0-.085-6.783,3.713,3.713,0,0,1,2.919.907A3.224,3.224,0,0,1,169.872,229.514Z" transform="translate(-148.876 -200.937)" fill="#fed402"/>
        <path id="Trazado_1026392" data-name="Trazado 1026392" d="M19.824,385.04H7.5v-8.789c0-2.536,2-4.718,4.195-5.993h0l6.086,1.511c1.35.725,2.044,2.582,2.044,4.941v8.33Z" transform="translate(-7.5 -330.314)" fill="#fea3ce"/>
        <path id="Trazado_1026393" data-name="Trazado 1026393" d="M70.48,433.383l2.438,3.543h5.639l.763-.344a1.91,1.91,0,0,1,2.09.344h0a.9.9,0,0,1,.844,1.219l-.934,2.485a.9.9,0,0,1-.844.584H68.469l-2.978-4.551,2.962-2.921Z" transform="translate(-59.105 -386.488)" fill="#ffe5c2"/>
        <path id="Trazado_1026394" data-name="Trazado 1026394" d="M183.438,462.305a.906.906,0,0,1-.058.318l-.934,2.485a.9.9,0,0,1-.845.585H179.13a.9.9,0,0,0,.843-.585l.935-2.485a.9.9,0,0,0-.845-1.218q-.064-.059-.132-.112l.514-.232a1.91,1.91,0,0,1,2.09.345A.9.9,0,0,1,183.438,462.305Z" transform="translate(-160.231 -410.968)" fill="#fed2a4"/>
        <path id="Trazado_1026395" data-name="Trazado 1026395" d="M31.547,374.745h0a2.985,2.985,0,0,0-.855,4.134l3.395,5.165,4.989-3.279L35.681,375.6A2.985,2.985,0,0,0,31.547,374.745Z" transform="translate(-27.702 -333.87)" fill="#fe7ab6"/>
        <g id="Grupo_1172364" data-name="Grupo 1172364" transform="translate(7.743)">
          <g id="Grupo_1172363" data-name="Grupo 1172363">
            <path id="Trazado_1026396" data-name="Trazado 1026396" d="M77.821,26.1V9.664A2.164,2.164,0,0,1,79.985,7.5h14.1a1.605,1.605,0,0,1,1.605,1.605V21.879a1.605,1.605,0,0,1-1.605,1.605H81l-2.021,2.973A.633.633,0,0,1,77.821,26.1Z" transform="translate(-77.821 -7.5)" fill="#fff9e2"/>
          </g>
        </g>
        <g id="Grupo_1172365" data-name="Grupo 1172365" transform="translate(20.699)">
          <path id="Trazado_1026397" data-name="Trazado 1026397" d="M200.389,9.105V21.88a1.6,1.6,0,0,1-1.605,1.6h-3.3a1.6,1.6,0,0,0,1.605-1.6V9.105A1.606,1.606,0,0,0,195.48,7.5h3.3A1.606,1.606,0,0,1,200.389,9.105Z" transform="translate(-195.48 -7.5)" fill="#fff2bb"/>
        </g>
      </g>
      <g id="Grupo_1172370" data-name="Grupo 1172370" transform="translate(7.5 7.5)">
        <path id="Trazado_1026398" data-name="Trazado 1026398" d="M375.8,82.723h6.488a3.688,3.688,0,0,1,3.688,3.688v5.436" transform="translate(-335.248 -74.44)" fill="none" stroke="#000" stroke-linecap="round" stroke-linejoin="round" stroke-miterlimit="10" stroke-width="1.5"/>
        <path id="Trazado_1026399" data-name="Trazado 1026399" d="M285.365,91.848V86.411a3.688,3.688,0,0,1,3.688-3.688h2.361" transform="translate(-254.769 -74.44)" fill="none" stroke="#000" stroke-linecap="round" stroke-linejoin="round" stroke-miterlimit="10" stroke-width="1.5"/>
        <path id="Trazado_1026400" data-name="Trazado 1026400" d="M248.152,327.857a3.66,3.66,0,0,0-1.042,2.513v16.937h22.339" transform="translate(-220.726 -292.582)" fill="none" stroke="#000" stroke-linecap="round" stroke-linejoin="round" stroke-miterlimit="10" stroke-width="1.5"/>
        <path id="Trazado_1026401" data-name="Trazado 1026401" d="M296.4,315.248h-4.526" transform="translate(-260.565 -281.361)" fill="none" stroke="#000" stroke-linecap="round" stroke-linejoin="round" stroke-miterlimit="10" stroke-width="1.5"/>
        <path id="Trazado_1026402" data-name="Trazado 1026402" d="M429.842,327.128v-7.979a3.9,3.9,0,0,0-3.9-3.9H420.6" transform="translate(-375.117 -281.361)" fill="none" stroke="#000" stroke-linecap="round" stroke-linejoin="round" stroke-miterlimit="10" stroke-width="1.5"/>
        <path id="Trazado_1026403" data-name="Trazado 1026403" d="M308.869,161.983V160.21h-.4a4.874,4.874,0,0,1-4.874-4.874v-7.664a16.428,16.428,0,0,0,7.2-1.89,2.461,2.461,0,0,1,2.524.043,12,12,0,0,0,3.553,1.456,13.409,13.409,0,0,0,2.845.391v7.071c0,3.018-1.854,5.466-4.874,5.466h-.4v1.772" transform="translate(-270.996 -130.265)" fill="none" stroke="#000" stroke-linecap="round" stroke-linejoin="round" stroke-miterlimit="10" stroke-width="1.5"/>
        <path id="Trazado_1026404" data-name="Trazado 1026404" d="M449.98,170.61h2.551a1.115,1.115,0,0,0,1.115-1.115v-2.788a1.115,1.115,0,0,0-1.115-1.115H449.98Z" transform="translate(-401.258 -148.184)" fill="none" stroke="#000" stroke-linecap="round" stroke-linejoin="round" stroke-miterlimit="10" stroke-width="1.5"/>
        <path id="Trazado_1026405" data-name="Trazado 1026405" d="M323.741,394.116V392.24a2.265,2.265,0,0,0-2.265-2.265h-9.888a2.265,2.265,0,0,0-2.265,2.265V399.7" transform="translate(-276.089 -347.86)" fill="none" stroke="#000" stroke-linecap="round" stroke-linejoin="round" stroke-miterlimit="10" stroke-width="1.5"/>
        <path id="Trazado_1026406" data-name="Trazado 1026406" d="M273.971,170.61H271.42A1.115,1.115,0,0,1,270.3,169.5v-2.788a1.115,1.115,0,0,1,1.115-1.115h2.551Z" transform="translate(-241.367 -148.184)" fill="none" stroke="#000" stroke-linecap="round" stroke-linejoin="round" stroke-miterlimit="10" stroke-width="1.5"/>
        <path id="Trazado_1026407" data-name="Trazado 1026407" d="M323.741,427.585v3l-6.988.555-3.282-1.325a.981.981,0,0,0-1.231.442l-.693,1.279-1.438.513a1.183,1.183,0,0,0-.785,1.114v1.7a1.183,1.183,0,0,0,1.183,1.184h15.9a4.408,4.408,0,0,0,4.407-4.409v-4.061" transform="translate(-276.089 -381.329)" fill="none" stroke="#000" stroke-linecap="round" stroke-linejoin="round" stroke-miterlimit="10" stroke-width="1.5"/>
        <path id="Trazado_1026408" data-name="Trazado 1026408" d="M440.258,353.1v6.045h7.074V350.68" transform="translate(-392.606 -312.892)" fill="none" stroke="#000" stroke-linecap="round" stroke-linejoin="round" stroke-miterlimit="10" stroke-width="1.5"/>
        <path id="Trazado_1026409" data-name="Trazado 1026409" d="M46.2,290.82l-.608,2.452,6.086,1.511.557-2.244a4.631,4.631,0,0,0,6-3.234l1.38-5.559" transform="translate(-41.4 -253.328)" fill="none" stroke="#000" stroke-linecap="round" stroke-linejoin="round" stroke-miterlimit="10" stroke-width="1.5"/>
        <path id="Trazado_1026410" data-name="Trazado 1026410" d="M22.667,213.041c-.105,2.668.591,5.5,3.124,6.75,0,0,3.624-.584,4.933-3.028l-.045-.011a1.539,1.539,0,0,1-1.123-1.864h0a1.539,1.539,0,0,1,1.864-1.123l.045.011a11.133,11.133,0,0,0,7.738-1.059,2.834,2.834,0,0,0,2.779-1.841,3.224,3.224,0,0,0-.582-3.711,3.8,3.8,0,0,0-3.557-.793,8.99,8.99,0,0,0-6-2.436c-4.345.213-4.9,2.111-4.9,2.111s-2.342.424-3.159,2.1a8.947,8.947,0,0,0-.453,1.151" transform="translate(-20.988 -182.299)" fill="none" stroke="#000" stroke-linecap="round" stroke-linejoin="round" stroke-miterlimit="10" stroke-width="1.5"/>
        <path id="Trazado_1026411" data-name="Trazado 1026411" d="M16.863,385.04H7.5v-8.789c0-2.536,2-4.718,4.195-5.993h0l6.086,1.511c1.35.725,2.044,2.582,2.044,4.941v1.879" transform="translate(-7.5 -330.314)" fill="none" stroke="#000" stroke-linecap="round" stroke-linejoin="round" stroke-miterlimit="10" stroke-width="1.5"/>
        <path id="Trazado_1026412" data-name="Trazado 1026412" d="M70.48,433.383l2.438,3.543h5.639l.763-.344a1.91,1.91,0,0,1,2.09.344h0a.9.9,0,0,1,.844,1.219l-.934,2.485a.9.9,0,0,1-.844.584H68.469l-2.978-4.551" transform="translate(-59.105 -386.488)" fill="none" stroke="#000" stroke-linecap="round" stroke-linejoin="round" stroke-miterlimit="10" stroke-width="1.5"/>
        <path id="Trazado_1026413" data-name="Trazado 1026413" d="M31.547,374.745h0a2.985,2.985,0,0,0-.855,4.134l3.395,5.165,4.989-3.279L35.681,375.6A2.985,2.985,0,0,0,31.547,374.745Z" transform="translate(-27.702 -333.87)" fill="none" stroke="#000" stroke-linecap="round" stroke-linejoin="round" stroke-miterlimit="10" stroke-width="1.5"/>
        <g id="Grupo_1172367" data-name="Grupo 1172367" transform="translate(7.743)">
          <path id="Trazado_1026414" data-name="Trazado 1026414" d="M77.821,26.1V9.664A2.164,2.164,0,0,1,79.985,7.5h14.1a1.605,1.605,0,0,1,1.605,1.605V21.879a1.605,1.605,0,0,1-1.605,1.605H81l-2.021,2.973A.633.633,0,0,1,77.821,26.1Z" transform="translate(-77.821 -7.5)" fill="none" stroke="#000" stroke-linecap="round" stroke-linejoin="round" stroke-miterlimit="10" stroke-width="1.5"/>
        </g>
        <path id="Trazado_1026415" data-name="Trazado 1026415" d="M337.8,297.714l-1.827,2.651a.607.607,0,0,1-.984.021l-2.013-2.672,2.034-2.17Z" transform="translate(-297.14 -263.827)" fill="none" stroke="#000" stroke-linecap="round" stroke-linejoin="round" stroke-miterlimit="10" stroke-width="1.5"/>
        <path id="Trazado_1026416" data-name="Trazado 1026416" d="M376.792,297.714l1.827,2.651a.607.607,0,0,0,.984.021l2.013-2.672-2.034-2.17Z" transform="translate(-336.128 -263.827)" fill="none" stroke="#000" stroke-linecap="round" stroke-linejoin="round" stroke-miterlimit="10" stroke-width="1.5"/>
        <line id="Línea_752" data-name="Línea 752" x2="1.316" y2="3.836" transform="translate(18.899 46.257)" fill="none" stroke="#000" stroke-linecap="round" stroke-linejoin="round" stroke-miterlimit="10" stroke-width="1.5"/>
        <g id="Grupo_1172369" data-name="Grupo 1172369" transform="translate(13.791 2.664)">
          <path id="Trazado_1026417" data-name="Trazado 1026417" d="M132.742,34.023a2.915,2.915,0,1,1,4,3.267,1.887,1.887,0,0,0-1.146,1.734h0" transform="translate(-132.742 -31.696)" fill="none" stroke="#000" stroke-linecap="round" stroke-linejoin="round" stroke-miterlimit="10" stroke-width="1.5"/>
          <line id="Línea_754" data-name="Línea 754" transform="translate(2.885 10.181)" fill="none" stroke="#000" stroke-linecap="round" stroke-linejoin="round" stroke-miterlimit="10" stroke-width="1.5"/>
        </g>
        <line id="Línea_755" data-name="Línea 755" y1="4.436" transform="translate(33.234 39.944)" fill="none" stroke="#000" stroke-linecap="round" stroke-linejoin="round" stroke-miterlimit="10" stroke-width="1.5"/>
        <line id="Línea_756" data-name="Línea 756" x2="6.85" y2="0.001" transform="translate(26.384 46.256)" fill="none" stroke="#000" stroke-linecap="round" stroke-linejoin="round" stroke-miterlimit="10" stroke-width="1.5"/>
      </g>
    </g>
  </g>
</svg>
