<svg xmlns="http://www.w3.org/2000/svg" xmlns:xlink="http://www.w3.org/1999/xlink" width="400" height="340" viewBox="0 0 400 340">
  <defs>
    <clipPath id="clip-path">
      <rect id="Rectángulo_414613" data-name="Rectángulo 414613" width="400" height="340" transform="translate(1020 369)" fill="#fff" stroke="#707070" stroke-width="1"/>
    </clipPath>
    <clipPath id="clip-path-2">
      <rect id="Rectángulo_414607" data-name="Rectángulo 414607" width="381" height="328.881" fill="none"/>
    </clipPath>
    <clipPath id="clip-path-3">
      <path id="Trazado_1026422" data-name="Trazado 1026422" d="M418.826,773.251l-29.415,19.224-7.355,41.06h202.48l-3.4-36.733-21.856-24.42c-13.579-9.058-41.9-13.467-70-13.467-29.531,0-58.815,4.872-70.458,14.336" transform="translate(-382.056 -758.915)" fill="none"/>
    </clipPath>
    <clipPath id="clip-path-5">
      <path id="Trazado_1026427" data-name="Trazado 1026427" d="M188.568,991.839A17.525,17.525,0,0,0,171.76,1004.4l-20.725,70.241a17.525,17.525,0,0,0,16.808,22.484H440.4a17.524,17.524,0,0,0,16.808-22.484L436.481,1004.4a17.525,17.525,0,0,0-16.808-12.565Z" transform="translate(-150.307 -991.839)" fill="none"/>
    </clipPath>
    <clipPath id="clip-path-8">
      <path id="Trazado_1026436" data-name="Trazado 1026436" d="M524.553,279.965l-22.641,89.306,15.52,6.927c25.983,39.312,103.092,44.546,131.2-2.389l13.444-3.281-15.844-90.564Z" transform="translate(-501.912 -279.965)" fill="none"/>
    </clipPath>
    <clipPath id="clip-path-10">
      <path id="Trazado_1026441" data-name="Trazado 1026441" d="M525.8,273.965l-15.844,90.564L523.4,367.81c28.108,46.934,101.5,46.637,131.2,2.173l15.52-6.712-22.641-89.306Z" transform="translate(-509.955 -273.965)" fill="none"/>
    </clipPath>
  </defs>
  <g id="Enmascarar_grupo_1098719" data-name="Enmascarar grupo 1098719" transform="translate(-1020 -369)" clip-path="url(#clip-path)">
    <g id="Grupo_1172392" data-name="Grupo 1172392" transform="translate(1030 379.835)">
      <g id="Grupo_1172373" data-name="Grupo 1172373" transform="translate(0 -0.004)">
        <g id="Grupo_1172372" data-name="Grupo 1172372" clip-path="url(#clip-path-2)">
          <path id="Trazado_1026419" data-name="Trazado 1026419" d="M418.827,773.252c22.719-18.468,112.6-19.449,140.454-.87l21.855,24.42,3.4,36.733H382.057l7.355-41.06Z" transform="translate(-299.52 -594.963)" fill="#0ca1b9"/>
        </g>
      </g>
      <g id="Grupo_1172375" data-name="Grupo 1172375" transform="translate(82.537 163.948)">
        <g id="Grupo_1172374" data-name="Grupo 1172374" clip-path="url(#clip-path-3)">
          <path id="Trazado_1026420" data-name="Trazado 1026420" d="M385.621,622.794c1.328-1.772,21.2,9.338,21.228,10.9.227,12.158-7.159,56.782-10.348,68.68-3.508,13.086-16.417,18.225-28.441,14-10.556-3.711-14.429-16.508-12.048-27.1,3.2-14.232,19.348-52.785,29.609-66.478" transform="translate(-361.107 -652.051)" fill="#0884a0"/>
          <path id="Trazado_1026421" data-name="Trazado 1026421" d="M1186.6,608.519c-1.318-1.779-21.117,14.366-21.155,15.924-.3,12.157,6.9,53.281,10.331,63.672,4.244,12.866,15.815,18.235,27.863,14.074,10.577-3.652,14.521-16.427,12.2-27.028-3.121-14.25-19.052-52.893-29.237-66.642" transform="translate(-996.198 -640.902)" fill="#0884a0"/>
        </g>
      </g>
      <g id="Grupo_1172377" data-name="Grupo 1172377" transform="translate(0 -0.004)">
        <g id="Grupo_1172376" data-name="Grupo 1172376" clip-path="url(#clip-path-2)">
          <rect id="Rectángulo_414608" data-name="Rectángulo 414608" width="307.627" height="10.438" transform="translate(32.472 301.829)" fill="#edda8e"/>
          <path id="Trazado_1026423" data-name="Trazado 1026423" d="M440.4,1140.271H167.843a17.525,17.525,0,0,1-16.808-22.484l20.725-70.241a17.524,17.524,0,0,1,16.808-12.565h231.1a17.525,17.525,0,0,1,16.808,12.565l20.725,70.241a17.524,17.524,0,0,1-16.808,22.484" transform="translate(-117.836 -811.39)" fill="#edda8e"/>
          <path id="Trazado_1026424" data-name="Trazado 1026424" d="M440.4,1097.129H167.843a17.525,17.525,0,0,1-16.808-22.484L171.76,1004.4a17.524,17.524,0,0,1,16.808-12.565h231.1a17.525,17.525,0,0,1,16.808,12.565l20.725,70.241a17.524,17.524,0,0,1-16.808,22.484" transform="translate(-117.836 -777.568)" fill="#fceb99"/>
        </g>
      </g>
      <g id="Grupo_1172379" data-name="Grupo 1172379" transform="translate(32.471 214.267)">
        <g id="Grupo_1172378" data-name="Grupo 1172378" clip-path="url(#clip-path-5)">
          <path id="Trazado_1026425" data-name="Trazado 1026425" d="M1185.846,686.312c-10.618,0-19.93-8.576-23.724-19.174-3.717-10.382-12.813-60.126-12.824-72.912,0-2.021,1.837-3,4.24-4.079,1.686-.754,4-1.64,6.527-2.494,2.223-.753,9.751-3.21,13.3-3.21a3.84,3.84,0,0,1,3.13,1.272c4.884,6.257,11.595,18.358,18.411,33.2a207.326,207.326,0,0,1,12.108,33.66,30.632,30.632,0,0,1-.947,17.678c-2.3,6.112-5.761,12.349-11.312,14.424a25.368,25.368,0,0,1-8.9,1.634Z" transform="translate(-933.482 -672.455)" fill="#edda8e"/>
          <path id="Trazado_1026426" data-name="Trazado 1026426" d="M354.808,711.594a25.365,25.365,0,0,1-8.906-1.634c-5.551-2.075-8.8-7.447-11.1-13.56a30.633,30.633,0,0,1-.947-17.678,202.233,202.233,0,0,1,11.892-33.66c6.816-14.843,13.526-26.944,18.41-33.2a3.841,3.841,0,0,1,3.13-1.272c3.548,0,11.076,2.457,13.3,3.21,2.523.855,4.84,1.74,6.527,2.495,2.4,1.075,4.242,2.058,4.24,4.079-.011,12.785-9.107,62.529-12.824,72.911-3.794,10.6-13.107,18.31-23.725,18.31" transform="translate(-293.522 -692.952)" fill="#edda8e"/>
        </g>
      </g>
      <g id="Grupo_1172381" data-name="Grupo 1172381" transform="translate(82.537 163.948)">
        <g id="Grupo_1172380" data-name="Grupo 1172380" clip-path="url(#clip-path-3)">
          <path id="Trazado_1026428" data-name="Trazado 1026428" d="M534.01,402.264c14.127,34.176,99.575,44.992,121.164-5.916l19.974.327-15.844-90.564H537.626l-22.641,89.306Z" transform="translate(-486.268 -403.932)" fill="#0884a0"/>
        </g>
      </g>
      <g id="Grupo_1172383" data-name="Grupo 1172383" transform="translate(0 -0.004)">
        <g id="Grupo_1172382" data-name="Grupo 1172382" clip-path="url(#clip-path-2)">
          <path id="Trazado_1026430" data-name="Trazado 1026430" d="M516.5,375.26c25.983,39.312,103.092,44.545,131.2-2.389l13.444-3.281L645.3,279.027H523.624l-22.641,89.306Z" transform="translate(-392.754 -218.747)" fill="#fdcb9a"/>
          <path id="Trazado_1026431" data-name="Trazado 1026431" d="M682.677,368.655l-7.712.894a.634.634,0,0,1-.7-.519l-3.905-21.923c-.015-.085-2.64-.167-2.688-.239l-9.156-17.085-.035-.059c-6.621-11.142-17.479-13.112-27.11-13.906a.636.636,0,0,0-.652.832,3.005,3.005,0,0,1-.15,2.043c-.248.706-1.136,2.348-4.028,2.348a16.652,16.652,0,0,1-7.2-1.707.653.653,0,0,0-.871.316l0,.006c-.782,1.7-2.635,2.559-5.507,2.559-4.921,0-13.435-2.458-23.185-6.654a2.35,2.35,0,0,0-2.743.665c-5.82,7.064-8.571,7.17-10.32,7.17a3.356,3.356,0,0,1-2.951-1.672c-.07-.1-.141-.2-.209-.286a1.678,1.678,0,0,0-2.4-.236c-10.309,8.716-22.768,15.092-29.8,17.274l-6.69,9.03a.634.634,0,0,0-.07.144l-8.765,25.9a.634.634,0,0,1-1.233-.253l6.211-78.7a.634.634,0,0,1,.628-.584l140.2-.774a.634.634,0,0,1,.631.541l10.969,74.147a.634.634,0,0,1-.554.723" transform="translate(-411.259 -229.893)" fill="#e3a262"/>
          <path id="Trazado_1026432" data-name="Trazado 1026432" d="M621.852,174.4c12.82-24.513,6.5-57.244-2.4-67.246,6.454,4.193,7.535.652,4.892-4.891C621.9,97.146,611.656,82.552,595.3,73.468c5.777,1.631,4.355-3.209,1.392-5.584-2.626-2.105-9.4-7.32-24.173-9.23,7.687-1.817,1.118-6.569-4.892-8.386s-28.93-6.848-55.484,9.783c-43.186-8.106-60.516,32.7-63.59,45.282-2.489,10.182,2.981,10.016,8.289,5.171-12.675,17.051-7.09,50.241-1.918,58.018l8.534,12.831,9.129-26.977,7.563-9.892c8.2-2.335,24.587-11.059,35.582-22.892-3.075,7.64-.745,14.814,11.647-1.584,19.38,8.852,35.219,11.367,26.927,1.677,11.553,8.249,19.473,6.429,10.622-.652,11.181.839,25.679.65,34.456,15.419l12.24,17.925,4.363,20.7Z" transform="translate(-351.169 -37.723)" fill="#46270b"/>
          <path id="Trazado_1026433" data-name="Trazado 1026433" d="M566.549,533.072c.153-.448.319-.89.478-1.336l.5-1.325c.164-.443.344-.878.516-1.318l.26-.658.13-.329.065-.165.017-.041c.006-.013.077,0,.14.018s.1.015.03-.034l-.022-.016a.1.1,0,0,0-.014-.01l-.033-.019-.132-.076-.26-.136-.422-.214.279-.417-.006-.006a17.772,17.772,0,0,0,2.517-3.615,12.371,12.371,0,0,0,1.348-4.036,8.373,8.373,0,0,0,.073-1.007c0-.361-.009-.721-.036-1.1-.047-.746-.142-1.557-.209-2.4s-.108-1.716-.1-2.579.061-1.722.139-2.57l.064-.637c.029-.227.055-.454.094-.68a12.966,12.966,0,0,1,.284-1.344,15.543,15.543,0,0,1,.936-2.543c.375-.806.8-1.562,1.22-2.274s.827-1.385,1.113-2a4.609,4.609,0,0,0,.313-.854,2.466,2.466,0,0,0,.079-.723,1.046,1.046,0,0,0-.027-.195c-.011-.042-.019-.06-.026-.085-.012-.042-.1-.129-.306-.2a2.752,2.752,0,0,0-.818-.107c-.159,0-.328.008-.5.02l-.13.012-.065.006c.007,0,0,0-.09.018a1.24,1.24,0,0,1-.2.017,1.223,1.223,0,0,1-.374-.06,1.286,1.286,0,0,1-.259-.122,1.348,1.348,0,0,1-.164-.123,1.289,1.289,0,0,1-.264-.326,1.544,1.544,0,0,1-.093-.194,2.01,2.01,0,0,1-.086-.273,2.605,2.605,0,0,1-.069-.437c-.005-.071-.009-.143-.011-.222s0-.159.014-.306l.008-.07c0-.022.009-.067.016-.1s0-.017.005-.021l0-.007.006-.013c.008-.018.018-.036.027-.054l.053-.109.108-.22c.072-.149.145-.3.216-.46a2.446,2.446,0,0,0,.175-.572l.009-.045a.245.245,0,0,1,.287-.194.279.279,0,0,1,.04.011,1.426,1.426,0,0,1,.639.547,2.342,2.342,0,0,1,.322.751,2.935,2.935,0,0,1,.068.387c.006.064.01.129.014.193,0,.032,0,.064,0,.1v.036s0,.015,0,0l.017-.093c.011-.045.02-.021.033,0l.035.079a1.5,1.5,0,0,0,.078.154c.011.017.023.028.022.011a.176.176,0,0,0-.022-.059.728.728,0,0,0-.169-.208.945.945,0,0,0-.134-.1,1.014,1.014,0,0,0-.225-.105,1.061,1.061,0,0,0-.336-.055,1.037,1.037,0,0,0-.183.015c-.084.016-.085.019-.072.014l.083-.029.166-.057a5.889,5.889,0,0,1,.7-.186,4.728,4.728,0,0,1,1.608-.077,3.506,3.506,0,0,1,.93.253,3.1,3.1,0,0,1,.911.61,2.987,2.987,0,0,1,.645.923,3.567,3.567,0,0,1,.28.979,5.124,5.124,0,0,1-.075,1.7,7.491,7.491,0,0,1-.463,1.451c-.375.872-.8,1.6-1.18,2.3s-.733,1.373-1.022,2.05a12.314,12.314,0,0,0-.683,2.047,10.61,10.61,0,0,0-.2,1.042c-.028.175-.045.351-.065.527l-.048.576c-.059.771-.094,1.536-.09,2.3s.046,1.514.116,2.288.172,1.576.237,2.451c.035.432.05.885.056,1.336a11.744,11.744,0,0,1-.087,1.423,15.738,15.738,0,0,1-1.655,5.184,19.8,19.8,0,0,1-3.017,4.373l-.006-.005.279-.417-.432-.194-.269-.117-.142-.056-.036-.014-.016,0-.027-.007c-.082-.023-.057.005-.008.045s.108.084.1.1l-.022.039-.087.154-.175.308-.349.615c-.235.409-.461.823-.7,1.229l-.717,1.221c-.247.4-.487.811-.74,1.211a.409.409,0,0,1-.733-.35" transform="translate(-444.139 -387.423)" fill="#e3a262"/>
          <path id="Trazado_1026434" data-name="Trazado 1026434" d="M508.927,502.557c2.232-2.45,4.342-6.229,4.348-9.818,0-2.584-.683-4.474-.209-9.083s3.457-7.32,4-9.761-1.553-4.276-4.129-3.056a2.833,2.833,0,0,0-4.886-2.638c.746-3.931-3.321-4.88-5.694-2.847.813-2.677-1.558-4.5-4.221-3.58-3.506,1.208-7.783,5.928-8.528,9.59-.938,4.609,2.635,14.267,3.435,16.832a18.226,18.226,0,0,1,0,8.6l-2.413,4.822,15.861,6.036Z" transform="translate(-383.715 -361.827)" fill="#fdcb9a"/>
        </g>
      </g>
      <g id="Grupo_1172385" data-name="Grupo 1172385" transform="translate(108.43 60.479)">
        <g id="Grupo_1172384" data-name="Grupo 1172384" clip-path="url(#clip-path-8)">
          <path id="Trazado_1026435" data-name="Trazado 1026435" d="M555.637,653.658c.354.158,1.615-.452,1.86-.736a3.684,3.684,0,0,1,1.8,3.191c-.634,12.906-5.6,58.467-9.306,68.808-3.67,10.25,3.985-72.007,5.647-71.263" transform="translate(-538.832 -572.351)" fill="#e3a262"/>
        </g>
      </g>
      <g id="Grupo_1172387" data-name="Grupo 1172387" transform="translate(0 -0.004)">
        <g id="Grupo_1172386" data-name="Grupo 1172386" clip-path="url(#clip-path-2)">
          <path id="Trazado_1026437" data-name="Trazado 1026437" d="M371.667,622.865c1.363-1.746,22.561,5.355,22.56,6.914-.011,12.16-9.007,61.8-12.673,72.04-4.567,12.755-17.343,18.72-29.282,14.257-10.481-3.918-14.1-16.788-11.513-27.327,3.479-14.166,20.38-52.4,30.909-65.884" transform="translate(-266.513 -488.09)" fill="#0ca1b9"/>
          <path id="Trazado_1026438" data-name="Trazado 1026438" d="M1141.264,507.422c-.254-.4-.493-.807-.74-1.211l-.717-1.221c-.241-.406-.468-.819-.7-1.229l-.349-.615-.175-.308-.087-.154-.021-.039c-.007-.013.052-.057.1-.1s.074-.069-.008-.045l-.027.007-.016,0-.036.014-.142.056-.269.116-.432.194.278.417-.006.005a19.8,19.8,0,0,1-3.008-4.356,15.8,15.8,0,0,1-1.658-5.161,11.373,11.373,0,0,1-.092-1.417c0-.455.018-.9.052-1.336.063-.873.166-1.676.235-2.448s.115-1.522.12-2.281-.026-1.52-.083-2.287l-.048-.576c-.021-.181-.034-.353-.062-.528-.045-.349-.116-.693-.2-1.034a11.467,11.467,0,0,0-.679-2.019,22.168,22.168,0,0,0-1.041-2.017,23.077,23.077,0,0,1-1.211-2.3c-.1-.22-.182-.458-.262-.7a6.421,6.421,0,0,1-.191-.773,5.228,5.228,0,0,1-.049-1.672,3.728,3.728,0,0,1,.737-1.782,3.377,3.377,0,0,1,.756-.7,3.453,3.453,0,0,1,.89-.42,4.049,4.049,0,0,1,1.706-.134,4.64,4.64,0,0,1,.75.148c.12.032.237.067.351.107l.086.029.043.014a1.057,1.057,0,0,0-.484,0,.93.93,0,0,0-.473.267.569.569,0,0,0-.1.131c-.025.052-.017.056-.011.057a.08.08,0,0,0,.031-.025.358.358,0,0,1,.032-.035c.012,0,.018-.014.03.065l.007.042.006.032c0,.01.006.027,0,.016v-.048c0-.032,0-.064,0-.1l.014-.192a2.929,2.929,0,0,1,.068-.386,2.345,2.345,0,0,1,.322-.748,1.428,1.428,0,0,1,.638-.544.246.246,0,0,1,.316.144.255.255,0,0,1,.011.038l.009.047a2.448,2.448,0,0,0,.174.57c.07.163.144.31.215.458l.108.219.053.109c.008.018.019.036.027.054l.012.027a.327.327,0,0,1,.007.035l.009.051.01.08a2.392,2.392,0,0,1,.005.367,2.543,2.543,0,0,1-.035.261,1.891,1.891,0,0,1-.064.262,1.687,1.687,0,0,1-.146.328,1.311,1.311,0,0,1-.189.251,1.206,1.206,0,0,1-.6.346,1.225,1.225,0,0,1-.559,0l-.031,0-.062-.005c-.083-.009-.164-.012-.244-.014a4.047,4.047,0,0,0-.456.013,1.78,1.78,0,0,0-.685.186.7.7,0,0,0-.287.285,1.165,1.165,0,0,0-.116.462,2.474,2.474,0,0,0,.064.742,3.357,3.357,0,0,0,.115.4c.053.139.108.28.179.429a21.852,21.852,0,0,0,1.119,1.952,25.156,25.156,0,0,1,1.254,2.259,14.716,14.716,0,0,1,.947,2.549,13.169,13.169,0,0,1,.279,1.345c.038.224.062.456.09.676l.062.633c.076.845.125,1.7.132,2.561s-.032,1.728-.1,2.568-.162,1.645-.208,2.387c-.026.374-.033.736-.033,1.09a8.036,8.036,0,0,0,.076,1,12.426,12.426,0,0,0,1.351,4.02,17.781,17.781,0,0,0,2.51,3.6l-.006.006.279.417-.422.214-.26.136-.132.076-.033.019a.1.1,0,0,0-.014.01l-.022.016c-.069.05-.031.048.031.034s.134-.031.14-.018l.016.041.065.165.13.329.26.658c.171.44.351.875.516,1.318l.5,1.325c.159.446.325.888.478,1.336a.409.409,0,0,1-.733.35" transform="translate(-885.647 -367.04)" fill="#e3a262"/>
          <path id="Trazado_1026439" data-name="Trazado 1026439" d="M1143.809,476.558c-2.232-2.45-4.342-6.229-4.348-9.818,0-2.584.684-4.474.209-9.083s-3.457-7.321-4-9.761,1.553-4.276,4.129-3.056a2.834,2.834,0,0,1,4.886-2.638c-.746-3.931,3.321-4.88,5.694-2.847-.814-2.677,1.558-4.5,4.22-3.58,3.506,1.208,7.783,5.928,8.528,9.59.938,4.609-2.635,14.267-3.435,16.832a18.228,18.228,0,0,0,0,8.6l2.413,4.822-15.861,6.036Z" transform="translate(-890.26 -341.444)" fill="#fdcb9a"/>
        </g>
      </g>
      <g id="Grupo_1172389" data-name="Grupo 1172389" transform="translate(110.167 59.182)">
        <g id="Grupo_1172388" data-name="Grupo 1172388" clip-path="url(#clip-path-10)">
          <path id="Trazado_1026440" data-name="Trazado 1026440" d="M1160.172,626.4c-.354.158-1.026-.8-1.271-1.082a3.834,3.834,0,0,0-2.356,3.109c-.866,13.21,7.791,60.2,11.493,70.543,3.67,10.25-6.2-73.313-7.867-72.57" transform="translate(-1016.813 -549.416)" fill="#e3a262"/>
        </g>
      </g>
      <g id="Grupo_1172391" data-name="Grupo 1172391" transform="translate(0 -0.004)">
        <g id="Grupo_1172390" data-name="Grupo 1172390" clip-path="url(#clip-path-2)">
          <path id="Trazado_1026442" data-name="Trazado 1026442" d="M1184.637,596.865c-1.362-1.745-22.561,5.355-22.56,6.914.011,12.16,9.007,61.8,12.673,72.04,4.566,12.755,17.343,18.72,29.282,14.257,10.481-3.918,14.1-16.788,11.514-27.327-3.479-14.166-20.38-52.4-30.909-65.884" transform="translate(-911.03 -467.707)" fill="#0ca1b9"/>
          <path id="Trazado_1026443" data-name="Trazado 1026443" d="M871.658,605.825a12.482,12.482,0,0,0,.868,3.071,10.433,10.433,0,0,0,1.678,2.652,13.5,13.5,0,0,0,2.353,2.117q.329.229.664.452c.23.142.451.291.687.427.465.281.931.537,1.435.828a13.309,13.309,0,0,1,1.481.976,5.02,5.02,0,0,1,.714.667,2.629,2.629,0,0,1,.565,1.022,2.012,2.012,0,0,1,.053.681,2.078,2.078,0,0,1-.178.632,2.913,2.913,0,0,1-.654.889,8.545,8.545,0,0,1-1.489,1.062,16.051,16.051,0,0,1-3.145,1.465,23.5,23.5,0,0,1-3.314.785.433.433,0,0,1-.217-.836c1.062-.362,2.115-.677,3.1-1.1a18.053,18.053,0,0,0,2.824-1.525,7.276,7.276,0,0,0,1.2-.907,1.612,1.612,0,0,0,.331-.45.431.431,0,0,0,.033-.316A1.187,1.187,0,0,0,880.4,618a4.176,4.176,0,0,0-.507-.471,11.9,11.9,0,0,0-1.3-.87c-.458-.272-.97-.551-1.451-.859-.244-.148-.482-.315-.722-.472s-.473-.334-.706-.506a13.755,13.755,0,0,1-2.524-2.432,10.883,10.883,0,0,1-1.717-3.074,11.736,11.736,0,0,1-.667-3.414.432.432,0,0,1,.859-.091Z" transform="translate(-682.676 -474.652)" fill="#e3a262"/>
          <path id="Trazado_1026444" data-name="Trazado 1026444" d="M702.674,589.481a10.128,10.128,0,1,1-11.689-8.276,10.128,10.128,0,0,1,11.689,8.276" transform="translate(-535.105 -455.53)" fill="#fffdfe"/>
          <path id="Trazado_1026445" data-name="Trazado 1026445" d="M710.927,609.977a7.588,7.588,0,1,1-8.758-6.2,7.588,7.588,0,0,1,8.758,6.2" transform="translate(-545.53 -473.253)" fill="#3b1000"/>
          <path id="Trazado_1026446" data-name="Trazado 1026446" d="M707.867,614.214a1.381,1.381,0,1,1-1.593-1.128,1.381,1.381,0,0,1,1.593,1.128" transform="translate(-552.794 -480.622)" fill="#fffdfe"/>
          <path id="Trazado_1026447" data-name="Trazado 1026447" d="M685.207,521.8a13.036,13.036,0,0,0,1.581.223l.4.016a3.152,3.152,0,0,0,.394,0c.131-.006.262-.006.392-.008s.26-.022.389-.032.259-.019.387-.041l.383-.062a6.555,6.555,0,0,0,.755-.169,8.285,8.285,0,0,0,1.449-.529,10.821,10.821,0,0,0,2.594-1.745c.195-.182.387-.368.587-.548l.551-.6c.093-.1.191-.2.28-.3l.258-.32q.261-.319.537-.634l.031-.035a.541.541,0,0,1,.888.6q-.2.394-.422.784l-.221.389c-.079.127-.168.247-.252.372-.174.245-.348.49-.527.733-.2.23-.4.454-.6.682a6.507,6.507,0,0,1-.659.638l-.344.307c-.121.095-.248.185-.372.277a6.516,6.516,0,0,1-.774.515l-.406.231-.2.115-.214.1a9.33,9.33,0,0,1-1.774.608,8.169,8.169,0,0,1-.925.155l-.466.048c-.155.012-.312.005-.467.009a8.8,8.8,0,0,1-1.844-.179,8.323,8.323,0,0,1-1.741-.59.544.544,0,0,1,.346-1.021Z" transform="translate(-536.657 -405.183)" fill="#380e02"/>
          <path id="Trazado_1026448" data-name="Trazado 1026448" d="M987.6,583.686a10.128,10.128,0,1,0,11.342-8.746,10.128,10.128,0,0,0-11.342,8.746" transform="translate(-774.179 -450.667)" fill="#fffdfe"/>
          <path id="Trazado_1026449" data-name="Trazado 1026449" d="M998.241,604.132a7.588,7.588,0,1,0,8.5-6.553,7.588,7.588,0,0,0-8.5,6.553" transform="translate(-782.538 -468.431)" fill="#3b1000"/>
          <path id="Trazado_1026450" data-name="Trazado 1026450" d="M1003.988,612.523a1.381,1.381,0,1,0,1.621-1.088,1.381,1.381,0,0,0-1.621,1.088" transform="translate(-787.073 -479.323)" fill="#fffdfe"/>
          <path id="Trazado_1026451" data-name="Trazado 1026451" d="M1027.746,515.906a8.577,8.577,0,0,1-1.718.644l-.451.1a4.073,4.073,0,0,1-.456.076l-.461.058c-.154.018-.309.014-.464.022s-.311.015-.466.008l-.467-.024a7.508,7.508,0,0,1-.929-.118l-.232-.038-.227-.057-.455-.117c-.075-.022-.152-.039-.226-.065l-.219-.083-.439-.166a9.788,9.788,0,0,1-3.078-2.034l-.63-.66c-.193-.232-.37-.477-.555-.714-.091-.12-.184-.237-.266-.363l-.234-.382c-.151-.257-.3-.513-.443-.774a.542.542,0,0,1,.86-.64l.034.034c.2.2.385.4.572.6l.274.307c.1.1.2.189.293.286.193.191.388.378.577.571l.61.521a6.457,6.457,0,0,0,.626.486c.106.078.213.155.316.236s.222.138.332.208a6.076,6.076,0,0,0,.674.391l.345.178.172.09.18.071a9.3,9.3,0,0,0,1.468.48,7.391,7.391,0,0,0,.763.138l.386.051c.129.016.26.014.39.023a9.952,9.952,0,0,0,1.574-.045,12.36,12.36,0,0,0,1.567-.3l.013,0a.542.542,0,0,1,.389,1.006" transform="translate(-795.935 -400.149)" fill="#380e02"/>
          <path id="Trazado_1026452" data-name="Trazado 1026452" d="M859.985,758.217a11.726,11.726,0,0,1,3.476-3.257,15.016,15.016,0,0,1,4.369-1.9,12.689,12.689,0,0,1,2.391-.372,10.724,10.724,0,0,1,2.438.146,8.935,8.935,0,0,1,4.358,2.072.542.542,0,0,1-.636.872l-.007,0a9.912,9.912,0,0,0-3.951-1.357,11.745,11.745,0,0,0-4.176.315,16.617,16.617,0,0,0-3.981,1.582,14.255,14.255,0,0,0-3.426,2.568l-.014.014a.541.541,0,0,1-.841-.674" transform="translate(-674.128 -590.067)" fill="#380e02"/>
          <path id="Trazado_1026453" data-name="Trazado 1026453" d="M496.228,1147.766c-2.974,0-3.369-1.79-2.964-3.614l14.679-65.359a3.031,3.031,0,0,1,2.966-2.436h.073l66.912,1.608,66.92-7.55a3.025,3.025,0,0,1,3.237,2.164l20.318,63.663c.663,2.066-.441,3.721-2.9,3.867-2.006.079-.406.074-.406.074-5.138-.04-48.994.834-65.751.834-4.131,0-5.49.021-5.9.039-.905.039-1.164.293-2.081,1.567a8.224,8.224,0,0,1-6.009,3.972c-1.488.186-4.856.4-6.968.4-.607,0-1.09-.016-1.477-.051a8.585,8.585,0,0,1-6.034-3.4c-.987-1.1-1.312-1.417-2.218-1.417-.051,0-.1,0-.157,0-4.125.179-64.908,4.947-71.948,5.613-.1.009-.191.014-.286.014" transform="translate(-386.599 -839.155)" fill="#edda8e"/>
          <path id="Trazado_1026454" data-name="Trazado 1026454" d="M583.8,1069.966l68.576-7.566a.432.432,0,0,1,.462.309l20.1,69.281a.431.431,0,0,1-.416.552c-6.688-.052-69.238-.529-73.466-.346-4.466.193-3.6,4.968-8.3,5.556a58.788,58.788,0,0,1-7.894.342c-4.565-.4-4.283-5.011-8.75-4.817-4.227.183-66.5,6.073-73.16,6.7a.431.431,0,0,1-.463-.514l14.031-70.76a.432.432,0,0,1,.434-.348l68.787,1.611a.411.411,0,0,0,.057,0" transform="translate(-392.359 -832.883)" fill="#f15721"/>
          <path id="Trazado_1026455" data-name="Trazado 1026455" d="M604.592,1060.9l61.287-12.255,2.248-.1,19.257,68.351s-57.382-6.43-75.01,1.552a11.087,11.087,0,0,0-10.593.459c-18.253-6.425-74.863,4.946-74.863,4.946l13.269-69.761,2.248-.1,62.138,6.9Z" transform="translate(-413.085 -822.022)" fill="#f5ead8"/>
          <path id="Trazado_1026456" data-name="Trazado 1026456" d="M623.822,1090.967c.5-1.867,8.7-11.812,22.1-12.393s26.648,8.673,53.2,8.532c-1.29-6.44-14.4-52.365-17.113-65.095-14.822,1.076-28.158-3.543-40.116-3.025-14.12.612-20.821,12.667-20.821,12.667s-7.533-11.438-21.653-10.826c-11.959.518-24.845,6.274-39.7,6.485-1.605,12.917-10.688,59.8-11.415,66.332,26.467-2.158,38.865-12.523,52.265-13.1s22.423,8.617,23.08,10.434Z" transform="translate(-429.853 -798.819)" fill="#fff"/>
          <path id="Trazado_1026457" data-name="Trazado 1026457" d="M884.027,1076.193l2.9,59.306a.756.756,0,1,1-1.51.074s0-.007,0-.008l-2.248-59.334a.432.432,0,0,1,.863-.037" transform="translate(-692.371 -843.377)" fill="#f5ead8"/>
          <path id="Trazado_1026458" data-name="Trazado 1026458" d="M576.286,155.435a27.465,27.465,0,0,0-3.715,1.181l-.894.38-.88.41-.869.43-.854.459a39.729,39.729,0,0,0-6.347,4.443c-.982.844-1.941,1.717-2.863,2.629s-1.8,1.873-2.671,2.832c-1.743,1.929-3.4,3.922-5.182,5.893a.644.644,0,0,1-1.115-.521l.027-.184a10.939,10.939,0,0,1,.544-2.084,15.457,15.457,0,0,1,.845-1.925,19.062,19.062,0,0,1,2.309-3.455,39,39,0,0,1,6.1-5.657A31.507,31.507,0,0,1,568,156.151c.327-.127.656-.247.985-.364l1-.323c.336-.1.677-.181,1.013-.272l1.021-.231c.343-.066.684-.132,1.028-.183l1.035-.124c.346-.032.692-.053,1.037-.069s.692-.01,1.036,0h.043a.432.432,0,0,1,.094.852" transform="translate(-431.878 -121.183)" fill="#54340b"/>
          <path id="Trazado_1026459" data-name="Trazado 1026459" d="M815.433,97.855a9,9,0,0,1,1.677-1.406,14.77,14.77,0,0,1,1.881-1.05c.646-.305,1.3-.592,1.965-.833l1-.347,1.01-.319c1.352-.4,2.726-.7,4.1-.964,1.381-.243,2.772-.415,4.167-.554.7-.079,1.4-.1,2.1-.138l1.052-.037,1.053-.017a30.84,30.84,0,0,1,4.22.21,22.592,22.592,0,0,1,4.165.906l1.015.362c.338.124.667.281,1,.424a12.089,12.089,0,0,1,1.9,1.08l.131.091a.862.862,0,0,1-.677,1.549c-.321-.071-.642-.138-.96-.218l-.965-.2c-.325-.056-.65-.106-.971-.174l-.975-.163-.981-.136-.985-.112c-.657-.079-1.316-.149-1.977-.2a66.442,66.442,0,0,0-7.985-.262c-1.335.038-2.669.126-4,.249s-2.658.271-3.972.492a35.425,35.425,0,0,0-3.883.873,12.673,12.673,0,0,0-3.554,1.559.433.433,0,0,1-.563-.652Z" transform="translate(-639.171 -72.271)" fill="#54340b"/>
          <path id="Trazado_1026460" data-name="Trazado 1026460" d="M1010.832,178.135a24.494,24.494,0,0,1,4.972.387c.411.068.818.149,1.225.234s.813.172,1.218.267.8.205,1.2.316.8.223,1.2.343c1.594.462,3.146,1.038,4.683,1.646s3.043,1.292,4.526,2.019c.741.365,1.48.736,2.211,1.121.369.186.725.4,1.085.6s.719.408,1.075.619c1.425.839,2.84,1.7,4.211,2.64a25.462,25.462,0,0,1,3.821,3.231c.285.313.578.612.846.944s.54.654.787,1a12.426,12.426,0,0,1,1.318,2.229l.041.093a.657.657,0,0,1-.981.8l-3.886-2.754c-1.3-.9-2.593-1.814-3.9-2.708s-2.628-1.785-3.983-2.621q-.506-.318-1.019-.622l-1.026-.611c-.683-.41-1.374-.806-2.068-1.2-1.39-.781-2.8-1.515-4.228-2.231s-2.876-1.371-4.338-2c-.365-.158-.733-.312-1.1-.456s-.739-.3-1.112-.433-.742-.289-1.117-.42-.748-.27-1.127-.39l-.567-.186-.571-.169c-.38-.118-.763-.217-1.148-.315s-.77-.184-1.157-.28-.777-.156-1.167-.236a.435.435,0,0,1,.072-.86Z" transform="translate(-792.122 -139.642)" fill="#54340b"/>
          <path id="Trazado_1026461" data-name="Trazado 1026461" d="M516.771,340.784c-.054.27-.1.462-.15.684s-.105.424-.157.636c-.1.424-.216.843-.331,1.26-.232.834-.47,1.663-.723,2.484-.5,1.645-1.027,3.27-1.567,4.887s-1.083,3.226-1.684,4.818-1.207,3.18-1.986,4.754l-.007.013a.664.664,0,0,1-1.26-.29,17.99,17.99,0,0,1,.173-2.659c.108-.879.28-1.742.47-2.6a37.927,37.927,0,0,1,1.569-5.013,49.091,49.091,0,0,1,2.14-4.783q.6-1.167,1.271-2.3.334-.565.7-1.116c.122-.183.239-.367.364-.549s.255-.375.363-.505l.068-.082a.429.429,0,0,1,.751.358" transform="translate(-398.965 -266.76)" fill="#54340b"/>
          <path id="Trazado_1026462" data-name="Trazado 1026462" d="M903.237,194.128c.356.09.709.193,1.065.294s.7.233,1.047.357l1.032.4c.343.14.671.3,1.009.457.663.323,1.331.646,1.968,1.018.324.179.636.373.953.564s.629.386.939.586c.629.389,1.224.822,1.818,1.256s1.176.883,1.755,1.336,1.127.941,1.68,1.421,1.091.977,1.625,1.478,1.059,1.009,1.563,1.536,1.01,1.052,1.506,1.586.986,1.072,1.468,1.616l.7.835c.229.281.451.569.674.856a26.986,26.986,0,0,1,4.22,7.649l.044.131a.868.868,0,0,1-1.438.89c-2.032-2.039-3.837-4.206-5.649-6.363q-.669-.817-1.351-1.621c-.447-.543-.9-1.084-1.352-1.618-.908-1.073-1.853-2.11-2.8-3.148s-1.923-2.04-2.92-3.021-2.026-1.928-3.08-2.846c-.263-.231-.527-.459-.8-.678s-.537-.448-.814-.659c-.548-.433-1.1-.864-1.664-1.274a35,35,0,0,0-3.546-2.249.434.434,0,0,1,.317-.8Z" transform="translate(-707.664 -152.174)" fill="#54340b"/>
          <path id="Trazado_1026463" data-name="Trazado 1026463" d="M822.241,272.93a16.053,16.053,0,0,1-3.248-.733,26.064,26.064,0,0,1-3.04-1.216,37.569,37.569,0,0,1-5.6-3.341,37.025,37.025,0,0,1-5.036-4.229,21.356,21.356,0,0,1-2.154-2.557,10.767,10.767,0,0,1-1.551-3.018.438.438,0,0,1,.757-.407l.013.016a17.178,17.178,0,0,0,2.177,2.143c.783.656,1.6,1.276,2.442,1.87,1.679,1.193,3.425,2.31,5.191,3.4s3.58,2.117,5.338,3.243q1.324.835,2.624,1.73c.865.6,1.727,1.209,2.571,1.893l.011.009a.674.674,0,0,1,.1.948.681.681,0,0,1-.593.246" transform="translate(-628.421 -201.69)" fill="#54340b"/>
          <path id="Trazado_1026464" data-name="Trazado 1026464" d="M638.782,240.2a56.1,56.1,0,0,0-3.309,6.993q-1.447,3.588-2.58,7.265l-.545,1.84q-.241.928-.5,1.85c-.3,1.24-.6,2.476-.863,3.716-.072.309-.153.617-.218.928l-.2.93c-.137.62-.293,1.238-.409,1.862-.065.311-.131.623-.2.935s-.155.624-.207.937c-.124.627-.268,1.256-.448,1.891l-.018.063a.987.987,0,0,1-1.926-.121c-.1-.675-.169-1.355-.216-2.038-.029-.342-.028-.681-.023-1.021s.01-.68.019-1.02.015-.683.052-1.019l.107-1.012.125-1.011c.052-.335.12-.666.18-1a37.772,37.772,0,0,1,.977-3.933q.3-.964.621-1.924.338-.951.7-1.894a53.162,53.162,0,0,1,3.46-7.259c.66-1.165,1.394-2.292,2.159-3.392l.6-.809.305-.4c.1-.132.215-.261.322-.391.218-.259.423-.522.655-.77s.466-.495.7-.735a.434.434,0,0,1,.685.522Z" transform="translate(-491.643 -187.787)" fill="#54340b"/>
          <path id="Trazado_1026465" data-name="Trazado 1026465" d="M1154.927,312.685a11.249,11.249,0,0,1,3.109,1.106,20.573,20.573,0,0,1,2.766,1.737,28.8,28.8,0,0,1,4.71,4.452,23.5,23.5,0,0,1,3.581,5.459,14.84,14.84,0,0,1,1.034,3.179c.06.274.1.557.134.839s.055.568.065.853a7.664,7.664,0,0,1-.014.86,3.632,3.632,0,0,1-.048.431c-.02.143-.04.285-.069.426a.673.673,0,0,1-1.275.141l-.017-.039c-.406-.931-.826-1.793-1.287-2.647s-.946-1.687-1.451-2.518c-1.014-1.657-2.062-3.329-3.25-4.921a53.015,53.015,0,0,0-3.808-4.6c-.678-.732-1.384-1.44-2.123-2.107a18.971,18.971,0,0,0-2.355-1.84l-.016-.01a.439.439,0,0,1,.316-.8" transform="translate(-905.02 -245.128)" fill="#54340b"/>
          <path id="Trazado_1026466" data-name="Trazado 1026466" d="M656.869,696.868c-.881,2.821-5.118,4.007-9.463,2.65s-7.153-4.744-6.272-7.565,5.118-4.007,9.463-2.65,7.153,4.744,6.272,7.565" transform="translate(-502.501 -539.949)" fill="#fab685"/>
          <path id="Trazado_1026467" data-name="Trazado 1026467" d="M1058.288,688.868c.881,2.821,5.117,4.007,9.462,2.65s7.153-4.744,6.272-7.565-5.118-4.007-9.463-2.65-7.153,4.744-6.272,7.565" transform="translate(-829.536 -533.678)" fill="#fab685"/>
          <path id="Trazado_1026468" data-name="Trazado 1026468" d="M925.378,1112.226q-.813-.564-.339-1.247l2.389-3.444a4.6,4.6,0,0,0-1.044-1.374,18.663,18.663,0,0,0-1.574-1.436,5.433,5.433,0,0,0-1.376,1.033q-.782.757-1.587,1.516a5.6,5.6,0,0,1-1.472,1.061q-1.032-.716-.794-1.334.719-.265,4.833-4.461t6.5-6.523a45.362,45.362,0,0,1,4.265-3.738q1.877-1.411,2.431-1.026a1.652,1.652,0,0,1,.69.823q-.653.941-3.019,5.453t-3.211,5.73q-.845,1.219-2.532,4.242t-2.671,4.442a.95.95,0,0,1-1.494.282m4.872-9.392q1.392-2.5,2.677-4.754t1.594-2.7a6,6,0,0,1,.366-.5q-.708.139-4.477,3.906t-4.617,4.879a8.865,8.865,0,0,0,1.632,1.572,5.964,5.964,0,0,0,1.105.652q.328-.556,1.72-3.058" transform="translate(-720.887 -855.442)" fill="#3c3c3b"/>
          <path id="Trazado_1026469" data-name="Trazado 1026469" d="M1305.875,13.933l2.294,12.859.03.186a3.07,3.07,0,0,1-.177,2.255.984.984,0,0,1-.629.34,4.5,4.5,0,0,1-3.768-.887,5.571,5.571,0,0,1-1.875-3.546,6.879,6.879,0,0,1,.277-3.113,6.124,6.124,0,0,1,1.441-2.6,7.4,7.4,0,0,1-3.3-2.863,11.057,11.057,0,0,1-1.507-4.074,5.614,5.614,0,0,1,.2-2.48,10.236,10.236,0,0,1,.848-2.14,4.783,4.783,0,0,1,1.329-1.47,4.461,4.461,0,0,1,2-.831l.124-.02q1.488-.24,1.615.551Zm.252,14q.45-.073.266-1.212t-.639-3.57q-.455-2.431-.633-3.531a2.3,2.3,0,0,0-1.191,1.591,16.615,16.615,0,0,0-.482,2.042q-.161.972-.219,1.2l.182,1.131a2.993,2.993,0,0,0,.983,1.71,2.014,2.014,0,0,0,1.732.635m-5.4-18.8a4.608,4.608,0,0,0-.45,2.934,13.234,13.234,0,0,0,.712,2.739,7.812,7.812,0,0,0,.873,1.72,4.512,4.512,0,0,0,.9.928,2.476,2.476,0,0,0,.939.5l1.131-.182q-.862-4.361-1.85-10.5a3.727,3.727,0,0,0-2.26,1.859" transform="translate(-1018.06 -4.304)" fill="#3c3c3b"/>
          <path id="Trazado_1026470" data-name="Trazado 1026470" d="M360.837,15.875l1.585-1.615.466-.612a45.97,45.97,0,0,0,2.865-4.034q.6-1.062,1.044-1.928a8.248,8.248,0,0,0,.633-1.57,8.022,8.022,0,0,0,.252-1.406,2.347,2.347,0,0,0-.938-2.214,2.571,2.571,0,0,0-1.434-.372,2.55,2.55,0,0,1-1.334-.3,1.361,1.361,0,0,1-.43-.939,2.4,2.4,0,0,1,2.859-.723,5.769,5.769,0,0,1,1.773.936,3.607,3.607,0,0,1,1.187,1.447,4.014,4.014,0,0,1,.324,1.647,6.726,6.726,0,0,1-.361,1.925,16.441,16.441,0,0,1-.809,2.047q-.5.963-1.234,2.139-1.258,1.962-2.919,4.17l-2.355,3.04a16.068,16.068,0,0,1-1.972,2.227,5.594,5.594,0,0,1-.534.856,3.806,3.806,0,0,1-3.081,1.61,5.681,5.681,0,0,1-3.606-1.276,2.954,2.954,0,0,1-.937-1.257,1.29,1.29,0,0,1,.1-1.353.616.616,0,0,1,.536-.263,1.626,1.626,0,0,1,.832.4.931.931,0,0,1,.455.84l.01-.012.35.266-.048.062a2.685,2.685,0,0,0,2.727.617,7.741,7.741,0,0,0,2.725-2.542Z" transform="translate(-275.753 0.004)" fill="#3c3c3b"/>
          <path id="Trazado_1026471" data-name="Trazado 1026471" d="M1099.835,1171.013l-.009-.679a14.688,14.688,0,0,1,1.749-5.218,11.6,11.6,0,0,1,3.758-4.649,3.59,3.59,0,0,1,2.274-.636,2.167,2.167,0,0,1,1.05.384.89.89,0,0,1,.4.87q-.778.662-1.088,3.691-.182,1.781-.245,5.324t-.242,5.293l-.451,3.488a10.14,10.14,0,0,0,.119,2.308,9.986,9.986,0,0,1,.144,2.058q-.113,1.109-2.565.858l-.484-.05q-3.264-.334-4.358-4.138a19.354,19.354,0,0,1-.312-7.133l.152-1.484a.6.6,0,0,0,.108-.289m6.6-6.332.313-3.061a7.1,7.1,0,0,0-2.315,1.965,11.513,11.513,0,0,0-1.671,2.914,23.822,23.822,0,0,0-1.521,6.235,14.789,14.789,0,0,0,.321,5.808,5.387,5.387,0,0,0,1.99,3.075,3.969,3.969,0,0,0,1.862.616l0-.031q.3-2.89.507-8.738t.512-8.784" transform="translate(-861.896 -909.259)" fill="#3c3c3b"/>
          <path id="Trazado_1026472" data-name="Trazado 1026472" d="M631.735,1194.362l-.734.322a.8.8,0,0,0-.489.5l4.346,8.918q1.44-.807,1.567-.869,1.651-.8,2.022-.042l.048.1a1.458,1.458,0,0,1-.382.937,2.951,2.951,0,0,1-.73.653q-.353.207-.932.489l-.9.44q-1.073.523-1.533.223a1.166,1.166,0,0,1-.367-.467l-8.183-16.793a9.025,9.025,0,0,0-.913-1.371,8.991,8.991,0,0,1-.919-1.385l-.048-.1a6.262,6.262,0,0,1,.224-1.367l2.021-1.3a1.925,1.925,0,0,1,1.009-.169.863.863,0,0,1,.778.467q.42.861-.893,1.5l-.846.377a2.779,2.779,0,0,0-.3.166l2.55,4.66q.282.579.751,1.721t.717,1.65q.142-.1.375-.3a4.364,4.364,0,0,1,.849-.606.95.95,0,0,1,.709-.049.845.845,0,0,1,.543.451,1.061,1.061,0,0,1,.084.71.742.742,0,0,1-.419.536" transform="translate(-488.871 -927.491)" fill="#3c3c3b"/>
          <path id="Trazado_1026473" data-name="Trazado 1026473" d="M1472.352,1013.978l-.209.064a1.6,1.6,0,0,1-.35.355.725.725,0,0,1-.622.109,1.177,1.177,0,0,1-.682-.463q-.572-.729,1.047-2,2.409-1.888,8.907-7.391t6.69-6.071q1.319-1.014,2.8.7.225.263.589.726a1.686,1.686,0,0,1,.4.865q.035.4-.5.818t-1.083-.288l-.46-.637q-.552-.7-.836-.482-1.174.92-3.3,2.882t-3.2,2.827a5.214,5.214,0,0,0,.438.355,5.2,5.2,0,0,1,.918.816.817.817,0,0,1,.161.7,1.03,1.03,0,0,1-.378.625q-.828.649-2.474-1.452-1.371,1.075-3.925,3.466t-3.937,3.475" transform="translate(-1152.697 -782.559)" fill="#3c3c3b"/>
          <path id="Trazado_1026474" data-name="Trazado 1026474" d="M1359.306,1164.519l.214-1.243q.293-1.059,1.17-.817.757.209.431,2.269a7.818,7.818,0,0,1-.193.875,1,1,0,0,1-.706.668,2.333,2.333,0,0,1-1.386-.025,18.619,18.619,0,0,0-2.726-.419,19.093,19.093,0,0,1-2.552-.372q-1.135-.314-.924-1.078a1.032,1.032,0,0,1,.933-.841l.03.008q-.026-.2-.16-.777a3.99,3.99,0,0,1,0-2,3.628,3.628,0,0,1,.641-1.256,4.37,4.37,0,0,1,2.494-1.656,9.214,9.214,0,0,1,2.99-.33q1.356.1,2.123.213.786.1,1.771.31,1.247.263,2.972.74l2.289.616a33.734,33.734,0,0,1,4.242,1.385q1.247.556,2.023.991a10.125,10.125,0,0,1,1.344.885,8.347,8.347,0,0,1,1.064,1.011,4,4,0,0,1,.763,1.188,4.061,4.061,0,0,1,.171,2.767q-.4,1.42-1.278,1.178a.672.672,0,0,1-.463-.389.917.917,0,0,1-.038-.629l.4-.851a2.147,2.147,0,0,0-.9-2.22,10.8,10.8,0,0,0-2.654-1.711q-1.322-.577-2.145-.9a17.03,17.03,0,0,0-1.849-.674q-1.451-.467-2.923-.857l-1.918-.547a24.027,24.027,0,0,0-4.295-.9,13.8,13.8,0,0,0-2.15,0,4.38,4.38,0,0,0-1.425.323,5.143,5.143,0,0,0-1.728,1.949,2.8,2.8,0,0,0,.67,2.645,9.175,9.175,0,0,0,3.678.479" transform="translate(-1060.396 -907.444)" fill="#3c3c3b"/>
          <path id="Trazado_1026475" data-name="Trazado 1026475" d="M788.384,1084.907l-1.929,5.794a33.838,33.838,0,0,0-.919,3.6q-.425,2.074-.626,2.693a1.462,1.462,0,0,1-.542.831.818.818,0,0,1-.714.09q-1.134-.368-.33-2.847l2.174-6.242q-.187.22-1.067,1.3t-1.795,2.174q-.924,1.07-1.943,2.225-2.292,2.589-2.89,2.4a.93.93,0,0,1-.53-.428.751.751,0,0,1-.082-.637,28.975,28.975,0,0,1,2.9-3.275,31.917,31.917,0,0,0,3.313-3.827l.174-.538q-.08-1.28-.034-8.213t.17-7.314a.841.841,0,0,1,.5-.538,1.064,1.064,0,0,1,.754-.036l.678.352q-.648,4.592-.876,8.091a38.659,38.659,0,0,0,.152,6.857,10.118,10.118,0,0,0,1.6-1.661q.39-.9.565-1.434l1.647-5.737.814-2.509q.528-1.627,1.573-1.288.9.291.394,1.836t-1.595,4.227q-1.093,2.681-1.539,4.056" transform="translate(-609.262 -840.462)" fill="#3c3c3b"/>
          <path id="Trazado_1026476" data-name="Trazado 1026476" d="M429.983,1141.322l.49-.9.072-.122q1.308-2.472,4.139-7.29l.413-.7-2.111-1.241q-.357-.756-.142-1.121a1.037,1.037,0,0,1,.557-.483.657.657,0,0,1,.559.01,1.876,1.876,0,0,1,.445.389,2.692,2.692,0,0,1,.56.256l.869.566a1.034,1.034,0,0,1,.91.079,1.193,1.193,0,0,1,.562.686.937.937,0,0,1-.071.787l-.892,1.115q-1.853,3.154-5.278,9.616t-5.278,9.617a.574.574,0,0,1-.446.293.97.97,0,0,1-1.019-.7.862.862,0,0,1,.084-.716Z" transform="translate(-332.622 -885.418)" fill="#3c3c3b"/>
          <path id="Trazado_1026477" data-name="Trazado 1026477" d="M1599.823,729.1l-8.308-9.271q-1.38-1.567-2.714-3.154l.34-.968q.76-.585,5.02,2.4,3.47,2.445,6.1,4.509t2.866,2.234q-.52-.923-1.835-3.32t-2.067-3.7a55.987,55.987,0,0,0-4.259-6.477l-.124-.141a.99.99,0,0,1-.141-.754,1.126,1.126,0,0,1,.352-.645.748.748,0,0,1,.613-.195.831.831,0,0,1,.539.268q2.541,2.887,7.832,8.456t7.832,8.456a2.218,2.218,0,0,1,.575,1.271,1.085,1.085,0,0,1-.216.943q-.589.519-1.429-.436l-9.036-10.073-1.079-1.225q.655,1.076,2.126,3.911a47.447,47.447,0,0,0,2.4,4.218l.135.153q.059.115.323.51t.413.672a5.486,5.486,0,0,1,.292.653,1.026,1.026,0,0,1-.244,1.219q-.86.757-2.841-1.493a34.236,34.236,0,0,0-6.571-5.279q-2.305-1.526-3.081-2.1,1.654,1.974,2.515,2.952l8.934,9.744a1.711,1.711,0,0,1,.434,1.229,1.159,1.159,0,0,1-1.2.341,3.031,3.031,0,0,1-1.172-.892Z" transform="translate(-1245.567 -556.312)" fill="#3c3c3b"/>
          <path id="Trazado_1026478" data-name="Trazado 1026478" d="M1705.981,425.755l1.958-3.574.059-.128a8.659,8.659,0,0,0,.993-1.668,5.675,5.675,0,0,1,1.165-1.667,4.8,4.8,0,0,1,1.714-1.094,2.242,2.242,0,0,1,1.78,0,2.452,2.452,0,0,1,1.2,1.212,4.685,4.685,0,0,1,.443,1.889,12.32,12.32,0,0,1-.177,2.373,22.639,22.639,0,0,1-.551,2.529q-.337,1.2-.795,2.494-.7,1.975-1.192,3.02t-.821,1.8q-.33.755-.592,1.36l-.306.663-.358.777q-.4.834-.746,1.488t-.795,1.388a13.161,13.161,0,0,1-.866,1.26,8.1,8.1,0,0,1-.92.985,4.3,4.3,0,0,1-1.01.692,2.335,2.335,0,0,1-2.021.072,3.8,3.8,0,0,1-1.428-1.064,3.067,3.067,0,0,1-.609-1.585q-.107-.949-.121-1.8a7.887,7.887,0,0,1,.369-2.189q.382-1.336.623-2.159a22.962,22.962,0,0,1,.874-2.311q.843-1.98,1.349-3.078Zm-2.335,11.878a3.406,3.406,0,0,0,.2,1.49,1.412,1.412,0,0,0,.676.8,1.014,1.014,0,0,0,.844.026,2.65,2.65,0,0,0,.861-.631,13.171,13.171,0,0,0,.884-1.019,11.737,11.737,0,0,0,.895-1.342q.456-.784.822-1.428.345-.636.741-1.421.64-1.313,1-2.048l.059-.128a35.462,35.462,0,0,0,1.641-4.351q.742-2.4,1.084-3.986a10.482,10.482,0,0,0,.264-2.843q-.079-1.255-.749-1.563-.584-.269-1.489.645a13.075,13.075,0,0,0-1.832,2.475q-1.625,2.777-2.174,3.95t-.792,1.718q-.242.545-.683,1.6t-.772,1.995q-.331.945-.7,2.1a17.014,17.014,0,0,0-.543,2.118,15.661,15.661,0,0,0-.226,1.84" transform="translate(-1337.132 -327.257)" fill="#3c3c3b"/>
          <path id="Trazado_1026479" data-name="Trazado 1026479" d="M1372.618,1338.23l-9.541,6.377a59.169,59.169,0,0,0-8.98,7.192,1.475,1.475,0,0,1-1.3-.612,4.479,4.479,0,0,1-.793-2.093,4.571,4.571,0,0,1,.26-2.114,7.186,7.186,0,0,1,2.731-3.424,8.985,8.985,0,0,1,4.1-1.585,7.154,7.154,0,0,1,4.163.774l8.107-5.885q1.1-.757,1.7.123a.621.621,0,0,1,.051.67,1.5,1.5,0,0,1-.507.578m-10.591,5.461a7.214,7.214,0,0,0-5.876,1.071l-.013.009a5.205,5.205,0,0,0-1.833,1.8q-.159.377-.246.6a2.891,2.891,0,0,0-.126.744q-.047.623-.073,1.86,1.4-.961,4.083-3.039t4.083-3.039" transform="translate(-1059.906 -1047.778)" fill="#3c3c3b"/>
          <path id="Trazado_1026480" data-name="Trazado 1026480" d="M271.781,464.577q-2.552-7.819.82-8.92a3.434,3.434,0,0,1,3.086.347,7.767,7.767,0,0,1,2.347,2.636,21.62,21.62,0,0,1,1.607,3.406q.512,1.468.873,2.473.18.5.341.995.141.483.3.96.282.965.438,1.393l.448,1.373a22.1,22.1,0,0,1,1.026,4.256,9.222,9.222,0,0,1-.485,3.775q.069.11.312.575t.478.884a9.508,9.508,0,0,0,.541.847q.669.987,1.131.836l.119-.039q.955-.312,1.215-.124a.886.886,0,0,1,.342.442q.307.94-1.051,1.383a2.8,2.8,0,0,1-1.41-.019l0-.015a2.3,2.3,0,0,1-1.607-.978,9.1,9.1,0,0,1-.887-1.478q-.385-.8-.532-1.048l-1.253.409q-3.543-.99-5.3-5.305-.332-.816-.683-1.891l-1.478-5.033Zm7.3,1.267q-.185-.617-.375-1.2-2.742-8.4-5.861-7.384-.552.18-.424,1.889a23.893,23.893,0,0,0,.749,4.115q1.022,4.042,1.587,5.748t.814,2.368q.249.662.677,1.67a14.742,14.742,0,0,0,.917,1.823,16.578,16.578,0,0,0,1.05,1.548,3.728,3.728,0,0,0,1.227,1.077,1.889,1.889,0,0,0,1.312.2l-.01-.03a.926.926,0,0,1,.709-.661l0,.015a4.483,4.483,0,0,0,.078-3.658Z" transform="translate(-212.206 -357.053)" fill="#3c3c3b"/>
          <path id="Trazado_1026481" data-name="Trazado 1026481" d="M338.016,1326.359l-12.666-13.965-2.677-2.912a.74.74,0,0,1-.246-.5q.01-.222.5-.674a3.157,3.157,0,0,1,1.212-.677,3.513,3.513,0,0,1,1.428-.151,6.38,6.38,0,0,1,1.428.393,6.742,6.742,0,0,1,2.428,1.713,10.134,10.134,0,0,1,1.855,3.178q.079.226.349.937t.32.836a22.341,22.341,0,0,0,5.086,3.747q1.172.671,3.24,1.808t2.611,1.448l.053.058q.733.8.67,1.1a.9.9,0,0,1-.271.494,1.523,1.523,0,0,1-1.439.151l-.075-.081a40.329,40.329,0,0,0-7.46-5.147q-2.451-1.414-3.576-2.15l8.573,9.326a1.383,1.383,0,0,1,.383.672.692.692,0,0,1-.282.622.86.86,0,0,1-.678.271.931.931,0,0,1-.6-.314Zm-13.6-17.415,4.313,4.948q.669.728,1.022,1.065a9.34,9.34,0,0,0-.042-1.646l-1.511-2.386a2.417,2.417,0,0,0-.305-.4,7,7,0,0,0-1.5-1.163q-1.344-.812-1.982-.417" transform="translate(-252.772 -1025.007)" fill="#3c3c3b"/>
          <path id="Trazado_1026482" data-name="Trazado 1026482" d="M197.177,1029.079q.6.624.074,1.123a2.652,2.652,0,0,1-.855.48,2.742,2.742,0,0,0-.906.529,1.364,1.364,0,0,0-.3,1.042,3.865,3.865,0,0,0,.375,1.53,9.232,9.232,0,0,0,1.656,2.575,9.864,9.864,0,0,0,2.33,1.758,18.691,18.691,0,0,0,2.824,1.3q1.421.51,2.852,1.01a12.98,12.98,0,0,1,5.224,3.129,4.964,4.964,0,0,1,1.574,3.945,2.9,2.9,0,0,1-.922,1.922,2.21,2.21,0,0,1-1.04.548,1.771,1.771,0,0,1-1.136-.076l-.08-.879a2.184,2.184,0,0,1,1.125-.64,1.566,1.566,0,0,0,.359-1.124,3.372,3.372,0,0,0-1-2.205,10.173,10.173,0,0,0-2.077-1.674,11.918,11.918,0,0,0-2.218-1.073q-1.08-.38-2.335-.831t-2.4-.877a12.632,12.632,0,0,1-4.668-3.139,7.955,7.955,0,0,1-1.993-3.61,4.261,4.261,0,0,1-.036-2.038,3.447,3.447,0,0,1,1.013-1.781,4.018,4.018,0,0,1,1.561-1.013q.721-.211.992.073" transform="translate(-151.701 -806.635)" fill="#3c3c3b"/>
          <path id="Trazado_1026483" data-name="Trazado 1026483" d="M166.791,727.261l2.7-4.237a.961.961,0,0,1,.151-.683.989.989,0,0,1,.6-.439.857.857,0,0,1,.71.094q.983.618-.236,2.559l-5.694,9.622a6.723,6.723,0,0,1-.638,1.62q-.572,1.161-.952,1.766a8.483,8.483,0,0,0-.743,1.61,15.214,15.214,0,0,0-.592,2.122,5.6,5.6,0,0,0-.052,2.118,1.865,1.865,0,0,0,.7,1.327,1.26,1.26,0,0,0,.926.239,1.557,1.557,0,0,0,.784-.481,8.877,8.877,0,0,0,1.09-1.41l3.341-5.317q.543-.864,1.439-2.674t1.439-2.674l.117-.186.941-1.615,2.732-4.791a.728.728,0,0,1,.671-.33,1.529,1.529,0,0,1,.821.229l.264,1.056-.284.452-1.243,1.536q-1.428,2.273-4.055,7t-3.642,6.342q-1.015,1.615-1.4,2.124a8.19,8.19,0,0,1-.929,1.02,3.7,3.7,0,0,1-1.073.735,2.68,2.68,0,0,1-2.578-.322,3.631,3.631,0,0,1-1.762-3.128,11.528,11.528,0,0,1,.833-4.63,38.259,38.259,0,0,1,2.186-4.837q1.652-2.984,3.432-5.816" transform="translate(-125.694 -565.918)" fill="#3c3c3b"/>
          <path id="Trazado_1026484" data-name="Trazado 1026484" d="M118.121,213.873a1.269,1.269,0,0,1-.7.456.849.849,0,0,1-.749-.219q-.89-.748,5.715-11.335.98-1.556,1.113-1.812-3.214,2.9-5.46,5.08a61.555,61.555,0,0,0-4.215,4.526.837.837,0,0,1-.622.288.91.91,0,0,1-.663-.2q-.9-.758.675-2.632.97-1.154,6.071-9.283t5.4-9.046a1.258,1.258,0,0,1,1.372.149q.564.474-1.124,3.423t-4.424,6.873q-2.736,3.925-2.764,3.983.319-.306,1.989-1.866t2.679-2.516q3.047-2.893,4.179-4.239l.394-.469a1.053,1.053,0,0,1,.628-.344.75.75,0,0,1,.658.132q.877.737.271,1.458l-.313.373a41.091,41.091,0,0,0-4.683,7.814q-1.176,2.375-1.972,3.736,1.274-1.247,3.784-3.525a90.493,90.493,0,0,0,8.01-7.991,1.764,1.764,0,0,1,.842-.635.89.89,0,0,1,.8.248,1.288,1.288,0,0,1,.481.733.8.8,0,0,1-.18.69,1.006,1.006,0,0,1-.717.341,64.789,64.789,0,0,1-8.23,7.9,64.814,64.814,0,0,0-8.24,7.911" transform="translate(-87.97 -148.61)" fill="#3c3c3b"/>
          <path id="Trazado_1026485" data-name="Trazado 1026485" d="M1585.33,162.095q-.752.454-9.523-10.039-3.432-4.108-3.71-4.417.745,1.659,2.321,5.365a93.437,93.437,0,0,0,5.642,11.629,1.466,1.466,0,0,1-.675,1.159l-.764.04q-.216-.512-1.318-2.853t-1.954-4.211q-.853-1.869-1.6-3.535t-1.569-3.527q-.82-1.861-1.45-3.36t-1.118-2.763q-1.022-2.666-.753-2.827a.953.953,0,0,1,.824-.094q2.343,2.363,8.446,9.562t7.645,8.872a.838.838,0,0,1-.442,1" transform="translate(-1229.888 -111.799)" fill="#3c3c3b"/>
          <path id="Trazado_1026486" data-name="Trazado 1026486" d="M.746,524.411q.932-.137,1.043.624a14.089,14.089,0,0,0,.711,2.894q.469,1.248.975,2.483t.664,1.656q.03-.338.05-1.5t.076-2.3q.053-1.15.164-2.341.258-2.672,1.157-2.82a.97.97,0,0,1,.612.116.622.622,0,0,1,.347.473,14.614,14.614,0,0,1-.143,3.67q-.321,2.459-.63,5a15.651,15.651,0,0,0-.121,3.817,12.852,12.852,0,0,0,.707,2.657q.556,1.41,1.093,2.473a15.955,15.955,0,0,1,1.742,4.837l.011.078q-.2.7-.658.763a.923.923,0,0,1-.856-.43,6.152,6.152,0,0,1-.782-1.385q-.384-.887-.675-1.678t-.6-1.745q-.307-.955-.383-1.15-.039.164-.08,2.265-.122,5.111-1.07,5.25a1.209,1.209,0,0,1-.68-.09.817.817,0,0,1-.4-.694,47.271,47.271,0,0,1,.435-5.3,34.177,34.177,0,0,0,.357-5.836q-.055-.373-1.446-4.23T.916,527.94l-.027-.186a6.043,6.043,0,0,0-.453-1.139,4.47,4.47,0,0,1-.423-1.152.9.9,0,0,1,.167-.7.84.84,0,0,1,.567-.353" transform="translate(9.423 -410.095)" fill="#3c3c3b"/>
          <path id="Trazado_1026487" data-name="Trazado 1026487" d="M1434.641,306.632l1.882-5.927a18.623,18.623,0,0,0,.482-2.761,19.037,19.037,0,0,1,.533-2.935,12.075,12.075,0,0,0,.391-2.73,26.214,26.214,0,0,0-.015-3.02,17.226,17.226,0,0,1,.414-5.878.472.472,0,0,1,.375-.308,1.1,1.1,0,0,1,.6,0q.287.083.405.886a10.9,10.9,0,0,1,.071,1.982q-.048,1.18-.133,2.347t-.189,2.258q-.1,1.09-.1,1.417a13.426,13.426,0,0,0,.517-1.247q.378-.994.794-2.034.435-1.051.931-2.084,1.129-2.369,1.95-2.131t.725.57a28.2,28.2,0,0,1-2.239,4.957,28.258,28.258,0,0,0-2.251,5l-.4,1.044-.136.467-2.208,8.235-.341,1.569-.2.693a.834.834,0,0,1-.5.566,1.091,1.091,0,0,1-.743.054.874.874,0,0,1-.532-.391.734.734,0,0,1-.078-.6" transform="translate(-1124.686 -221.887)" fill="#3c3c3b"/>
          <path id="Trazado_1026488" data-name="Trazado 1026488" d="M1419.139,578.36l-2.625-1.548a.816.816,0,0,1-.339-.6.934.934,0,0,1,.188-.672q5.032-6.744,16.187-15.734l-1.434-.913q-1.359-1.014-.767-1.806l.085-.113.7-.1,3.258,2.274a.994.994,0,0,1,.26,1.174q-1.3.5-4.984,3.91t-6.911,6.742q-3.222,3.334-4.543,4.9a13.367,13.367,0,0,1,1.566.972q1.4,1.042.786,1.86l-.084.113-.671.165-.009.012a3.631,3.631,0,0,0-.664-.632" transform="translate(-1110.23 -436.571)" fill="#3c3c3b"/>
        </g>
      </g>
    </g>
  </g>
</svg>
