<svg xmlns="http://www.w3.org/2000/svg" xmlns:xlink="http://www.w3.org/1999/xlink" width="108" height="108" viewBox="0 0 108 108">
  <defs>
    <filter id="Trazado_978624" x="0" y="0" width="108" height="108" filterUnits="userSpaceOnUse">
      <feOffset dy="3" input="SourceAlpha"/>
      <feGaussianBlur stdDeviation="3" result="blur"/>
      <feFlood flood-opacity="0.161"/>
      <feComposite operator="in" in2="blur"/>
      <feComposite in="SourceGraphic"/>
    </filter>
  </defs>
  <g id="Grupo_1171926" data-name="Grupo 1171926" transform="translate(-174 -4801)">
    <g id="Grupo_1171925" data-name="Grupo 1171925" transform="translate(-22 -2251)">
      <g id="Grupo_1164524" data-name="Grupo 1164524" transform="translate(205 7058)">
        <g id="Grupo_1144123" data-name="Grupo 1144123">
          <g transform="matrix(1, 0, 0, 1, -9, -6)" filter="url(#Trazado_978624)">
            <g id="Trazado_978624-2" data-name="Trazado 978624" transform="translate(9 6)" fill="#edf3fc">
              <path d="M 45 88.5 C 39.12687683105469 88.5 33.43022537231445 87.35007476806641 28.06830024719238 85.08217620849609 C 22.88852500915527 82.89131164550781 18.23629951477051 79.75458526611328 14.2408504486084 75.75914764404297 C 10.24541282653809 71.76370239257812 7.108687400817871 67.11147308349609 4.917825222015381 61.93170166015625 C 2.649924993515015 56.56977462768555 1.5 50.87312316894531 1.5 45 C 1.5 39.12687683105469 2.649924993515015 33.43022537231445 4.917825222015381 28.06830024719238 C 7.108687400817871 22.88852500915527 10.24541282653809 18.23629951477051 14.2408504486084 14.2408504486084 C 18.23629951477051 10.24541282653809 22.88852500915527 7.108687400817871 28.06830024719238 4.917825222015381 C 33.43022537231445 2.649924993515015 39.12687683105469 1.5 45 1.5 C 50.87312316894531 1.5 56.56977462768555 2.649924993515015 61.93170166015625 4.917825222015381 C 67.11147308349609 7.108687400817871 71.76370239257812 10.24541282653809 75.75914764404297 14.2408504486084 C 79.75458526611328 18.23629951477051 82.89131164550781 22.88852500915527 85.08217620849609 28.06830024719238 C 87.35007476806641 33.43022537231445 88.5 39.12687683105469 88.5 45 C 88.5 50.87312316894531 87.35007476806641 56.56977462768555 85.08217620849609 61.93170166015625 C 82.89131164550781 67.11147308349609 79.75458526611328 71.76370239257812 75.75914764404297 75.75914764404297 C 71.76370239257812 79.75458526611328 67.11147308349609 82.89131164550781 61.93170166015625 85.08217620849609 C 56.56977462768555 87.35007476806641 50.87312316894531 88.5 45 88.5 Z" stroke="none"/>
              <path d="M 45 3 C 39.32871246337891 3 33.82865524291992 4.110054016113281 28.65262985229492 6.299339294433594 C 23.65165710449219 8.414573669433594 19.15968322753906 11.44334411621094 15.301513671875 15.301513671875 C 11.44334411621094 19.15968322753906 8.414573669433594 23.65165710449219 6.299339294433594 28.65262985229492 C 4.110054016113281 33.82865524291992 3 39.32871246337891 3 45 C 3 50.67128753662109 4.110054016113281 56.17134475708008 6.299339294433594 61.34737396240234 C 8.414573669433594 66.34834289550781 11.44334411621094 70.84031677246094 15.301513671875 74.698486328125 C 19.15968322753906 78.55665588378906 23.65165710449219 81.58542633056641 28.65262985229492 83.70066070556641 C 33.82865524291992 85.88994598388672 39.32871246337891 87 45 87 C 50.67128753662109 87 56.17134475708008 85.88994598388672 61.34737396240234 83.70066070556641 C 66.34834289550781 81.58542633056641 70.84031677246094 78.55665588378906 74.698486328125 74.698486328125 C 78.55665588378906 70.84031677246094 81.58542633056641 66.34834289550781 83.70066070556641 61.34737396240234 C 85.88994598388672 56.17134475708008 87 50.67128753662109 87 45 C 87 39.32871246337891 85.88994598388672 33.82865524291992 83.70066070556641 28.65262985229492 C 81.58542633056641 23.65165710449219 78.55665588378906 19.15968322753906 74.698486328125 15.301513671875 C 70.84031677246094 11.44334411621094 66.34834289550781 8.414573669433594 61.34737396240234 6.299339294433594 C 56.17134475708008 4.110054016113281 50.67128753662109 3 45 3 M 45 0 C 69.85281372070312 0 90 20.14718627929688 90 45 C 90 69.85281372070312 69.85281372070312 90 45 90 C 20.14718627929688 90 0 69.85281372070312 0 45 C 0 20.14718627929688 20.14718627929688 0 45 0 Z" stroke="none" fill="#5692e8"/>
            </g>
          </g>
        </g>
      </g>
    </g>
    <g id="lamp_1108637_1_" data-name="lamp_1108637 (1)" transform="translate(198.882 4822.382)">
      <path id="Trazado_1024408" data-name="Trazado 1024408" d="M124.029,105.772A17.772,17.772,0,1,1,106.256,88,17.773,17.773,0,0,1,124.029,105.772Zm0,0" transform="translate(-77.139 -77.139)" fill="#fff98e"/>
      <path id="Trazado_1024409" data-name="Trazado 1024409" d="M134.307,120s-13.823,0-13.823,14.81S147.142,120,134.307,120Zm0,0" transform="translate(-105.189 -105.19)" fill="#fffdd9"/>
      <path id="Trazado_1024410" data-name="Trazado 1024410" d="M98.191,283.912c0-.01-.01-.01-.01-.02a.514.514,0,0,1-.059-.158c-.016-.031-.026-.062-.04-.094.078.2.162.395.247.593-.036-.086-.076-.169-.108-.256C98.211,283.961,98.2,283.932,98.191,283.912Zm0,0" transform="translate(-85.552 -248.634)" fill="#fff98e"/>
      <path id="Trazado_1024411" data-name="Trazado 1024411" d="M103.882,296.538c-.23-.387-.449-.783-.648-1.195C103.435,295.751,103.652,296.149,103.882,296.538Zm0,0" transform="translate(-90.068 -258.892)" fill="#fff98e"/>
      <path id="Trazado_1024412" data-name="Trazado 1024412" d="M93.676,270.223q.208.753.48,1.481c-.086-.226-.17-.451-.242-.684C93.825,270.751,93.749,270.487,93.676,270.223Zm0,0" transform="translate(-81.69 -236.872)" fill="#fff98e"/>
      <path id="Trazado_1024413" data-name="Trazado 1024413" d="M110.375,308.234l-.027-.042Zm0,0" transform="translate(-96.304 -270.155)" fill="#fff98e"/>
      <path id="Trazado_1024414" data-name="Trazado 1024414" d="M88.82,235.436a.557.557,0,0,1-.029-.178c-.059-.306-.109-.622-.148-.938a.142.142,0,0,1-.01-.089c-.01-.039-.01-.089-.02-.128-.04-.316-.069-.632-.089-.957-.03-.376-.04-.76-.04-1.145a17.755,17.755,0,0,0,.608,4.606,2.863,2.863,0,0,1-.1-.39C88.928,235.959,88.869,235.7,88.82,235.436Zm0,0" transform="translate(-77.139 -203.367)" fill="#fff98e"/>
      <path id="Trazado_1024415" data-name="Trazado 1024415" d="M371.692,234.1c-.01.04-.01.089-.019.128a.142.142,0,0,1-.01.089.131.131,0,0,1-.01.059c0,.029-.01.049-.01.079a7.105,7.105,0,0,1-.128.8c-.02.129-.05.267-.079.4a5.107,5.107,0,0,1-.119.533c-.039.188-.089.385-.148.572a.14.14,0,0,1,0,.021,17.835,17.835,0,0,0,.657-4.78c0,.385-.01.77-.04,1.145C371.761,233.471,371.731,233.787,371.692,234.1Zm0,0" transform="translate(-324.93 -203.367)" fill="#fff98e"/>
      <path id="Trazado_1024416" data-name="Trazado 1024416" d="M116.207,316.765c-.217-.257-.415-.524-.612-.8-.008-.008-.014-.018-.024-.027a17.891,17.891,0,0,0,1.522,1.832c-.067-.073-.139-.14-.205-.215-.237-.257-.464-.523-.681-.79Zm0,0" transform="translate(-100.882 -276.945)" fill="#fff98e"/>
      <path id="Trazado_1024417" data-name="Trazado 1024417" d="M114.354,314.179c-.011-.014-.019-.029-.029-.042.02.027.038.056.056.084l-.007-.012C114.364,314.2,114.354,314.188,114.354,314.179Zm0,0" transform="translate(-99.79 -275.366)" fill="#fff98e"/>
      <path id="Trazado_1024418" data-name="Trazado 1024418" d="M100.936,290.427a.785.785,0,0,1-.038-.075c.067.149.132.3.2.446a1.6,1.6,0,0,1-.106-.243C100.975,290.515,100.956,290.466,100.936,290.427Zm0,0" transform="translate(-88.021 -254.517)" fill="#fff98e"/>
      <path id="Trazado_1024419" data-name="Trazado 1024419" d="M367.684,272.744c.15-.41.285-.824.4-1.247-.056.218-.123.431-.2.643S367.754,272.546,367.684,272.744Zm0,0" transform="translate(-321.88 -237.989)" fill="#fff98e"/>
      <path id="Trazado_1024420" data-name="Trazado 1024420" d="M175.422,352h-18.7l.04.306v.02l.494,3.623.063.464.7,5.242a7.513,7.513,0,0,0,.668,1.2h14.771a7.511,7.511,0,0,0,.671-1.2l.7-5.242.553-4.088v-.02Zm0,0" transform="translate(-136.955 -308.557)" fill="#a0815c"/>
      <g id="Grupo_1171212" data-name="Grupo 1171212" transform="translate(11.953 33.241)">
        <path id="Trazado_1024421" data-name="Trazado 1024421" d="M152.484,351.719h.059a.205.205,0,0,1-.059-.04Zm0,0" transform="translate(-145.193 -341.517)" fill="#fff98e"/>
        <path id="Trazado_1024422" data-name="Trazado 1024422" d="M366.923,281.832c.028-.07.049-.144.075-.215-.031.085-.059.171-.092.256Zm0,0" transform="translate(-333.152 -280.101)" fill="#fff98e"/>
        <path id="Trazado_1024423" data-name="Trazado 1024423" d="M93.414,269.349c.009.032.02.064.029.1-.01-.037-.022-.074-.033-.111Zm0,0" transform="translate(-93.41 -269.336)" fill="#fff98e"/>
        <path id="Trazado_1024424" data-name="Trazado 1024424" d="M370.954,270.745a.054.054,0,0,1,0-.019c-.009.033-.019.064-.029.1C370.937,270.8,370.948,270.772,370.954,270.745Zm0,0" transform="translate(-336.678 -270.555)" fill="#fff98e"/>
        <path id="Trazado_1024425" data-name="Trazado 1024425" d="M127.906,330.777c.176.189.35.377.535.556.257.247.524.483.79.721a15.294,15.294,0,0,0,1.708,1.3v-.01a17.988,17.988,0,0,1-3.033-2.57Zm0,0" transform="translate(-123.649 -323.194)" fill="#fff98e"/>
        <path id="Trazado_1024426" data-name="Trazado 1024426" d="M102.562,294.021c.019.04.043.076.063.117-.027-.057-.059-.112-.086-.17C102.549,293.986,102.553,294,102.562,294.021Zm0,0" transform="translate(-101.413 -290.928)" fill="#fff98e"/>
        <path id="Trazado_1024427" data-name="Trazado 1024427" d="M97.617,282.339l.01.025c-.023-.059-.042-.121-.064-.18C97.581,282.235,97.6,282.287,97.617,282.339Zm0,0" transform="translate(-97.05 -280.598)" fill="#fff98e"/>
        <path id="Trazado_1024428" data-name="Trazado 1024428" d="M108.593,305.2c.042.065.082.127.121.191-.08-.127-.153-.261-.23-.395C108.523,305.061,108.553,305.132,108.593,305.2Zm0,0" transform="translate(-106.624 -300.592)" fill="#fff98e"/>
        <path id="Trazado_1024429" data-name="Trazado 1024429" d="M100.185,288.681a.22.22,0,0,1,.012.024c-.034-.077-.067-.155-.1-.232C100.127,288.541,100.153,288.612,100.185,288.681Zm0,0" transform="translate(-99.273 -286.111)" fill="#fff98e"/>
        <path id="Trazado_1024430" data-name="Trazado 1024430" d="M110.671,308.706c.119.174.231.346.356.52-.159-.228-.316-.456-.464-.691C110.6,308.593,110.633,308.652,110.671,308.706Zm0,0" transform="translate(-108.445 -303.697)" fill="#fff98e"/>
        <path id="Trazado_1024431" data-name="Trazado 1024431" d="M114.833,314.914a.263.263,0,0,0,.035.041c-.033-.047-.065-.093-.1-.138C114.788,314.844,114.806,314.878,114.833,314.914Zm0,0" transform="translate(-112.133 -309.204)" fill="#fff98e"/>
        <path id="Trazado_1024432" data-name="Trazado 1024432" d="M153.043,352a5.389,5.389,0,0,0,.494.326v-.02C153.369,352.207,153.2,352.1,153.043,352Zm0,0" transform="translate(-145.683 -341.798)" fill="#fff98e"/>
        <path id="Trazado_1024433" data-name="Trazado 1024433" d="M152.484,351.611a.2.2,0,0,0,.059.04h.01c-.02-.02-.049-.029-.069-.049Zm0,0" transform="translate(-145.193 -341.449)" fill="#fff98e"/>
      </g>
      <path id="Trazado_1024434" data-name="Trazado 1024434" d="M225.471,7.9a.987.987,0,0,0,.987-.987V.987a.987.987,0,1,0-1.975,0V6.911A.987.987,0,0,0,225.471,7.9Zm0,0" transform="translate(-196.354)" fill="#231f20"/>
      <path id="Trazado_1024435" data-name="Trazado 1024435" d="M115.554,36.55a.987.987,0,1,0,1.71-.987L114.3,30.429a.987.987,0,1,0-1.71.987Zm0,0" transform="translate(-98.152 -26.236)" fill="#231f20"/>
      <path id="Trazado_1024436" data-name="Trazado 1024436" d="M31.025,113.865l5.134,2.962a.988.988,0,0,0,.987-1.711l-5.134-2.962a.988.988,0,0,0-.987,1.711Zm0,0" transform="translate(-26.343 -98.199)" fill="#231f20"/>
      <path id="Trazado_1024437" data-name="Trazado 1024437" d="M8.383,224.987A.987.987,0,0,0,7.4,224H1.472a.987.987,0,1,0,0,1.975H7.4A.987.987,0,0,0,8.383,224.987Zm0,0" transform="translate(0 -196.354)" fill="#231f20"/>
      <path id="Trazado_1024438" data-name="Trazado 1024438" d="M36.047,312.108l-5.134,2.962a.988.988,0,1,0,.987,1.711l5.134-2.962a.988.988,0,1,0-.987-1.711Zm0,0" transform="translate(-26.236 -273.469)" fill="#231f20"/>
      <path id="Trazado_1024439" data-name="Trazado 1024439" d="M383.45,315.07l-5.134-2.962a.988.988,0,1,0-.987,1.711l5.134,2.962a.988.988,0,0,0,.987-1.711Zm0,0" transform="translate(-329.896 -273.469)" fill="#231f20"/>
      <path id="Trazado_1024440" data-name="Trazado 1024440" d="M407.4,224h-5.924a.987.987,0,1,0,0,1.975H407.4a.987.987,0,0,0,0-1.975Zm0,0" transform="translate(-350.632 -196.354)" fill="#231f20"/>
      <path id="Trazado_1024441" data-name="Trazado 1024441" d="M377.9,116.959a.99.99,0,0,0,.494-.132l5.134-2.962a.988.988,0,0,0-.987-1.711l-5.134,2.962a.987.987,0,0,0,.494,1.843Zm0,0" transform="translate(-329.971 -98.199)" fill="#231f20"/>
      <path id="Trazado_1024442" data-name="Trazado 1024442" d="M312.976,36.912a.987.987,0,0,0,1.348-.362l2.962-5.134a.987.987,0,1,0-1.71-.987l-2.962,5.134a.988.988,0,0,0,.362,1.349Zm0,0" transform="translate(-273.491 -26.236)" fill="#231f20"/>
      <path id="Trazado_1024443" data-name="Trazado 1024443" d="M113.471,127.8a.987.987,0,0,0,.987-.987,12.85,12.85,0,0,1,12.836-12.836.987.987,0,0,0,0-1.975,14.827,14.827,0,0,0-14.81,14.81A.987.987,0,0,0,113.471,127.8Zm0,0" transform="translate(-98.177 -98.177)" fill="#231f20"/>
      <path id="Trazado_1024444" data-name="Trazado 1024444" d="M180.029,443.949A8.871,8.871,0,0,0,187.415,440H172.644a8.87,8.87,0,0,0,7.385,3.949Zm0,0" transform="translate(-150.912 -385.696)" fill="#544028"/>
      <path id="Trazado_1024445" data-name="Trazado 1024445" d="M160.484,384h17.772v1.975H160.484Zm0,0" transform="translate(-140.253 -336.607)" fill="#64513a"/>
      <path id="Trazado_1024446" data-name="Trazado 1024446" d="M160.484,352h17.772v1.975H160.484Zm0,0" transform="translate(-140.253 -308.557)" fill="#64513a"/>
      <path id="Trazado_1024447" data-name="Trazado 1024447" d="M117.312,103.532v-.005c.032-.1.06-.205.085-.3.036-.136.065-.274.1-.411s.065-.275.084-.384a18.76,18.76,0,1,0-37.1-3.928c0,.439.019.876.049,1.309.016.24.04.484.069.74.055.5.127,1,.222,1.5.008.041.011.082.022.122.043.226.1.445.151.665.03.127.06.255.093.381.015.054.023.1.04.16.04.147.086.286.129.431.047.16.091.32.142.478l.006.019c.089.287.189.567.311.878.023.06.046.12.07.178a1.258,1.258,0,0,0,.085.214l.005.012c.066.176.143.35.22.514l.013.025c.049.111.1.222.152.334.025.055.049.116.073.167a17.063,17.063,0,0,0,.883,1.625l.092.146c.059.1.12.2.18.282l.121.18c.059.087.121.175.181.262.043.063.084.126.128.189.022.036.042.07.07.108s.043.055.065.083c.039.053.078.1.117.151.162.219.326.436.494.649l.012.015c.031.038.064.073.1.111.2.239.4.476.607.706h0c.176.2.363.383.548.571.059.058.113.121.173.178.026.025.049.053.074.077.267.257.543.5.817.745a16.17,16.17,0,0,0,1.637,1.26.993.993,0,0,0,.374.262L89.4,117.1a.915.915,0,0,0-.027.161.972.972,0,0,0,.111.435l.727,5.4a.957.957,0,0,0,.076.269,8.469,8.469,0,0,0,.753,1.351v.007l.008.009a9.864,9.864,0,0,0,16.384,0l.008-.009,0-.007a8.43,8.43,0,0,0,.753-1.351.956.956,0,0,0,.076-.269l1.194-8.876a.963.963,0,0,0,.2-.092,18.773,18.773,0,0,0,7.636-10.565.059.059,0,0,0,.015-.036ZM99.244,81.718A16.8,16.8,0,0,1,116.029,98.5c0,.358-.009.718-.038,1.086-.019.3-.046.6-.083.894v.023a1.18,1.18,0,0,0-.025.164v.02c-.006.03-.01.059-.014.091s-.006.049-.009.076a.652.652,0,0,1-.012.085c-.022.153-.044.3-.071.457-.013.069-.023.133-.04.211-.016.1-.04.217-.077.385v.018c-.025.118-.051.237-.078.354-.01.04-.017.073-.028.118a4.886,4.886,0,0,1-.124.481c-.019.07-.04.14-.059.21-.049.179-.1.353-.166.544-.081.253-.161.505-.26.747l-.039.1q-.069.192-.158.377a.86.86,0,0,0-.054.133l-.02.044c-.088.221-.186.432-.312.691-.071.16-.15.311-.229.462l-.12.236a16.734,16.734,0,0,1-5.265,5.834.9.9,0,0,0-.156-.018h-5.4v-8.3l.079.056a.987.987,0,0,0,1.152,0l2.306-1.657a.987.987,0,1,0-1.151-1.6l-1.732,1.243-1.731-1.243a.987.987,0,0,0-1.153,0l-1.726,1.242-1.725-1.242a.988.988,0,0,0-1.155,0l-1.725,1.242-1.723-1.242a.988.988,0,0,0-1.155,1.6l2.3,1.657a.988.988,0,0,0,1.155,0l.085-.061v8.3h-5.4a1.091,1.091,0,0,0-.125.009A16.906,16.906,0,0,1,86.85,109.8c-.188-.205-.371-.422-.555-.645-.033-.04-.07-.08-.1-.121-.167-.2-.32-.407-.472-.618-.058-.079-.121-.155-.176-.235v-.006c-.008-.012-.015-.023-.023-.032l-.033-.049c-.026-.033-.046-.068-.071-.1-.23-.334-.445-.677-.65-1.026-.2-.332-.376-.665-.542-1-.067-.131-.135-.262-.2-.395-.019-.047-.041-.1-.054-.127l-.048-.1-.012-.024v-.005a16.5,16.5,0,0,1-.634-1.648c-.018-.053-.035-.109-.053-.164-.09-.287-.174-.578-.249-.872a.226.226,0,0,0-.012-.046,1.084,1.084,0,0,0-.024-.118c-.018-.067-.03-.137-.046-.2-.047-.205-.1-.41-.136-.617a.41.41,0,0,0-.009-.068c-.053-.269-.1-.549-.132-.829a.766.766,0,0,0-.024-.181.7.7,0,0,0-.013-.089c-.037-.3-.063-.584-.083-.9-.032-.358-.04-.718-.04-1.076A16.8,16.8,0,0,1,99.244,81.718Zm7.1,40.975c-.078.168-.164.333-.256.494H92.4c-.092-.16-.177-.325-.256-.494l-.6-4.443h15.389Zm.8-6.418H91.284l-.266-1.975h16.451l-.268,1.987c-.021,0-.039-.012-.059-.012ZM97.269,103.08l1.391,1a.987.987,0,0,0,1.154,0l1.4-1.011v9.255H97.269Zm-3.241,22.081h10.43A7.874,7.874,0,0,1,94.028,125.161Zm0,0" transform="translate(-70.126 -69.869)" fill="#231f20"/>
    </g>
  </g>
</svg>
