<svg xmlns="http://www.w3.org/2000/svg" xmlns:xlink="http://www.w3.org/1999/xlink" width="113" height="113" viewBox="0 0 113 113">
  <defs>
    <filter id="Trazado_982547" x="0" y="0" width="113" height="113" filterUnits="userSpaceOnUse">
      <feOffset dy="3" input="SourceAlpha"/>
      <feGaussianBlur stdDeviation="3" result="blur"/>
      <feFlood flood-opacity="0.161"/>
      <feComposite operator="in" in2="blur"/>
      <feComposite in="SourceGraphic"/>
    </filter>
  </defs>
  <g id="Grupo_1172432" data-name="Grupo 1172432" transform="translate(-585.5 -5619.645)">
    <g id="Grupo_1171929" data-name="Grupo 1171929" transform="translate(0 4321.5)">
      <g id="Grupo_1171047" data-name="Grupo 1171047" transform="translate(594.5 1304.145)">
        <g id="Grupo_1148525" data-name="Grupo 1148525" transform="translate(0)">
          <g transform="matrix(1, 0, 0, 1, -9, -6)" filter="url(#Trazado_982547)">
            <g id="Trazado_982547-2" data-name="Trazado 982547" transform="translate(9 6)" fill="#f4fdfe">
              <path d="M 47.5 93.5 C 41.28937149047852 93.5 35.26533508300781 92.28397369384766 29.59518623352051 89.88570404052734 C 24.11771965026855 87.56893157958984 19.19813346862793 84.25196075439453 14.97309303283691 80.02691650390625 C 10.74804019927979 75.80186462402344 7.431066513061523 70.88229370117188 5.114293098449707 65.40481567382812 C 2.716026782989502 59.73468017578125 1.5 53.71062850952148 1.5 47.5 C 1.5 41.28937149047852 2.716026782989502 35.26533508300781 5.114293098449707 29.59518623352051 C 7.431066513061523 24.11771965026855 10.74804019927979 19.19813346862793 14.97309303283691 14.97309303283691 C 19.19813346862793 10.74804019927979 24.11771965026855 7.431066513061523 29.59518623352051 5.114293098449707 C 35.26533508300781 2.716026782989502 41.28937149047852 1.5 47.5 1.5 C 53.71062850952148 1.5 59.73468017578125 2.716026782989502 65.40481567382812 5.114293098449707 C 70.88229370117188 7.431066513061523 75.80186462402344 10.74804019927979 80.02691650390625 14.97309303283691 C 84.25196075439453 19.19813346862793 87.56893157958984 24.11771965026855 89.88570404052734 29.59518623352051 C 92.28397369384766 35.26533508300781 93.5 41.28937149047852 93.5 47.5 C 93.5 53.71062850952148 92.28397369384766 59.73468017578125 89.88570404052734 65.40481567382812 C 87.56893157958984 70.88229370117188 84.25196075439453 75.80186462402344 80.02691650390625 80.02691650390625 C 75.80186462402344 84.25196075439453 70.88229370117188 87.56893157958984 65.40481567382812 89.88570404052734 C 59.73468017578125 92.28397369384766 53.71062850952148 93.5 47.5 93.5 Z" stroke="none"/>
              <path d="M 47.5 3 C 41.49121475219727 3 35.66376876831055 4.176155090332031 30.17950439453125 6.495796203613281 C 24.88084411621094 8.736953735351562 20.12152099609375 11.94598388671875 16.03375244140625 16.03375244140625 C 11.94598388671875 20.12152099609375 8.736953735351562 24.88084411621094 6.495796203613281 30.17950439453125 C 4.176155090332031 35.66376876831055 3 41.49121475219727 3 47.5 C 3 53.50878524780273 4.176155090332031 59.33623123168945 6.495796203613281 64.82049560546875 C 8.736953735351562 70.11915588378906 11.94598388671875 74.87847900390625 16.03375244140625 78.96624755859375 C 20.12152099609375 83.05401611328125 24.88084411621094 86.26304626464844 30.17950439453125 88.50419616699219 C 35.66376876831055 90.82384490966797 41.49121475219727 92 47.5 92 C 53.50878524780273 92 59.33623123168945 90.82384490966797 64.82049560546875 88.50419616699219 C 70.11915588378906 86.26304626464844 74.87847900390625 83.05401611328125 78.96624755859375 78.96624755859375 C 83.05401611328125 74.87847900390625 86.26304626464844 70.11915588378906 88.50419616699219 64.82049560546875 C 90.82384490966797 59.33623123168945 92 53.50878524780273 92 47.5 C 92 41.49121475219727 90.82384490966797 35.66376876831055 88.50419616699219 30.17950439453125 C 86.26304626464844 24.88084411621094 83.05401611328125 20.12152099609375 78.96624755859375 16.03375244140625 C 74.87847900390625 11.94598388671875 70.11915588378906 8.736953735351562 64.82049560546875 6.495796203613281 C 59.33623123168945 4.176155090332031 53.50878524780273 3 47.5 3 M 47.5 0 C 73.7335205078125 0 95 21.2664794921875 95 47.5 C 95 73.7335205078125 73.7335205078125 95 47.5 95 C 21.2664794921875 95 0 73.7335205078125 0 47.5 C 0 21.2664794921875 21.2664794921875 0 47.5 0 Z" stroke="none" fill="#56838a"/>
            </g>
          </g>
        </g>
      </g>
    </g>
    <g id="student_2278702" transform="translate(590.412 5641.561)">
      <ellipse id="Elipse_12343" data-name="Elipse 12343" cx="7.927" cy="6.875" rx="7.927" ry="6.875" transform="translate(28.166 0.953)" fill="#e16e7e"/>
      <g id="Grupo_1172429" data-name="Grupo 1172429" transform="translate(23.959 6.99)">
        <circle id="Elipse_12344" data-name="Elipse 12344" cx="6.312" cy="6.312" r="6.312" transform="translate(43.091 14.713)" fill="#ffbe9d"/>
        <circle id="Elipse_12345" data-name="Elipse 12345" cx="6.312" cy="6.312" r="6.312" transform="translate(0 14.713)" fill="#ffd3bd"/>
        <path id="Trazado_1026563" data-name="Trazado 1026563" d="M145.652,331.881a2.27,2.27,0,0,0,2.26-2.558,18.91,18.91,0,0,0-37.472,0,2.27,2.27,0,0,0,2.26,2.558Z" transform="translate(-101.319 -280.126)" fill="#8daee1"/>
        <path id="Trazado_1026564" data-name="Trazado 1026564" d="M199.559,418.677h14.82c-1-3.624-3.941-6.248-7.41-6.248S200.562,415.053,199.559,418.677Z" transform="translate(-179.112 -366.922)" fill="#f6ee86"/>
        <path id="Trazado_1026565" data-name="Trazado 1026565" d="M130.718,74.585c0-11.063-9.714-19.668-21.7-19.668s-21.7,8.6-21.7,19.668,9.714,19.83,21.7,19.83S130.718,85.648,130.718,74.585Z" transform="translate(-81.165 -54.917)" fill="#ffd3bd"/>
        <path id="Trazado_1026566" data-name="Trazado 1026566" d="M102.051,62.91C93.488,65.5,87.326,72.749,87.326,81.561c0,11.063,9.714,19.83,21.7,19.83a23.545,23.545,0,0,0,8.681-1.635C91.088,98.286,94.845,70.94,102.051,62.91Z" transform="translate(-81.165 -61.893)" fill="#ffbe9d"/>
      </g>
      <path id="Trazado_1026568" data-name="Trazado 1026568" d="M75.913,101.009c2.9-2.449,6.533-8.165,8.418-16.783-.689-1.7-1.868-1.7-3.1-1.511-3.066.5-11.52,7.305-8.672,17.279A2.092,2.092,0,0,0,75.913,101.009Z" transform="translate(-43.811 -72.115)" fill="#e7889d"/>
      <path id="Trazado_1026569" data-name="Trazado 1026569" d="M354.939,101.009c-2.9-2.449-6.533-8.165-8.418-16.783.689-1.7,1.868-1.7,3.1-1.511,3.066.5,11.52,7.305,8.672,17.279A2.092,2.092,0,0,1,354.939,101.009Z" transform="translate(-283.409 -72.115)" fill="#e7889d"/>
      <path id="Trazado_1026570" data-name="Trazado 1026570" d="M349.625,82.715c-1.236-.186-2.415-.186-3.1,1.511a44.862,44.862,0,0,0,2.2,7.2c3.833-1.817,5.21-4.046,5.652-5.753A10.417,10.417,0,0,0,349.625,82.715Z" transform="translate(-283.409 -72.115)" fill="#e16e7e"/>
      <path id="Trazado_1026571" data-name="Trazado 1026571" d="M112.1,82.715a10.418,10.418,0,0,0-4.747,2.962c.442,1.707,1.819,3.936,5.652,5.753a44.866,44.866,0,0,0,2.2-7.2C114.513,82.528,113.335,82.528,112.1,82.715Z" transform="translate(-74.683 -72.115)" fill="#e16e7e"/>
      <ellipse id="Elipse_12348" data-name="Elipse 12348" cx="16.774" cy="7.26" rx="16.774" ry="7.26" transform="translate(35.042 4.851)" fill="#e7889d"/>
      <g id="Grupo_1172430" data-name="Grupo 1172430" transform="translate(53.142 37.413)">
        <path id="Trazado_1026572" data-name="Trazado 1026572" d="M278.362,319.861l-9.655-9.655a1.749,1.749,0,0,1,0-2.473l12.942-12.942a2.956,2.956,0,0,1,4.181,0l8.8,8.8a2.957,2.957,0,0,1,0,4.181l-12.088,12.088A2.956,2.956,0,0,1,278.362,319.861Z" transform="translate(-268.194 -293.925)" fill="#88d37f"/>
        <path id="Trazado_1026573" data-name="Trazado 1026573" d="M278.769,323.354l-10.062,10.062a1.749,1.749,0,0,0,0,2.473l9.655,9.655a2.956,2.956,0,0,0,4.181,0L284,344.092C279.068,340.059,277.075,328.522,278.769,323.354Z" transform="translate(-268.194 -319.608)" fill="#5ec682"/>
        <path id="Trazado_1026574" data-name="Trazado 1026574" d="M374.681,352.564l-3.508-3.508a1.6,1.6,0,0,0-2.263,0l-1,1a1.6,1.6,0,0,0,0,2.263l3.508,3.508a1.6,1.6,0,0,0,2.263,0l1-1A1.6,1.6,0,0,0,374.681,352.564Z" transform="translate(-354.805 -341.629)" fill="#fff"/>
      </g>
      <g id="Grupo_1172431" data-name="Grupo 1172431" transform="translate(22.732 43.029)">
        <path id="Trazado_1026575" data-name="Trazado 1026575" d="M47.993,353.467l.622,2.854a.885.885,0,0,1-1.053,1.053l-2.854-.622a5.362,5.362,0,0,1-2.649-1.448L29.681,342.926a1.359,1.359,0,0,1,0-1.922l2.565-2.564a1.359,1.359,0,0,1,1.922,0l12.378,12.378A5.362,5.362,0,0,1,47.993,353.467Z" transform="translate(-29.282 -338.041)" fill="#f6ee86"/>
        <path id="Trazado_1026576" data-name="Trazado 1026576" d="M36.635,340.907l-4.487,4.487-2.468-2.467a1.359,1.359,0,0,1,0-1.922l2.565-2.564a1.359,1.359,0,0,1,1.922,0Z" transform="translate(-29.282 -338.041)" fill="#e7889d"/>
        <path id="Trazado_1026577" data-name="Trazado 1026577" d="M0,0H6.345V4.816H0Z" transform="translate(2.86 7.348) rotate(-45)" fill="#8daee1"/>
        <path id="Trazado_1026578" data-name="Trazado 1026578" d="M138.319,451.3a5.358,5.358,0,0,0,1.547.6l2.854.622a.885.885,0,0,0,1.053-1.053l-.622-2.854a5.358,5.358,0,0,0-.6-1.547Z" transform="translate(-124.44 -433.198)" fill="#4e5660"/>
      </g>
      <path id="Trazado_1026579" data-name="Trazado 1026579" d="M63.168,52.52l2.17,2.17a.955.955,0,0,0,1.35-1.35l-2.17-2.17C64.146,50.8,62.8,52.147,63.168,52.52Zm17.086-6.115c-9.35-9.343-8.778-8.794-9.016-9a20.041,20.041,0,0,0,1.246-2.18,7.265,7.265,0,0,0,3.7-13.905,16.208,16.208,0,0,0-6.782-10.282C67.875,5.2,54.63,2.442,44.219,4.66c-2.889-5.791-12.008-6.3-15.725-.889a.955.955,0,1,0,1.573,1.082C32.861.789,39.822.981,42.3,5.135c-3.134.9-7.252,2.753-8.078,5.9a16.07,16.07,0,0,0-2.058,1.677,5.891,5.891,0,0,1-2.992-4.142.955.955,0,1,0-1.889.28,7.723,7.723,0,0,0,3.554,5.289,15.585,15.585,0,0,0-3.4,7.177,7.265,7.265,0,0,0,3.71,13.9,21.167,21.167,0,0,0,7.677,8.495,20.037,20.037,0,0,0-4.311,5.26l-6.228-6.228a2.313,2.313,0,0,0-3.272,0l-2.565,2.564a2.313,2.313,0,0,0,0,3.272L34.833,60.967a6.3,6.3,0,0,0,3.121,1.705l2.854.622A1.84,1.84,0,0,0,43,61.105L42.691,59.7H58.31l4.324,4.324a3.916,3.916,0,0,0,5.531,0l.521-.521a.955.955,0,1,0-1.35-1.35l-.521.521a2,2,0,0,1-2.831,0L54.329,53.02a.8.8,0,0,1,0-1.123L67.271,38.954a2,2,0,0,1,2.831,0l8.8,8.8a2,2,0,0,1,0,2.831l-8.285,8.285a.955.955,0,0,0,1.35,1.35l8.285-8.285a3.909,3.909,0,0,0,0-5.532ZM75.806,28.141a15.44,15.44,0,0,0,.606-4.53,5.356,5.356,0,0,1-3.135,9.759,19.32,19.32,0,0,0,.892-3.314,3.019,3.019,0,0,0,1.637-1.914ZM69.348,13.383A13.43,13.43,0,0,1,73.97,27.617a1.136,1.136,0,0,1-1.824.548c-2.451-2.072-4.871-6.074-6.552-10.8a7.491,7.491,0,0,0,3.754-3.979ZM40.334,7.854c6.315-2.733,16.65-2.733,22.964,0,2.757,1.193,4.338,2.745,4.338,4.257s-1.581,3.064-4.338,4.257c-6.314,2.733-16.65,2.733-22.964,0C37.578,15.175,36,13.623,36,12.111s1.581-3.064,4.338-4.257ZM24.914,28.015a5.346,5.346,0,0,1,2.306-4.4,15.441,15.441,0,0,0,.606,4.531,3.019,3.019,0,0,0,1.638,1.915,19.338,19.338,0,0,0,.9,3.313,5.359,5.359,0,0,1-5.447-5.354Zm4.748-.4a13.431,13.431,0,0,1,4.622-14.234,7.491,7.491,0,0,0,3.754,3.979c-1.681,4.73-4.1,8.732-6.552,10.8A1.136,1.136,0,0,1,29.662,27.617ZM23.805,47.238a.4.4,0,0,1,0-.572L26.37,44.1a.4.4,0,0,1,.572,0l1.792,1.792L25.6,49.031Zm3.142,3.142,3.137-3.137L32.14,49.3,29,52.436ZM36.5,59.9c-.351-.29.019.038-6.144-6.112L33.49,50.65c6.17,6.183,5.823,5.793,6.112,6.144Zm1.807.893L40.5,58.6c.06.258.445,2.033.614,2.8-1.21-.265-2.548-.554-2.8-.614ZM52.98,50.546a2.707,2.707,0,0,0,0,3.824L56.4,57.791H42.256A6.3,6.3,0,0,0,40.67,55.13l-4.744-4.744a18.1,18.1,0,0,1,4.664-5.65A24.649,24.649,0,0,0,56.53,47Zm16.535-14A3.911,3.911,0,0,0,65.922,37.6l-6.7,6.7C47.346,48.4,33.9,41.947,31.449,30.26a3.036,3.036,0,0,0,1.269-.637c2.7-2.285,5.243-6.413,7.049-11.424a31.987,31.987,0,0,0,12.049,2.126A31.986,31.986,0,0,0,63.865,18.2c1.806,5.011,4.346,9.139,7.049,11.424a3.035,3.035,0,0,0,1.272.638A17.6,17.6,0,0,1,69.515,36.549Zm3.175,15.74,1-1a2.553,2.553,0,0,0,0-3.613h0l-3.508-3.508a2.558,2.558,0,0,0-3.613,0l-1,1a2.553,2.553,0,0,0,0,3.613l3.508,3.508a2.557,2.557,0,0,0,3.613,0Zm-5.771-5.771,1-1a.646.646,0,0,1,.913,0l3.508,3.508a.645.645,0,0,1,0,.913l-1,1a.646.646,0,0,1-.913,0l-3.508-3.508A.645.645,0,0,1,66.919,46.519Z" transform="translate(0 0)"/>
    </g>
  </g>
</svg>
