<svg xmlns="http://www.w3.org/2000/svg" xmlns:xlink="http://www.w3.org/1999/xlink" width="113" height="113" viewBox="0 0 113 113">
  <defs>
    <filter id="Trazado_982547" x="0" y="0" width="113" height="113" filterUnits="userSpaceOnUse">
      <feOffset dy="3" input="SourceAlpha"/>
      <feGaussianBlur stdDeviation="3" result="blur"/>
      <feFlood flood-opacity="0.161"/>
      <feComposite operator="in" in2="blur"/>
      <feComposite in="SourceGraphic"/>
    </filter>
    <clipPath id="clip-path">
      <path id="path165" d="M0-682.665H63.027v63.027H0Z" transform="translate(0 682.665)"/>
    </clipPath>
  </defs>
  <g id="Grupo_1172434" data-name="Grupo 1172434" transform="translate(-1216.5 -5619.645)">
    <g id="Grupo_1171931" data-name="Grupo 1171931" transform="translate(0 4321.5)">
      <g id="Grupo_1171049" data-name="Grupo 1171049" transform="translate(1225.5 1304.145)">
        <g id="Grupo_1148525" data-name="Grupo 1148525" transform="translate(0)">
          <g transform="matrix(1, 0, 0, 1, -9, -6)" filter="url(#Trazado_982547)">
            <g id="Trazado_982547-2" data-name="Trazado 982547" transform="translate(9 6)" fill="#f4fdfe">
              <path d="M 47.5 93.5 C 41.28937149047852 93.5 35.26533508300781 92.28397369384766 29.59518623352051 89.88570404052734 C 24.11771965026855 87.56893157958984 19.19813346862793 84.25196075439453 14.97309303283691 80.02691650390625 C 10.74804019927979 75.80186462402344 7.431066513061523 70.88229370117188 5.114293098449707 65.40481567382812 C 2.716026782989502 59.73468017578125 1.5 53.71062850952148 1.5 47.5 C 1.5 41.28937149047852 2.716026782989502 35.26533508300781 5.114293098449707 29.59518623352051 C 7.431066513061523 24.11771965026855 10.74804019927979 19.19813346862793 14.97309303283691 14.97309303283691 C 19.19813346862793 10.74804019927979 24.11771965026855 7.431066513061523 29.59518623352051 5.114293098449707 C 35.26533508300781 2.716026782989502 41.28937149047852 1.5 47.5 1.5 C 53.71062850952148 1.5 59.73468017578125 2.716026782989502 65.40481567382812 5.114293098449707 C 70.88229370117188 7.431066513061523 75.80186462402344 10.74804019927979 80.02691650390625 14.97309303283691 C 84.25196075439453 19.19813346862793 87.56893157958984 24.11771965026855 89.88570404052734 29.59518623352051 C 92.28397369384766 35.26533508300781 93.5 41.28937149047852 93.5 47.5 C 93.5 53.71062850952148 92.28397369384766 59.73468017578125 89.88570404052734 65.40481567382812 C 87.56893157958984 70.88229370117188 84.25196075439453 75.80186462402344 80.02691650390625 80.02691650390625 C 75.80186462402344 84.25196075439453 70.88229370117188 87.56893157958984 65.40481567382812 89.88570404052734 C 59.73468017578125 92.28397369384766 53.71062850952148 93.5 47.5 93.5 Z" stroke="none"/>
              <path d="M 47.5 3 C 41.49121475219727 3 35.66376876831055 4.176155090332031 30.17950439453125 6.495796203613281 C 24.88084411621094 8.736953735351562 20.12152099609375 11.94598388671875 16.03375244140625 16.03375244140625 C 11.94598388671875 20.12152099609375 8.736953735351562 24.88084411621094 6.495796203613281 30.17950439453125 C 4.176155090332031 35.66376876831055 3 41.49121475219727 3 47.5 C 3 53.50878524780273 4.176155090332031 59.33623123168945 6.495796203613281 64.82049560546875 C 8.736953735351562 70.11915588378906 11.94598388671875 74.87847900390625 16.03375244140625 78.96624755859375 C 20.12152099609375 83.05401611328125 24.88084411621094 86.26304626464844 30.17950439453125 88.50419616699219 C 35.66376876831055 90.82384490966797 41.49121475219727 92 47.5 92 C 53.50878524780273 92 59.33623123168945 90.82384490966797 64.82049560546875 88.50419616699219 C 70.11915588378906 86.26304626464844 74.87847900390625 83.05401611328125 78.96624755859375 78.96624755859375 C 83.05401611328125 74.87847900390625 86.26304626464844 70.11915588378906 88.50419616699219 64.82049560546875 C 90.82384490966797 59.33623123168945 92 53.50878524780273 92 47.5 C 92 41.49121475219727 90.82384490966797 35.66376876831055 88.50419616699219 30.17950439453125 C 86.26304626464844 24.88084411621094 83.05401611328125 20.12152099609375 78.96624755859375 16.03375244140625 C 74.87847900390625 11.94598388671875 70.11915588378906 8.736953735351562 64.82049560546875 6.495796203613281 C 59.33623123168945 4.176155090332031 53.50878524780273 3 47.5 3 M 47.5 0 C 73.7335205078125 0 95 21.2664794921875 95 47.5 C 95 73.7335205078125 73.7335205078125 95 47.5 95 C 21.2664794921875 95 0 73.7335205078125 0 47.5 C 0 21.2664794921875 21.2664794921875 0 47.5 0 Z" stroke="none" fill="#56838a"/>
            </g>
          </g>
        </g>
      </g>
    </g>
    <g id="g159" transform="translate(1238.486 6325.296)">
      <g id="g161" transform="translate(0 -682.665)">
        <g id="g163" transform="translate(0 0)" clip-path="url(#clip-path)">
          <g id="g169" transform="translate(17.437 49.788)">
            <path id="path171" d="M-331.677-121.077c0-7.943-3.35-12.316-3.35-12.316h-27.037s-3.35,4.372-3.35,12.316Z" transform="translate(365.414 133.393)" fill="#ff8d9d"/>
          </g>
          <g id="g173" transform="translate(10.938 0.923)">
            <path id="path175" d="M0-229.736A23.394,23.394,0,0,1,23.368-253.1a23.394,23.394,0,0,1,23.368,23.368Z" transform="translate(0 253.103)" fill="#696eb1"/>
          </g>
          <g id="g177" transform="translate(47.965 19.996)">
            <path id="path179" d="M-108.64-54.32a5.525,5.525,0,0,1-5.525,5.525,5.525,5.525,0,0,1-5.525-5.525,5.525,5.525,0,0,1,5.525-5.525,5.525,5.525,0,0,1,5.525,5.525" transform="translate(119.69 59.845)" fill="#c7856a"/>
          </g>
          <g id="g181" transform="translate(4.012 0.974)">
            <path id="path183" d="M-282.843,0A23.211,23.211,0,0,0-293.4,3.325,6.694,6.694,0,0,0-298.458.382a6.691,6.691,0,0,0-6.9,4.762,6.71,6.71,0,0,1-3.63,4.284,7.877,7.877,0,0,1-1.105.4,2.089,2.089,0,0,0-.9,3.487c1.744,1.734,4.292,3.324,7.481,2.7a23.276,23.276,0,0,0-1.169,7.3h9.842a22.774,22.774,0,0,1-.231-3.231A22.6,22.6,0,0,1-282.843,0" transform="translate(311.613)" fill="#4c5698"/>
          </g>
          <g id="g185" transform="translate(15.244 10.904)">
            <path id="path187" d="M-370.444-91.3a4.086,4.086,0,0,0-4.567-3.139,34.811,34.811,0,0,1-4.752.324,32.087,32.087,0,0,1-18.631-5.7,4.106,4.106,0,0,0-5.612.784,18.978,18.978,0,0,0-4.118,11.908A19.115,19.115,0,0,0-389.2-68.134,19.061,19.061,0,0,0-370-87.195a19.121,19.121,0,0,0-.442-4.1" transform="translate(408.125 100.582)" fill="#da9d81"/>
          </g>
          <g id="g189" transform="translate(9.596 10.904)">
            <path id="path191" d="M-107.678-99.845a22.5,22.5,0,0,1,2.4-10.139,4.1,4.1,0,0,0-3.585,1.538,18.985,18.985,0,0,0-3.638,7.571,5.6,5.6,0,0,0-.6-.033,5.525,5.525,0,0,0-5.525,5.525,5.525,5.525,0,0,0,5.525,5.525,5.533,5.533,0,0,0,1.307-.157A19.131,19.131,0,0,0-94.061-77.553a19.18,19.18,0,0,0,3.66-.325,22.607,22.607,0,0,1-17.276-21.967" transform="translate(118.63 110)" fill="#c7856a"/>
          </g>
          <g id="g201" transform="translate(22.206 29.947)">
            <path id="path203" d="M-222.162-54.331h-6.574v-1.6a3.924,3.924,0,0,0-3.924-3.924,3.924,3.924,0,0,0-3.924,3.924v1.6h-6.574a1.6,1.6,0,0,0-1.6,1.6v19.765a1.6,1.6,0,0,0,1.6,1.6h6.574v-1.6a3.924,3.924,0,0,1,3.924-3.924,3.924,3.924,0,0,1,3.924,3.924v1.6h6.574a1.6,1.6,0,0,0,1.6-1.6V-52.728a1.6,1.6,0,0,0-1.6-1.6" transform="translate(244.759 59.857)" fill="#fce29f"/>
          </g>
          <g id="g205" transform="translate(17.437 49.788)">
            <path id="path207" d="M-73.622-69.085a16.8,16.8,0,0,1,1.531-7.027h-5.67S-81.11-71.74-81.11-63.8h8.336a16.843,16.843,0,0,1-.847-5.288" transform="translate(81.11 76.112)" fill="#e95b70"/>
          </g>
          <g id="g209" transform="translate(22.205 35.474)">
            <path id="path211" d="M-47.637-33.923a20.724,20.724,0,0,1,.289-3.45H-50.88a1.6,1.6,0,0,0-1.6,1.6v19.765a1.6,1.6,0,0,0,1.6,1.6h6.574v-1.6a3.919,3.919,0,0,1,1.687-3.223,23.719,23.719,0,0,1-5.018-14.693" transform="translate(52.483 37.373)" fill="#ffcd71"/>
          </g>
          <g id="g213" transform="translate(14.925 45.041)">
            <path id="path215" d="M-122.5-26.125h0a3.924,3.924,0,0,0-4.981-2.446l-4.821,1.646a3.924,3.924,0,0,0-2.446,4.981,3.924,3.924,0,0,0,4.981,2.446l4.822-1.646a3.924,3.924,0,0,0,2.446-4.981" transform="translate(134.956 28.782)" fill="#da9d81"/>
          </g>
          <g id="g217" transform="translate(41.015 45.041)">
            <path id="path219" d="M-2.079-26.125h0A3.924,3.924,0,0,1,2.9-28.571l4.822,1.646a3.924,3.924,0,0,1,2.446,4.981A3.924,3.924,0,0,1,5.188-19.5L.367-21.144a3.924,3.924,0,0,1-2.446-4.981" transform="translate(2.29 28.782)" fill="#da9d81"/>
          </g>
          <g id="g221" transform="translate(14.925 47.41)">
            <path id="path223" d="M-122.493-2.826c-.034-.1-.072-.194-.112-.287a7.946,7.946,0,0,1-6.584,3.49,7.924,7.924,0,0,1-5.34-2.059,3.911,3.911,0,0,0-.212,3.037A3.924,3.924,0,0,0-129.761,3.8l4.822-1.646A3.924,3.924,0,0,0-122.493-2.826Z" transform="translate(134.953 3.113)" fill="#c7856a"/>
          </g>
          <g id="g225" transform="translate(41.015 45.215)">
            <path id="path227" d="M-104.817-68.177a7.954,7.954,0,0,1-7.887-6.935,3.918,3.918,0,0,0-2.563,2.483h0a3.924,3.924,0,0,0,2.446,4.981L-108-66a3.923,3.923,0,0,0,4.955-2.376,7.977,7.977,0,0,1-1.772.2" transform="translate(115.478 75.112)" fill="#c7856a"/>
          </g>
          <g id="g241" transform="translate(4.012 1.339)">
            <path id="path243" d="M-179.015-29.1a6.694,6.694,0,0,0-5.054-2.942,6.691,6.691,0,0,0-6.9,4.762A6.71,6.71,0,0,1-194.6-23a7.879,7.879,0,0,1-1.105.4,2.088,2.088,0,0,0-.9,3.487c1.744,1.734,4.292,3.325,7.481,2.7A23.484,23.484,0,0,1-179.015-29.1Z" transform="translate(197.224 32.06)" fill="none" stroke="#000" stroke-linecap="round" stroke-linejoin="round" stroke-miterlimit="10" stroke-width="1.5"/>
          </g>
          <g id="g245" transform="translate(11.075 0.923)">
            <path id="path247" d="M-347.452-33.347a23.222,23.222,0,0,0-12.111-3.392A23.4,23.4,0,0,0-382.794-15.9a5.509,5.509,0,0,1,4.046-1.764,5.566,5.566,0,0,1,.6.033,18.986,18.986,0,0,1,3.638-7.571,4.106,4.106,0,0,1,5.612-.784,28.922,28.922,0,0,0,4.813,2.772" transform="translate(382.794 36.739)" fill="none" stroke="#000" stroke-linecap="round" stroke-linejoin="round" stroke-miterlimit="10" stroke-width="1.5"/>
          </g>
          <g id="g249" transform="translate(33.57 6.508)">
            <path id="path251" d="M0-92.2a34.043,34.043,0,0,0,10.035,1.49,34.815,34.815,0,0,0,4.752-.324,4.089,4.089,0,0,1,4.528,2.979,5.58,5.58,0,0,1,.6-.034,5.509,5.509,0,0,1,4.046,1.764,23.35,23.35,0,0,0-8.089-15.253" transform="translate(0 101.574)" fill="none" stroke="#000" stroke-linecap="round" stroke-linejoin="round" stroke-miterlimit="10" stroke-width="1.5"/>
          </g>
          <g id="g253" transform="translate(9.596 19.996)">
            <path id="path255" d="M-55.531-42.967a19.116,19.116,0,0,1,.479-4.337,5.565,5.565,0,0,0-.6-.033,5.525,5.525,0,0,0-5.525,5.525,5.525,5.525,0,0,0,5.525,5.525,5.534,5.534,0,0,0,1.307-.157A18.89,18.89,0,0,1-55.531-42.967Z" transform="translate(61.18 47.337)" fill="none" stroke="#000" stroke-linecap="round" stroke-linejoin="round" stroke-miterlimit="10" stroke-width="1.5"/>
          </g>
          <g id="g257" transform="translate(52.192 19.996)">
            <path id="path259" d="M-12.755,0a5.608,5.608,0,0,0-.6.033c.014.053.027.106.039.16a19.128,19.128,0,0,1,.442,4.1,19.02,19.02,0,0,1-1.174,6.6,5.536,5.536,0,0,0,1.3.155A5.525,5.525,0,0,0-7.229,5.525,5.525,5.525,0,0,0-12.755,0Z" transform="translate(14.052)" fill="none" stroke="#000" stroke-linecap="round" stroke-linejoin="round" stroke-miterlimit="10" stroke-width="1.5"/>
          </g>
          <g id="g261" transform="translate(15.244 10.904)">
            <path id="path263" d="M-142.971-34.831a28.929,28.929,0,0,1-4.813-2.772,4.106,4.106,0,0,0-5.612.784,18.978,18.978,0,0,0-4.118,11.908,19.046,19.046,0,0,0,6.961,14.626V-12.2a1.6,1.6,0,0,1,1.6-1.6h6.574v-1.6a3.924,3.924,0,0,1,3.924-3.924h0a3.924,3.924,0,0,1,3.924,3.924v1.6h6.574a1.6,1.6,0,0,1,1.6,1.6v1.944a19.023,19.023,0,0,0,6.961-14.729,19.13,19.13,0,0,0-.442-4.1,4.086,4.086,0,0,0-4.567-3.139,34.831,34.831,0,0,1-4.752.324,34.04,34.04,0,0,1-10.035-1.49" transform="translate(157.513 38.374)" fill="none" stroke="#000" stroke-linecap="round" stroke-linejoin="round" stroke-miterlimit="10" stroke-width="1.5"/>
          </g>
          <g id="g265" transform="translate(17.437 52.917)">
            <path id="path267" d="M-305.325-13.84l-2.088-.713v3.229a1.6,1.6,0,0,1-1.6,1.6h-6.574v-1.6a3.924,3.924,0,0,0-3.924-3.924,3.924,3.924,0,0,0-3.924,3.924v1.6h-6.574a1.6,1.6,0,0,1-1.6-1.6v-3.229l-2.088.713a3.91,3.91,0,0,1-1.56.2,25.182,25.182,0,0,0-1.121,7.579h33.737a25.182,25.182,0,0,0-1.121-7.579A3.91,3.91,0,0,1-305.325-13.84Z" transform="translate(336.382 15.248)" fill="none" stroke="#000" stroke-linecap="round" stroke-linejoin="round" stroke-miterlimit="10" stroke-width="1.5"/>
          </g>
          <g id="g269" transform="translate(14.925 45.041)">
            <path id="path271" d="M-122.5-26.125h0a3.924,3.924,0,0,0-4.981-2.446l-4.821,1.646a3.924,3.924,0,0,0-2.446,4.981,3.924,3.924,0,0,0,4.981,2.446l4.822-1.646A3.924,3.924,0,0,0-122.5-26.125Z" transform="translate(134.956 28.782)" fill="none" stroke="#000" stroke-linecap="round" stroke-linejoin="round" stroke-miterlimit="10" stroke-width="1.5"/>
          </g>
          <g id="g273" transform="translate(22.205 29.947)">
            <path id="path275" d="M-211.044-223.48a3.924,3.924,0,0,1-2.446-4.981,3.924,3.924,0,0,1,4.981-2.446l.2.068v-8.244a1.6,1.6,0,0,0-1.6-1.6h-6.574v-1.6a3.924,3.924,0,0,0-3.924-3.924h0a3.924,3.924,0,0,0-3.924,3.924v1.6h-6.574a1.6,1.6,0,0,0-1.6,1.6v8.244l.2-.068a3.924,3.924,0,0,1,4.981,2.446,3.924,3.924,0,0,1-2.446,4.981l-2.733.933v3.229a1.6,1.6,0,0,0,1.6,1.6h6.574v-1.6a3.924,3.924,0,0,1,3.924-3.924,3.924,3.924,0,0,1,3.924,3.924v1.6h6.574a1.6,1.6,0,0,0,1.6-1.6v-3.229Z" transform="translate(232.51 246.211)" fill="none" stroke="#000" stroke-linecap="round" stroke-linejoin="round" stroke-miterlimit="10" stroke-width="1.5"/>
          </g>
          <g id="g277" transform="translate(41.015 45.041)">
            <path id="path279" d="M-2.079-26.125h0A3.924,3.924,0,0,1,2.9-28.571l4.822,1.646a3.924,3.924,0,0,1,2.446,4.981A3.924,3.924,0,0,1,5.188-19.5L.367-21.144A3.924,3.924,0,0,1-2.079-26.125Z" transform="translate(2.29 28.782)" fill="none" stroke="#000" stroke-linecap="round" stroke-linejoin="round" stroke-miterlimit="10" stroke-width="1.5"/>
          </g>
        </g>
      </g>
    </g>
  </g>
</svg>
