<svg xmlns="http://www.w3.org/2000/svg" xmlns:xlink="http://www.w3.org/1999/xlink" width="400" height="292" viewBox="0 0 400 292">
  <defs>
    <clipPath id="clip-path">
      <rect id="Rectángulo_414646" data-name="Rectángulo 414646" width="400" height="292" transform="translate(180 470.348)" fill="#fff" stroke="#707070" stroke-width="1"/>
    </clipPath>
    <clipPath id="clip-path-2">
      <rect id="Rectángulo_414645" data-name="Rectángulo 414645" width="324.254" height="290.271" fill="none"/>
    </clipPath>
    <clipPath id="clip-path-3">
      <rect id="Rectángulo_414647" data-name="Rectángulo 414647" width="135.549" height="183.12" fill="none"/>
    </clipPath>
    <clipPath id="clip-path-4">
      <rect id="Rectángulo_414648" data-name="Rectángulo 414648" width="74.115" height="240.056" fill="none"/>
    </clipPath>
  </defs>
  <g id="Enmascarar_grupo_1098721" data-name="Enmascarar grupo 1098721" transform="translate(-180 -470.348)" clip-path="url(#clip-path)">
    <g id="Grupo_1172520" data-name="Grupo 1172520" transform="translate(219 470.924)">
      <g id="Grupo_1172519" data-name="Grupo 1172519" clip-path="url(#clip-path-2)">
        <path id="Trazado_1026822" data-name="Trazado 1026822" d="M172.183,936.692c2.713-.286,5.693.112,8.452.069,7.055-.11,14.108-.39,21.166-.283l-.119,1.1c-8.814-.236-17.668-.084-26.487-.088l-46.317-.028q-.563.022-1.127.035c-1.316.028-2.084.067-3.107-.911a66.487,66.487,0,0,1,8.409-.076l18.678.313c6.812.071,13.638-.516,20.452-.132" transform="translate(-86.171 -647.373)" fill="#6e3767"/>
        <path id="Trazado_1026823" data-name="Trazado 1026823" d="M157.084,927.561l44.523-.028a17.106,17.106,0,0,0-.139,2.808c-7.058-.107-14.111.172-21.166.283-2.759.043-5.739-.354-8.452-.068-6.814-.384-13.64.2-20.452.132l-18.678-.313a66.522,66.522,0,0,0-8.409.076c-.051-.265-.1-.533-.134-.8a1.741,1.741,0,0,1,.374-1.381c.726-.8,2.058-.676,3.052-.7,9.831-.009,19.648.138,29.481,0" transform="translate(-85.837 -641.236)" fill="#98415c"/>
        <path id="Trazado_1026824" data-name="Trazado 1026824" d="M134.187,877.36c9.961-.035,19.988-.451,29.936-.044a10.329,10.329,0,0,0-3.329,7.71,9.824,9.824,0,0,0,2.855,7.333l.365.363c-9.833.142-19.65,0-29.481,0q.16-1.034.338-2.064l-.045-.586.332-1.1-.019-.95a35.336,35.336,0,0,0-.953-10.67" transform="translate(-92.768 -606.396)" fill="#cab2a3"/>
        <path id="Trazado_1026825" data-name="Trazado 1026825" d="M136.258,919.053c1.716.084,7.014,0,8.253.477l-.5-.078.09.124q-3.9.1-7.794.062Z" transform="translate(-94.2 -635.373)" fill="#b8a099"/>
        <path id="Trazado_1026826" data-name="Trazado 1026826" d="M137.273,911.9c1.655-.58,21.4.032,23.318.6l-.475-.117-.137.329a178.56,178.56,0,0,1-22.687.133Z" transform="translate(-94.902 -630.267)" fill="#b8a099"/>
        <path id="Trazado_1026827" data-name="Trazado 1026827" d="M223.715,877.713l45.96.046c-.257,2.068-.555,4.134-.607,6.22l-.164.707c-.113,1.259-.255,2.523-.335,3.785l-.161.969c-.072,1.22-.153,2.434-.279,3.65l-44.523.028-.365-.363a9.824,9.824,0,0,1-2.855-7.333,10.329,10.329,0,0,1,3.329-7.71" transform="translate(-152.36 -606.793)" fill="#f3dcca"/>
        <path id="Trazado_1026828" data-name="Trazado 1026828" d="M251.754,898.552c4.485.035,8.992-.2,13.478-.3q12.093-.243,24.2-.244l-.164.707c-12.65.714-25.264.755-37.93.708a8.293,8.293,0,0,1-1.5-.429Z" transform="translate(-172.721 -620.827)" fill="#cab2a3"/>
        <path id="Trazado_1026829" data-name="Trazado 1026829" d="M176.576,750.113a38.045,38.045,0,0,0,3.877,2.254,33.513,33.513,0,0,0,5.818,1.7,76.3,76.3,0,0,0,7.9,1.12c3.541.2,7.1.133,10.642.114-.115,2.891-.954,5.843-.9,8.7a2.959,2.959,0,0,0,1.564.655q-.19,1.873-.351,3.749a16.511,16.511,0,0,0-.129,2.172l-.332,2.809-1.065,8.6-.123,1.577a13.429,13.429,0,0,0-.125,2.089l-.224.913-.331,2.974-45.96-.046c-9.949-.407-19.976.009-29.936.044a4.414,4.414,0,0,1-2.407-.3,1.563,1.563,0,0,1-.849-1.2,2.22,2.22,0,0,1,.439-1.176c1.053-1.038,13.321-.533,15.617-.6a7.069,7.069,0,0,1-2.858-4.35,19.336,19.336,0,0,1,.073-6.77,6.852,6.852,0,0,1,3.53-4.549c-3.556-.284-7.723.644-11.147-.142-.762-.175-1.041-.6-1.453-1.233-.023-.086-.048-.173-.069-.26a2.224,2.224,0,0,1,.307-1.8,2.953,2.953,0,0,1,2.036-.925l.711-3.324.06-1.152.014-1.172,0-1.266-.008-1.458-.3-.81a9.893,9.893,0,0,0-.241-2.155,2.443,2.443,0,0,0-1.611-.742,2.8,2.8,0,0,1-1.566-1.776,6.875,6.875,0,0,1,.436-1.186,2.9,2.9,0,0,1,1.764-1.1,82.231,82.231,0,0,0,9.633.132l12.548-.034c2.525,0,5.1-.1,7.621.067,3.9.535,13.215.126,17.4-.155" transform="translate(-85.476 -518.572)" fill="#0d715e"/>
        <path id="Trazado_1026830" data-name="Trazado 1026830" d="M166.4,853.175c2.3.1,3.669,3.315,6.305,3.46,6.066.334,12.3.059,18.384.079,13.931.047,27.892-.016,41.819.193l-.224.913-44.274-.035c-3.832,0-16.123.568-19.153-.261a7.069,7.069,0,0,1-2.858-4.35" transform="translate(-115.037 -589.829)" fill="#0d494a"/>
        <path id="Trazado_1026831" data-name="Trazado 1026831" d="M179.948,851.47c5.247.71,10.737.27,16.025.356q13.541.286,27.086.24c6.485-.007,12.98-.155,19.464,0l-.123,1.577c-20.1-.04-40.256.294-60.346-.128a12.435,12.435,0,0,1-2.105-2.042" transform="translate(-124.404 -588.65)" fill="#b8a099"/>
        <path id="Trazado_1026832" data-name="Trazado 1026832" d="M349.425,766.559c3.541.2,7.1.133,10.642.114-.115,2.891-.954,5.843-.9,8.7a2.959,2.959,0,0,0,1.564.655q-.19,1.873-.351,3.749a16.5,16.5,0,0,0-.129,2.171q-6.016.028-12.032-.033l.788-.228c.51-.548.433-.791.5-1.519-.106-.686-.1-1.418-.133-2.113l-.071-2.389a11.645,11.645,0,0,0,.121-9.111" transform="translate(-240.734 -529.949)" fill="#afdbe8"/>
        <path id="Trazado_1026833" data-name="Trazado 1026833" d="M139.695,867.118c3.03.829,15.321.263,19.153.261l44.274.035-.331,2.974-45.96-.046c-9.949-.407-19.976.009-29.936.044a4.416,4.416,0,0,1-2.407-.3,1.563,1.563,0,0,1-.849-1.2,2.22,2.22,0,0,1,.439-1.176c1.053-1.038,13.321-.533,15.617-.6" transform="translate(-85.476 -599.422)" fill="#98415c"/>
        <path id="Trazado_1026834" data-name="Trazado 1026834" d="M243.255,825.53l-1.065,8.6c-6.484-.152-12.978,0-19.464,0q-13.545.046-27.086-.24c-5.287-.086-10.778.354-16.025-.356-.065-2.246-.631-5.634.987-7.442,1.477-.741,55.273-.494,62.652-.565" transform="translate(-124.073 -570.717)" fill="#cab2a3"/>
        <path id="Trazado_1026835" data-name="Trazado 1026835" d="M184.49,750.113a38.049,38.049,0,0,0,3.877,2.254,33.514,33.514,0,0,0,5.818,1.7,76.3,76.3,0,0,0,7.9,1.12,11.645,11.645,0,0,1-.121,9.111l.071,2.389c.036.7.027,1.427.133,2.113-.071.728.006.971-.5,1.519l-.788.228q-18.586-.124-37.172-.038c-5,.027-10.411-.461-15.346.094-3.556-.284-7.723.644-11.147-.142-.762-.175-1.041-.6-1.453-1.233-.023-.086-.048-.173-.069-.26a2.224,2.224,0,0,1,.307-1.8,2.953,2.953,0,0,1,2.036-.925l.711-3.324.06-1.152.014-1.172,0-1.266-.008-1.458-.3-.81a9.892,9.892,0,0,0-.241-2.155,2.443,2.443,0,0,0-1.611-.742,2.8,2.8,0,0,1-1.566-1.776,6.876,6.876,0,0,1,.436-1.186,2.9,2.9,0,0,1,1.764-1.1,82.231,82.231,0,0,0,9.633.132l12.548-.034c2.525,0,5.1-.1,7.621.067,3.9.535,13.215.126,17.4-.155" transform="translate(-93.39 -518.572)" fill="#f3dcca"/>
        <path id="Trazado_1026836" data-name="Trazado 1026836" d="M146.982,787.7c2.162,0,16.964-.328,17.711.322a24.205,24.205,0,0,0-3.442.4c-2.366.677-11.224.47-14.329.435Z" transform="translate(-101.572 -544.506)" fill="#cab2a3"/>
        <path id="Trazado_1026837" data-name="Trazado 1026837" d="M147.153,779.985q8.345.108,16.68.53c3.305.172,6.649.545,9.954.585q-2.268.257-4.544.418-11.042-.308-22.087-.267Z" transform="translate(-101.732 -539.231)" fill="#cab2a3"/>
        <path id="Trazado_1026838" data-name="Trazado 1026838" d="M208.55,796.075l.071,2.389a61.856,61.856,0,0,1-7.816.057q-10.041.085-20.081-.077l-21.559-.039a141.036,141.036,0,0,1-14.547-.383c2.187-.2,4.514-.066,6.713-.067l12.5.013,41.718.195a14.542,14.542,0,0,0,3-2.088" transform="translate(-99.979 -550.354)" fill="#cc7052"/>
        <path id="Trazado_1026839" data-name="Trazado 1026839" d="M223.264,783.5c.905-.023,1.812-.059,2.717-.02,2.155-.021,23.427-.082,23.66.139l-.176.125,1.211-.164-.2-.033-.026.12-12.142.265c-1.234.022-2.527.226-3.752.165l-1.005.081a3,3,0,0,0-1.637.338c2.415,1.124,15.355.082,16.988,1.04-4.371.716-16.159.158-20.565-.719a41.55,41.55,0,0,1-9.621-.92q2.277-.161,4.544-.418" transform="translate(-151.209 -541.629)" fill="#cab2a3"/>
        <path id="Trazado_1026840" data-name="Trazado 1026840" d="M146.159,772.131c3.5-.5,7.351-.018,10.911-.008,13.175.037,26.438-.137,39.584.849a44.672,44.672,0,0,1,5.922.431c-3.211.255-6.471.029-9.689-.014-5.345-.071-10.682-.114-16.027-.259q-15.2-.41-30.4-.188Z" transform="translate(-101.045 -533.644)" fill="#cab2a3"/>
        <path id="Trazado_1026841" data-name="Trazado 1026841" d="M188.367,757.319a33.514,33.514,0,0,0,5.818,1.7c-6.553.235-13.19.028-19.752.029l-37.782.069a2.8,2.8,0,0,1-1.566-1.776c4.114-.212,8.423.11,12.565.114l27.554-.06c4.3,0,8.9.36,13.162-.072" transform="translate(-93.39 -523.523)" fill="#eb8e40"/>
        <path id="Trazado_1026842" data-name="Trazado 1026842" d="M184.49,750.113a38.049,38.049,0,0,0,3.877,2.254c-4.262.431-8.863.067-13.162.072l-27.554.06c-4.142,0-8.451-.326-12.565-.114a6.876,6.876,0,0,1,.436-1.186,2.9,2.9,0,0,1,1.764-1.1,82.231,82.231,0,0,0,9.633.132l12.548-.034c2.525,0,5.1-.1,7.621.067,3.9.535,13.215.126,17.4-.155" transform="translate(-93.39 -518.572)" fill="#fcd486"/>
        <path id="Trazado_1026843" data-name="Trazado 1026843" d="M136.949,805.368c-.023-.086-.048-.173-.069-.26a2.224,2.224,0,0,1,.307-1.8,2.953,2.953,0,0,1,2.036-.925,141.036,141.036,0,0,0,14.547.383l21.559.039q10.04.162,20.081.077a61.856,61.856,0,0,0,7.816-.057c.036.7.027,1.427.133,2.113-.071.727.006.971-.5,1.519l-.788.228q-18.586-.124-37.172-.038c-5,.027-10.411-.461-15.346.094-3.556-.284-7.723.644-11.147-.142-.762-.175-1.041-.6-1.453-1.233" transform="translate(-94.584 -554.716)" fill="#f4af49"/>
        <path id="Trazado_1026844" data-name="Trazado 1026844" d="M137.25,811.091c1.226-.786,59.76-.188,66.41-.428-.071.728.006.971-.5,1.519l-.788.228q-18.586-.124-37.172-.038c-5,.027-10.411-.462-15.346.094-3.556-.284-7.723.644-11.147-.142-.762-.175-1.041-.6-1.453-1.233" transform="translate(-94.886 -560.439)" fill="#eb8e40"/>
        <path id="Trazado_1026845" data-name="Trazado 1026845" d="M378.711,797.249a115.4,115.4,0,0,0,15.382,2.536l1.344.191q9.9,1.194,19.867,1.482l1.459.061q6.917.02,13.822-.366t13.777-1.18l1.484-.239.857-.173c.916.555,1.262,1.968,1.7,2.955,4.06-.935,8.137-1.79,12.151-2.91.488,3.4.808,6.919,1.48,10.278l0,.527c.3,1.666.469,3.344.649,5.026,1.022,8.654,1.76,17.224,2.119,25.93l-41.857.017-6.292.026c-14.14-.065-28.284.118-42.421-.038l.119-1.1a17.109,17.109,0,0,1,.139-2.808c.126-1.216.207-2.43.279-3.65l.161-.97c.08-1.261.222-2.525.335-3.785l.164-.707c.052-2.086.349-4.152.607-6.22l.331-2.974.224-.913a13.428,13.428,0,0,1,.125-2.089l.123-1.577,1.065-8.6.332-2.809a16.507,16.507,0,0,1,.129-2.171q.16-1.876.351-3.749" transform="translate(-258.717 -551.166)" fill="#517fb8"/>
        <path id="Trazado_1026846" data-name="Trazado 1026846" d="M507.3,810.886l1.459.061.67,3.915a30.047,30.047,0,0,1,1.228,5.17,25.079,25.079,0,0,1-2.346-5.174,29.192,29.192,0,0,1-1.01-3.972" transform="translate(-350.714 -560.594)" fill="#3f3c7b"/>
        <path id="Trazado_1026847" data-name="Trazado 1026847" d="M606.25,804.911l.857-.173c.916.555,1.262,1.968,1.7,2.955a20.7,20.7,0,0,0,1.861,2.531c3.609,3.286,7.015,4.376,11.77,4.837l0,.527a16.543,16.543,0,0,1-12.241-4.317,26.116,26.116,0,0,1-2.538-3.2,26.554,26.554,0,0,1-1.406-3.159" transform="translate(-419.121 -556.343)" fill="#3f3c7b"/>
        <path id="Trazado_1026848" data-name="Trazado 1026848" d="M402.5,808.7a14.434,14.434,0,0,0,1.733-2.207c.538-.714.678-.9,1.572-1.028l1.344.191a34.007,34.007,0,0,1-2.041,3.135,20.805,20.805,0,0,1-13.94,6.967A29.225,29.225,0,0,0,402.5,808.7" transform="translate(-270.424 -556.846)" fill="#3f3c7b"/>
        <path id="Trazado_1026849" data-name="Trazado 1026849" d="M387.966,797.249a115.4,115.4,0,0,0,15.382,2.536c-.893.127-1.034.314-1.572,1.028a14.432,14.432,0,0,1-1.733,2.207q-6.2-1.068-12.428-2.023.16-1.876.351-3.749" transform="translate(-267.972 -551.166)" fill="#3b5f9d"/>
        <path id="Trazado_1026850" data-name="Trazado 1026850" d="M438.365,806.086q9.9,1.194,19.867,1.482a29.2,29.2,0,0,0,1.01,3.972,151.173,151.173,0,0,1-22.918-2.318,33.99,33.99,0,0,0,2.041-3.135" transform="translate(-301.646 -557.275)" fill="#3b5f9d"/>
        <path id="Trazado_1026851" data-name="Trazado 1026851" d="M626.68,804.884c.488,3.4.808,6.919,1.48,10.278-4.755-.461-8.161-1.551-11.77-4.837a20.7,20.7,0,0,1-1.861-2.531c4.06-.935,8.137-1.79,12.151-2.91" transform="translate(-424.845 -556.444)" fill="#3b5f9d"/>
        <path id="Trazado_1026852" data-name="Trazado 1026852" d="M490.86,837.719c12.2,2.372,25.7.8,36.429-5.636a29.939,29.939,0,0,1-19.37,9.541c-1.772.188-4.142-.114-5.811.4a18.341,18.341,0,0,1-3.14-.181,22.7,22.7,0,0,1-8.108-4.125" transform="translate(-339.348 -575.248)" fill="#3b5f9d"/>
        <path id="Trazado_1026853" data-name="Trazado 1026853" d="M513.351,863.705a18.327,18.327,0,0,0,3.14.181c.465,7.78,1.322,15.66,1.466,23.441l-6.292.026c.016-3.087.379-6.242.6-9.323q.453-7.17,1.09-14.326" transform="translate(-353.731 -597.109)" fill="#afdbe8"/>
        <path id="Trazado_1026854" data-name="Trazado 1026854" d="M539.625,805.539l1.484-.239a26.555,26.555,0,0,0,1.406,3.159,131.219,131.219,0,0,1-20.693,2.418,10.691,10.691,0,0,1-.106,2.99,2.684,2.684,0,0,1-.619-.3,18.362,18.362,0,0,1-.5-2.507c-2.631.118-5.274.006-7.906-.058l-.67-3.915q6.917.02,13.822-.366t13.777-1.18" transform="translate(-353.981 -556.732)" fill="#3b5f9d"/>
        <path id="Trazado_1026855" data-name="Trazado 1026855" d="M539.048,815.145a8.726,8.726,0,0,1-.208-3.567c.479-.414.44-.386,1.075-.346.514.876.15,5.441.248,6.721a2.687,2.687,0,0,1-.619-.3,18.4,18.4,0,0,1-.5-2.507" transform="translate(-372.427 -560.818)" fill="#3f3c7b"/>
        <path id="Trazado_1026856" data-name="Trazado 1026856" d="M581.98,57.859C600.3,64.6,621.451,72.981,630.2,91.93c6.142,13.3,4.266,28.628-.691,41.98-1.022,2.754-4.4,11.136-6.6,12.738,21.375,1.2,42.383,8.161,56.974,24.5,11.112,12.442,16.452,29.4,15.51,45.95-1.09,19.087-11.128,36.385-25.2,48.925-24.659,21.973-63.218,32.206-94.986,38.249-.181-1.682-.351-3.36-.649-5.026l0-.527c-.673-3.359-.993-6.881-1.48-10.278-4.014,1.12-8.091,1.975-12.151,2.91-.437-.986-.783-2.4-1.7-2.955l-.857.173-1.484.239a63.857,63.857,0,0,0-1.62-7.072q-2.011-8.525-4.283-16.984l-13.991-51.259c8.242-2.98,16.167-7.143,24.493-9.844q5.282-2.412,10.7-4.5c-1.075-6.437-2.323-13.334-5.469-19.123a24.66,24.66,0,0,0-4.085-4.047c-4.907-3.484-12.373-2.426-18.034-1.447l-1.049-.293c-.017-1.289-.032-2.571-.143-3.856l.333-1.06a60.907,60.907,0,0,0,6.32-1.315c11.762-3.15,21.387-9.816,27.526-20.422a28.425,28.425,0,0,0,3.47-12.161l-.06-4.469a31.439,31.439,0,0,1,2.815-4.387c1.984-2.25,4.386-2.993,7.3-3.2l.025-.158c.319-2.107.071-4.115.317-6.192a13.845,13.845,0,0,0,3.726-1.643,6.354,6.354,0,0,0,2.743-4.075c.372-2.245-.549-4.181-1.81-5.957a10.9,10.9,0,0,0,5.746-4.686,12.231,12.231,0,0,0,1.194-9.31,10.824,10.824,0,0,0-5.525-6.554c-1.047-.447-2.194-.753-3.278-1.107,1.982-3.223,3.359-6.631,2.692-10.481A10.968,10.968,0,0,0,592.4,66c-3.167-2.154-6.725-2.159-10.353-1.485a19.606,19.606,0,0,0-.065-6.656" transform="translate(-371.24 -40)" fill="#afdbe8"/>
        <path id="Trazado_1026857" data-name="Trazado 1026857" d="M662.164,689.831c.61,1.753,1.218,3.494,1.7,5.289q-8.993,4.176-18.064,8.18c-3.242,1.437-6.708,2.742-9.831,4.4-1.668.771-3.331,1.557-5.008,2.306q-1.026-3.676-2.255-7.29a56.542,56.542,0,0,0,9.662-4.1c1.248-.711,2.106-1.937,3.488-2.448a58.254,58.254,0,0,1,5.894-1.458c3.889-.976,11.012-2.993,14.418-4.883" transform="translate(-434.643 -476.904)" fill="#64a9eb"/>
        <path id="Trazado_1026858" data-name="Trazado 1026858" d="M633.293,453.662c14.01,6.389,24.732,17.927,36.109,27.939-.676.817-1.452,1.633-2.059,2.5-2.681,3.544-6.25,6.541-9.261,9.821a120.634,120.634,0,0,1-3.642-12.034c-.5-1.8-.874-4.073-1.806-5.693a5.432,5.432,0,0,0-1.862.707l-.423-1.29-.606-2.279-2.209.791c-.717-1.407-1.319-2.894-1.965-4.336-2.244,1.047-4.538,2-6.807,3-1.075-6.437-2.323-13.334-5.469-19.123" transform="translate(-437.817 -313.632)" fill="#fcd486"/>
        <path id="Trazado_1026859" data-name="Trazado 1026859" d="M671.914,277.7a31.429,31.429,0,0,1,2.815-4.387c1.984-2.25,4.386-2.993,7.3-3.2a10.317,10.317,0,0,1,6.643,4.385,13.872,13.872,0,0,1,1.872,10.352q-.068.357-.154.711t-.189.7q-.1.349-.224.693t-.257.681q-.137.338-.291.667t-.324.652q-.17.322-.355.635t-.386.617q-.2.3-.416.6t-.445.576q-.23.282-.473.553t-.5.529q-.257.258-.525.5t-.549.477q-.281.232-.573.449t-.594.421a14.281,14.281,0,0,1-10.364,2.315c-.635-.12-1.265-.29-1.889-.461a27.8,27.8,0,0,1-3.531-1.842,28.425,28.425,0,0,0,3.47-12.161Z" transform="translate(-462.159 -186.741)" fill="#b95c4c"/>
        <path id="Trazado_1026860" data-name="Trazado 1026860" d="M671.973,300.294q.121-.182.25-.358t.267-.345q.138-.169.284-.332t.3-.317q.154-.155.315-.3t.329-.287q.168-.139.343-.27t.356-.253q.181-.122.368-.235t.379-.217q.192-.1.389-.2t.4-.179q.2-.084.406-.159t.414-.139q.209-.064.42-.119t.425-.1a6.007,6.007,0,0,1,7.218,3.846l-.194,3.04c-1.568-1.533-2.965-2.433-5.276-2.37a1.322,1.322,0,0,0-.671.207c.112,3.673.849,7.115-1.969,10.1a12.688,12.688,0,0,1-4.691,2.992,27.8,27.8,0,0,1-3.531-1.842,28.425,28.425,0,0,0,3.47-12.161" transform="translate(-462.159 -204.865)" fill="#9c2d2e"/>
        <path id="Trazado_1026861" data-name="Trazado 1026861" d="M620.1,562.093c3.012-3.28,6.581-6.277,9.262-9.821,2.247,2.235,4.5,4.456,6.63,6.808,1.941,2.106,9.482,10.7,9.485,13.344,0,.083-.012.165-.018.248,1.1,1.222,1.37,3.7,1.269,5.278-.207,3.322-2.4,6.147-4.828,8.248a39.232,39.232,0,0,1-14.691,7.451l.147,1.083c-3.406,1.89-10.529,3.906-14.418,4.882a58.271,58.271,0,0,0-5.894,1.458c-1.382.511-2.24,1.737-3.488,2.448a56.527,56.527,0,0,1-9.662,4.1l-.095-.3c-1.262,1.128-4.776,1-6.439,1.032-.327-1.184-.7-2.358-1.06-3.534-.351-1.014-1.474-1.408-2.19-2.146a3.362,3.362,0,0,1-.759-2.689c-1.413-.623-3.221-1.124-4.042-2.574a4.4,4.4,0,0,1-.233-3,3.89,3.89,0,0,0-.106-2.009,1.247,1.247,0,0,1,.021-.8,8.907,8.907,0,0,0,.252-2.356,4.4,4.4,0,0,1-.848-1.749,1.569,1.569,0,0,1-.035-.2c-.134-2.722,2.1-2,3.224-3.455l.2.322a35.054,35.054,0,0,0,6.078.753,17.173,17.173,0,0,1-1.657-2.424l.724-1.26a8.168,8.168,0,0,1,4.23-1.174c5.512-.3,9.1,1.79,13,5.353a18.08,18.08,0,0,0,3.287-.608c5.018-1.617,13.661-8.056,16.068-12.87q-1.76-4.9-3.418-9.833" transform="translate(-399.838 -381.805)" fill="#b95c4c"/>
        <path id="Trazado_1026862" data-name="Trazado 1026862" d="M578.488,666.318c.935-.146,1.922.793,2.781,1.241,1.51.787,4.411.7,5.533,1.467.059.04.115.084.172.126l-.129.32c-2.3.7-5.478-.322-7.51-1.405a4.4,4.4,0,0,1-.848-1.749" transform="translate(-399.929 -460.638)" fill="#9c2d2e"/>
        <path id="Trazado_1026863" data-name="Trazado 1026863" d="M580.351,682.256a37.56,37.56,0,0,0,5.129,2.094c1.177.281,3.2-.122,4.16.422-.094.193-.1.34-.308.417-2.691.971-5.981.126-8.546-.829l-.329-.094a3.888,3.888,0,0,0-.106-2.009" transform="translate(-401.217 -471.667)" fill="#9c2d2e"/>
        <path id="Trazado_1026864" data-name="Trazado 1026864" d="M603.805,648.906a9.874,9.874,0,0,1,6.54,0,1.971,1.971,0,0,1,1.047.962,1.626,1.626,0,0,1-.262,1.241c-1.452.96-4.021.445-5.668.219a17.173,17.173,0,0,1-1.657-2.424" transform="translate(-417.431 -448.226)" fill="#cc7052"/>
        <path id="Trazado_1026865" data-name="Trazado 1026865" d="M713.6,562.093c3.012-3.28,6.581-6.277,9.261-9.821,2.247,2.235,4.5,4.456,6.63,6.808-5.1,3.36-9.537,7.425-12.474,12.846q-1.76-4.9-3.418-9.833" transform="translate(-493.338 -381.805)" fill="#9c2d2e"/>
        <path id="Trazado_1026866" data-name="Trazado 1026866" d="M646.727,618.363c1.1,1.222,1.37,3.7,1.269,5.278-.207,3.322-2.4,6.147-4.828,8.248a39.232,39.232,0,0,1-14.691,7.451l.147,1.083c-3.406,1.89-10.529,3.906-14.418,4.882a58.25,58.25,0,0,0-5.894,1.458c-1.382.511-2.24,1.737-3.488,2.448a56.54,56.54,0,0,1-9.662,4.1l-.095-.3c-1.262,1.128-4.776,1-6.439,1.032-.327-1.184-.7-2.358-1.06-3.534-.351-1.014-1.474-1.408-2.19-2.146a3.362,3.362,0,0,1-.759-2.689c-1.413-.623-3.222-1.124-4.042-2.574a4.4,4.4,0,0,1-.233-3l.329.094c1.579,2.171,3.325,3.834,6.072,4.239a22.729,22.729,0,0,0,5.334-.136c-2.512,1.4-3.982,1.343-6.69,1.745a10.686,10.686,0,0,0,2.558,1.018,19.68,19.68,0,0,0,8.368-.293c3.882-.876,7.5-2.672,11.223-4.024,9.916-3.6,20.112-6.515,29.11-12.2,5.142-3.25,8.68-5.943,10.078-12.174" transform="translate(-401.104 -427.496)" fill="#9c2d2e"/>
        <path id="Trazado_1026867" data-name="Trazado 1026867" d="M604.1,722.456a7.363,7.363,0,0,1,2.272.494,14.094,14.094,0,0,0,4.52.145l.707,1.863c-1.262,1.128-4.776,1-6.439,1.032-.327-1.184-.7-2.358-1.06-3.534" transform="translate(-417.635 -499.451)" fill="#485496"/>
        <path id="Trazado_1026868" data-name="Trazado 1026868" d="M626.105,698.123a30.933,30.933,0,0,0,9.721-3.717,35.386,35.386,0,0,1,5.448-2.811c2.338-.812,4.94-1.2,7.353-1.792a104.979,104.979,0,0,0,11.594-3.479l.147,1.083c-3.406,1.89-10.529,3.906-14.418,4.883a58.242,58.242,0,0,0-5.894,1.458c-1.382.511-2.24,1.737-3.488,2.448a56.537,56.537,0,0,1-9.662,4.1l-.095-.3Z" transform="translate(-432.848 -474.479)" fill="#517fb8"/>
        <path id="Trazado_1026869" data-name="Trazado 1026869" d="M572.185,508.9c2.269-.993,4.563-1.951,6.807-3,.646,1.442,1.248,2.929,1.965,4.336l2.209-.791.606,2.279.423,1.29a5.431,5.431,0,0,1,1.862-.707c.932,1.62,1.3,3.9,1.806,5.693a120.64,120.64,0,0,0,3.642,12.034q1.658,4.934,3.418,9.833c-2.407,4.814-11.05,11.254-16.068,12.87a18.083,18.083,0,0,1-3.287.608c-3.9-3.563-7.488-5.651-13-5.353a8.169,8.169,0,0,0-4.23,1.174l-.724,1.26a17.179,17.179,0,0,0,1.657,2.424,35.054,35.054,0,0,1-6.078-.753l-.2-.322c-1.124,1.456-3.358.733-3.224,3.456a1.593,1.593,0,0,0,.035.2,4.4,4.4,0,0,0,.848,1.749,8.911,8.911,0,0,1-.252,2.356,1.247,1.247,0,0,0-.021.8,3.891,3.891,0,0,1,.106,2.009,4.4,4.4,0,0,0,.233,3c.821,1.45,2.629,1.951,4.042,2.574a3.362,3.362,0,0,0,.759,2.689c.716.738,1.839,1.131,2.19,2.146.357,1.176.733,2.35,1.06,3.534,1.663-.034,5.177.1,6.439-1.032l.095.3q1.228,3.614,2.255,7.29l2.508-1.144q14.35-6.542,28.748-12.98l3.1,8.571-45.969,16.815c-.161-.611-.4-1.522-.68-2.629-.916-3.6-1.485-6.151-1.815-7.469q-1.193-4.768-2.467-9.514l-13.991-51.259c8.242-2.98,16.167-7.143,24.493-9.844q5.282-2.412,10.7-4.5" transform="translate(-371.24 -349.749)" fill="#a3709e"/>
        <path id="Trazado_1026870" data-name="Trazado 1026870" d="M609.025,799.253a79.586,79.586,0,0,0,13.362-2.449l.487,2.494c-4.014,1.12-8.091,1.975-12.151,2.91-.437-.987-.783-2.4-1.7-2.955" transform="translate(-421.04 -550.858)" fill="#485496"/>
        <path id="Trazado_1026871" data-name="Trazado 1026871" d="M613.974,730.59l.095.3q1.228,3.614,2.255,7.29c-2.4.542-4.692-.148-7-.758-.663-1.9-1.2-3.875-1.784-5.805,1.663-.034,5.177.1,6.439-1.032" transform="translate(-420.01 -505.082)" fill="#3b5f9d"/>
        <path id="Trazado_1026872" data-name="Trazado 1026872" d="M572.777,571.881c2.468,7.563,4.491,15.27,6.737,22.9l-.724,1.26a17.173,17.173,0,0,0,1.657,2.424,35.053,35.053,0,0,1-6.078-.753l-.2-.322-4.294-15.382a74.749,74.749,0,0,1-2.25-8.651,18.734,18.734,0,0,0,5.156-1.476" transform="translate(-392.416 -395.361)" fill="#517fb8"/>
        <path id="Trazado_1026873" data-name="Trazado 1026873" d="M602.164,517.388l.606,2.279.423,1.29c-10.36,4.34-20.827,8.487-31.253,12.666l-1.341.585a18.73,18.73,0,0,1-5.156,1.476l-.188-.3c-.214-1.116-.52-2.226-.785-3.332,3.547-1.516,7.229-2.741,10.819-4.159l24.666-9.71Z" transform="translate(-390.238 -357.688)" fill="#eef3f5"/>
        <path id="Trazado_1026874" data-name="Trazado 1026874" d="M567.012,569.586a22.917,22.917,0,0,1,6.555-2.721l.13.963-1.341.585a18.731,18.731,0,0,1-5.156,1.476Z" transform="translate(-391.995 -391.893)" fill="#fff3b2"/>
        <path id="Trazado_1026875" data-name="Trazado 1026875" d="M588.247,537.764c4.713-1.8,9.308-3.962,13.987-5.856,3.74-1.514,14.24-5.053,16.974-7.137l.423,1.29c-10.36,4.34-20.827,8.487-31.253,12.666Z" transform="translate(-406.675 -362.792)" fill="#fcd486"/>
        <path id="Trazado_1026876" data-name="Trazado 1026876" d="M616.918,527.364a5.434,5.434,0,0,1,1.862-.707c.932,1.62,1.3,3.9,1.806,5.693a120.64,120.64,0,0,0,3.642,12.034q1.658,4.934,3.418,9.833c-2.407,4.814-11.05,11.254-16.068,12.87a18.081,18.081,0,0,1-3.287.608c-3.9-3.563-7.488-5.651-13-5.353a8.171,8.171,0,0,0-4.23,1.174c-2.246-7.63-4.269-15.337-6.737-22.9l1.341-.585c10.427-4.18,20.894-8.326,31.253-12.666" transform="translate(-403.963 -364.096)" fill="#64a9eb"/>
        <path id="Trazado_1026877" data-name="Trazado 1026877" d="M624.848,548.552a2.751,2.751,0,0,1,1,.714l-.223.711c-1.387,1.332-25.469,10.117-29.877,11.936h-.15a3.974,3.974,0,0,1-.648-1.984Z" transform="translate(-411.311 -379.233)" fill="#eef3f5"/>
        <path id="Trazado_1026878" data-name="Trazado 1026878" d="M640.444,580.966c.74.605,1.9,5.71,2.25,6.93q-12.329,4.515-24.548,9.32a54.761,54.761,0,0,1-2.159-6.964,256.344,256.344,0,0,1,24.457-9.286" transform="translate(-425.853 -401.642)" fill="#eef3f5"/>
        <path id="Trazado_1026879" data-name="Trazado 1026879" d="M136.629,11.321a14.281,14.281,0,0,1,5.638-8.7q.3-.208.606-.4t.625-.369q.317-.177.643-.338t.658-.306q.333-.144.673-.272t.686-.239q.346-.111.7-.2t.706-.169q.355-.075.714-.134t.719-.1q.361-.04.723-.062T150.441,0q.363,0,.726.01t.724.046q.362.032.721.082t.716.118c4.28.807,6.9,3.579,9.276,7,2.492-3.358,5.377-5.678,9.56-6.595a12.253,12.253,0,0,1,9.47,1.723c3.579,2.343,5.134,5.608,6.015,9.65a21.023,21.023,0,0,1,4.917-2.708,14.7,14.7,0,0,1,11.259.416c3.587,1.7,5.6,4.462,6.914,8.115a19.605,19.605,0,0,1,.065,6.656c3.627-.674,7.186-.669,10.353,1.485a10.968,10.968,0,0,1,4.541,7.211c.668,3.85-.71,7.258-2.692,10.481,1.084.353,2.231.66,3.278,1.107a10.825,10.825,0,0,1,5.525,6.554,12.231,12.231,0,0,1-1.194,9.31,10.905,10.905,0,0,1-5.746,4.686c1.261,1.777,2.182,3.713,1.81,5.957a6.354,6.354,0,0,1-2.743,4.075,13.846,13.846,0,0,1-3.726,1.643c-.246,2.077,0,4.086-.317,6.192l-.025.158c-2.911.2-5.313.948-7.3,3.2a31.436,31.436,0,0,0-2.815,4.387l.06,4.469a28.426,28.426,0,0,1-3.47,12.161c-6.139,10.605-15.765,17.272-27.526,20.422a60.908,60.908,0,0,1-6.32,1.315l-.333,1.06c.111,1.285.126,2.567.143,3.856l1.049.293c5.661-.979,13.128-2.037,18.034,1.447a24.661,24.661,0,0,1,4.085,4.047c3.147,5.79,4.394,12.686,5.469,19.123q-5.42,2.083-10.7,4.5c-8.326,2.7-16.251,6.864-24.493,9.844l13.991,51.259q2.272,8.459,4.283,16.984a63.862,63.862,0,0,1,1.62,7.072q-6.871.793-13.777,1.18t-13.822.366l-1.459-.061q-9.967-.287-19.867-1.482l-1.344-.191a115.386,115.386,0,0,1-15.382-2.536,2.959,2.959,0,0,1-1.564-.655c-.051-2.861.788-5.813.9-8.7-3.546.019-7.1.084-10.642-.114a76.316,76.316,0,0,1-7.9-1.12,33.515,33.515,0,0,1-5.818-1.7,38.036,38.036,0,0,1-3.877-2.255c-4.188.281-13.5.69-17.4.155-2.517-.171-5.1-.066-7.621-.067l-12.548.034a82.221,82.221,0,0,1-9.633-.132c-3.283-2.566-6.672-4.859-9.812-7.63q-.742-.646-1.47-1.307t-1.444-1.336q-.715-.675-1.417-1.365t-1.39-1.393q-.688-.7-1.362-1.42t-1.333-1.447q-.659-.73-1.3-1.473t-1.274-1.5q-.63-.756-1.244-1.524t-1.214-1.549q-.6-.78-1.182-1.572t-1.151-1.6q-.568-.8-1.119-1.618t-1.087-1.64q-.535-.826-1.054-1.662t-1.02-1.682q-.5-.846-.986-1.7t-.953-1.721q-.468-.865-.918-1.74t-.883-1.758q-.433-.883-.848-1.775t-.812-1.792q-.4-.9-.777-1.808T7.1,185.7q-.361-.915-.7-1.837T5.73,182.01q-.325-.929-.63-1.864t-.593-1.876q-.288-.941-.556-1.887t-.518-1.9q-.25-.952-.48-1.908t-.442-1.917c-6.788-29.758.174-61.432,21.053-84.112a68.919,68.919,0,0,1,8.714-8.056c2.212-1.691,5.051-3.224,6.888-5.3,1.75-1.978,3.017-4.741,4.432-6.98,15.864-25.093,41.114-39.655,69.541-46.1a17.336,17.336,0,0,1,1.789-5.066,12.5,12.5,0,0,1,7.83-6.093c4.962-1.361,9.509-.067,13.872,2.372" transform="translate(0 0)" fill="#afdbe8"/>
        <path id="Trazado_1026880" data-name="Trazado 1026880" d="M421.158,433.794c3.658-.064,8.946-.259,12.456.6q-4.374,1.65-8.7,3.43l-2.428.93c-1.837-1.654-2.4-3.251-4.709-4.808Z" transform="translate(-288.825 -299.852)" fill="#3f3c7b"/>
        <path id="Trazado_1026881" data-name="Trazado 1026881" d="M312.712,270.785c3.075-.027,5.526.334,7.838,2.557a21.954,21.954,0,0,1,2.333,2.776l.135-3.669.2-.106a5.377,5.377,0,0,1,.619-1.972,91.936,91.936,0,0,0-.666,10.55,30.65,30.65,0,0,0,3.189,13.222l.318.576a17.217,17.217,0,0,1-3.815,1.581,15.779,15.779,0,0,1-18.8-10.984,12.826,12.826,0,0,1,1.277-9.495,11.042,11.042,0,0,1,7.37-5.037" transform="translate(-209.943 -186.918)" fill="#b95c4c"/>
        <path id="Trazado_1026882" data-name="Trazado 1026882" d="M317.3,299.561a10.9,10.9,0,0,1,2.513-5,6.951,6.951,0,0,1,5.165-2.075,11.056,11.056,0,0,1,7.613,3.724,30.649,30.649,0,0,0,3.189,13.222,19.431,19.431,0,0,1-6.452-1.957c-2.229-1.271-4.632-3.739-4.608-6.491a9.618,9.618,0,0,0,0-2.819.742.742,0,0,0-.6-.529c-1.839-.572-5.254,1.066-6.816,1.929" transform="translate(-219.362 -202.202)" fill="#9c2d2e"/>
        <path id="Trazado_1026883" data-name="Trazado 1026883" d="M281.128,481.457c-.034-7.37-1.008-22.754,2.5-28.95,3.594-6.352,18.225-13.641,25.2-15.572a31.086,31.086,0,0,0,2.349,2.051c1.217,1.262,4.5,4.889,4.624,6.548a.946.946,0,0,1-.011.138c-9.047,4.527-18.707,15.136-25.791,22.476-1.23,1.416-2.51,2.813-3.685,4.274l1.479,2c-1.434,1.648-2.984,3.185-4.519,4.739-.711.767-1.411,1.55-2.141,2.3" transform="translate(-194.25 -302.068)" fill="#3f3c7b"/>
        <path id="Trazado_1026884" data-name="Trazado 1026884" d="M330.881,443.581c1.217,1.262,4.5,4.889,4.624,6.548a.951.951,0,0,1-.01.138c-9.047,4.527-18.707,15.136-25.791,22.476-.029-.06-.06-.119-.086-.181-.771-1.811,2.105-9.416,2.972-11.417a31.415,31.415,0,0,1,18.292-17.564" transform="translate(-213.959 -306.663)" fill="#2c2441"/>
        <path id="Trazado_1026885" data-name="Trazado 1026885" d="M313.952,434.742a105.023,105.023,0,0,1,17.76-.924l-3.379.15c2.306,1.558,2.872,3.155,4.709,4.808a65.211,65.211,0,0,1,3.015,8.941c3,13.113,2.544,32.212-2.14,44.872a25.18,25.18,0,0,1-3.633,7.174,30.7,30.7,0,0,0-4.716,2.881c-5.206-2.854-10.77-4.972-15.962-7.873-2.055-1.069-4.041-2.324-6.041-3.5a11.485,11.485,0,0,1-2.375-1.464c-5.214-3.456-9.107-7.849-12.793-12.848,1.535-1.553,3.084-3.091,4.519-4.739l-1.478-2c1.175-1.461,2.455-2.858,3.685-4.274,7.084-7.339,16.744-17.949,25.791-22.476a.946.946,0,0,0,.01-.138c-.123-1.659-3.407-5.286-4.624-6.548a31.079,31.079,0,0,1-2.349-2.051" transform="translate(-199.379 -299.875)" fill="#fcd486"/>
        <path id="Trazado_1026886" data-name="Trazado 1026886" d="M292.917,558.373q3.413,4.05,7.122,7.83t7.692,7.27c-1.481,1.223-2.759,2.648-4.165,3.95a11.485,11.485,0,0,1-2.375-1.464c-5.214-3.456-9.107-7.849-12.793-12.848,1.535-1.553,3.084-3.091,4.519-4.739" transform="translate(-199.379 -386.022)" fill="#9c2d2e"/>
        <path id="Trazado_1026887" data-name="Trazado 1026887" d="M354.176,573.252a15.228,15.228,0,0,0,2.836-3.482c.1,3.349-.152,7.159.6,10.426a77.866,77.866,0,0,1-2.119,9.27,23.178,23.178,0,0,0,9.14-1.553,19.616,19.616,0,0,1,3.258-1.3,25.18,25.18,0,0,1-3.633,7.174,30.7,30.7,0,0,0-4.716,2.881c-5.206-2.854-10.77-4.972-15.962-7.873-2.055-1.069-4.041-2.324-6.041-3.5,1.407-1.3,2.684-2.727,4.165-3.95.719.62,1.593,1.586,2.563,1.672A2.972,2.972,0,0,0,345.848,582c2.389-2.956,5.684-5.921,8.328-8.743" transform="translate(-233.35 -393.902)" fill="#2c2441"/>
        <path id="Trazado_1026888" data-name="Trazado 1026888" d="M341.7,607.293c.719.619,1.593,1.586,2.563,1.672a2.972,2.972,0,0,0,1.584-1.029,14.2,14.2,0,0,1-2.271,6.8c-2.055-1.069-4.041-2.324-6.041-3.5,1.407-1.3,2.684-2.727,4.165-3.95" transform="translate(-233.35 -419.843)" fill="#3f3c7b"/>
        <path id="Trazado_1026889" data-name="Trazado 1026889" d="M391.446,573.252a15.228,15.228,0,0,0,2.836-3.482c.1,3.349-.152,7.159.6,10.426a77.86,77.86,0,0,1-2.119,9.27l-.4.608c-.3-.786-.554-14.256-.91-16.822" transform="translate(-270.62 -393.902)" fill="#f4af49"/>
        <path id="Trazado_1026890" data-name="Trazado 1026890" d="M371.186,434.742a105.024,105.024,0,0,1,17.76-.924l-3.379.15c2.306,1.558,2.872,3.155,4.709,4.808a65.2,65.2,0,0,1,3.015,8.941c3,13.113,2.544,32.212-2.14,44.872a19.616,19.616,0,0,0-3.258,1.3,23.179,23.179,0,0,1-9.14,1.553,77.867,77.867,0,0,0,2.119-9.27c2.425-11.114,2.931-32.484-2.724-42.69a.951.951,0,0,0,.01-.138c-.123-1.659-3.407-5.286-4.624-6.548a31.091,31.091,0,0,1-2.349-2.051" transform="translate(-256.614 -299.875)" fill="#485496"/>
        <path id="Trazado_1026891" data-name="Trazado 1026891" d="M263.143,573.725c3.685,5,7.578,9.391,12.793,12.848a11.48,11.48,0,0,0,2.375,1.464c2,1.172,3.985,2.427,6.041,3.5,5.192,2.9,10.757,5.019,15.962,7.873a30.691,30.691,0,0,1,4.716-2.881c.05-.005.1-.01.151-.017,2.718-.388,8.479-5.4,10.258-4.039a1.433,1.433,0,0,1,.609,1.142c.055,1.207-1.053,2.509-1.869,3.311a22.459,22.459,0,0,1-2.121,1.763,22.743,22.743,0,0,0,3.45.973c2.561.441,9.409.52,10.592,3.348a1.481,1.481,0,0,1-.006,1.256l-.385.146-.585.51.138.226a4.841,4.841,0,0,1,.847,3.251,2.074,2.074,0,0,1-1.222,1.291,2.693,2.693,0,0,1-1.01.249l-.85.039-.143.339.207.173a3.458,3.458,0,0,1,1.5,2.159,1.812,1.812,0,0,1-.447,1.272,2.954,2.954,0,0,1-2.367.917c-.8.014-2.3-.385-2.949.014a4.878,4.878,0,0,1,.681,2.395,2.354,2.354,0,0,1-1.661,1.325c-4.232,1.3-12.16-.768-15.85-2.786a12.913,12.913,0,0,1-3.422-2.652c-1.169-.314-2.336-.646-3.515-.918a25.381,25.381,0,0,1-.235,2.7c-.265,6.1-.573,12.4-1.366,18.449-3.546.019-7.1.084-10.642-.114a76.328,76.328,0,0,1-7.9-1.12,33.514,33.514,0,0,1-5.818-1.7,38.032,38.032,0,0,1-3.877-2.254c-3.67-3.012-5.494-6.58-6.972-10.995-1.043-5.765.119-11.7.8-17.467a22.679,22.679,0,0,1-4.295-2.837,7.831,7.831,0,0,1-2.885-5.562c-.227-5.254,5.833-11.62,9.129-15.291.729-.75,1.429-1.533,2.141-2.3" transform="translate(-174.124 -396.636)" fill="#b95c4c"/>
        <path id="Trazado_1026892" data-name="Trazado 1026892" d="M443.18,687.139c1.783.023,12.145.542,12.957,1.2l-.85.039c-4.015.311-8.311.306-12.107-1.241" transform="translate(-306.386 -475.043)" fill="#9c2d2e"/>
        <path id="Trazado_1026893" data-name="Trazado 1026893" d="M444.354,670.523a3.15,3.15,0,0,1,.531-.313c.44-.153,12.572.6,13.561.781a1.356,1.356,0,0,1,.336.107c-3.121,1-11.315.921-14.27-.488-.054-.026-.105-.057-.158-.086" transform="translate(-307.197 -463.325)" fill="#9c2d2e"/>
        <path id="Trazado_1026894" data-name="Trazado 1026894" d="M272.421,657.924a118.727,118.727,0,0,0,27.91,10.431c2.452.712,5.324,1.01,7.616,2.058a7.47,7.47,0,0,1,.244,2.709c-.265,6.1-.573,12.4-1.366,18.449-3.546.019-7.1.084-10.642-.114a76.329,76.329,0,0,1-7.9-1.12,33.518,33.518,0,0,1-5.818-1.7,38.047,38.047,0,0,1-3.877-2.254c-3.67-3.012-5.494-6.58-6.972-10.995-1.043-5.765.119-11.7.8-17.467" transform="translate(-187.492 -454.846)" fill="#2c2441"/>
        <path id="Trazado_1026895" data-name="Trazado 1026895" d="M272.421,657.924a118.727,118.727,0,0,0,27.91,10.431c-6.114,4.841-13.138,6.8-20.874,7.036-2.612.078-5.233-.081-7.838,0-1.043-5.765.119-11.7.8-17.467" transform="translate(-187.492 -454.846)" fill="#3f3c7b"/>
        <path id="Trazado_1026896" data-name="Trazado 1026896" d="M412.936,418.012c8.46,1.389,16.33,1.82,24.811.3l-.333,1.06c.111,1.285.126,2.567.143,3.856l1.049.293c5.661-.979,13.128-2.037,18.034,1.447a24.663,24.663,0,0,1,4.085,4.047c3.147,5.79,4.394,12.686,5.469,19.123q-5.42,2.083-10.7,4.5c-8.326,2.7-16.251,6.864-24.493,9.844l13.991,51.259q1.248,4.7,2.467,9.514,1.234,4.868,2.389,9.657l15.724-5.27q.513,3.647,1.026,7.293l-15.7,2.861c-2.606.3-5,.532-7.135.713q-3.317.28-6.642.467-6.906.387-13.822.366l-1.459-.061q-9.967-.288-19.867-1.482l-1.344-.191a115.4,115.4,0,0,1-15.382-2.536,2.959,2.959,0,0,1-1.564-.655c-.051-2.861.788-5.813.9-8.7.793-6.05,1.1-12.348,1.366-18.449a25.376,25.376,0,0,0,.235-2.7c1.179.272,2.346.6,3.515.918a12.914,12.914,0,0,0,3.422,2.652c3.69,2.018,11.618,4.088,15.85,2.786a2.354,2.354,0,0,0,1.661-1.325,4.879,4.879,0,0,0-.681-2.395c.651-.4,2.153,0,2.949-.014a2.955,2.955,0,0,0,2.367-.917,1.811,1.811,0,0,0,.447-1.272,3.458,3.458,0,0,0-1.5-2.159l-.207-.173.143-.339.85-.039a2.69,2.69,0,0,0,1.01-.249,2.074,2.074,0,0,0,1.222-1.291,4.841,4.841,0,0,0-.847-3.251l-.138-.226.585-.51.385-.146a1.481,1.481,0,0,0,.006-1.256c-1.184-2.828-8.031-2.906-10.592-3.348a22.743,22.743,0,0,1-3.45-.973,22.472,22.472,0,0,0,2.121-1.763c.816-.8,1.924-2.1,1.869-3.311a1.433,1.433,0,0,0-.609-1.142c-1.779-1.357-7.54,3.651-10.259,4.039-.05.007-.1.011-.151.017a25.181,25.181,0,0,0,3.633-7.174c4.684-12.66,5.142-31.759,2.14-44.872a65.209,65.209,0,0,0-3.015-8.941l2.428-.93q4.323-1.78,8.7-3.43a24.921,24.921,0,0,0,2.973-.843Z" transform="translate(-265.25 -288.986)" fill="#fcd486"/>
        <path id="Trazado_1026897" data-name="Trazado 1026897" d="M459.971,481.431q-3.133-3.735-6.018-7.665c-1.449-2-6.922-9.5-6.585-11.591,4.045,5.861,7.97,11.941,12.78,17.209a125.717,125.717,0,0,1,10.684-8.051c3.6,2.377,6.907,5.2,10.512,7.55l2.174-2.68c.045,1.364-2,3.418-2.844,4.472-3.154-2.575-6.636-4.725-9.759-7.364-3.513,2.886-7.238,5.49-10.943,8.12" transform="translate(-309.27 -319.517)" fill="#f4af49"/>
        <path id="Trazado_1026898" data-name="Trazado 1026898" d="M561.633,433.727c5.661-.979,13.128-2.037,18.034,1.447a24.661,24.661,0,0,1,4.085,4.047c3.147,5.79,4.394,12.686,5.469,19.123q-5.42,2.083-10.7,4.5c-.979-3.521-1.673-7.11-2.707-10.628-1.33-4.526-3.077-8.91-4.8-13.3l-.654-1.872a66.672,66.672,0,0,0-8.724-3.317" transform="translate(-388.276 -299.191)" fill="#485496"/>
        <path id="Trazado_1026899" data-name="Trazado 1026899" d="M452.5,418.012c8.46,1.389,16.33,1.82,24.811.3l-.333,1.06c.111,1.285.126,2.567.143,3.856l1.049.293a66.67,66.67,0,0,1,8.723,3.317l.654,1.872c-1.289,6.472-4.583,11.734-8.487,16.961l-2.174,2.68c-3.605-2.35-6.911-5.173-10.512-7.55a125.722,125.722,0,0,0-10.684,8.051c-4.81-5.268-8.735-11.348-12.78-17.209-.728-1.56-1.4-3.071-2.006-4.686q4.323-1.78,8.7-3.43a24.925,24.925,0,0,0,2.973-.843Z" transform="translate(-304.81 -288.986)" fill="#eef3f5"/>
        <path id="Trazado_1026900" data-name="Trazado 1026900" d="M478.467,418.012c8.46,1.389,16.33,1.82,24.811.3l-.333,1.06c.111,1.285.126,2.567.143,3.856.234,4.381-2.522,8.6-5.35,11.748a25.678,25.678,0,0,1-5.566,4.781c-4.979-3.37-10.242-8.19-13.191-13.49a8.967,8.967,0,0,1-.438-3.584Z" transform="translate(-330.781 -288.986)" fill="#b95c4c"/>
        <path id="Trazado_1026901" data-name="Trazado 1026901" d="M478.467,418.012c8.46,1.389,16.33,1.82,24.811.3l-.333,1.06a10.13,10.13,0,0,0-.156,2.8c-6.92,3-16.219,5.659-23.809,4.1a8.967,8.967,0,0,1-.438-3.584Z" transform="translate(-330.781 -288.986)" fill="#9c2d2e"/>
        <path id="Trazado_1026902" data-name="Trazado 1026902" d="M338.626,11.321a14.281,14.281,0,0,1,5.638-8.7q.3-.208.606-.4t.625-.369q.317-.177.643-.338t.658-.306q.333-.144.673-.272t.686-.239q.346-.111.7-.2t.706-.169q.355-.075.714-.134t.719-.1q.361-.04.723-.062T352.437,0q.363,0,.726.01t.724.046q.362.032.721.082t.716.118c4.28.807,6.9,3.579,9.276,7,2.492-3.358,5.377-5.678,9.56-6.595a12.253,12.253,0,0,1,9.47,1.723c3.579,2.343,5.134,5.608,6.015,9.65a21.024,21.024,0,0,1,4.917-2.708,14.7,14.7,0,0,1,11.259.416c3.587,1.7,5.6,4.462,6.914,8.115a19.606,19.606,0,0,1,.065,6.656c3.627-.674,7.186-.669,10.353,1.485a10.968,10.968,0,0,1,4.541,7.211c.668,3.85-.71,7.258-2.692,10.481,1.084.353,2.231.66,3.278,1.107a10.825,10.825,0,0,1,5.525,6.554,12.231,12.231,0,0,1-1.194,9.31,10.905,10.905,0,0,1-5.746,4.686c1.261,1.777,2.182,3.713,1.81,5.957a6.354,6.354,0,0,1-2.743,4.075,13.846,13.846,0,0,1-3.726,1.643c-.246,2.077,0,4.086-.317,6.192l-.025.158c-2.911.2-5.313.948-7.3,3.2a31.437,31.437,0,0,0-2.815,4.387l.06,4.469a28.425,28.425,0,0,1-3.47,12.161c-6.139,10.605-15.765,17.272-27.526,20.422a60.908,60.908,0,0,1-6.32,1.315c-8.482,1.519-16.352,1.088-24.811-.3a88.486,88.486,0,0,1-12.345-3.943c-7.506-3.312-15.537-9.4-18.6-17.281l-.318-.576A30.649,30.649,0,0,1,315.228,94a91.93,91.93,0,0,1,.666-10.55,5.377,5.377,0,0,0-.619,1.972l-.2.106-.135,3.669a21.959,21.959,0,0,0-2.333-2.776c-2.312-2.223-4.763-2.584-7.838-2.557a20.835,20.835,0,0,1-1.351-8.627,7.928,7.928,0,0,1-4.969-1.262,6.525,6.525,0,0,1-2.652-4.278c-.517-2.933.682-5.339,2.309-7.682a11.7,11.7,0,0,1-4.577-4.313c-1.7-2.98-1.609-6.133-.7-9.342a11.126,11.126,0,0,1,1.4-2.865,12.347,12.347,0,0,1,8.159-5.05,11.918,11.918,0,0,1-1.55-8.577,9.929,9.929,0,0,1,4.414-6.393c3.124-1.935,6.4-1.749,9.832-.953a40.4,40.4,0,0,1,.053-4.417,17.337,17.337,0,0,1,1.789-5.066,12.5,12.5,0,0,1,7.83-6.093c4.962-1.361,9.509-.067,13.872,2.372" transform="translate(-201.997 0)" fill="#2c2441"/>
        <path id="Trazado_1026903" data-name="Trazado 1026903" d="M375.3,108.112q.261.433.552.846t.61.805q.319.392.665.76t.717.711q.371.343.766.659t.811.6q.416.287.851.544t.888.482a14.511,14.511,0,0,0,11.464.554,16.237,16.237,0,0,0,4.454,5.3,11.793,11.793,0,0,0,9.3,2.177q.2.6.432,1.182a9.117,9.117,0,0,0,4.884,5.033,12.341,12.341,0,0,0,9.319-.442,13.383,13.383,0,0,0,7.268-7.787,10.825,10.825,0,0,1,5.525,6.554,12.231,12.231,0,0,1-1.194,9.31,10.905,10.905,0,0,1-5.746,4.686c1.261,1.777,2.182,3.713,1.81,5.957a6.354,6.354,0,0,1-2.743,4.075,13.846,13.846,0,0,1-3.726,1.643c-.246,2.077,0,4.086-.317,6.192l-.025.158c-2.911.2-5.313.948-7.3,3.2a31.436,31.436,0,0,0-2.815,4.387,54.029,54.029,0,0,1-.478-7.818q-.363-8.354-.884-16.7c-8.035-1.96-6.754-6.159-10.553-7.722a14.138,14.138,0,0,1-7.762-4.35,10.069,10.069,0,0,1-7.387,3.679,11.827,11.827,0,0,1-8.431-3.1,18.223,18.223,0,0,1-1.863-2.02,13.349,13.349,0,0,1-8.824,5.35,12.115,12.115,0,0,1-8.986-2.623,14.055,14.055,0,0,1-2.767-3.032c-3.014,3.174-6.321,5.687-10.89,5.845a11.038,11.038,0,0,1-8.294-3.286c-.056-.055-.111-.111-.166-.166-3.046,2.887-6.386,5.45-9.67,8.057-2.441,1.937-4.852,4-7.471,5.69-.319,4.845-1.382,9.859-1.431,14.687a5.377,5.377,0,0,0-.619,1.972l-.2.106-.135,3.669a21.96,21.96,0,0,0-2.333-2.776c-2.312-2.223-4.763-2.584-7.838-2.557a20.835,20.835,0,0,1-1.351-8.627,7.928,7.928,0,0,1-4.969-1.262,6.525,6.525,0,0,1-2.652-4.278c-.517-2.933.682-5.339,2.309-7.682a11.7,11.7,0,0,1-4.577-4.313c-1.7-2.98-1.609-6.133-.7-9.342,1.247,1.179,1.877,3.233,3.612,4.636a12.639,12.639,0,0,0,9.359,2.473c5.2-.544,9.218-3.241,12.413-7.217a16.025,16.025,0,0,0,7.329-1.617,12.7,12.7,0,0,0,6.759-7.988,13.715,13.715,0,0,0,9.568,1.326q.335-.078.665-.172t.655-.2q.325-.11.645-.236t.632-.268q.313-.142.618-.3t.6-.329q.3-.172.586-.358t.567-.387q.279-.2.548-.414t.527-.44q.258-.226.5-.466t.481-.49q.235-.251.456-.513t.431-.535q.209-.273.4-.556t.376-.575a18.987,18.987,0,0,0,9.335,4.219c5.805.8,10.827-1.162,15.4-4.581" transform="translate(-201.997 -74.742)" fill="#1e152a"/>
        <path id="Trazado_1026904" data-name="Trazado 1026904" d="M404.384,147.278a17.506,17.506,0,0,0,3.669,4.057,12.8,12.8,0,0,0,9.632,2.367c4.167-.564,6.9-2.821,9.385-6.039,1.733,2.677,3.571,4.8,6.716,5.784,3.272,1.028,6.193.342,9.148-1.208q.127.245.257.488a11.635,11.635,0,0,0,7.649,6.184c.958.156,1.187.156,1.775.969,1.683,2.33,3.35,4.435,6.372,4.913a18.546,18.546,0,0,0,2.347.147c.063,1.1.167,2.217.185,3.319-8.035-1.96-6.754-6.159-10.553-7.722a14.138,14.138,0,0,1-7.762-4.35,10.069,10.069,0,0,1-7.387,3.679,11.827,11.827,0,0,1-8.431-3.1,18.223,18.223,0,0,1-1.863-2.02,13.349,13.349,0,0,1-8.824,5.35,12.115,12.115,0,0,1-8.986-2.623,14.054,14.054,0,0,1-2.767-3.032c-3.014,3.174-6.321,5.687-10.89,5.845A11.038,11.038,0,0,1,385.761,157c-.056-.055-.111-.111-.166-.166-3.046,2.887-6.386,5.45-9.67,8.057-2.441,1.937-4.852,4-7.471,5.69-.319,4.845-1.382,9.859-1.431,14.687a5.377,5.377,0,0,0-.619,1.972l-.2.106c-.257-6.967.375-15.5.649-22.542,2.855.415,5.8.435,8.211-1.4,1.96-1.5,2.608-3.447,2.927-5.8a10.493,10.493,0,0,0,1.455-.345c2.906-.958,4.26-3.059,5.556-5.671a23.618,23.618,0,0,0,2.093,1.594,10.9,10.9,0,0,0,8.47,1.351c4.062-.964,6.735-3.8,8.822-7.255" transform="translate(-253.126 -101.818)" fill="#b95c4c"/>
        <path id="Trazado_1026905" data-name="Trazado 1026905" d="M405.4,170.5a14.055,14.055,0,0,0,2.767,3.032,12.114,12.114,0,0,0,8.986,2.623,13.349,13.349,0,0,0,8.824-5.35,18.227,18.227,0,0,0,1.863,2.02,11.827,11.827,0,0,0,8.431,3.1,10.069,10.069,0,0,0,7.387-3.679,14.138,14.138,0,0,0,7.762,4.35c3.8,1.563,2.518,5.762,10.553,7.722q.522,8.346.884,16.7a54.038,54.038,0,0,0,.478,7.818l.06,4.469a28.425,28.425,0,0,1-3.47,12.161c-6.139,10.605-15.765,17.272-27.526,20.422a60.91,60.91,0,0,1-6.32,1.315c-8.482,1.519-16.352,1.088-24.811-.3a88.481,88.481,0,0,1-12.345-3.943c-7.506-3.312-15.537-9.4-18.6-17.281L370,225.1a30.65,30.65,0,0,1-3.189-13.222,91.93,91.93,0,0,1,.666-10.55c.048-4.828,1.112-9.842,1.431-14.687,2.619-1.692,5.03-3.752,7.471-5.69,3.284-2.607,6.624-5.17,9.67-8.057.056.055.11.111.166.166a11.038,11.038,0,0,0,8.294,3.286c4.57-.158,7.876-2.672,10.89-5.845" transform="translate(-253.579 -117.873)" fill="#cc7052"/>
        <path id="Trazado_1026906" data-name="Trazado 1026906" d="M586.022,244.728a13.9,13.9,0,0,1,2.835.023c3.258.42,5.377,2.293,7.29,4.819-.885-.739-1.815-1.424-2.734-2.119q-.414-.253-.837-.492c-3.721-2.092-6.937-1.191-10.789-.1a14.049,14.049,0,0,1,4.235-2.133" transform="translate(-402.209 -169.147)" fill="#361d33"/>
        <path id="Trazado_1026907" data-name="Trazado 1026907" d="M423.27,244.023a13.012,13.012,0,0,1,2.649.007,5.438,5.438,0,0,1,3.776,1.925c-.621.184-2.742-.755-3.627-.836a12.683,12.683,0,0,0-4.728.522,19.856,19.856,0,0,0-5.364,3.646,11.571,11.571,0,0,1,7.293-5.264" transform="translate(-287.579 -168.656)" fill="#361d33"/>
        <path id="Trazado_1026908" data-name="Trazado 1026908" d="M504.259,291.553a13.8,13.8,0,0,1,2.674.3,6.724,6.724,0,0,1,4.33,3,2.828,2.828,0,0,1,.231,2.312,1.806,1.806,0,0,1-.743,1.129q0-.223-.01-.445c-.041-1.25.041-2.6-1-3.491-1.92-1.646-4.3-1.806-6.705-1.672a9.073,9.073,0,0,0-3.326,1.255,2.846,2.846,0,0,0-1.518,1.933c-.141,1.2.769,2.277,1.417,3.195l-.229.07.194-.143a2.109,2.109,0,0,1-1.486-.568,2.509,2.509,0,0,1-.865-1.656,3.919,3.919,0,0,1,.917-2.837c1.435-1.759,4.014-2.179,6.121-2.383" transform="translate(-343.731 -201.561)" fill="#6b1624"/>
        <path id="Trazado_1026909" data-name="Trazado 1026909" d="M471.526,339.73c1.5.337,3.728,3.169,5.167,4.126a15.038,15.038,0,0,0,4.3,1.812c5.716,1.546,13.112,1.1,18.216-2,1.348-.818,2.2-2.244,3.55-3.018.457.212.431.244.644.709a16.132,16.132,0,0,1-1.544,1.629c-4.1,3.757-9.937,4.811-15.338,4.587-4.958-.206-10.47-1.7-13.9-5.5a2.952,2.952,0,0,1-1.1-2.345" transform="translate(-325.98 -234.867)" fill="#6b1624"/>
        <path id="Trazado_1026910" data-name="Trazado 1026910" d="M580.729,207.9a19.222,19.222,0,0,1,11.525,2.536c2.746,1.813,3.716,4.207,4.322,7.3l-2.324-.464a63.968,63.968,0,0,0-8.622-1.96c-2.232-.326-4.525-.46-6.742-.855-.683-.122-.758-.26-1.127-.8a3.5,3.5,0,0,1,.02-1.43,6.675,6.675,0,0,1,2.948-4.331" transform="translate(-399.381 -143.665)" fill="#361d33"/>
        <path id="Trazado_1026911" data-name="Trazado 1026911" d="M419.449,207.919a6.419,6.419,0,0,1,4.2.394,5.232,5.232,0,0,1,2.435,3.241,2.7,2.7,0,0,1-.269,2.133,2.2,2.2,0,0,1-1.2.829,22.3,22.3,0,0,1-4.031.361,60.88,60.88,0,0,0-7.124,1.025c-1.877.45-3.706,1.064-5.6,1.449-.453-.2-.439-.226-.669-.671a7.965,7.965,0,0,1,1.943-4.464c2.531-3.273,6.444-3.807,10.317-4.3" transform="translate(-281.504 -143.628)" fill="#361d33"/>
        <path id="Trazado_1026912" data-name="Trazado 1026912" d="M396.168,304.618a13.463,13.463,0,0,1,7.843,1.116,6.2,6.2,0,0,1,3.291,3.606,3.953,3.953,0,0,1-.377,3.067c-1.092,1.935-3.462,2.9-5.49,3.452a11.867,11.867,0,0,1-8.017-.978,6.769,6.769,0,0,1-3.5-3.987,3.876,3.876,0,0,1,.482-3.039c1.178-1.893,3.711-2.782,5.768-3.237" transform="translate(-269.48 -210.499)" fill="#b95c4c"/>
        <path id="Trazado_1026913" data-name="Trazado 1026913" d="M421.62,267.743a5.937,5.937,0,0,1-3.325-2.464,5.049,5.049,0,0,1-.583-3.983,7.563,7.563,0,0,1,3.753-4.291q.183-.1.37-.194t.38-.175q.192-.083.388-.156t.395-.137q.2-.063.4-.117t.407-.1q.2-.043.411-.077t.414-.056q.208-.023.416-.036t.418-.015q.209,0,.418.006t.417.027q.208.019.415.048t.412.068q.206.039.409.089t.4.108a8.588,8.588,0,0,1,6,9.651,3.06,3.06,0,0,1-1.561,1.913,8.628,8.628,0,0,1-4.57.551,10.976,10.976,0,0,1-3.062.354,4.264,4.264,0,0,1-2.588-.838Z" transform="translate(-288.654 -176.943)" fill="#eef3f5"/>
        <path id="Trazado_1026914" data-name="Trazado 1026914" d="M423.137,279.337a6.331,6.331,0,0,0,3.3,1.4l.4.359a14.446,14.446,0,0,0-.8,3l-.54-.178a14,14,0,0,1-2.358-4.578" transform="translate(-292.529 -193.115)" fill="#361d33"/>
        <path id="Trazado_1026915" data-name="Trazado 1026915" d="M432.928,266.879l.262-.126a3.945,3.945,0,0,0,2.374-2.22,2.277,2.277,0,0,0-.387-1.82c-.533-.872-1.779-1.76-1.894-2.758.987-.773,3.029-.726,4.245-.562q.241.034.478.092a4.84,4.84,0,0,1,1.345.556,4.859,4.859,0,0,1,.778.583,4.843,4.843,0,0,1,.646.727,6.278,6.278,0,0,1,.975,4.717,6.108,6.108,0,0,1-2.563,4.07,8.365,8.365,0,0,1-1.01.582,10.976,10.976,0,0,1-3.062.354,4.265,4.265,0,0,1-2.588-.838,14.445,14.445,0,0,1,.8-3Z" transform="translate(-299.019 -179.259)" fill="#361d33"/>
        <path id="Trazado_1026916" data-name="Trazado 1026916" d="M433.328,283.089c1.053-.53,4.229-1.132,5.38-.741a1.415,1.415,0,0,1,.571,2.567c-1.03,1.191-2.72,1.557-4.165,2.011a4.265,4.265,0,0,1-2.588-.838,14.446,14.446,0,0,1,.8-3" transform="translate(-299.019 -195.11)" fill="#6e3767"/>
        <path id="Trazado_1026917" data-name="Trazado 1026917" d="M579.538,268.149c-.153.03-.246.052-.394.068a6.343,6.343,0,0,1-4.738-1.157,4.646,4.646,0,0,1-1.468-3.3,8.821,8.821,0,0,1,2.484-6.249,8.09,8.09,0,0,1,5.914-2.585q.224,0,.448,0t.448.024q.224.018.446.046t.443.068q.221.039.439.09t.434.111q.216.061.428.132t.421.153q.209.082.413.173t.4.194q.2.1.394.213t.383.232q.189.121.371.251t.359.269q.177.139.345.286t.331.3a7.382,7.382,0,0,1,2.381,5.115,4.893,4.893,0,0,1-1.446,3.6,6.879,6.879,0,0,1-4.3,1.556c-.058,0-.115,0-.172-.007a11.271,11.271,0,0,1-4.769.418" transform="translate(-396.086 -176.235)" fill="#eef3f5"/>
        <path id="Trazado_1026918" data-name="Trazado 1026918" d="M583.175,269.683a9.042,9.042,0,0,1-2.787-3.5l.441-.262.107-.478c1.075.157,2.448.9,3.5.42a3.28,3.28,0,0,0,1.5-1.828,4.175,4.175,0,0,0-.347-2.943,3.268,3.268,0,0,0-2.336-1.536l-.242-.059.006-.208a8.556,8.556,0,0,1,4.055-.867,6.509,6.509,0,0,1,4.053,1.916c1.474,1.643,1.488,3.693,1.4,5.779a6.36,6.36,0,0,1-3.053,4.033,11.271,11.271,0,0,1-4.769.418,5.194,5.194,0,0,1-1.52-.88" transform="translate(-401.242 -178.65)" fill="#361d33"/>
        <path id="Trazado_1026919" data-name="Trazado 1026919" d="M588.167,285.588c.035-.537-.452-1.2-.558-1.794,1.059-1.109,4.931-1.763,6.447-2.141a3.894,3.894,0,0,1,3.453.365,6.36,6.36,0,0,1-3.053,4.033,11.271,11.271,0,0,1-4.769.418,5.193,5.193,0,0,1-1.52-.88" transform="translate(-406.234 -194.555)" fill="#98415c"/>
        <path id="Trazado_1026920" data-name="Trazado 1026920" d="M603.676,304.052a12.371,12.371,0,0,1,8.215,1.576,6.072,6.072,0,0,1,2.776,3.827,4.851,4.851,0,0,1,.065.486q.02.244.016.49a4.812,4.812,0,0,1-.033.489,4.883,4.883,0,0,1-.082.483,4.882,4.882,0,0,1-.53,1.366q-.122.212-.265.412c-1.649,2.335-4.641,2.981-7.286,3.4a12.429,12.429,0,0,1-8.224-1.93,6.061,6.061,0,0,1-2.692-3.924,4.572,4.572,0,0,1,.937-3.337c1.663-2.227,4.5-2.949,7.1-3.339" transform="translate(-411.757 -210.124)" fill="#b95c4c"/>
      </g>
    </g>
    <g id="Grupo_1172521" data-name="Grupo 1172521" transform="translate(434.593 545.348)">
      <g id="Grupo_1172522" data-name="Grupo 1172522">
        <g id="Grupo_1172521-2" data-name="Grupo 1172521" clip-path="url(#clip-path-3)">
          <path id="Trazado_1026921" data-name="Trazado 1026921" d="M77.41,47.823,73.271,59.248,38.246,46.56l-2.84-4.419,6.12-4.634L62.614,28.62c4.014-1.724,5.062-3.252,5.605-4.75.768-2.122-.192-3.954-3-4.972a7.606,7.606,0,0,0-7.9,1.729L51.052,10.469a8.075,8.075,0,0,1,1.907-2.591c4.473-3.993,12.7-1.595,17.839-.095a47.573,47.573,0,0,1,8.007,3.152c.9,1.107,7.21,9.1,4.708,16.922A14.474,14.474,0,0,1,81.37,32.02c-1.843,2.515-4.838,4.786-10.392,7.045l-8.3,3.42L74.57,43.4l2.84,4.419" transform="translate(-10.031 -1.611)" fill="#681738"/>
          <path id="Trazado_1026922" data-name="Trazado 1026922" d="M74.57,41.793,70.431,53.218,35.406,40.529l3.28-9.053L59.774,22.59c4.014-1.724,5.062-3.252,5.605-4.75.769-2.122-.192-3.954-3-4.972a7.606,7.606,0,0,0-7.9,1.729l-9.1-9.583C50.732.174,58.531-1.663,67.958,1.753,78.322,5.508,83.681,13.524,80.673,21.827c-1.561,4.307-4.086,7.772-12.536,11.208l-8.3,3.42Z" transform="translate(-10.031 0)" fill="#c2507a"/>
          <path id="Trazado_1026923" data-name="Trazado 1026923" d="M151.25,159.241c-4.547,6.544-14.329,9.45-26.544.963-5.235-3.637-10.165-8.761-12.664-13.893q-.141-2.913-.28-5.825c8.868.122,12.894,2.652,14.919,5.05a23.035,23.035,0,0,0,4.636,4.222c2.89,2.009,5.645,2.467,7.009.5,1.137-1.636.564-3.489-2.708-5.763l-5.072-3.524q-.14-2.912-.28-5.824l15.37-3.906L132,121.772q-.141-2.912-.281-5.824l7.026-3.882,28.185,13.954q.14,2.912.28,5.824l-5.494,7.908-12.091,2.273c4.976,5.64,5.3,11.928,1.621,17.217" transform="translate(-31.665 -31.751)" fill="#681738"/>
          <path id="Trazado_1026924" data-name="Trazado 1026924" d="M150.97,151.113c-4.547,6.544-14.329,9.45-26.544.962-5.235-3.637-10.165-8.761-12.664-13.893l10.956-6.457a25.443,25.443,0,0,0,8.319,9.9c2.89,2.009,5.645,2.467,7.009.5,1.137-1.636.564-3.489-2.708-5.763l-5.072-3.524,5.495-7.907,9.595-1.823-13.633-9.473,6.745-9.707,28.466,19.779-5.494,7.908L149.349,133.9c4.975,5.639,5.3,11.928,1.621,17.217" transform="translate(-31.665 -29.448)" fill="#c2507a"/>
          <path id="Trazado_1026925" data-name="Trazado 1026925" d="M97.554,166.034l2.111,3.86a.9.9,0,0,0,.356.357l3.861,2.111a.9.9,0,0,1,0,1.574l-3.861,2.111a.9.9,0,0,0-.356.356l-2.111,3.861a.9.9,0,0,1-1.574,0L93.868,176.4a.9.9,0,0,0-.357-.356l-3.86-2.111a.9.9,0,0,1,0-1.574l3.86-2.111a.9.9,0,0,0,.357-.357l2.111-3.86a.9.9,0,0,1,1.574,0" transform="translate(-25.269 -46.91)" fill="#fff"/>
          <path id="Trazado_1026926" data-name="Trazado 1026926" d="M84.665,182.968l1.459,2.668a.617.617,0,0,0,.247.246l2.667,1.459a.62.62,0,0,1,0,1.088l-2.667,1.459a.623.623,0,0,0-.247.247L84.665,192.8a.62.62,0,0,1-1.088,0l-1.459-2.668a.623.623,0,0,0-.247-.247L79.2,188.43a.62.62,0,0,1,0-1.088l2.667-1.459a.617.617,0,0,0,.247-.246l1.459-2.668a.62.62,0,0,1,1.088,0" transform="translate(-22.349 -51.749)" fill="#fff"/>
          <path id="Trazado_1026927" data-name="Trazado 1026927" d="M103.325,190.157l.9,1.643a.381.381,0,0,0,.151.152l1.643.9a.382.382,0,0,1,0,.669l-1.643.9a.381.381,0,0,0-.151.152l-.9,1.643a.382.382,0,0,1-.67,0l-.9-1.643a.383.383,0,0,0-.152-.152l-1.643-.9a.381.381,0,0,1,0-.669l1.643-.9a.383.383,0,0,0,.152-.152l.9-1.643a.382.382,0,0,1,.67,0" transform="translate(-28.266 -53.82)" fill="#fff"/>
          <path id="Trazado_1026928" data-name="Trazado 1026928" d="M8.369,37.633l2.111,3.86a.9.9,0,0,0,.356.357L14.7,43.961a.9.9,0,0,1,0,1.574l-3.861,2.111A.9.9,0,0,0,10.48,48L8.369,51.863a.9.9,0,0,1-1.574,0L4.683,48a.9.9,0,0,0-.357-.356L.467,45.535a.9.9,0,0,1,0-1.574l3.86-2.111a.9.9,0,0,0,.357-.357l2.111-3.86a.9.9,0,0,1,1.574,0" transform="translate(23.908 39.231)" fill="#fff"/>
          <text id="_9-1_8" data-name="9-1=8" transform="translate(75.636 176.956)" fill="#681738" font-size="20" font-family="Helvetica"><tspan x="0" y="0">9-1=8</tspan></text>
        </g>
      </g>
      <text id="_4_4" data-name="4+4" transform="translate(50.043 82.943)" fill="#681738" font-size="20" font-family="Helvetica"><tspan x="0" y="0">4+4</tspan></text>
    </g>
    <g id="Grupo_1172522-2" data-name="Grupo 1172522" transform="translate(210.885 500.819)">
      <g id="Grupo_1172524" data-name="Grupo 1172524" clip-path="url(#clip-path-4)">
        <path id="Trazado_1026929" data-name="Trazado 1026929" d="M50.562,1.408l23.68,46.65L58.515,56.041l-6.4-1.408q-5.63-16.691-11.259-33.38l-8,4.06-6.4-1.408q.19-5.227.379-10.454L44.161,0l6.4,1.408" transform="translate(-5.117)" fill="#681738"/>
        <path id="Trazado_1026930" data-name="Trazado 1026930" d="M42.718,0,66.4,46.65,50.671,54.634,33.012,19.847l-8,4.06L18.993,12.044Z" transform="translate(-3.673 0)" fill="#c2507a"/>
        <path id="Trazado_1026931" data-name="Trazado 1026931" d="M8.826,181.583c-4.138,4.2-2.684,10.283-2.592,10.646l3.777-2.672a15.076,15.076,0,0,1-.654,5.04,15.145,15.145,0,0,1-3.3,5.747,10.292,10.292,0,0,0,10.308-4.707q.041,2.41.083,4.822a14.314,14.314,0,0,0,4.224-2.544,13.09,13.09,0,0,0,4.692-8.512c.082-.878.59-6.267-3.2-9.259-3.764-2.972-9.87-2.081-13.338,1.44" transform="translate(-1.144 -34.492)" fill="#ffcb48"/>
        <path id="Trazado_1026932" data-name="Trazado 1026932" d="M18.213,155.716A24.981,24.981,0,0,0,2.82,166.222a2.589,2.589,0,0,0-.582,1.629,1.946,1.946,0,0,0,2.123,1.461,8.544,8.544,0,0,0,2.686-.894,11.256,11.256,0,0,1,9.49.5" transform="translate(-0.431 -30.115)" fill="#c2507a"/>
        <path id="Trazado_1026933" data-name="Trazado 1026933" d="M42.152,169.14a24.98,24.98,0,0,1-1.8,18.549,2.593,2.593,0,0,1-1.147,1.295,1.946,1.946,0,0,1-2.3-1.159,8.512,8.512,0,0,1-.509-2.784,11.257,11.257,0,0,0-5.009-8.077" transform="translate(-6.07 -32.711)" fill="#c2507a"/>
        <path id="Trazado_1026934" data-name="Trazado 1026934" d="M50.562,146.79a53.107,53.107,0,0,1-19.814,19.636,2.5,2.5,0,0,1-2.405.05l-8.989-4.662a3.388,3.388,0,0,1-1.84-3.123A54.081,54.081,0,0,1,25.5,131.96c7.845-12.514,22.946-24.377,29.168-20.7s3.215,22.6-4.1,35.532" transform="translate(-3.387 -21.385)" fill="#fff"/>
        <path id="Trazado_1026935" data-name="Trazado 1026935" d="M61.771,130.309a50.48,50.48,0,0,1-18.937-12.551c6.467-5.485,13.121-8.631,16.753-6.483,3.806,2.236,4.162,10.22,2.184,19.033" transform="translate(-8.284 -21.388)" fill="#c2507a"/>
        <path id="Trazado_1026936" data-name="Trazado 1026936" d="M27.584,163.994c-2.739,2.11-4.169,6.087-5.264,9.574-1.559,4.964-2.373,7.435-1.786,7.758.265.146.688-.12,6-6.069a36.14,36.14,0,0,0,4.844-7.284,4.02,4.02,0,0,0,.451-3.056,2.657,2.657,0,0,0-1.787-1.766,2.964,2.964,0,0,0-2.453.844" transform="translate(-3.934 -31.544)" fill="#c2507a"/>
        <path id="Trazado_1026937" data-name="Trazado 1026937" d="M50.438,146.541a9.326,9.326,0,1,1-3.277-12.775,9.327,9.327,0,0,1,3.277,12.775" transform="translate(-6.398 -25.618)" fill="#8e8195"/>
        <path id="Trazado_1026938" data-name="Trazado 1026938" d="M48.908,145.876a6.86,6.86,0,1,1-2.411-9.4,6.86,6.86,0,0,1,2.411,9.4" transform="translate(-6.99 -26.209)" fill="#87b7e8"/>
        <path id="Trazado_1026939" data-name="Trazado 1026939" d="M37.482,211.426l2.376,4.344a1.011,1.011,0,0,0,.4.4l4.345,2.376a1.009,1.009,0,0,1,0,1.771L40.259,222.7a1.009,1.009,0,0,0-.4.4l-2.376,4.345a1.009,1.009,0,0,1-1.771,0L33.334,223.1a1.011,1.011,0,0,0-.4-.4l-4.344-2.376a1.009,1.009,0,0,1,0-1.771l4.344-2.376a1.013,1.013,0,0,0,.4-.4l2.376-4.344a1.009,1.009,0,0,1,1.771,0" transform="translate(-5.427 -40.787)" fill="#fff"/>
        <path id="Trazado_1026940" data-name="Trazado 1026940" d="M24.268,228.344l1.642,3a.694.694,0,0,0,.277.277l3,1.642a.7.7,0,0,1,0,1.224l-3,1.642a.7.7,0,0,0-.277.277l-1.642,3a.7.7,0,0,1-1.224,0l-1.642-3a.7.7,0,0,0-.277-.277l-3-1.642a.7.7,0,0,1,0-1.224l3-1.642a.694.694,0,0,0,.277-.277l1.642-3a.7.7,0,0,1,1.224,0" transform="translate(-3.434 -44.09)" fill="#fff"/>
        <path id="Trazado_1026941" data-name="Trazado 1026941" d="M42.65,235.516l1.011,1.849a.429.429,0,0,0,.17.171l1.85,1.011a.429.429,0,0,1,0,.753l-1.85,1.011a.429.429,0,0,0-.17.171l-1.011,1.849a.43.43,0,0,1-.754,0l-1.011-1.849a.431.431,0,0,0-.171-.171L38.865,239.3a.429.429,0,0,1,0-.753l1.849-1.011a.431.431,0,0,0,.171-.171l1.011-1.849a.43.43,0,0,1,.754,0" transform="translate(-7.473 -45.504)" fill="#fff"/>
        <path id="Trazado_1026942" data-name="Trazado 1026942" d="M83.772,94.356l1.642,3a.694.694,0,0,0,.277.277l3,1.642a.7.7,0,0,1,0,1.224l-3,1.642a.7.7,0,0,0-.277.277l-1.642,3a.7.7,0,0,1-1.224,0l-1.642-3a.7.7,0,0,0-.277-.277l-3-1.642a.7.7,0,0,1,0-1.224l3-1.642a.694.694,0,0,0,.277-.277l1.642-3a.7.7,0,0,1,1.224,0" transform="translate(-14.942 -18.178)" fill="#fff"/>
        <text id="_6_9" data-name="6+9" transform="translate(0 233.358)" fill="#681738" font-size="23" font-family="Helvetica"><tspan x="0" y="0">6+9</tspan></text>
      </g>
    </g>
  </g>
</svg>
