<svg xmlns="http://www.w3.org/2000/svg" xmlns:xlink="http://www.w3.org/1999/xlink" width="113" height="113" viewBox="0 0 113 113">
  <defs>
    <filter id="Trazado_982547" x="0" y="0" width="113" height="113" filterUnits="userSpaceOnUse">
      <feOffset dy="3" input="SourceAlpha"/>
      <feGaussianBlur stdDeviation="3" result="blur"/>
      <feFlood flood-opacity="0.161"/>
      <feComposite operator="in" in2="blur"/>
      <feComposite in="SourceGraphic"/>
    </filter>
  </defs>
  <g id="Grupo_1172426" data-name="Grupo 1172426" transform="translate(-271.5 -5619.645)">
    <g id="Grupo_1171928" data-name="Grupo 1171928" transform="translate(0 4321.5)">
      <g id="Grupo_1171046" data-name="Grupo 1171046" transform="translate(280.5 1304.145)">
        <g id="Grupo_1148525" data-name="Grupo 1148525" transform="translate(0)">
          <g transform="matrix(1, 0, 0, 1, -9, -6)" filter="url(#Trazado_982547)">
            <g id="Trazado_982547-2" data-name="Trazado 982547" transform="translate(9 6)" fill="#f4fdfe">
              <path d="M 47.5 93.5 C 41.28937149047852 93.5 35.26533508300781 92.28397369384766 29.59518623352051 89.88570404052734 C 24.11771965026855 87.56893157958984 19.19813346862793 84.25196075439453 14.97309303283691 80.02691650390625 C 10.74804019927979 75.80186462402344 7.431066513061523 70.88229370117188 5.114293098449707 65.40481567382812 C 2.716026782989502 59.73468017578125 1.5 53.71062850952148 1.5 47.5 C 1.5 41.28937149047852 2.716026782989502 35.26533508300781 5.114293098449707 29.59518623352051 C 7.431066513061523 24.11771965026855 10.74804019927979 19.19813346862793 14.97309303283691 14.97309303283691 C 19.19813346862793 10.74804019927979 24.11771965026855 7.431066513061523 29.59518623352051 5.114293098449707 C 35.26533508300781 2.716026782989502 41.28937149047852 1.5 47.5 1.5 C 53.71062850952148 1.5 59.73468017578125 2.716026782989502 65.40481567382812 5.114293098449707 C 70.88229370117188 7.431066513061523 75.80186462402344 10.74804019927979 80.02691650390625 14.97309303283691 C 84.25196075439453 19.19813346862793 87.56893157958984 24.11771965026855 89.88570404052734 29.59518623352051 C 92.28397369384766 35.26533508300781 93.5 41.28937149047852 93.5 47.5 C 93.5 53.71062850952148 92.28397369384766 59.73468017578125 89.88570404052734 65.40481567382812 C 87.56893157958984 70.88229370117188 84.25196075439453 75.80186462402344 80.02691650390625 80.02691650390625 C 75.80186462402344 84.25196075439453 70.88229370117188 87.56893157958984 65.40481567382812 89.88570404052734 C 59.73468017578125 92.28397369384766 53.71062850952148 93.5 47.5 93.5 Z" stroke="none"/>
              <path d="M 47.5 3 C 41.49121475219727 3 35.66376876831055 4.176155090332031 30.17950439453125 6.495796203613281 C 24.88084411621094 8.736953735351562 20.12152099609375 11.94598388671875 16.03375244140625 16.03375244140625 C 11.94598388671875 20.12152099609375 8.736953735351562 24.88084411621094 6.495796203613281 30.17950439453125 C 4.176155090332031 35.66376876831055 3 41.49121475219727 3 47.5 C 3 53.50878524780273 4.176155090332031 59.33623123168945 6.495796203613281 64.82049560546875 C 8.736953735351562 70.11915588378906 11.94598388671875 74.87847900390625 16.03375244140625 78.96624755859375 C 20.12152099609375 83.05401611328125 24.88084411621094 86.26304626464844 30.17950439453125 88.50419616699219 C 35.66376876831055 90.82384490966797 41.49121475219727 92 47.5 92 C 53.50878524780273 92 59.33623123168945 90.82384490966797 64.82049560546875 88.50419616699219 C 70.11915588378906 86.26304626464844 74.87847900390625 83.05401611328125 78.96624755859375 78.96624755859375 C 83.05401611328125 74.87847900390625 86.26304626464844 70.11915588378906 88.50419616699219 64.82049560546875 C 90.82384490966797 59.33623123168945 92 53.50878524780273 92 47.5 C 92 41.49121475219727 90.82384490966797 35.66376876831055 88.50419616699219 30.17950439453125 C 86.26304626464844 24.88084411621094 83.05401611328125 20.12152099609375 78.96624755859375 16.03375244140625 C 74.87847900390625 11.94598388671875 70.11915588378906 8.736953735351562 64.82049560546875 6.495796203613281 C 59.33623123168945 4.176155090332031 53.50878524780273 3 47.5 3 M 47.5 0 C 73.7335205078125 0 95 21.2664794921875 95 47.5 C 95 73.7335205078125 73.7335205078125 95 47.5 95 C 21.2664794921875 95 0 73.7335205078125 0 47.5 C 0 21.2664794921875 21.2664794921875 0 47.5 0 Z" stroke="none" fill="#56838a"/>
            </g>
          </g>
        </g>
      </g>
    </g>
    <g id="education_11511342" transform="translate(215.933 5631.109)">
      <g id="Grupo_1172423" data-name="Grupo 1172423" transform="translate(88.835 7.5)">
        <g id="Grupo_1172421" data-name="Grupo 1172421" transform="translate(0 0)">
          <g id="Grupo_1172418" data-name="Grupo 1172418">
            <g id="Grupo_1172417" data-name="Grupo 1172417">
              <ellipse id="Elipse_12341" data-name="Elipse 12341" cx="4.537" cy="4.011" rx="4.537" ry="4.011" transform="translate(37.39 19.949)" fill="#ffcbbe"/>
              <ellipse id="Elipse_12342" data-name="Elipse 12342" cx="4.537" cy="4.011" rx="4.537" ry="4.011" transform="translate(0 19.949)" fill="#ffcbbe"/>
              <path id="Trazado_1026532" data-name="Trazado 1026532" d="M226.893,305.49H207.308c-2.353-5.952,1.482-13.6,7.589-13.94h4.408C223.8,294.053,226.895,299.353,226.893,305.49Z" transform="translate(-190.24 -252.075)" fill="#60daa8"/>
              <path id="Trazado_1026533" data-name="Trazado 1026533" d="M174.268,291.55c-4.49,2.5-7.589,7.8-7.589,13.94H159.42c0-6.137,3.1-11.437,7.588-13.94Z" transform="translate(-149.611 -252.075)" fill="#36d49b"/>
              <path id="Trazado_1026534" data-name="Trazado 1026534" d="M224.979,83.9c0,7.078-5.01,13.122-12.064,15.508A15.728,15.728,0,0,1,198.166,83.9c0-7.078,4.955-14.226,14.748-15.509C219.969,70.778,224.979,76.822,224.979,83.9Z" transform="translate(-182.972 -59.928)" fill="#ffddcf"/>
              <path id="Trazado_1026535" data-name="Trazado 1026535" d="M146.386,92.631a20.872,20.872,0,0,1-6.711,1.094c-10.369,0-18.775-7.432-18.775-16.6s8.406-16.6,18.775-16.6a20.872,20.872,0,0,1,6.711,1.094c-7.054,2.388-12.064,8.432-12.064,15.509S139.332,90.245,146.386,92.631Z" transform="translate(-116.444 -53.152)" fill="#ffcbbe"/>
              <path id="Trazado_1026536" data-name="Trazado 1026536" d="M265.951,39.643a15.377,15.377,0,0,1-3.587-.421,12.463,12.463,0,0,0-6.322-7.921,9.075,9.075,0,0,0-11.456-1.284c-2.262-2.425-3.49-6.55-1.862-9.817q.6-.029,1.2-.029C256.091,20.17,265.951,28.888,265.951,39.643Z" transform="translate(-220.696 -18.409)" fill="#eaaa83"/>
              <path id="Trazado_1026537" data-name="Trazado 1026537" d="M120.212,30.2c-.224.153-.443.317-.659.495-3.641-3.269-10.055-2.311-12.2.7a11.82,11.82,0,0,0-6.234,8.012,13.423,13.423,0,0,1-3.587.416c0-10.4,9.217-18.892,20.82-19.444C116.722,23.647,117.949,27.772,120.212,30.2Z" transform="translate(-96.322 -18.59)" fill="#e4996d"/>
              <path id="Trazado_1026538" data-name="Trazado 1026538" d="M250.594,16.629l-3.936,3.763a10.586,10.586,0,0,0-9.978-.046c-6.048-.828-7.881-10.4-2.054-12.847a25.338,25.338,0,0,1,15.825,5.462A2.444,2.444,0,0,1,250.594,16.629Z" transform="translate(-211.314 -7.5)" fill="#e4996d"/>
              <path id="Trazado_1026539" data-name="Trazado 1026539" d="M154,20.347a12.255,12.255,0,0,0-1.783,1.147.554.554,0,0,1-.692-.013,10.685,10.685,0,0,0-11.861-1.173l-3.847-3.679a2.444,2.444,0,0,1,.143-3.668A25.342,25.342,0,0,1,151.864,7.5h.081C148.03,11.464,150.365,18.059,154,20.347Z" transform="translate(-128.633 -7.5)" fill="#df8a57"/>
            </g>
          </g>
          <g id="Grupo_1172419" data-name="Grupo 1172419" transform="translate(5.851 44.416)">
            <path id="Trazado_1026540" data-name="Trazado 1026540" d="M212.49,329.863v4.921l-15.122,5.883-6.626-2.578c-3.8-3.463-4.048-10.762.891-10.568a11.083,11.083,0,0,1,4.593,1.762,1.865,1.865,0,0,0,2.285,0c2.162-1.687,7.04-2.46,11.531-2.089A2.673,2.673,0,0,1,212.49,329.863Z" transform="translate(-179.989 -327.103)" fill="#f3f5fc"/>
            <path id="Trazado_1026541" data-name="Trazado 1026541" d="M155.685,338.088l-8.5-3.3v-4.921a2.673,2.673,0,0,1,2.449-2.668,26.605,26.605,0,0,1,6.938.327C153.2,328.459,153.037,334.3,155.685,338.088Z" transform="translate(-144.932 -327.103)" fill="#d7ddf5"/>
            <path id="Trazado_1026542" data-name="Trazado 1026542" d="M220.465,402.114a3.347,3.347,0,0,1-3.39-2.259l-2.345-6.787,2.345-7.48a5.36,5.36,0,0,0,3.39,1.489,4.311,4.311,0,0,0,3.39-1.489l2.661,6.9-2.661,7.363A3.557,3.557,0,0,1,220.465,402.114Z" transform="translate(-203.085 -377.461)" fill="#77899b"/>
            <path id="Trazado_1026543" data-name="Trazado 1026543" d="M183.031,375.206v14.267l-4.59-1.908c-4.421-3.618-4.421-11.925.557-14.035Z" transform="translate(-169.042 -367.078)" fill="#ff6e80"/>
            <path id="Trazado_1026544" data-name="Trazado 1026544" d="M140.339,365.535l-8.208-3.412a1.932,1.932,0,0,1-1.191-1.784V349.117a1.172,1.172,0,0,1,1.622-1.081L140.9,351.5C137.68,354.331,137.58,361.235,140.339,365.535Z" transform="translate(-130.94 -345.048)" fill="#fd5c6f"/>
            <path id="Trazado_1026545" data-name="Trazado 1026545" d="M293.194,362.124l-12.8,5.32V353.176l12.368-5.141a1.172,1.172,0,0,1,1.621,1.082V360.34A1.932,1.932,0,0,1,293.194,362.124Z" transform="translate(-259.625 -345.048)" fill="#ff6e80"/>
          </g>
          <g id="Grupo_1172420" data-name="Grupo 1172420" transform="translate(1.764 52.144)">
            <path id="Trazado_1026546" data-name="Trazado 1026546" d="M106.1,388.548h-1.655a2.918,2.918,0,1,1,0-5.836H106.1a2.918,2.918,0,1,1,0,5.836Z" transform="translate(-101.53 -382.712)" fill="#ffcbbe"/>
            <path id="Trazado_1026547" data-name="Trazado 1026547" d="M361.143,388.548h-1.655a2.918,2.918,0,1,1,0-5.836h1.655a2.918,2.918,0,1,1,0,5.836Z" transform="translate(-321.126 -382.712)" fill="#ffddcf"/>
          </g>
        </g>
      </g>
      <g id="Grupo_1172425" data-name="Grupo 1172425" transform="translate(88.835 7.5)">
        <path id="Trazado_1026548" data-name="Trazado 1026548" d="M387.183,167.011c2.652.253,5.017-1.63,5-3.991a3.758,3.758,0,0,0-1.21-2.726" transform="translate(-345.721 -139.06)" fill="none" stroke="#000" stroke-linecap="round" stroke-linejoin="round" stroke-miterlimit="10" stroke-width="1.5"/>
        <path id="Trazado_1026549" data-name="Trazado 1026549" d="M90.046,160.294a3.758,3.758,0,0,0-1.21,2.726c-.016,2.361,2.348,4.243,5,3.991" transform="translate(-88.835 -139.06)" fill="none" stroke="#000" stroke-linecap="round" stroke-linejoin="round" stroke-miterlimit="10" stroke-width="1.5"/>
        <line id="Línea_760" data-name="Línea 760" y1="14.267" transform="translate(19.841 52.544)" fill="none" stroke="#000" stroke-linecap="round" stroke-linejoin="round" stroke-miterlimit="10" stroke-width="1.5"/>
        <line id="Línea_761" data-name="Línea 761" y1="14.267" transform="translate(26.622 52.544)" fill="none" stroke="#000" stroke-linecap="round" stroke-linejoin="round" stroke-miterlimit="10" stroke-width="1.5"/>
        <path id="Trazado_1026550" data-name="Trazado 1026550" d="M106.1,388.548h-1.655a2.918,2.918,0,1,1,0-5.836H106.1a2.918,2.918,0,1,1,0,5.836Z" transform="translate(-99.766 -330.568)" fill="none" stroke="#000" stroke-linecap="round" stroke-linejoin="round" stroke-miterlimit="10" stroke-width="1.5"/>
        <path id="Trazado_1026551" data-name="Trazado 1026551" d="M361.143,388.548h-1.655a2.918,2.918,0,1,1,0-5.836h1.655a2.918,2.918,0,1,1,0,5.836Z" transform="translate(-319.362 -330.568)" fill="none" stroke="#000" stroke-linecap="round" stroke-linejoin="round" stroke-miterlimit="10" stroke-width="1.5"/>
        <path id="Trazado_1026553" data-name="Trazado 1026553" d="M157.651,8.138a26.452,26.452,0,0,0-5.79-.638,25.348,25.348,0,0,0-15.906,5.461,2.445,2.445,0,0,0-.143,3.668l3.847,3.679a10.675,10.675,0,0,1,12.2,1.466,10.688,10.688,0,0,1,12.113-1.381l3.936-3.764a2.445,2.445,0,0,0-.143-3.668,24.216,24.216,0,0,0-5.492-3.314" transform="translate(-128.63 -7.5)" fill="none" stroke="#000" stroke-linecap="round" stroke-linejoin="round" stroke-miterlimit="10" stroke-width="1.5"/>
        <path id="Trazado_1026554" data-name="Trazado 1026554" d="M192.287,431.264l5.464,2.271a3.347,3.347,0,0,0,3.39,2.259,3.557,3.557,0,0,0,3.39-2.259l12.8-5.32a1.932,1.932,0,0,0,1.19-1.784V424.7" transform="translate(-177.91 -366.724)" fill="none" stroke="#000" stroke-linecap="round" stroke-linejoin="round" stroke-miterlimit="10" stroke-width="1.5"/>
        <path id="Trazado_1026555" data-name="Trazado 1026555" d="M130.942,424.7v1.727a1.932,1.932,0,0,0,1.19,1.784l2.843,1.182" transform="translate(-125.09 -366.724)" fill="none" stroke="#000" stroke-linecap="round" stroke-linejoin="round" stroke-miterlimit="10" stroke-width="1.5"/>
        <path id="Trazado_1026556" data-name="Trazado 1026556" d="M165.7,352.776v-3.659a1.172,1.172,0,0,0-1.621-1.082l-12.368,5.141a4.311,4.311,0,0,1-3.39,1.489,5.36,5.36,0,0,1-3.39-1.489l-12.368-5.141a1.172,1.172,0,0,0-1.621,1.082v3.659" transform="translate(-125.092 -300.631)" fill="none" stroke="#000" stroke-linecap="round" stroke-linejoin="round" stroke-miterlimit="10" stroke-width="1.5"/>
        <path id="Trazado_1026557" data-name="Trazado 1026557" d="M177.432,330.358v-.492a2.674,2.674,0,0,0-2.449-2.668c-4.49-.371-9.368.4-11.53,2.089a1.866,1.866,0,0,1-2.285,0c-2.163-1.687-7.04-2.459-11.53-2.089a2.674,2.674,0,0,0-2.449,2.668v.492" transform="translate(-139.079 -282.689)" fill="none" stroke="#000" stroke-linecap="round" stroke-linejoin="round" stroke-miterlimit="10" stroke-width="1.5"/>
        <path id="Trazado_1026558" data-name="Trazado 1026558" d="M182.185,292.883a14.262,14.262,0,0,0-4.768,4.761" transform="translate(-165.107 -253.222)" fill="none" stroke="#000" stroke-linecap="round" stroke-linejoin="round" stroke-miterlimit="10" stroke-width="1.5"/>
        <path id="Trazado_1026559" data-name="Trazado 1026559" d="M305.041,297.644a14.262,14.262,0,0,0-4.768-4.761" transform="translate(-270.889 -253.222)" fill="none" stroke="#000" stroke-linecap="round" stroke-linejoin="round" stroke-miterlimit="10" stroke-width="1.5"/>
        <path id="Trazado_1026560" data-name="Trazado 1026560" d="M121.238,157.264a14.076,14.076,0,0,0-.338,3.154c0,9.169,8.406,16.6,18.775,16.6s18.775-7.433,18.775-16.6a14.524,14.524,0,0,0-.34-3.159" transform="translate(-116.444 -136.447)" fill="none" stroke="#000" stroke-linecap="round" stroke-linejoin="round" stroke-miterlimit="10" stroke-width="1.5"/>
        <g id="Grupo_1172424" data-name="Grupo 1172424" transform="translate(1.209 8.407)">
          <path id="Trazado_1026561" data-name="Trazado 1026561" d="M102.989,67.991a18.168,18.168,0,0,0-5.454,12.828,13.372,13.372,0,0,0,3.586-.417,11.82,11.82,0,0,1,6.235-8.01" transform="translate(-97.535 -67.991)" fill="none" stroke="#000" stroke-linecap="round" stroke-linejoin="round" stroke-miterlimit="10" stroke-width="1.5"/>
          <path id="Trazado_1026562" data-name="Trazado 1026562" d="M343.16,72.476a12.458,12.458,0,0,1,6.323,7.92,15.37,15.37,0,0,0,3.587.422,18.168,18.168,0,0,0-5.454-12.828" transform="translate(-309.025 -67.99)" fill="none" stroke="#000" stroke-linecap="round" stroke-linejoin="round" stroke-miterlimit="10" stroke-width="1.5"/>
        </g>
      </g>
    </g>
  </g>
</svg>
