<svg xmlns="http://www.w3.org/2000/svg" xmlns:xlink="http://www.w3.org/1999/xlink" width="113" height="113" viewBox="0 0 113 113">
  <defs>
    <filter id="Trazado_982547" x="0" y="0" width="113" height="113" filterUnits="userSpaceOnUse">
      <feOffset dy="3" input="SourceAlpha"/>
      <feGaussianBlur stdDeviation="3" result="blur"/>
      <feFlood flood-opacity="0.161"/>
      <feComposite operator="in" in2="blur"/>
      <feComposite in="SourceGraphic"/>
    </filter>
    <clipPath id="clip-path">
      <path id="path5130" d="M0-682.665H65.721v65.721H0Z" transform="translate(0 682.665)"/>
    </clipPath>
  </defs>
  <g id="Grupo_1172433" data-name="Grupo 1172433" transform="translate(-901.5 -5619.645)">
    <g id="Grupo_1171930" data-name="Grupo 1171930" transform="translate(0 4321.5)">
      <g id="Grupo_1171048" data-name="Grupo 1171048" transform="translate(910.5 1304.145)">
        <g id="Grupo_1148525" data-name="Grupo 1148525" transform="translate(0)">
          <g transform="matrix(1, 0, 0, 1, -9, -6)" filter="url(#Trazado_982547)">
            <g id="Trazado_982547-2" data-name="Trazado 982547" transform="translate(9 6)" fill="#f4fdfe">
              <path d="M 47.5 93.5 C 41.28937149047852 93.5 35.26533508300781 92.28397369384766 29.59518623352051 89.88570404052734 C 24.11771965026855 87.56893157958984 19.19813346862793 84.25196075439453 14.97309303283691 80.02691650390625 C 10.74804019927979 75.80186462402344 7.431066513061523 70.88229370117188 5.114293098449707 65.40481567382812 C 2.716026782989502 59.73468017578125 1.5 53.71062850952148 1.5 47.5 C 1.5 41.28937149047852 2.716026782989502 35.26533508300781 5.114293098449707 29.59518623352051 C 7.431066513061523 24.11771965026855 10.74804019927979 19.19813346862793 14.97309303283691 14.97309303283691 C 19.19813346862793 10.74804019927979 24.11771965026855 7.431066513061523 29.59518623352051 5.114293098449707 C 35.26533508300781 2.716026782989502 41.28937149047852 1.5 47.5 1.5 C 53.71062850952148 1.5 59.73468017578125 2.716026782989502 65.40481567382812 5.114293098449707 C 70.88229370117188 7.431066513061523 75.80186462402344 10.74804019927979 80.02691650390625 14.97309303283691 C 84.25196075439453 19.19813346862793 87.56893157958984 24.11771965026855 89.88570404052734 29.59518623352051 C 92.28397369384766 35.26533508300781 93.5 41.28937149047852 93.5 47.5 C 93.5 53.71062850952148 92.28397369384766 59.73468017578125 89.88570404052734 65.40481567382812 C 87.56893157958984 70.88229370117188 84.25196075439453 75.80186462402344 80.02691650390625 80.02691650390625 C 75.80186462402344 84.25196075439453 70.88229370117188 87.56893157958984 65.40481567382812 89.88570404052734 C 59.73468017578125 92.28397369384766 53.71062850952148 93.5 47.5 93.5 Z" stroke="none"/>
              <path d="M 47.5 3 C 41.49121475219727 3 35.66376876831055 4.176155090332031 30.17950439453125 6.495796203613281 C 24.88084411621094 8.736953735351562 20.12152099609375 11.94598388671875 16.03375244140625 16.03375244140625 C 11.94598388671875 20.12152099609375 8.736953735351562 24.88084411621094 6.495796203613281 30.17950439453125 C 4.176155090332031 35.66376876831055 3 41.49121475219727 3 47.5 C 3 53.50878524780273 4.176155090332031 59.33623123168945 6.495796203613281 64.82049560546875 C 8.736953735351562 70.11915588378906 11.94598388671875 74.87847900390625 16.03375244140625 78.96624755859375 C 20.12152099609375 83.05401611328125 24.88084411621094 86.26304626464844 30.17950439453125 88.50419616699219 C 35.66376876831055 90.82384490966797 41.49121475219727 92 47.5 92 C 53.50878524780273 92 59.33623123168945 90.82384490966797 64.82049560546875 88.50419616699219 C 70.11915588378906 86.26304626464844 74.87847900390625 83.05401611328125 78.96624755859375 78.96624755859375 C 83.05401611328125 74.87847900390625 86.26304626464844 70.11915588378906 88.50419616699219 64.82049560546875 C 90.82384490966797 59.33623123168945 92 53.50878524780273 92 47.5 C 92 41.49121475219727 90.82384490966797 35.66376876831055 88.50419616699219 30.17950439453125 C 86.26304626464844 24.88084411621094 83.05401611328125 20.12152099609375 78.96624755859375 16.03375244140625 C 74.87847900390625 11.94598388671875 70.11915588378906 8.736953735351562 64.82049560546875 6.495796203613281 C 59.33623123168945 4.176155090332031 53.50878524780273 3 47.5 3 M 47.5 0 C 73.7335205078125 0 95 21.2664794921875 95 47.5 C 95 73.7335205078125 73.7335205078125 95 47.5 95 C 21.2664794921875 95 0 73.7335205078125 0 47.5 C 0 21.2664794921875 21.2664794921875 0 47.5 0 Z" stroke="none" fill="#56838a"/>
            </g>
          </g>
        </g>
      </g>
    </g>
    <g id="g5124" transform="translate(924.439 6321.649)">
      <g id="g5126" transform="translate(0 -682.665)">
        <g id="g5128" clip-path="url(#clip-path)">
          <g id="g5134" transform="translate(25.418 54.937)">
            <path id="path5136" d="M-88.4,0h-2.223l-7.193,4.469V8.623l1.447,1.2h15.943a10.056,10.056,0,0,0-2.19-6.257A9.947,9.947,0,0,0-88.4,0" transform="translate(97.814)" fill="#ff8e9e"/>
          </g>
          <g id="g5138" transform="translate(22.913 54.738)">
            <path id="path5140" d="M-93.38,0a9.819,9.819,0,0,0-4.862,1.283,10.046,10.046,0,0,0-2.9,2.478,10.058,10.058,0,0,0-2.19,6.257h3.952A10.019,10.019,0,0,1-91.405.2,9.869,9.869,0,0,0-93.38,0" transform="translate(103.328 0)" fill="#ea5b70"/>
          </g>
          <g id="g5142" transform="translate(27.999 53.215)">
            <path id="path5144" d="M-45.638,0-50.5,2.807a7.521,7.521,0,0,0,4.862,5.537,7.519,7.519,0,0,0,4.863-5.537Z" transform="translate(50.5)" fill="#ffbf9d"/>
          </g>
          <g id="g5146" transform="translate(9.6 33.403)">
            <path id="path5148" d="M-43.476,0a4.631,4.631,0,0,0-4.631,4.632,4.631,4.631,0,0,0,4.631,4.631,4.631,4.631,0,0,0,4.632-4.631A4.632,4.632,0,0,0-43.476,0" transform="translate(48.108)" fill="#ffbf9d"/>
          </g>
          <g id="g5150" transform="translate(46.858 33.403)">
            <path id="path5152" d="M-43.478,0a4.631,4.631,0,0,0-4.632,4.632,4.631,4.631,0,0,0,4.632,4.631,4.631,4.631,0,0,0,4.631-4.631A4.631,4.631,0,0,0-43.478,0" transform="translate(48.109)" fill="#ffbf9d"/>
          </g>
          <g id="g5154" transform="translate(14.232 26.482)">
            <path id="path5156" d="M0-108.447,15.959-90.074h5.757q.9-.151,1.775-.387a18.636,18.636,0,0,0,13.766-17.986L18.629-120Z" transform="translate(0 120)" fill="#ffd4bd"/>
          </g>
          <g id="g5158" transform="translate(14.232 34.947)">
            <path id="path5160" d="M-57.969-28.986l-3.088-3.088-3.088,3.088A18.636,18.636,0,0,0-50.377-11a18.643,18.643,0,0,0,4.862.642,18.73,18.73,0,0,0,3.088-.255A18.634,18.634,0,0,1-57.969-28.986" transform="translate(64.144 32.073)" fill="#ffbf9d"/>
          </g>
          <g id="g5162" transform="translate(53.359 49.547)">
            <path id="path5164" d="M-18.075,0-20,1.925v12.5h4.814a5.778,5.778,0,0,0,2.888-5V5.776A5.783,5.783,0,0,0-18.075,0" transform="translate(20)" fill="#8288cb"/>
          </g>
          <g id="g5166" transform="translate(49.51 49.547)">
            <path id="path5168" d="M-54.21,0a5.792,5.792,0,0,0-5.775,5.776L-57.1,8.343l2.887-2.567Z" transform="translate(59.985)" fill="#676fb2"/>
          </g>
          <g id="g5170" transform="translate(49.509 55.324)">
            <path id="path5172" d="M-54.224-34.322v-3.656H-60c0,.018,0,.036,0,.054v3.6a5.783,5.783,0,0,0,5.776,5.776,5.739,5.739,0,0,0,2.888-.777,5.779,5.779,0,0,1-2.888-5" transform="translate(60 37.979)" fill="#4c5699"/>
          </g>
          <g id="g5174" transform="translate(53.36 53.398)">
            <path id="path5176" d="M-17.2-.021a1.961,1.961,0,0,0-1.832,1.978V3.246a1.925,1.925,0,0,0,1.925,1.925,1.925,1.925,0,0,0,1.925-1.925V1.9A1.926,1.926,0,0,0-17.2-.021" transform="translate(19.032 0.023)" fill="#9ea2e3"/>
          </g>
          <g id="g5178" transform="translate(21.565 19.406)">
            <path id="path5180" d="M-212.073-35.812a18.543,18.543,0,0,0-11.3-3.815,18.545,18.545,0,0,0-11.3,3.816v7.025H-218.4l6.324-5.977Z" transform="translate(234.665 39.627)" fill="#ce857a"/>
          </g>
          <g id="g5182" transform="translate(37.832 24.27)">
            <path id="path5184" d="M-71.151,0h-1.256L-78.73,5.977-75.2,9.434a14.611,14.611,0,0,0,10.126,4.329A18.58,18.58,0,0,0-71.151,0" transform="translate(78.73)" fill="#ce857a"/>
          </g>
          <g id="g5186" transform="translate(20.398 20.908)">
            <path id="path5188" d="M-258.7-2.617A24.564,24.564,0,0,1-271.7,1.391h-4.178a24.679,24.679,0,0,1-4.7-.541l-5.676,1.284v12.1l10.739,0A20.588,20.588,0,0,0-256.181-.756,1.669,1.669,0,0,0-258.7-2.617" transform="translate(286.255 2.896)" fill="#d6948c"/>
          </g>
          <g id="g5190" transform="translate(14.232 23.222)">
            <path id="path5192" d="M-111.172-13.438a24.458,24.458,0,0,1-4.51-1.431A18.589,18.589,0,0,0-123.014-.057h6.167a18.56,18.56,0,0,1,5.676-13.38" transform="translate(123.014 14.869)" fill="#ce857a"/>
          </g>
          <g id="g5194" transform="translate(18.319 39.63)">
            <path id="path5196" d="M-37.278,0c-2.193,0-3.971,1.416-3.971,3.162s1.778,3.162,3.971,3.162,3.971-1.416,3.971-3.162S-35.085,0-37.278,0" transform="translate(41.249 0)" fill="#ff8e9e"/>
          </g>
          <g id="g5198" transform="translate(39.459 39.63)">
            <path id="path5200" d="M-37.279,0c-2.193,0-3.971,1.416-3.971,3.162s1.778,3.162,3.971,3.162,3.971-1.416,3.971-3.162S-35.086,0-37.279,0" transform="translate(41.251 0)" fill="#ff8e9e"/>
          </g>
          <g id="g5202" transform="translate(30.817 40.827)">
            <path id="path5204" d="M-19.788,0A2.244,2.244,0,0,0-21.9,2.359a2.244,2.244,0,0,0,2.108,2.359A2.244,2.244,0,0,0-17.68,2.359,2.244,2.244,0,0,0-19.788,0" transform="translate(21.896 0)" fill="#4c5699"/>
          </g>
          <g id="g5206" transform="translate(16.249 6.983)">
            <path id="path5208" d="M-51.333,0a1.917,1.917,0,0,0-1.322.528H-56.8V5.622A1.773,1.773,0,0,1-55.03,3.851a1.773,1.773,0,0,1,1.771,1.771A1.773,1.773,0,0,1-55.03,7.394,1.774,1.774,0,0,1-56.8,5.622v5.094h4.146a1.917,1.917,0,0,0,1.322.528,1.925,1.925,0,0,0,1.925-1.925V1.925A1.925,1.925,0,0,0-51.333,0" transform="translate(56.801)" fill="#ffce71"/>
          </g>
          <g id="g5210" transform="translate(12.399 6.983)">
            <path id="path5212" d="M-36.149-52.779A5.2,5.2,0,0,1-32-57.873a5.589,5.589,0,0,0-2.375-.528A5.629,5.629,0,0,0-40-52.779a5.629,5.629,0,0,0,5.622,5.622A5.589,5.589,0,0,0-32-47.685a5.2,5.2,0,0,1-4.146-5.094" transform="translate(40 58.401)" fill="#ffb357"/>
          </g>
          <g id="g5214" transform="translate(28.788 4.197)">
            <path id="path5216" d="M-44.331,0H-47.77V3.851h3.439a1.749,1.749,0,0,1,1.721,1.772,1.749,1.749,0,0,1-1.721,1.771h-4.722l2.6,2.994a2.489,2.489,0,0,0,1.879.857h.242a5.6,5.6,0,0,0,5.572-5.622A5.6,5.6,0,0,0-44.331,0" transform="translate(49.053)" fill="#7ce3ff"/>
          </g>
          <g id="g5218" transform="translate(27.504 0.963)">
            <path id="path5220" d="M-36.149-18.075A1.925,1.925,0,0,0-38.074-20,1.925,1.925,0,0,0-40-18.075V-7.446c0,.006,0,.012,0,.019a1.926,1.926,0,0,0,1.925,1.907h3.838a1.933,1.933,0,0,1-1.913-1.916V-9.372h0Z" transform="translate(40 20)" fill="#55dafe"/>
          </g>
          <g id="g5222" transform="translate(46.796 11.421)">
            <path id="path5224" d="M-39.553-19.086a2,2,0,0,0-1.891-.346,1.775,1.775,0,0,1-2.323-1.687v5.3h3.656a1.915,1.915,0,0,0,.557-3.27" transform="translate(43.767 21.119)" fill="#ff8e9e"/>
          </g>
          <g id="g5226" transform="translate(46.796 6.118)">
            <path id="path5228" d="M0-49.78v-5.3H3.656a1.915,1.915,0,0,1,.557,3.27,2,2,0,0,1-1.89.346A1.775,1.775,0,0,0,0-49.78" transform="translate(0 55.083)" fill="#ff8e9e"/>
          </g>
          <g id="g5230" transform="translate(42.943 5.792)">
            <path id="path5232" d="M-36.164-52.838a5.674,5.674,0,0,1,3.656-5.3,5.63,5.63,0,0,0-7.508,5.3,5.63,5.63,0,0,0,7.508,5.3,5.674,5.674,0,0,1-3.656-5.3" transform="translate(40.016 58.467)" fill="#ea5b70"/>
          </g>
          <g id="g5234" transform="translate(7.141 44.644)">
            <path id="path5236" d="M-48.6-55.257l-3.936-5.886H-53.78v9.2h2.4l1.284-1.126.8-.246a1.284,1.284,0,0,0,.692-1.941" transform="translate(53.78 61.144)" fill="#efedff"/>
          </g>
          <g id="g5238" transform="translate(4.66 42.221)">
            <path id="path5240" d="M-62.8-114.693l-.526-1.721a1.889,1.889,0,0,1-2.441-1.806v-6.267l-1.208-1.806a1.371,1.371,0,0,0-2.515.775v9.254a1.3,1.3,0,0,0,1.678,1.222l.8-.246.51,1.669a1.993,1.993,0,0,0,1.861,1.413,1.9,1.9,0,0,0,.47-.058,1.925,1.925,0,0,0,1.368-2.429" transform="translate(69.488 126.91)" fill="#d4d4ff"/>
          </g>
          <g id="g5242" transform="translate(22.234 39.045)">
            <path id="path5244" d="M-25.624,0a2.733,2.733,0,0,0-2.73,2.73.963.963,0,0,0,.963.963.963.963,0,0,0,.963-.963.805.805,0,0,1,.8-.8.805.805,0,0,1,.8.8.963.963,0,0,0,.963.963.963.963,0,0,0,.963-.963A2.733,2.733,0,0,0-25.624,0" transform="translate(28.353)"/>
          </g>
          <g id="g5246" transform="translate(38.028 39.045)">
            <path id="path5248" d="M-9.037-34.662a.963.963,0,0,0,.963-.963.805.805,0,0,1,.8-.8.805.805,0,0,1,.8.8.963.963,0,0,0,.963.963.963.963,0,0,0,.963-.963,2.733,2.733,0,0,0-2.73-2.73A2.733,2.733,0,0,0-10-35.625a.963.963,0,0,0,.963.963" transform="translate(10 38.355)"/>
          </g>
          <g id="g5250" transform="translate(29.854 39.864)">
            <path id="path5252" d="M-18.075-31.181a1.291,1.291,0,0,1,1.145-1.4,1.291,1.291,0,0,1,1.145,1.4,1.291,1.291,0,0,1-1.145,1.4,1.291,1.291,0,0,1-1.145-1.4m4.216,0A3.207,3.207,0,0,0-16.929-34.5,3.207,3.207,0,0,0-20-31.181a3.207,3.207,0,0,0,3.071,3.322,3.207,3.207,0,0,0,3.071-3.322" transform="translate(20 34.503)"/>
          </g>
          <g id="g5254" transform="translate(11.436 6.018)">
            <path id="path5256" d="M-61.816-18.1a4.607,4.607,0,0,1,1.967.437.962.962,0,0,0,1.07-.172.962.962,0,0,1,1.623.7V-9.74a.962.962,0,0,1-1.623.7.963.963,0,0,0-1.07-.173,4.606,4.606,0,0,1-1.967.437,4.665,4.665,0,0,1-4.66-4.66,4.665,4.665,0,0,1,4.66-4.659m0,11.245a6.514,6.514,0,0,0,2.242-.394A2.891,2.891,0,0,0-55.231-9.74v-7.394a2.891,2.891,0,0,0-4.343-2.494,6.512,6.512,0,0,0-2.242-.394A6.592,6.592,0,0,0-68.4-13.437a6.592,6.592,0,0,0,6.585,6.585" transform="translate(68.401 20.024)"/>
          </g>
          <g id="g5258" transform="translate(15.287 9.871)">
            <path id="path5260" d="M-25.667-18.075a.81.81,0,0,1,.809.809.81.81,0,0,1-.809.809.81.81,0,0,1-.809-.809.81.81,0,0,1,.809-.809m0,3.543a2.737,2.737,0,0,0,2.734-2.734A2.737,2.737,0,0,0-25.667-20,2.737,2.737,0,0,0-28.4-17.266a2.737,2.737,0,0,0,2.734,2.734" transform="translate(28.401 20)"/>
          </g>
          <g id="g5262" transform="translate(41.979 4.832)">
            <path id="path5264" d="M-19.591-50.513A4.668,4.668,0,0,1-13.527-53.7a.9.9,0,0,1,.591.7.977.977,0,0,1-1.306,1.087,2.741,2.741,0,0,0-3.489,1.894,2.733,2.733,0,0,0,3.586,3.281.962.962,0,0,1,1.239.573.964.964,0,0,1-.574,1.234,4.658,4.658,0,0,1-5.643-2.047,4.627,4.627,0,0,1-.468-3.539m6.771,7.395a2.891,2.891,0,0,0,1.723-3.7,2.886,2.886,0,0,0-3.717-1.718.807.807,0,0,1-1.057-.977.815.815,0,0,1,1.037-.56,2.9,2.9,0,0,0,3.793-3.261,2.811,2.811,0,0,0-1.843-2.178,6.6,6.6,0,0,0-8.567,4.5,6.539,6.539,0,0,0,.661,5,6.581,6.581,0,0,0,7.969,2.891" transform="translate(21.678 55.894)"/>
          </g>
          <g id="g5266" transform="translate(26.541 0)">
            <path id="path5268" d="M-18.075-27.112a.964.964,0,0,1,.963-.963.964.964,0,0,1,.963.963V-25.8a.963.963,0,0,0,.963.963h2.155a4.64,4.64,0,0,1,4.61,4.66,4.64,4.64,0,0,1-4.61,4.659h-4.1a.968.968,0,0,1-.946-.963Zm.963,13.517h4.081A6.568,6.568,0,0,0-6.5-20.181a6.568,6.568,0,0,0-6.535-6.585h-1.192v-.346A2.891,2.891,0,0,0-17.112-30,2.891,2.891,0,0,0-20-27.112v10.656a2.9,2.9,0,0,0,2.888,2.86" transform="translate(20 30)"/>
          </g>
          <g id="g5270" transform="translate(30.392 7.085)">
            <path id="path5272" d="M-18.075-18.075h1.192a.786.786,0,0,1,.759.809.786.786,0,0,1-.759.809h-1.192Zm-.963,3.543h2.155A2.713,2.713,0,0,0-14.2-17.266,2.713,2.713,0,0,0-16.882-20h-2.155a.963.963,0,0,0-.963.963v3.543a.963.963,0,0,0,.963.963" transform="translate(20 20)"/>
          </g>
          <g id="g5274" transform="translate(8.639 18.443)">
            <path id="path5276" d="M-61.8-192.947l15.917,0h.018a21.114,21.114,0,0,0,11.011-3.314,15.465,15.465,0,0,0,8.336,3.281,17.689,17.689,0,0,1-17.642,16.74,17.688,17.688,0,0,1-17.639-16.7m28.708-4.567a21.777,21.777,0,0,0,4.476-4.787,17.567,17.567,0,0,1,2.09,7.384,13.459,13.459,0,0,1-6.674-2.514l.107-.083m-11.065,26.1a6.544,6.544,0,0,1-3.408-3.2,19.628,19.628,0,0,0,3.4.3,19.63,19.63,0,0,0,3.405-.3,6.552,6.552,0,0,1-3.4,3.2m-19.259-18.879a3.673,3.673,0,0,1-3.042-3.616,3.673,3.673,0,0,1,3.044-3.616,19.574,19.574,0,0,0-.338,3.616h0a19.624,19.624,0,0,0,.336,3.616m38.512-7.232a3.673,3.673,0,0,1,3.041,3.616,3.672,3.672,0,0,1-3.042,3.616,19.621,19.621,0,0,0,.336-3.616h0a19.681,19.681,0,0,0-.335-3.615m-24.668,23.119c1.261,3.251,4.306,4.918,5.411,4.918,1.086,0,4.56-1.786,5.663-5.665A19.674,19.674,0,0,0-25.383-188.32a5.591,5.591,0,0,0,5.445-5.589A5.591,5.591,0,0,0-25.38-199.5a19.476,19.476,0,0,0-2.088-4.665,21.631,21.631,0,0,0,1.845-4.467,2.63,2.63,0,0,0-3.969-2.932,23.783,23.783,0,0,1-3.15,1.733A19.4,19.4,0,0,0-44.161-213.5,19.4,19.4,0,0,0-56.1-209.443a.987.987,0,0,0-.273,1.275.963.963,0,0,0,1.419.273,17.49,17.49,0,0,1,10.793-3.68,17.492,17.492,0,0,1,9.246,2.609,23.532,23.532,0,0,1-7.148,1.253.984.984,0,0,0-.972.948.961.961,0,0,0,.981.977,25.533,25.533,0,0,0,13.515-4.164.705.705,0,0,1,1.064.791,19.509,19.509,0,0,1-18.419,14.285l-15.907,0a17.671,17.671,0,0,1,4.183-10.482.988.988,0,0,0-.059-1.362.962.962,0,0,0-1.382.084,19.582,19.582,0,0,0-3.879,7.133,5.591,5.591,0,0,0-5.447,5.589,5.591,5.591,0,0,0,5.445,5.589,19.682,19.682,0,0,0,11.79,12.713,11.065,11.065,0,0,0-3.922,8.407.988.988,0,0,0,1.027.975l19.775,0a.973.973,0,0,0,1.018-1,11.111,11.111,0,0,0-2.046-6.345.963.963,0,0,0-1.412-.179.955.955,0,0,0-.161,1.279,8.995,8.995,0,0,1,1.643,4.321h-2.028v-.887a.989.989,0,0,0-.933-1,.963.963,0,0,0-.992.962v.928H-49.193v-.887a.989.989,0,0,0-.933-1,.963.963,0,0,0-.992.962v.928h-1.974a9.132,9.132,0,0,1,3.52-6.255" transform="translate(68.384 213.501)"/>
          </g>
          <g id="g5278" transform="translate(48.546 48.585)">
            <path id="path5280" d="M-108.447-97.562a4.819,4.819,0,0,1-4.814,4.814,4.819,4.819,0,0,1-4.814-4.814V-100.2h1.925v.326a2.891,2.891,0,0,0,2.888,2.888,2.891,2.891,0,0,0,2.888-2.888v-.381h1.925Zm-5.776-8.369v1.993a2.91,2.91,0,0,0-1.765,1.814h-1.991a4.856,4.856,0,0,1,3.756-3.807m.962,3.753a.962.962,0,0,1,.963.963v1.343a.964.964,0,0,1-.963.963.964.964,0,0,1-.963-.963v-1.289a1,1,0,0,1,.962-1.017m.963-3.754a4.828,4.828,0,0,1,3.754,3.754h-2a2.885,2.885,0,0,0-1.758-1.761Zm-.963-2.022A6.774,6.774,0,0,0-120-101.161v3.6a6.747,6.747,0,0,0,6.739,6.739,6.747,6.747,0,0,0,6.739-6.739v-3.654a6.747,6.747,0,0,0-6.739-6.739" transform="translate(120 107.954)"/>
          </g>
          <g id="g5282" transform="translate(3.697 41.256)">
            <path id="path5284" d="M-71.793-96.645l-.8.246a.963.963,0,0,0-.639,1.2l.526,1.721a.962.962,0,0,1-.685,1.215,1.007,1.007,0,0,1-1.172-.7l-.51-1.669a.963.963,0,0,0-1.2-.639l-.8.246a.337.337,0,0,1-.433-.3v-9.258a.408.408,0,0,1,.752-.236l5.144,7.693h0a.32.32,0,0,1-.173.485m-3.37-9.248a2.334,2.334,0,0,0-4.278,1.31v9.258a2.262,2.262,0,0,0,2.8,2.172l.23.752A2.924,2.924,0,0,0-72.919-90.4a2.888,2.888,0,0,0,2.051-3.644l-.246-.8A2.245,2.245,0,0,0-70.02-98.2Z" transform="translate(79.441 106.94)"/>
          </g>
        </g>
      </g>
    </g>
  </g>
</svg>
