<svg xmlns="http://www.w3.org/2000/svg" xmlns:xlink="http://www.w3.org/1999/xlink" width="108" height="108" viewBox="0 0 108 108">
  <defs>
    <filter id="Trazado_978624" x="0" y="0" width="108" height="108" filterUnits="userSpaceOnUse">
      <feOffset dy="3" input="SourceAlpha"/>
      <feGaussianBlur stdDeviation="3" result="blur"/>
      <feFlood flood-opacity="0.161"/>
      <feComposite operator="in" in2="blur"/>
      <feComposite in="SourceGraphic"/>
    </filter>
  </defs>
  <g id="Grupo_1172395" data-name="Grupo 1172395" transform="translate(-196 -1278.212)">
    <g id="Grupo_1171908" data-name="Grupo 1171908" transform="translate(205 1284.212)">
      <g id="Grupo_1164581" data-name="Grupo 1164581">
        <g id="Grupo_1144123" data-name="Grupo 1144123">
          <g transform="matrix(1, 0, 0, 1, -9, -6)" filter="url(#Trazado_978624)">
            <g id="Trazado_978624-2" data-name="Trazado 978624" transform="translate(9 6)" fill="#f4fdfe">
              <path d="M 45 88.5 C 39.12687683105469 88.5 33.43022537231445 87.35007476806641 28.06830024719238 85.08217620849609 C 22.88852500915527 82.89131164550781 18.23629951477051 79.75458526611328 14.2408504486084 75.75914764404297 C 10.24541282653809 71.76370239257812 7.108687400817871 67.11147308349609 4.917825222015381 61.93170166015625 C 2.649924993515015 56.56977462768555 1.5 50.87312316894531 1.5 45 C 1.5 39.12687683105469 2.649924993515015 33.43022537231445 4.917825222015381 28.06830024719238 C 7.108687400817871 22.88852500915527 10.24541282653809 18.23629951477051 14.2408504486084 14.2408504486084 C 18.23629951477051 10.24541282653809 22.88852500915527 7.108687400817871 28.06830024719238 4.917825222015381 C 33.43022537231445 2.649924993515015 39.12687683105469 1.5 45 1.5 C 50.87312316894531 1.5 56.56977462768555 2.649924993515015 61.93170166015625 4.917825222015381 C 67.11147308349609 7.108687400817871 71.76370239257812 10.24541282653809 75.75914764404297 14.2408504486084 C 79.75458526611328 18.23629951477051 82.89131164550781 22.88852500915527 85.08217620849609 28.06830024719238 C 87.35007476806641 33.43022537231445 88.5 39.12687683105469 88.5 45 C 88.5 50.87312316894531 87.35007476806641 56.56977462768555 85.08217620849609 61.93170166015625 C 82.89131164550781 67.11147308349609 79.75458526611328 71.76370239257812 75.75914764404297 75.75914764404297 C 71.76370239257812 79.75458526611328 67.11147308349609 82.89131164550781 61.93170166015625 85.08217620849609 C 56.56977462768555 87.35007476806641 50.87312316894531 88.5 45 88.5 Z" stroke="none"/>
              <path d="M 45 3 C 39.32871246337891 3 33.82865524291992 4.110054016113281 28.65262985229492 6.299339294433594 C 23.65165710449219 8.414573669433594 19.15968322753906 11.44334411621094 15.301513671875 15.301513671875 C 11.44334411621094 19.15968322753906 8.414573669433594 23.65165710449219 6.299339294433594 28.65262985229492 C 4.110054016113281 33.82865524291992 3 39.32871246337891 3 45 C 3 50.67128753662109 4.110054016113281 56.17134475708008 6.299339294433594 61.34737396240234 C 8.414573669433594 66.34834289550781 11.44334411621094 70.84031677246094 15.301513671875 74.698486328125 C 19.15968322753906 78.55665588378906 23.65165710449219 81.58542633056641 28.65262985229492 83.70066070556641 C 33.82865524291992 85.88994598388672 39.32871246337891 87 45 87 C 50.67128753662109 87 56.17134475708008 85.88994598388672 61.34737396240234 83.70066070556641 C 66.34834289550781 81.58542633056641 70.84031677246094 78.55665588378906 74.698486328125 74.698486328125 C 78.55665588378906 70.84031677246094 81.58542633056641 66.34834289550781 83.70066070556641 61.34737396240234 C 85.88994598388672 56.17134475708008 87 50.67128753662109 87 45 C 87 39.32871246337891 85.88994598388672 33.82865524291992 83.70066070556641 28.65262985229492 C 81.58542633056641 23.65165710449219 78.55665588378906 19.15968322753906 74.698486328125 15.301513671875 C 70.84031677246094 11.44334411621094 66.34834289550781 8.414573669433594 61.34737396240234 6.299339294433594 C 56.17134475708008 4.110054016113281 50.67128753662109 3 45 3 M 45 0 C 69.85281372070312 0 90 20.14718627929688 90 45 C 90 69.85281372070312 69.85281372070312 90 45 90 C 20.14718627929688 90 0 69.85281372070312 0 45 C 0 20.14718627929688 20.14718627929688 0 45 0 Z" stroke="none" fill="#56838a"/>
            </g>
          </g>
        </g>
      </g>
    </g>
    <g id="speech-therapy_10216068" transform="translate(216.712 1295.712)">
      <g id="Grupo_1172393" data-name="Grupo 1172393" transform="translate(7.5 7.5)">
        <path id="Trazado_1026489" data-name="Trazado 1026489" d="M94.752,197.676v6.5a9.521,9.521,0,1,0,19.041,0v-6.5H99.512a1.592,1.592,0,0,1-1.587-1.587H96.339a1.592,1.592,0,0,0-1.587,1.587Zm11.9,11.791h-4.76V207.88a1.592,1.592,0,0,1,1.587-1.587h1.587a1.592,1.592,0,0,1,1.587,1.587Z" transform="translate(-85.522 -176.139)" fill="#ffd9ab" fill-rule="evenodd"/>
        <path id="Trazado_1026490" data-name="Trazado 1026490" d="M167.01,295.726v-1.587a1.592,1.592,0,0,0-1.587-1.587h-1.587a1.591,1.591,0,0,0-1.587,1.587v1.587Z" transform="translate(-145.88 -262.397)" fill="#ff5678" fill-rule="evenodd"/>
        <path id="Trazado_1026491" data-name="Trazado 1026491" d="M272,23.173a1.592,1.592,0,0,0,1.587,1.587h7.537a2.38,2.38,0,0,0,4.76,0h9.124a1.591,1.591,0,0,0,1.587-1.587V7.5H272Z" transform="translate(-244.02 -7.5)" fill="#fff" fill-rule="evenodd"/>
        <path id="Trazado_1026492" data-name="Trazado 1026492" d="M20.726,376.087l-6.879,3.174c-3.17,1.462-6.347,2.857-6.347,6.347v4.064H45v-4.064c0-3.49-3.178-4.885-6.347-6.347l-6.879-3.174a5.525,5.525,0,1,1-11.049,0Z" transform="translate(-7.5 -337.095)" fill="#f696c3" fill-rule="evenodd"/>
        <path id="Trazado_1026493" data-name="Trazado 1026493" d="M132.525,352.925a5.525,5.525,0,0,0,11.05,0l-.73-2.74a9.464,9.464,0,0,1-9.59,0Z" transform="translate(-119.299 -313.934)" fill="#ffd9ab" fill-rule="evenodd"/>
        <path id="Trazado_1026494" data-name="Trazado 1026494" d="M10.4,422.727c-1.68,1.068-2.9,2.425-2.9,4.587v4.064H9.88v-6.444A4.674,4.674,0,0,1,10.4,422.727Z" transform="translate(-7.5 -378.802)" fill="#f072ae" fill-rule="evenodd"/>
        <path id="Trazado_1026495" data-name="Trazado 1026495" d="M272,23.173a1.592,1.592,0,0,0,1.587,1.587h2.38a1.592,1.592,0,0,1-1.587-1.587V7.5H272Z" transform="translate(-244.02 -7.5)" fill="#83f2f8" fill-rule="evenodd"/>
        <path id="Trazado_1026496" data-name="Trazado 1026496" d="M85.37,265.934H83.783v.151a9.542,9.542,0,0,1-4.725,8.216l.729,2.74,5.165,2.383c3.669-3.349,2-7.791,2-14.1a2.37,2.37,0,0,1-1.587.61Zm-15.9,8.367a9.542,9.542,0,0,1-4.725-8.216v-.151H63.155a2.37,2.37,0,0,1-1.587-.61c0,6.309-1.664,10.751,2,14.1l5.165-2.383Z" transform="translate(-55.512 -238.05)" fill="#a1c5e4" fill-rule="evenodd"/>
        <path id="Trazado_1026497" data-name="Trazado 1026497" d="M63.943,265.934h-.788a2.37,2.37,0,0,1-1.587-.61c0,6.309-1.664,10.751,2,14.1l1.651-.762C62.617,275.522,63.853,271.463,63.943,265.934Z" transform="translate(-55.512 -238.05)" fill="#4796c6" fill-rule="evenodd"/>
        <path id="Trazado_1026498" data-name="Trazado 1026498" d="M90.14,74.262V70.087c0-.261-.009-.521-.025-.778H88.263a1.592,1.592,0,0,1-1.587-1.587V61.391a12.682,12.682,0,0,0-21.924,8.7v4.175a2.369,2.369,0,0,1,1.587-.61h1.587a1.591,1.591,0,0,1,1.587-1.587H71.1a1.591,1.591,0,0,0,1.587,1.587H88.554A2.369,2.369,0,0,1,90.14,74.262Z" transform="translate(-58.695 -52.115)" fill="#a1c5e4" fill-rule="evenodd"/>
        <path id="Trazado_1026499" data-name="Trazado 1026499" d="M78.635,57.449c-.392-.037-.789-.056-1.19-.056A12.724,12.724,0,0,0,64.751,70.087v4.175a2.369,2.369,0,0,1,1.587-.61h.793V70.087A12.729,12.729,0,0,1,78.635,57.449Z" transform="translate(-58.695 -52.115)" fill="#4796c6" fill-rule="evenodd"/>
        <path id="Trazado_1026500" data-name="Trazado 1026500" d="M61.218,217.435v-6.347H59.631a2.387,2.387,0,0,0-2.38,2.38v1.587a2.387,2.387,0,0,0,2.38,2.38h1.587Zm19.041-6.347v6.347h1.587a2.387,2.387,0,0,0,2.38-2.38v-1.587a2.387,2.387,0,0,0-2.38-2.38H80.259Z" transform="translate(-51.988 -189.551)" fill="#ffaf7c" fill-rule="evenodd"/>
        <path id="Trazado_1026501" data-name="Trazado 1026501" d="M94.752,197.677v6.5a9.519,9.519,0,0,0,10.711,9.446,9.555,9.555,0,0,1-8.331-9.446V196.09h-.793A1.591,1.591,0,0,0,94.752,197.677Z" transform="translate(-85.522 -176.14)" fill="#ffaf7c" fill-rule="evenodd"/>
        <path id="Trazado_1026502" data-name="Trazado 1026502" d="M132.525,352.924a5.5,5.5,0,0,0,1.355,3.624l1.5-5.443a9.475,9.475,0,0,1-2.126-.921Z" transform="translate(-119.299 -313.933)" fill="#ffaf7c" fill-rule="evenodd"/>
        <circle id="Elipse_12330" data-name="Elipse 12330" cx="2.38" cy="2.38" r="2.38" transform="translate(37.105 22.813)" fill="#83f2f8"/>
        <circle id="Elipse_12331" data-name="Elipse 12331" cx="1.587" cy="1.587" r="1.587" transform="translate(34.848 29.954)" fill="#83f2f8"/>
        <path id="Trazado_1026503" data-name="Trazado 1026503" d="M210.565,88.979V87.392m3.174,3.174V88.979" transform="translate(-189.083 -78.94)" fill="none" stroke="#fff" stroke-miterlimit="22.926" stroke-width="1.5"/>
      </g>
      <g id="Grupo_1172394" data-name="Grupo 1172394" transform="translate(7.5 7.5)">
        <path id="Trazado_1026504" data-name="Trazado 1026504" d="M31.776,376.087l6.879,3.174c3.169,1.462,6.347,2.857,6.347,6.347v4.064H41.035m-1.587,0H7.5v-4.064c0-3.491,3.178-4.885,6.347-6.347l6.879-3.174" transform="translate(-7.5 -337.095)" fill="none" stroke="#000" stroke-miterlimit="22.926" stroke-width="1.5"/>
        <path id="Trazado_1026505" data-name="Trazado 1026505" d="M143.575,376.087a5.525,5.525,0,0,1-11.05,0" transform="translate(-119.299 -337.095)" fill="none" stroke="#000" stroke-miterlimit="22.926" stroke-width="1.5"/>
        <path id="Trazado_1026506" data-name="Trazado 1026506" d="M61.568,74.262V70.087a12.637,12.637,0,0,1,3.167-8.369M86.957,79.389c0,6.309,1.664,10.751-2,14.1m-23.384-14.1c0,6.309-1.664,10.751,2,14.1m2.321-32.93a12.648,12.648,0,0,1,17.6.831m3.444,7.983c.013.236.021.474.021.713v4.175" transform="translate(-55.512 -52.115)" fill="none" stroke="#000" stroke-miterlimit="22.926" stroke-width="1.5"/>
        <path id="Trazado_1026507" data-name="Trazado 1026507" d="M124.751,244.106a1.587,1.587,0,0,1,3.025-.671" transform="translate(-112.347 -217.657)" fill="none" stroke="#000" stroke-miterlimit="22.926" stroke-width="1.5"/>
        <path id="Trazado_1026508" data-name="Trazado 1026508" d="M219.179,244.106a1.587,1.587,0,0,0-3.025-.671" transform="translate(-194.081 -217.657)" fill="none" stroke="#000" stroke-miterlimit="22.926" stroke-width="1.5"/>
        <path id="Trazado_1026509" data-name="Trazado 1026509" d="M296.6,7.5V23.173a1.591,1.591,0,0,1-1.587,1.587h-9.124a2.38,2.38,0,1,1-4.76,0h-7.537A1.592,1.592,0,0,1,272,23.173V7.5Z" transform="translate(-244.021 -7.5)" fill="none" stroke="#000" stroke-miterlimit="22.926" stroke-width="1.5"/>
        <path id="Trazado_1026510" data-name="Trazado 1026510" d="M133.255,350.185l-.73,2.74m11.05,0-.73-2.74" transform="translate(-119.299 -313.934)" fill="none" stroke="#000" stroke-miterlimit="22.926" stroke-width="1.5"/>
        <path id="Trazado_1026511" data-name="Trazado 1026511" d="M80.259,197.676v6.5a9.521,9.521,0,1,1-19.041,0v-6.5a1.591,1.591,0,0,1,1.587-1.587h1.587a1.591,1.591,0,0,0,1.587,1.587H81.846a2.387,2.387,0,0,1,2.38,2.38v1.587a2.387,2.387,0,0,1-2.38,2.38H80.259m-19.041-6.347H59.631a2.387,2.387,0,0,0-2.38,2.38v1.587a2.387,2.387,0,0,0,2.38,2.38h1.587" transform="translate(-51.988 -176.139)" fill="none" stroke="#000" stroke-miterlimit="22.926" stroke-width="1.5"/>
        <path id="Trazado_1026512" data-name="Trazado 1026512" d="M163.837,292.551h1.587a1.591,1.591,0,0,1,1.587,1.587v1.587h-4.76v-1.587A1.591,1.591,0,0,1,163.837,292.551Z" transform="translate(-145.88 -262.396)" fill="none" stroke="#000" stroke-miterlimit="22.926" stroke-width="1.5"/>
        <path id="Trazado_1026513" data-name="Trazado 1026513" d="M308.835,66.372l2.32-6.092h.259l2.3,6.093" transform="translate(-276.958 -54.696)" fill="none" stroke="#000" stroke-linecap="square" stroke-miterlimit="10" stroke-width="1.5"/>
        <line id="Línea_757" data-name="Línea 757" x2="3.443" transform="translate(32.601 10.159)" fill="none" stroke="#000" stroke-linecap="round" stroke-linejoin="bevel" stroke-miterlimit="10" stroke-width="1.5"/>
        <line id="Línea_758" data-name="Línea 758" x1="1.587" transform="translate(39.485 11.676)" fill="none" stroke="#000" stroke-miterlimit="22.926" stroke-width="1.5"/>
        <path id="Trazado_1026514" data-name="Trazado 1026514" d="M426.426,66.372l-2.32-6.092h-.259l-2.3,6.093" transform="translate(-377.746 -54.696)" fill="none" stroke="#000" stroke-linecap="square" stroke-miterlimit="10" stroke-width="1.5"/>
        <line id="Línea_759" data-name="Línea 759" x1="3.443" transform="translate(44.513 10.159)" fill="none" stroke="#000" stroke-linecap="round" stroke-linejoin="bevel" stroke-miterlimit="10" stroke-width="1.5"/>
        <circle id="Elipse_12332" data-name="Elipse 12332" cx="1.587" cy="1.587" r="1.587" transform="translate(34.848 29.954)" fill="none" stroke="#000" stroke-miterlimit="22.926" stroke-width="1.5"/>
        <circle id="Elipse_12333" data-name="Elipse 12333" cx="2.38" cy="2.38" r="2.38" transform="translate(37.105 22.813)" fill="none" stroke="#000" stroke-miterlimit="22.926" stroke-width="1.5"/>
      </g>
    </g>
  </g>
</svg>
