<svg xmlns="http://www.w3.org/2000/svg" xmlns:xlink="http://www.w3.org/1999/xlink" width="113" height="113" viewBox="0 0 113 113">
  <defs>
    <filter id="Trazado_982547" x="0" y="0" width="113" height="113" filterUnits="userSpaceOnUse">
      <feOffset dy="3" input="SourceAlpha"/>
      <feGaussianBlur stdDeviation="3" result="blur"/>
      <feFlood flood-opacity="0.161"/>
      <feComposite operator="in" in2="blur"/>
      <feComposite in="SourceGraphic"/>
    </filter>
  </defs>
  <g id="Grupo_1172458" data-name="Grupo 1172458" transform="translate(-585.5 -3042.645)">
    <g id="Grupo_1172007" data-name="Grupo 1172007" transform="translate(0 1744.5)">
      <g id="Grupo_1171047" data-name="Grupo 1171047" transform="translate(594.5 1304.145)">
        <g id="Grupo_1148525" data-name="Grupo 1148525" transform="translate(0)">
          <g transform="matrix(1, 0, 0, 1, -9, -6)" filter="url(#Trazado_982547)">
            <g id="Trazado_982547-2" data-name="Trazado 982547" transform="translate(9 6)" fill="#f4fdfe">
              <path d="M 47.5 93.5 C 41.28937149047852 93.5 35.26533508300781 92.28397369384766 29.59518623352051 89.88570404052734 C 24.11771965026855 87.56893157958984 19.19813346862793 84.25196075439453 14.97309303283691 80.02691650390625 C 10.74804019927979 75.80186462402344 7.431066513061523 70.88229370117188 5.114293098449707 65.40481567382812 C 2.716026782989502 59.73468017578125 1.5 53.71062850952148 1.5 47.5 C 1.5 41.28937149047852 2.716026782989502 35.26533508300781 5.114293098449707 29.59518623352051 C 7.431066513061523 24.11771965026855 10.74804019927979 19.19813346862793 14.97309303283691 14.97309303283691 C 19.19813346862793 10.74804019927979 24.11771965026855 7.431066513061523 29.59518623352051 5.114293098449707 C 35.26533508300781 2.716026782989502 41.28937149047852 1.5 47.5 1.5 C 53.71062850952148 1.5 59.73468017578125 2.716026782989502 65.40481567382812 5.114293098449707 C 70.88229370117188 7.431066513061523 75.80186462402344 10.74804019927979 80.02691650390625 14.97309303283691 C 84.25196075439453 19.19813346862793 87.56893157958984 24.11771965026855 89.88570404052734 29.59518623352051 C 92.28397369384766 35.26533508300781 93.5 41.28937149047852 93.5 47.5 C 93.5 53.71062850952148 92.28397369384766 59.73468017578125 89.88570404052734 65.40481567382812 C 87.56893157958984 70.88229370117188 84.25196075439453 75.80186462402344 80.02691650390625 80.02691650390625 C 75.80186462402344 84.25196075439453 70.88229370117188 87.56893157958984 65.40481567382812 89.88570404052734 C 59.73468017578125 92.28397369384766 53.71062850952148 93.5 47.5 93.5 Z" stroke="none"/>
              <path d="M 47.5 3 C 41.49121475219727 3 35.66376876831055 4.176155090332031 30.17950439453125 6.495796203613281 C 24.88084411621094 8.736953735351562 20.12152099609375 11.94598388671875 16.03375244140625 16.03375244140625 C 11.94598388671875 20.12152099609375 8.736953735351562 24.88084411621094 6.495796203613281 30.17950439453125 C 4.176155090332031 35.66376876831055 3 41.49121475219727 3 47.5 C 3 53.50878524780273 4.176155090332031 59.33623123168945 6.495796203613281 64.82049560546875 C 8.736953735351562 70.11915588378906 11.94598388671875 74.87847900390625 16.03375244140625 78.96624755859375 C 20.12152099609375 83.05401611328125 24.88084411621094 86.26304626464844 30.17950439453125 88.50419616699219 C 35.66376876831055 90.82384490966797 41.49121475219727 92 47.5 92 C 53.50878524780273 92 59.33623123168945 90.82384490966797 64.82049560546875 88.50419616699219 C 70.11915588378906 86.26304626464844 74.87847900390625 83.05401611328125 78.96624755859375 78.96624755859375 C 83.05401611328125 74.87847900390625 86.26304626464844 70.11915588378906 88.50419616699219 64.82049560546875 C 90.82384490966797 59.33623123168945 92 53.50878524780273 92 47.5 C 92 41.49121475219727 90.82384490966797 35.66376876831055 88.50419616699219 30.17950439453125 C 86.26304626464844 24.88084411621094 83.05401611328125 20.12152099609375 78.96624755859375 16.03375244140625 C 74.87847900390625 11.94598388671875 70.11915588378906 8.736953735351562 64.82049560546875 6.495796203613281 C 59.33623123168945 4.176155090332031 53.50878524780273 3 47.5 3 M 47.5 0 C 73.7335205078125 0 95 21.2664794921875 95 47.5 C 95 73.7335205078125 73.7335205078125 95 47.5 95 C 21.2664794921875 95 0 73.7335205078125 0 47.5 C 0 21.2664794921875 21.2664794921875 0 47.5 0 Z" stroke="none" fill="#56838a"/>
            </g>
          </g>
        </g>
      </g>
    </g>
    <g id="artificial-intelligence_4025567" transform="translate(611 3065)">
      <g id="Grupo_1172456" data-name="Grupo 1172456">
        <g id="Grupo_1172448" data-name="Grupo 1172448">
          <path id="Trazado_1026624" data-name="Trazado 1026624" d="M51,35a6.016,6.016,0,0,1-3.25,5.34A5.91,5.91,0,0,1,49,44a6,6,0,0,1-6,6,6,6,0,0,1-12,0V12A6,6,0,0,1,41.84,8.45l-1.53,1.91A5.976,5.976,0,0,0,39,14.1V27a2.006,2.006,0,0,0,2,2,2.015,2.015,0,0,0,2-2v2a2.015,2.015,0,0,0,2,2,2.006,2.006,0,0,0,2-2v4a2.015,2.015,0,0,0,2,2,2.006,2.006,0,0,0,2-2Z" fill="#ecc19c"/>
        </g>
        <g id="Grupo_1172449" data-name="Grupo 1172449">
          <path id="Trazado_1026625" data-name="Trazado 1026625" d="M11,27a6,6,0,0,1,3.25-5.33A6,6,0,0,1,19,12a6,6,0,0,1,12,0V50a6,6,0,0,1-10.84,3.55l1.53-1.91A5.976,5.976,0,0,0,23,47.9V35a2.006,2.006,0,0,0-2-2,2.015,2.015,0,0,0-2,2V33a2.015,2.015,0,0,0-2-2,2.006,2.006,0,0,0-2,2V29a2.015,2.015,0,0,0-2-2,2.006,2.006,0,0,0-2,2Z" fill="#ecc19c"/>
        </g>
        <g id="Grupo_1172450" data-name="Grupo 1172450">
          <path id="Trazado_1026626" data-name="Trazado 1026626" d="M17,47v2.77A10.233,10.233,0,0,0,13,49a10.233,10.233,0,0,0-4,.77V47a2.006,2.006,0,0,1,2-2h4A2.006,2.006,0,0,1,17,47Z" fill="#ffeaa7"/>
        </g>
        <g id="Grupo_1172451" data-name="Grupo 1172451">
          <path id="Trazado_1026627" data-name="Trazado 1026627" d="M9,49.77A10.233,10.233,0,0,1,13,49a10.233,10.233,0,0,1,4,.77A6.69,6.69,0,0,1,19,51V61H7V51A6.69,6.69,0,0,1,9,49.77Z" fill="#fcd770"/>
        </g>
        <g id="Grupo_1172452" data-name="Grupo 1172452">
          <circle id="Elipse_12349" data-name="Elipse 12349" cx="2" cy="2" r="2" transform="translate(11 53)" fill="#969faa"/>
        </g>
        <g id="Grupo_1172453" data-name="Grupo 1172453">
          <path id="Trazado_1026628" data-name="Trazado 1026628" d="M43,1H55V7H43Z" fill="#ff826e"/>
        </g>
        <g id="Grupo_1172454" data-name="Grupo 1172454">
          <path id="Trazado_1026629" data-name="Trazado 1026629" d="M55,21.62V29a2.006,2.006,0,0,1-2,2,2.015,2.015,0,0,1-2-2v4a2.006,2.006,0,0,1-2,2,2.015,2.015,0,0,1-2-2V29a2.006,2.006,0,0,1-2,2,2.015,2.015,0,0,1-2-2V27a2.015,2.015,0,0,1-2,2,2.006,2.006,0,0,1-2-2V14.1a5.976,5.976,0,0,1,1.31-3.74l1.53-1.91L43,7H55l2.69,3.36A5.976,5.976,0,0,1,59,14.1v4.48a6.108,6.108,0,0,0,.63,2.69l1.2,2.39A1.618,1.618,0,0,1,59.38,26,4.37,4.37,0,0,1,55,21.62Z" fill="#f0d0b4"/>
        </g>
        <g id="Grupo_1172455" data-name="Grupo 1172455">
          <path id="Trazado_1026630" data-name="Trazado 1026630" d="M11,33V29a2.006,2.006,0,0,1,2-2,2.015,2.015,0,0,1,2,2v4a2.006,2.006,0,0,1,2-2,2.015,2.015,0,0,1,2,2v2a2.015,2.015,0,0,1,2-2,2.006,2.006,0,0,1,2,2V47.9a5.976,5.976,0,0,1-1.31,3.74l-1.53,1.91L19,55V51a6.69,6.69,0,0,0-2-1.23V47a2.006,2.006,0,0,0-2-2H11a2.006,2.006,0,0,0-2,2v2.77A6.69,6.69,0,0,0,7,51v4L4.31,51.64A5.976,5.976,0,0,1,3,47.9V43.42a6.108,6.108,0,0,0-.63-2.69l-1.2-2.39A1.618,1.618,0,0,1,2.62,36,4.37,4.37,0,0,1,7,40.38V33a2.006,2.006,0,0,1,2-2,2.015,2.015,0,0,1,2,2Z" fill="#f0d0b4"/>
        </g>
      </g>
      <g id="Grupo_1172457" data-name="Grupo 1172457">
        <path id="Trazado_1026631" data-name="Trazado 1026631" d="M10,55a3,3,0,1,0,3-3A3,3,0,0,0,10,55Zm4,0a1,1,0,1,1-1-1A1,1,0,0,1,14,55Z"/>
        <path id="Trazado_1026632" data-name="Trazado 1026632" d="M50,44a6.965,6.965,0,0,0-.862-3.361A6.968,6.968,0,0,0,52,35V31.816A2.966,2.966,0,0,0,53,32a3,3,0,0,0,3-3V25.77A5.326,5.326,0,0,0,59.382,27a2.619,2.619,0,0,0,2.342-3.789l-1.2-2.391A5.036,5.036,0,0,1,60,18.583V14.1a7.029,7.029,0,0,0-1.534-4.373L56,6.65V0H42V6.65l-.211.263A6.978,6.978,0,0,0,31,8.4a6.994,6.994,0,0,0-12.931,2.672A7.006,7.006,0,0,0,12,18a6.922,6.922,0,0,0,.865,3.365A6.988,6.988,0,0,0,10,27v3.184A2.966,2.966,0,0,0,9,30a3,3,0,0,0-3,3v3.23A5.326,5.326,0,0,0,2.618,35,2.619,2.619,0,0,0,.276,38.789l1.2,2.391A5.036,5.036,0,0,1,2,43.417V47.9a7.029,7.029,0,0,0,1.534,4.373L6,55.35V62H20V55.35l.211-.263A6.978,6.978,0,0,0,31,53.6a7,7,0,0,0,12.938-2.666A7.01,7.01,0,0,0,50,44Zm8-29.9v4.479a7.031,7.031,0,0,0,.739,3.131l1.2,2.391a.619.619,0,0,1-.553.9A3.386,3.386,0,0,1,56,21.618V18H54V29a1,1,0,0,1-2,0V20H50V33a1,1,0,0,1-2,0V20H46v9a1,1,0,1,1-2,0V20H42v7a1,1,0,1,1-2,0V14.1a5.019,5.019,0,0,1,1.1-3.124L43.48,8H54.52L56.9,10.981A5.023,5.023,0,0,1,58,14.1ZM44,2H54V6H44ZM5.1,51.019A5.018,5.018,0,0,1,4,47.9V43.417a7.031,7.031,0,0,0-.739-3.131L2.065,37.9a.619.619,0,0,1,.553-.9A3.386,3.386,0,0,1,6,40.382V44H8V33a1,1,0,1,1,2,0v9h2V29a1,1,0,0,1,2,0V42h2V33a1,1,0,0,1,2,0v9h2V35a1,1,0,0,1,2,0V47.9a5.019,5.019,0,0,1-1.1,3.124L20,52.149V50.585l-.293-.293A7.21,7.21,0,0,0,18,49.136V47a3,3,0,0,0-3-3H11a3,3,0,0,0-3,3v2.137a7.21,7.21,0,0,0-1.707,1.156L6,50.586V52.15ZM13,48a11.617,11.617,0,0,0-3,.384V47a1,1,0,0,1,1-1h4a1,1,0,0,1,1,1v1.384A11.616,11.616,0,0,0,13,48Zm5,12H8V51.466A8.309,8.309,0,0,1,13,50a8.308,8.308,0,0,1,5,1.465Zm7-5a5.016,5.016,0,0,1-3.538-1.478l1-1.254A7.019,7.019,0,0,0,24,47.9V35a2.99,2.99,0,0,0-4.116-2.78A2.95,2.95,0,0,0,16,30.184V29a3,3,0,0,0-3-3,2.953,2.953,0,0,0-.915.158A4.993,4.993,0,0,1,22,27h2a6.981,6.981,0,0,0-9.371-6.578,4.986,4.986,0,0,1,3.465-7.33A7,7,0,0,0,25,19V17a5,5,0,1,1,5-5V50A5.006,5.006,0,0,1,25,55Zm18-6H42v1a5,5,0,0,1-10,0V12a4.992,4.992,0,0,1,8.538-3.522l-1,1.254A7.019,7.019,0,0,0,38,14.1V27a2.99,2.99,0,0,0,4.116,2.78A2.95,2.95,0,0,0,46,31.816V33a3,3,0,0,0,3,3,2.964,2.964,0,0,0,.922-.16,4.973,4.973,0,0,1-1.985,3.2A7,7,0,0,0,36,44h2a5,5,0,1,1,5,5Z"/>
        <path id="Trazado_1026633" data-name="Trazado 1026633" d="M36,32a2,2,0,0,1,2,2h2a4,4,0,0,0-4-4Z"/>
        <path id="Trazado_1026634" data-name="Trazado 1026634" d="M36,23a1,1,0,0,1-1-1H33a3,3,0,0,0,3,3Z"/>
        <path id="Trazado_1026635" data-name="Trazado 1026635" d="M24,10v2a2,2,0,0,1,2,2h2A4,4,0,0,0,24,10Z"/>
        <path id="Trazado_1026636" data-name="Trazado 1026636" d="M18,26H16c0,1.682,1.757,3,4,3V27C18.779,27,18,26.408,18,26Z"/>
        <path id="Trazado_1026637" data-name="Trazado 1026637" d="M27,45H25a3,3,0,0,0,3,3V46A1,1,0,0,1,27,45Z"/>
        <path id="Trazado_1026638" data-name="Trazado 1026638" d="M35,47v2c1.221,0,2,.592,2,1h2C39,48.318,37.243,47,35,47Z"/>
        <path id="Trazado_1026639" data-name="Trazado 1026639" d="M42,42H40a4,4,0,0,0,4,4V44A2,2,0,0,1,42,42Z"/>
        <path id="Trazado_1026640" data-name="Trazado 1026640" d="M60,56H58v4H56V58H54v2H52V54H50v6H48.8l-1.826-8.217-1.952.434L47.2,62H62V60H60Z"/>
        <path id="Trazado_1026641" data-name="Trazado 1026641" d="M11.293,13.707l1.414-1.414L10.414,10H0v2H9.586Z"/>
        <path id="Trazado_1026642" data-name="Trazado 1026642" d="M0,6H10V8H0Z"/>
        <path id="Trazado_1026643" data-name="Trazado 1026643" d="M0,2H10V4H0Z"/>
      </g>
    </g>
  </g>
</svg>
