<svg xmlns="http://www.w3.org/2000/svg" xmlns:xlink="http://www.w3.org/1999/xlink" width="108" height="108" viewBox="0 0 108 108">
  <defs>
    <filter id="Trazado_978624" x="0" y="0" width="108" height="108" filterUnits="userSpaceOnUse">
      <feOffset dy="3" input="SourceAlpha"/>
      <feGaussianBlur stdDeviation="3" result="blur"/>
      <feFlood flood-opacity="0.161"/>
      <feComposite operator="in" in2="blur"/>
      <feComposite in="SourceGraphic"/>
    </filter>
  </defs>
  <g id="Grupo_1172416" data-name="Grupo 1172416" transform="translate(-627 -2600)">
    <g id="Grupo_1168543" data-name="Grupo 1168543" transform="translate(431 -4452)">
      <g id="Grupo_1164524" data-name="Grupo 1164524" transform="translate(205 7058)">
        <g id="Grupo_1144123" data-name="Grupo 1144123">
          <g transform="matrix(1, 0, 0, 1, -9, -6)" filter="url(#Trazado_978624)">
            <g id="Trazado_978624-2" data-name="Trazado 978624" transform="translate(9 6)" fill="#fefcf6">
              <path d="M 45 88.5 C 39.12687683105469 88.5 33.43022537231445 87.35007476806641 28.06830024719238 85.08217620849609 C 22.88852500915527 82.89131164550781 18.23629951477051 79.75458526611328 14.2408504486084 75.75914764404297 C 10.24541282653809 71.76370239257812 7.108687400817871 67.11147308349609 4.917825222015381 61.93170166015625 C 2.649924993515015 56.56977462768555 1.5 50.87312316894531 1.5 45 C 1.5 39.12687683105469 2.649924993515015 33.43022537231445 4.917825222015381 28.06830024719238 C 7.108687400817871 22.88852500915527 10.24541282653809 18.23629951477051 14.2408504486084 14.2408504486084 C 18.23629951477051 10.24541282653809 22.88852500915527 7.108687400817871 28.06830024719238 4.917825222015381 C 33.43022537231445 2.649924993515015 39.12687683105469 1.5 45 1.5 C 50.87312316894531 1.5 56.56977462768555 2.649924993515015 61.93170166015625 4.917825222015381 C 67.11147308349609 7.108687400817871 71.76370239257812 10.24541282653809 75.75914764404297 14.2408504486084 C 79.75458526611328 18.23629951477051 82.89131164550781 22.88852500915527 85.08217620849609 28.06830024719238 C 87.35007476806641 33.43022537231445 88.5 39.12687683105469 88.5 45 C 88.5 50.87312316894531 87.35007476806641 56.56977462768555 85.08217620849609 61.93170166015625 C 82.89131164550781 67.11147308349609 79.75458526611328 71.76370239257812 75.75914764404297 75.75914764404297 C 71.76370239257812 79.75458526611328 67.11147308349609 82.89131164550781 61.93170166015625 85.08217620849609 C 56.56977462768555 87.35007476806641 50.87312316894531 88.5 45 88.5 Z" stroke="none"/>
              <path d="M 45 3 C 39.32871246337891 3 33.82865524291992 4.110054016113281 28.65262985229492 6.299339294433594 C 23.65165710449219 8.414573669433594 19.15968322753906 11.44334411621094 15.301513671875 15.301513671875 C 11.44334411621094 19.15968322753906 8.414573669433594 23.65165710449219 6.299339294433594 28.65262985229492 C 4.110054016113281 33.82865524291992 3 39.32871246337891 3 45 C 3 50.67128753662109 4.110054016113281 56.17134475708008 6.299339294433594 61.34737396240234 C 8.414573669433594 66.34834289550781 11.44334411621094 70.84031677246094 15.301513671875 74.698486328125 C 19.15968322753906 78.55665588378906 23.65165710449219 81.58542633056641 28.65262985229492 83.70066070556641 C 33.82865524291992 85.88994598388672 39.32871246337891 87 45 87 C 50.67128753662109 87 56.17134475708008 85.88994598388672 61.34737396240234 83.70066070556641 C 66.34834289550781 81.58542633056641 70.84031677246094 78.55665588378906 74.698486328125 74.698486328125 C 78.55665588378906 70.84031677246094 81.58542633056641 66.34834289550781 83.70066070556641 61.34737396240234 C 85.88994598388672 56.17134475708008 87 50.67128753662109 87 45 C 87 39.32871246337891 85.88994598388672 33.82865524291992 83.70066070556641 28.65262985229492 C 81.58542633056641 23.65165710449219 78.55665588378906 19.15968322753906 74.698486328125 15.301513671875 C 70.84031677246094 11.44334411621094 66.34834289550781 8.414573669433594 61.34737396240234 6.299339294433594 C 56.17134475708008 4.110054016113281 50.67128753662109 3 45 3 M 45 0 C 69.85281372070312 0 90 20.14718627929688 90 45 C 90 69.85281372070312 69.85281372070312 90 45 90 C 20.14718627929688 90 0 69.85281372070312 0 45 C 0 20.14718627929688 20.14718627929688 0 45 0 Z" stroke="none" fill="#86815c"/>
            </g>
          </g>
        </g>
      </g>
    </g>
    <g id="tutor_10491839" transform="translate(651.021 2621.021)">
      <g id="Grupo_1172414" data-name="Grupo 1172414" transform="translate(0.967 0.967)">
        <g id="Grupo_1172396" data-name="Grupo 1172396" transform="translate(5.802 50.288)">
          <path id="Trazado_1026515" data-name="Trazado 1026515" d="M63.737,427.868H56V424h5.8v1.934A1.934,1.934,0,0,0,63.737,427.868Z" transform="translate(-56 -424)" fill="#e6e9ed"/>
        </g>
        <g id="Grupo_1172397" data-name="Grupo 1172397" transform="translate(0 31.914)">
          <path id="Trazado_1026516" data-name="Trazado 1026516" d="M19.6,284.585a1.936,1.936,0,0,0-1.5,1.055l-.433.866v3.868h-5.8A3.869,3.869,0,0,1,8,286.506v-6.7a6.769,6.769,0,0,1,5.812-6.7l7.727-1.1,2.9,2.9,2.9-2.9,7.727,1.1a6.769,6.769,0,0,1,5.812,6.7v.578l-.2-.545a1.934,1.934,0,0,0-3.46,1.731l1.852,4.937h-.122a1.934,1.934,0,0,0-1.934,1.934v1.934a1.934,1.934,0,0,0,1.934,1.934h-2.9a.967.967,0,0,0-.967.967v.967H27.342a1.934,1.934,0,0,0,1.934-1.934V278.77a1.934,1.934,0,0,0-1.934-1.934h-5.8A1.934,1.934,0,0,0,19.6,278.77Z" transform="translate(-8 -272)" fill="#e6e9ed"/>
        </g>
        <g id="Grupo_1172398" data-name="Grupo 1172398" transform="translate(11.605 36.749)">
          <path id="Trazado_1026517" data-name="Trazado 1026517" d="M113.671,313.934v13.539a1.934,1.934,0,0,1-1.934,1.934h-5.8A1.934,1.934,0,0,1,104,327.473v-1.934h1.934a1.934,1.934,0,0,0,1.934-1.934v-1.934a1.934,1.934,0,0,0-1.934-1.934h-1.706a2.036,2.036,0,0,0-.228.013v-5.816A1.934,1.934,0,0,1,105.934,312h5.8A1.934,1.934,0,0,1,113.671,313.934Z" transform="translate(-104 -312)" fill="#969faa"/>
        </g>
        <g id="Grupo_1172399" data-name="Grupo 1172399" transform="translate(1.934)">
          <path id="Trazado_1026518" data-name="Trazado 1026518" d="M48.177,20.572l-1.639-1.229a5.317,5.317,0,0,0-4.873-.791l-2.157.719a6.513,6.513,0,0,1-7.627-2.8,5.8,5.8,0,0,0-3.341,4.779l-.105,1.258H26.9a2.867,2.867,0,0,0-1.33.324h0A9.574,9.574,0,0,1,33.574,8h9.864a9.573,9.573,0,0,1,8,14.829h0a2.867,2.867,0,0,0-1.33-.324H48.392Z" transform="translate(-24 -8)" fill="#b27946"/>
        </g>
        <g id="Grupo_1172400" data-name="Grupo 1172400" transform="translate(31.914 15.473)">
          <path id="Trazado_1026519" data-name="Trazado 1026519" d="M276.835,147.6h-2.9a1.917,1.917,0,0,0-.856.2A7.833,7.833,0,0,1,272,143.838v-.658a4.244,4.244,0,0,1,3.214-4.116l.654-.163a4.244,4.244,0,0,1,4.025-2.9h7.478a7.837,7.837,0,0,1,6.76,11.8,1.917,1.917,0,0,0-.856-.2h-2.9a3.716,3.716,0,0,0-2.814-3.6l-1.054-.264a7.619,7.619,0,0,1-5.394,3.334Z" transform="translate(-272 -136)" fill="#656d78"/>
        </g>
        <g id="Grupo_1172401" data-name="Grupo 1172401" transform="translate(27.078 52.222)">
          <path id="Trazado_1026520" data-name="Trazado 1026520" d="M242.274,440h19.705a.967.967,0,0,1,.967.967v.967a1.934,1.934,0,0,1-1.934,1.934H250.375a1.934,1.934,0,1,1-3.868,0H233.934A1.934,1.934,0,0,1,232,441.934v-.967a.967.967,0,0,1,.967-.967h9.307Z" transform="translate(-232 -440)" fill="#cf9e76"/>
        </g>
        <g id="Grupo_1172402" data-name="Grupo 1172402" transform="translate(34.202 40.617)">
          <path id="Trazado_1026521" data-name="Trazado 1026521" d="M310.884,351.219V355.6h-16.8l-3.15-8.4a6.75,6.75,0,0,1,3.807-2.549l2.609-.653a2.9,2.9,0,1,0,5.8,0l2.609.653A6.769,6.769,0,0,1,310.884,351.219Z" transform="translate(-290.93 -344)" fill="#fcd770"/>
        </g>
        <g id="Grupo_1172403" data-name="Grupo 1172403" transform="translate(29.012 38.683)">
          <path id="Trazado_1026522" data-name="Trazado 1026522" d="M253.189,333.136l3.15,8.4H250.9a.967.967,0,0,0,.967-.967V336.7a.967.967,0,0,0-.967-.967h-.845L248.2,330.8a1.934,1.934,0,0,1,3.46-1.731l.2.545Z" transform="translate(-247.999 -328)" fill="#f29ed0"/>
        </g>
        <g id="Grupo_1172404" data-name="Grupo 1172404" transform="translate(5.802 8.469)">
          <path id="Trazado_1026523" data-name="Trazado 1026523" d="M77.229,90.44a7.753,7.753,0,0,1-4.984,8.116L69.539,99.57V101.5l-2.9,2.9-2.9-2.9V99.57l-2.705-1.014A7.753,7.753,0,0,1,56,91.3v-.105c0-.216.008-.432.027-.647l.054-.644.486-5.8.105-1.258a5.8,5.8,0,0,1,3.341-4.779,6.508,6.508,0,0,0,7.627,2.8l2.157-.719a5.317,5.317,0,0,1,4.873.791l1.639,1.229.215,1.934.644,5.8Z" transform="translate(-56 -78.06)" fill="#f0d0b4"/>
        </g>
        <g id="Grupo_1172405" data-name="Grupo 1172405" transform="translate(18.756 13.234)">
          <ellipse id="Elipse_12334" data-name="Elipse 12334" cx="3.5" cy="4" rx="3.5" ry="4" transform="translate(0.256 -0.221)" fill="#69d6f4"/>
        </g>
        <g id="Grupo_1172406" data-name="Grupo 1172406" transform="translate(6.922 13.234)">
          <circle id="Elipse_12335" data-name="Elipse 12335" cx="4" cy="4" r="4" transform="translate(0.09 -0.221)" fill="#69d6f4"/>
        </g>
        <g id="Grupo_1172407" data-name="Grupo 1172407" transform="translate(26.326 14.506)">
          <path id="Trazado_1026524" data-name="Trazado 1026524" d="M228.829,128.324a2.9,2.9,0,0,1-1.33,5.479h-1.075l-.644-5.8H227.5A2.867,2.867,0,0,1,228.829,128.324Z" transform="translate(-225.78 -128)" fill="#f0d0b4"/>
        </g>
        <g id="Grupo_1172408" data-name="Grupo 1172408" transform="translate(1.934 14.506)">
          <path id="Trazado_1026525" data-name="Trazado 1026525" d="M28.435,128l-.486,5.8H26.9a2.9,2.9,0,0,1-1.33-5.479A2.867,2.867,0,0,1,26.9,128Z" transform="translate(-24 -128)" fill="#f0d0b4"/>
        </g>
        <g id="Grupo_1172409" data-name="Grupo 1172409" transform="translate(9.671 44.486)">
          <path id="Trazado_1026526" data-name="Trazado 1026526" d="M93.8,377.934v1.934a1.934,1.934,0,0,1-1.934,1.934H88v-3.868l.433-.866a1.936,1.936,0,0,1,1.5-1.055,2.037,2.037,0,0,1,.228-.013h1.706A1.934,1.934,0,0,1,93.8,377.934Z" transform="translate(-88 -376)" fill="#f0d0b4"/>
        </g>
        <g id="Grupo_1172410" data-name="Grupo 1172410" transform="translate(29.012 46.42)">
          <path id="Trazado_1026527" data-name="Trazado 1026527" d="M251.868,392.967v3.868a.967.967,0,0,1-.967.967h-.967A1.934,1.934,0,0,1,248,395.868v-1.934A1.934,1.934,0,0,1,249.934,392h.967A.967.967,0,0,1,251.868,392.967Z" transform="translate(-248 -392)" fill="#f0d0b4"/>
        </g>
        <g id="Grupo_1172411" data-name="Grupo 1172411" transform="translate(50.288 27.078)">
          <path id="Trazado_1026528" data-name="Trazado 1026528" d="M428.27,232.566a1.935,1.935,0,0,1-1.368,3.3h-2.257L424,232h2.9a1.94,1.94,0,0,1,1.368.566Z" transform="translate(-424 -232)" fill="#f0d0b4"/>
        </g>
        <g id="Grupo_1172412" data-name="Grupo 1172412" transform="translate(35.782 23.21)">
          <path id="Trazado_1026529" data-name="Trazado 1026529" d="M319.4,209.255a5.092,5.092,0,0,1-3.131,5.564l-1.636.654v1.934a2.9,2.9,0,0,1-5.8,0v-1.934l-1.636-.654a5.095,5.095,0,0,1-3.131-5.564l.253-1.518h0l.644-3.868,4.277-.534A7.619,7.619,0,0,0,314.638,200l1.054.264a3.716,3.716,0,0,1,2.814,3.6l.644,3.868h0Z" transform="translate(-304 -200)" fill="#f0d0b4"/>
        </g>
        <g id="Grupo_1172413" data-name="Grupo 1172413" transform="translate(31.914 27.078)">
          <path id="Trazado_1026530" data-name="Trazado 1026530" d="M276.835,232l-.644,3.868h-2.257a1.934,1.934,0,1,1,0-3.868Z" transform="translate(-272 -232)" fill="#f0d0b4"/>
        </g>
      </g>
      <g id="Grupo_1172415" data-name="Grupo 1172415" transform="translate(0 0)">
        <path id="Trazado_1026531" data-name="Trazado 1026531" d="M58.025,52.222H56.091V48.8A7.725,7.725,0,0,0,50.23,41.3l-1.876-.469v-.524l1.027-.411a6.058,6.058,0,0,0,3.726-6.621l-.065-.393h1.115a2.9,2.9,0,0,0,2.089-4.911,8.8,8.8,0,0,0-7.993-12.5H40.774a5.2,5.2,0,0,0-4.742,3.051l-.172.043a5.2,5.2,0,0,0-3.946,5.054v.657a8.812,8.812,0,0,0,.812,3.692,2.9,2.9,0,0,0,2.089,4.911H35.93l-.065.392a6.057,6.057,0,0,0,3.726,6.621l1.027.411v.524l-1.876.469a7.753,7.753,0,0,0-3.216,1.683l-.71-1.892v-.4a7.737,7.737,0,0,0-6.642-7.659l-6.9-.985v-.425l2.078-.779a8.761,8.761,0,0,0,5.659-8.165c0-.143,0-.286-.012-.43h.012a3.866,3.866,0,0,0,2.614-6.717A10.538,10.538,0,0,0,22.34,0H12.475A10.538,10.538,0,0,0,3.189,15.526,3.866,3.866,0,0,0,5.8,22.243h.007c0,.108-.007.216-.007.324v.105a8.761,8.761,0,0,0,5.659,8.165l2.078.779v.425l-6.9.985A7.737,7.737,0,0,0,0,40.686v6.7a4.841,4.841,0,0,0,4.835,4.835H5.8v3.868H27.245a2.906,2.906,0,0,0,2.735,1.934H41.75a2.9,2.9,0,0,0,5.471,0h9.837a2.9,2.9,0,0,0,2.9-2.9v-.967a1.936,1.936,0,0,0-1.934-1.934ZM54.156,30.947H52.719L52.4,29.012h1.76a.967.967,0,1,1,0,1.934ZM33.848,23.621a3.271,3.271,0,0,1,2.481-3.178l1.169-.292.168-.5a3.271,3.271,0,0,1,3.108-2.24h7.478A6.869,6.869,0,0,1,54.516,27.1a2.916,2.916,0,0,0-.36-.023H52.921a7.166,7.166,0,0,0,.219-5.141l-1.835.612a5.259,5.259,0,0,1,.13,2.895,4.676,4.676,0,0,0-2.76-1.941l-1.715-.429-.378.567a6.647,6.647,0,0,1-4.709,2.911l-3.19.4v-.839a1.936,1.936,0,0,1,1.934-1.934V22.243a3.873,3.873,0,0,0-3.868,3.868v.967H34.815a2.916,2.916,0,0,0-.36.023,6.876,6.876,0,0,1-.608-2.823Zm.967,7.325a.967.967,0,0,1,0-1.934h1.76l-.322,1.934ZM40.308,38.1a4.123,4.123,0,0,1-2.536-4.507l.779-4.676,3.561-.445a8.579,8.579,0,0,0,5.672-3.2l.421.105a2.745,2.745,0,0,1,2.082,2.667v.08l.911,5.466A4.124,4.124,0,0,1,48.663,38.1L46.42,39v2.589a1.934,1.934,0,1,1-3.868,0V39Zm-1.1,5.076,1.6-.4a3.868,3.868,0,0,0,7.359,0l1.6.4a5.794,5.794,0,0,1,4.4,5.629v3.418H38.99l-2.722-7.259a5.818,5.818,0,0,1,2.942-1.789Zm-8.263,8.08V49.321a.968.968,0,0,1,.967-.967h.967v3.868h-.967A.968.968,0,0,1,30.947,51.255Zm1.934-4.835h-.175l-1.616-4.31-.04-.093a.967.967,0,0,1,1.71-.9l4.166,11.108h-2.11V48.354A1.936,1.936,0,0,0,32.881,46.42ZM27.9,34.942a5.835,5.835,0,0,1,4.645,3.81,2.905,2.905,0,0,0-1.928.238,2.905,2.905,0,0,0-1.322,3.842l1.44,3.839a2.905,2.905,0,0,0-1.721,2.65v1.934a2.888,2.888,0,0,0,.166.967h-.166a1.936,1.936,0,0,0-1.934,1.934H23.044a2.888,2.888,0,0,0,.166-.967V39.65a2.9,2.9,0,0,0-2.9-2.9h-2.5l2.843-2.842Zm-4.689-21.4a4.837,4.837,0,0,0-4.189,2.425,2.895,2.895,0,0,0-3.226,0,4.829,4.829,0,0,0-7.43-1.175l.041-.493a4.844,4.844,0,0,1,2.09-3.585,7.475,7.475,0,0,0,8.22,2.444l2.156-.719a4.353,4.353,0,0,1,3.987.647l1.3.978.059.535A4.81,4.81,0,0,0,23.21,13.539Zm2.9,4.835a2.9,2.9,0,1,1-2.9-2.9A2.9,2.9,0,0,1,26.111,18.375Zm-11.6,0a2.9,2.9,0,1,1-2.9-2.9A2.9,2.9,0,0,1,14.506,18.375Zm14.506,1.934H28.8l-.43-3.868h.639a1.934,1.934,0,1,1,0,3.868ZM3.868,10.541a8.616,8.616,0,0,1,8.607-8.607H22.34a8.6,8.6,0,0,1,7.58,12.681,3.861,3.861,0,0,0-.907-.109h-.854l-.113-1.021v-.818a7,7,0,0,0-5.613-6.847l-.379,1.9A5.065,5.065,0,0,1,25.974,11.5a6.289,6.289,0,0,0-5.714-.9L18.1,11.32a5.543,5.543,0,0,1-6.567-2.509L9.543,5.323l-1.679.96,1.6,2.792a6.785,6.785,0,0,0-2.981,5.06l-.031.371H5.8a3.861,3.861,0,0,0-.908.109,8.58,8.58,0,0,1-1.027-4.074Zm0,7.834A1.936,1.936,0,0,1,5.8,16.44h.483l-.324,3.868H5.8A1.936,1.936,0,0,1,3.868,18.375ZM12.14,29.026a6.818,6.818,0,0,1-4.4-6.354v-.105c0-.189.008-.379.024-.566l.053-.631a4.833,4.833,0,0,0,8.627-3,.967.967,0,1,1,1.934,0,4.833,4.833,0,0,0,8.6,3.025l.058.524a6.785,6.785,0,0,1-4.362,7.1l-3.333,1.25v2.2l-1.934,1.934L15.473,32.48v-2.2ZM1.934,47.387v-6.7a5.831,5.831,0,0,1,4.982-5.744l7.248-1.036,2.843,2.843h-2.5a2.9,2.9,0,0,0-2.9,2.9v5.091a2.871,2.871,0,0,0-.854.592A2.892,2.892,0,0,0,8.7,44.486H7.737v-5.8H5.8v5.8H3.868V46.42H8.7a.968.968,0,0,1,.967.967v2.9H4.835a2.9,2.9,0,0,1-2.9-2.9Zm9.671,2.9V47.615l.33-.661a.962.962,0,0,1,.865-.535h1.706a.968.968,0,0,1,.967.967v1.934a.968.968,0,0,1-.967.967ZM7.737,52.222H11.6v.967a2.888,2.888,0,0,0,.166.967H7.737Zm6.77,1.934a.968.968,0,0,1-.967-.967v-.967h.967a2.9,2.9,0,0,0,2.9-2.9V47.387a2.9,2.9,0,0,0-2.9-2.9h-.967V39.65a.968.968,0,0,1,.967-.967h5.8a.968.968,0,0,1,.967.967V53.189a.968.968,0,0,1-.967.967Zm43.519.967a.968.968,0,0,1-.967.967h-11.6v.967a.967.967,0,1,1-1.934,0v-.967H29.979a.968.968,0,0,1-.967-.967v-.967H58.025Z" transform="translate(0 0)"/>
        <ellipse id="Elipse_12340" data-name="Elipse 12340" cx="0.5" cy="1.5" rx="0.5" ry="1.5" transform="translate(15.98 39.979)"/>
      </g>
    </g>
  </g>
</svg>
