<svg xmlns="http://www.w3.org/2000/svg" xmlns:xlink="http://www.w3.org/1999/xlink" width="113" height="113" viewBox="0 0 113 113">
  <defs>
    <filter id="Trazado_982547" x="0" y="0" width="113" height="113" filterUnits="userSpaceOnUse">
      <feOffset dy="3" input="SourceAlpha"/>
      <feGaussianBlur stdDeviation="3" result="blur"/>
      <feFlood flood-opacity="0.161"/>
      <feComposite operator="in" in2="blur"/>
      <feComposite in="SourceGraphic"/>
    </filter>
  </defs>
  <g id="Grupo_1172460" data-name="Grupo 1172460" transform="translate(-901.5 -3042.645)">
    <g id="Grupo_1172008" data-name="Grupo 1172008" transform="translate(0 1744.5)">
      <g id="Grupo_1171048" data-name="Grupo 1171048" transform="translate(910.5 1304.145)">
        <g id="Grupo_1148525" data-name="Grupo 1148525" transform="translate(0)">
          <g transform="matrix(1, 0, 0, 1, -9, -6)" filter="url(#Trazado_982547)">
            <g id="Trazado_982547-2" data-name="Trazado 982547" transform="translate(9 6)" fill="#f4fdfe">
              <path d="M 47.5 93.5 C 41.28937149047852 93.5 35.26533508300781 92.28397369384766 29.59518623352051 89.88570404052734 C 24.11771965026855 87.56893157958984 19.19813346862793 84.25196075439453 14.97309303283691 80.02691650390625 C 10.74804019927979 75.80186462402344 7.431066513061523 70.88229370117188 5.114293098449707 65.40481567382812 C 2.716026782989502 59.73468017578125 1.5 53.71062850952148 1.5 47.5 C 1.5 41.28937149047852 2.716026782989502 35.26533508300781 5.114293098449707 29.59518623352051 C 7.431066513061523 24.11771965026855 10.74804019927979 19.19813346862793 14.97309303283691 14.97309303283691 C 19.19813346862793 10.74804019927979 24.11771965026855 7.431066513061523 29.59518623352051 5.114293098449707 C 35.26533508300781 2.716026782989502 41.28937149047852 1.5 47.5 1.5 C 53.71062850952148 1.5 59.73468017578125 2.716026782989502 65.40481567382812 5.114293098449707 C 70.88229370117188 7.431066513061523 75.80186462402344 10.74804019927979 80.02691650390625 14.97309303283691 C 84.25196075439453 19.19813346862793 87.56893157958984 24.11771965026855 89.88570404052734 29.59518623352051 C 92.28397369384766 35.26533508300781 93.5 41.28937149047852 93.5 47.5 C 93.5 53.71062850952148 92.28397369384766 59.73468017578125 89.88570404052734 65.40481567382812 C 87.56893157958984 70.88229370117188 84.25196075439453 75.80186462402344 80.02691650390625 80.02691650390625 C 75.80186462402344 84.25196075439453 70.88229370117188 87.56893157958984 65.40481567382812 89.88570404052734 C 59.73468017578125 92.28397369384766 53.71062850952148 93.5 47.5 93.5 Z" stroke="none"/>
              <path d="M 47.5 3 C 41.49121475219727 3 35.66376876831055 4.176155090332031 30.17950439453125 6.495796203613281 C 24.88084411621094 8.736953735351562 20.12152099609375 11.94598388671875 16.03375244140625 16.03375244140625 C 11.94598388671875 20.12152099609375 8.736953735351562 24.88084411621094 6.495796203613281 30.17950439453125 C 4.176155090332031 35.66376876831055 3 41.49121475219727 3 47.5 C 3 53.50878524780273 4.176155090332031 59.33623123168945 6.495796203613281 64.82049560546875 C 8.736953735351562 70.11915588378906 11.94598388671875 74.87847900390625 16.03375244140625 78.96624755859375 C 20.12152099609375 83.05401611328125 24.88084411621094 86.26304626464844 30.17950439453125 88.50419616699219 C 35.66376876831055 90.82384490966797 41.49121475219727 92 47.5 92 C 53.50878524780273 92 59.33623123168945 90.82384490966797 64.82049560546875 88.50419616699219 C 70.11915588378906 86.26304626464844 74.87847900390625 83.05401611328125 78.96624755859375 78.96624755859375 C 83.05401611328125 74.87847900390625 86.26304626464844 70.11915588378906 88.50419616699219 64.82049560546875 C 90.82384490966797 59.33623123168945 92 53.50878524780273 92 47.5 C 92 41.49121475219727 90.82384490966797 35.66376876831055 88.50419616699219 30.17950439453125 C 86.26304626464844 24.88084411621094 83.05401611328125 20.12152099609375 78.96624755859375 16.03375244140625 C 74.87847900390625 11.94598388671875 70.11915588378906 8.736953735351562 64.82049560546875 6.495796203613281 C 59.33623123168945 4.176155090332031 53.50878524780273 3 47.5 3 M 47.5 0 C 73.7335205078125 0 95 21.2664794921875 95 47.5 C 95 73.7335205078125 73.7335205078125 95 47.5 95 C 21.2664794921875 95 0 73.7335205078125 0 47.5 C 0 21.2664794921875 21.2664794921875 0 47.5 0 Z" stroke="none" fill="#56838a"/>
            </g>
          </g>
        </g>
      </g>
    </g>
    <g id="g1677" transform="translate(923.533 3738.385)">
      <g id="g1679" transform="translate(1.281 -665.688)">
        <g id="Grupo_1172459" data-name="Grupo 1172459" transform="translate(0 0)">
          <g id="g1687" transform="translate(34.562 23.869)">
            <path id="path1689" d="M-250.052-24.025l-7.049-2.73c-.712.788-1.489,1.638-2.231,2.445a4.514,4.514,0,0,1-6.645,0c-.729-.793-1.491-1.627-2.193-2.4l-6.933,2.688a5.762,5.762,0,0,0-3.363,5.217V-5.049a1.322,1.322,0,0,0,1.321,1.321h29.134a1.322,1.322,0,0,0,1.321-1.321V-18.808a5.762,5.762,0,0,0-3.363-5.217" transform="translate(278.466 26.755)" fill="#ffc850"/>
          </g>
          <g id="g1691" transform="translate(42.047 0.135)">
            <path id="path1693" d="M-74.589,0a8.476,8.476,0,0,0-8.476,8.476V20.431a1.124,1.124,0,0,0,1.124,1.124h14.7a1.124,1.124,0,0,0,1.124-1.124V8.476A8.476,8.476,0,0,0-74.589,0" transform="translate(83.065 0)" fill="#5e6377"/>
          </g>
          <g id="g1695" transform="translate(42.047 0.135)">
            <path id="path1697" d="M-33.524-179.8V-191.75a8.477,8.477,0,0,1,6.571-8.258,8.5,8.5,0,0,0-1.9-.217,8.476,8.476,0,0,0-8.476,8.476V-179.8a1.124,1.124,0,0,0,1.124,1.124H-32.4a1.124,1.124,0,0,1-1.124-1.124" transform="translate(37.333 200.226)" fill="#52586d"/>
          </g>
          <g id="g1699" transform="translate(44.761 20.474)">
            <path id="path1701" d="M-80.273-21.984v-2.486a5.974,5.974,0,0,1-3.346,1.02,6.291,6.291,0,0,1-3.529-1.032v2.5a.155.155,0,0,1-.1.144l-2.148.833c.727.805,1.527,1.68,2.289,2.509a4.514,4.514,0,0,0,6.645,0c.775-.843,1.59-1.734,2.328-2.551l-2.041-.791a.155.155,0,0,1-.1-.144" transform="translate(89.394 24.483)" fill="#f0a479"/>
          </g>
          <g id="g1703" transform="translate(44.761 20.474)">
            <path id="path1705" d="M-56.855-8.743a6.052,6.052,0,0,1-.685.039,6.292,6.292,0,0,1-3.529-1.032v2.5a.155.155,0,0,1-.1.144l-2.148.833c.727.805,1.527,1.68,2.289,2.509a4.506,4.506,0,0,0,4.171,1.377Z" transform="translate(63.316 9.736)" fill="#e5966e"/>
          </g>
          <g id="g1707" transform="translate(56.497 11.077)">
            <path id="path1709" d="M-.036-.4V4.082c0,.054,0,.107,0,.16a2.428,2.428,0,0,0,2.965-2.32A2.428,2.428,0,0,0-.036-.4" transform="translate(0.04 0.444)" fill="#f0a479"/>
          </g>
          <g id="g1711" transform="translate(56.497 11.078)">
            <path id="path1713" d="M-16.8-3.666a2.584,2.584,0,0,0-1.9-.371V.444c0,.054,0,.107,0,.16A2.584,2.584,0,0,0-16.8.233Z" transform="translate(18.704 4.082)" fill="#e5966e"/>
          </g>
          <g id="g1715" transform="translate(44.395 7.507)">
            <path id="path1717" d="M-104.357-21.692A8.7,8.7,0,0,1-108-23.987a.56.56,0,0,0-.823.021,18.992,18.992,0,0,1-7.024,5.145.56.56,0,0,0-.366.525v2.235A6.047,6.047,0,0,0-110-10.02a6.047,6.047,0,0,0,6.041-6.041v-5.1a.56.56,0,0,0-.4-.536" transform="translate(116.216 24.157)" fill="#f7b594"/>
          </g>
          <g id="g1719" transform="translate(44.395 10.94)">
            <path id="path1721" d="M-33.8-41.039V-45.7a14.733,14.733,0,0,1-3.475,1.9.56.56,0,0,0-.366.525v2.235A6.047,6.047,0,0,0-31.425-35a6.016,6.016,0,0,0,1.858-.293A6,6,0,0,1-33.8-41.039" transform="translate(37.64 45.703)" fill="#f0a479"/>
          </g>
          <g id="g1723" transform="translate(0 23.709)">
            <path id="path1725" d="M-250.052-24.253l-7.116-2.756c-.694.767-1.445,1.589-2.164,2.371a4.513,4.513,0,0,1-6.644,0c-.706-.768-1.443-1.573-2.126-2.329l-7,2.714a5.762,5.762,0,0,0-3.363,5.217v13.4a1.816,1.816,0,0,0,1.816,1.816h28.144a1.817,1.817,0,0,0,1.817-1.816v-13.4a5.762,5.762,0,0,0-3.363-5.217" transform="translate(278.466 27.009)" fill="#00c3ff"/>
          </g>
          <g id="g1727" transform="translate(0 26.019)">
            <path id="path1729" d="M-39.716,0l-1.15.446a5.762,5.762,0,0,0-3.363,5.217v13.4a1.817,1.817,0,0,0,1.817,1.817h1.573V3.329A5.261,5.261,0,0,1-39.716,0" transform="translate(44.229)" fill="#00aaf0"/>
          </g>
          <g id="g1731" transform="translate(10.199 19.694)">
            <path id="path1733" d="M-84.277-30.148a.712.712,0,0,1-.455-.664v-2.762a6.008,6.008,0,0,1-3.422,1.066,6.345,6.345,0,0,1-3.452-.975v2.671a.712.712,0,0,1-.455.664l-1.792.695c.727.805,1.527,1.68,2.289,2.509a4.514,4.514,0,0,0,6.645,0c.775-.843,1.59-1.734,2.328-2.551Z" transform="translate(93.853 33.573)" fill="#f0a479"/>
          </g>
          <g id="g1735" transform="translate(10.199 19.785)">
            <path id="path1737" d="M-56.316-8.227a6.072,6.072,0,0,1-.7.04,6.344,6.344,0,0,1-3.452-.975V-6.49a.712.712,0,0,1-.455.664l-1.792.695c.727.805,1.527,1.68,2.289,2.509a4.505,4.505,0,0,0,4.11,1.388Z" transform="translate(62.716 9.161)" fill="#e5966e"/>
          </g>
          <g id="g1739" transform="translate(7.585 0)">
            <path id="path1741" d="M-19.687-96.666v-.391a.56.56,0,0,1,.6-.559,14.209,14.209,0,0,0,8.723-2.239.56.56,0,0,1,.717.087c2.092,2.249,1.938,2.02,1.938,2.314v.78a3.176,3.176,0,0,1,2.237.733v-3.485A8.226,8.226,0,0,0-13.7-107.65a8.226,8.226,0,0,0-8.226,8.226v3.551a3.427,3.427,0,0,1,2.237-.792" transform="translate(21.924 107.65)" fill="#5e6377"/>
          </g>
          <g id="g1743" transform="translate(7.585 0)">
            <path id="path1745" d="M-34.6-72.39a8.228,8.228,0,0,1,6.26-7.988,8.243,8.243,0,0,0-1.966-.238,8.226,8.226,0,0,0-8.226,8.226v3.551a3.426,3.426,0,0,1,2.237-.792v-.391a.56.56,0,0,1,.6-.559c.366.026.731.036,1.094.034Z" transform="translate(38.535 80.616)" fill="#52586d"/>
          </g>
          <g id="g1747" transform="translate(21.896 10.546)">
            <path id="path1749" d="M-.038-.052V4.478c0,.057,0,.114,0,.171A2.6,2.6,0,0,0,2.843,2.3,2.6,2.6,0,0,0-.038-.052" transform="translate(0.043 0.058)" fill="#f0a479"/>
          </g>
          <g id="g1751" transform="translate(6.84 10.558)">
            <path id="path1753" d="M-25.659-39.82v-4.524c-1.372-.044-2.916.981-2.916,2.344a2.626,2.626,0,0,0,2.92,2.351c0-.057,0-.114,0-.171" transform="translate(28.575 44.345)" fill="#f0a479"/>
          </g>
          <g id="g1755" transform="translate(21.896 10.546)">
            <path id="path1757" d="M-18.848-6.635a2.893,2.893,0,0,0-2.137-.748v4.531c0,.057,0,.114,0,.171a2.891,2.891,0,0,0,2.142-.748Z" transform="translate(20.989 7.389)" fill="#e5966e"/>
          </g>
          <g id="g1759" transform="translate(6.84 10.558)">
            <path id="path1761" d="M-25.659-34.973a2.194,2.194,0,0,1-.778-1.629,2.1,2.1,0,0,1,.778-1.564v-.779c-1.372-.044-2.916.981-2.916,2.343a2.626,2.626,0,0,0,2.92,2.351c0-.057,0-.114,0-.171Z" transform="translate(28.575 38.947)" fill="#e5966e"/>
          </g>
          <g id="g1763" transform="translate(9.68 7.138)">
            <path id="path1765" d="M-89.6-1.572a.56.56,0,0,0-.717-.087A14.726,14.726,0,0,1-99.183.721a.561.561,0,0,0-.6.559V6.194a6.05,6.05,0,0,0,6.218,6.043,6.05,6.05,0,0,0,6.043-6.043V.883c0-.294.013-.207-2.08-2.456" transform="translate(99.784 1.751)" fill="#f7b594"/>
          </g>
          <g id="g1767" transform="translate(9.68 9.413)">
            <path id="path1769" d="M-34.837-49.893v-5.669a13.422,13.422,0,0,1-3.358.2.56.56,0,0,0-.6.559v4.914a6.05,6.05,0,0,0,6.218,6.043,6.018,6.018,0,0,0,1.916-.313,6,6,0,0,1-4.176-5.73" transform="translate(38.796 55.563)" fill="#f0a479"/>
          </g>
          <g id="g1787" transform="translate(17.09 35.742)">
            <path id="path1789" d="M0-98.169H29.738v-3.694a5.392,5.392,0,0,0-3.147-4.882l-6.66-2.579c-.649.718-1.353,1.487-2.026,2.219a4.223,4.223,0,0,1-6.218,0c-.661-.719-1.35-1.472-1.99-2.179l-6.551,2.54A5.392,5.392,0,0,0,0-101.863Z" transform="translate(0 109.324)" fill="#f25c5c"/>
          </g>
          <g id="g1791" transform="translate(26.635 31.984)">
            <path id="path1793" d="M-78.868-28.213a.666.666,0,0,1-.426-.621v-2.584a5.621,5.621,0,0,1-3.2,1,5.938,5.938,0,0,1-3.231-.913v2.5a.666.666,0,0,1-.425.621l-1.677.65c.681.754,1.429,1.572,2.143,2.348a4.224,4.224,0,0,0,6.218,0c.726-.789,1.488-1.623,2.178-2.388Z" transform="translate(87.83 31.419)" fill="#f0a479"/>
          </g>
          <g id="g1795" transform="translate(26.635 32.069)">
            <path id="path1797" d="M-52.7-7.7a5.7,5.7,0,0,1-.655.038,5.937,5.937,0,0,1-3.231-.913v2.5a.666.666,0,0,1-.425.621l-1.678.65c.681.754,1.429,1.572,2.143,2.348a4.216,4.216,0,0,0,3.846,1.3Z" transform="translate(58.691 8.573)" fill="#e5966e"/>
          </g>
          <g id="g1799" transform="translate(17.09 37.903)">
            <path id="path1801" d="M-27.916-79.144v-5.878a4.923,4.923,0,0,1,1.051-3.116l-1.076.417a5.392,5.392,0,0,0-3.147,4.882v3.694Z" transform="translate(31.088 88.137)" fill="#e54a4a"/>
          </g>
          <g id="g1803" transform="translate(24.189 13.554)">
            <path id="path1805" d="M-18.423-90.463v-.366a.525.525,0,0,1,.562-.523,13.3,13.3,0,0,0,8.163-2.1.524.524,0,0,1,.671.082c1.958,2.1,1.813,1.891,1.813,2.165v.431s0,.01,0,.015v.284a2.973,2.973,0,0,1,2.093.686v-3.261a7.7,7.7,0,0,0-7.7-7.7,7.7,7.7,0,0,0-7.7,7.7v3.323a3.207,3.207,0,0,1,2.093-.741" transform="translate(20.516 100.742)" fill="#5e6377"/>
          </g>
          <g id="g1807" transform="translate(24.189 13.554)">
            <path id="path1809" d="M-32.382-67.744a7.7,7.7,0,0,1,5.858-7.475,7.714,7.714,0,0,0-1.84-.223,7.7,7.7,0,0,0-7.7,7.7v3.323a3.207,3.207,0,0,1,2.093-.741v-.366a.525.525,0,0,1,.562-.523c.343.025.684.034,1.024.032Z" transform="translate(36.061 75.442)" fill="#52586d"/>
          </g>
          <g id="g1811" transform="translate(37.581 23.424)">
            <path id="path1813" d="M-.036-.049v4.24c0,.054,0,.107,0,.16a2.437,2.437,0,0,0,2.7-2.2,2.436,2.436,0,0,0-2.7-2.2" transform="translate(0.04 0.055)" fill="#f0a479"/>
          </g>
          <g id="g1815" transform="translate(23.492 23.435)">
            <path id="path1817" d="M-24.011-37.263V-41.5c-1.284-.041-2.728.918-2.728,2.193a2.457,2.457,0,0,0,2.732,2.2c0-.053,0-.106,0-.16" transform="translate(26.74 41.498)" fill="#f0a479"/>
          </g>
          <g id="g1819" transform="translate(37.581 23.424)">
            <path id="path1821" d="M-17.637-6.209a2.708,2.708,0,0,0-2-.7v4.24c0,.054,0,.107,0,.16a2.705,2.705,0,0,0,2-.7Z" transform="translate(19.641 6.914)" fill="#e5966e"/>
          </g>
          <g id="g1823" transform="translate(23.492 23.435)">
            <path id="path1825" d="M-24.011-32.728a2.054,2.054,0,0,1-.728-1.525,1.963,1.963,0,0,1,.728-1.463v-.73c-1.284-.041-2.728.918-2.728,2.193a2.457,2.457,0,0,0,2.732,2.2c0-.053,0-.106,0-.16Z" transform="translate(26.74 36.447)" fill="#e5966e"/>
          </g>
          <g id="g1827" transform="translate(26.149 20.234)">
            <path id="path1829" d="M-83.851-1.471a.524.524,0,0,0-.671-.082,13.78,13.78,0,0,1-8.3,2.228.525.525,0,0,0-.562.523V5.8a5.661,5.661,0,0,0,5.819,5.655A5.662,5.662,0,0,0-81.905,5.8V.826c0-.275.012-.193-1.946-2.3" transform="translate(93.38 1.639)" fill="#f7b594"/>
          </g>
          <g id="g1831" transform="translate(26.149 22.364)">
            <path id="path1833" d="M-32.6-46.692V-52a12.555,12.555,0,0,1-3.142.184.525.525,0,0,0-.562.523v4.6a5.661,5.661,0,0,0,5.819,5.655,5.63,5.63,0,0,0,1.793-.293A5.618,5.618,0,0,1-32.6-46.692" transform="translate(36.305 51.997)" fill="#f0a479"/>
          </g>
          <g id="g1835" transform="translate(53.916 14.657)">
            <path id="path1837" d="M-23.367-7.493a6,6,0,0,1-2.655,4.819v1.019h4.41a.556.556,0,0,0,.556-.556V-8.344A2.793,2.793,0,0,1-23.367-7.493Z" transform="translate(26.023 8.344)" fill="none" stroke="#000" stroke-linecap="round" stroke-linejoin="round" stroke-miterlimit="10" stroke-width="1.5"/>
          </g>
          <g id="g1839" transform="translate(44.4 7.302)">
            <path id="path1841" d="M-71.807-1.489a.557.557,0,0,0-.818.02A18.485,18.485,0,0,1-79.966,3.77h0V6.386c0,3.6,3.242,6.848,7.914,5.8A5.779,5.779,0,0,0-67.791,6.81V.9A8.34,8.34,0,0,1-71.807-1.489Z" transform="translate(79.966 1.658)" fill="none" stroke="#000" stroke-linecap="round" stroke-linejoin="round" stroke-miterlimit="10" stroke-width="1.5"/>
          </g>
          <g id="g1843" transform="translate(56.572 10.838)">
            <path id="path1845" d="M-.036-.126V4.367c0,.055,0,.109,0,.163A2.566,2.566,0,0,0,2.877,2.2,2.565,2.565,0,0,0-.036-.126Z" transform="translate(0.04 0.14)" fill="none" stroke="#000" stroke-linecap="round" stroke-linejoin="round" stroke-miterlimit="10" stroke-width="1.5"/>
          </g>
          <g id="g1847" transform="translate(9.688 6.958)">
            <path id="path1849" d="M-86.648-.012a0,0,0,0,0-.005,0,14.728,14.728,0,0,1-9.24,2.64.56.56,0,0,0-.6.558V8.095c0,3.624,3.262,6.887,7.959,5.836a5.815,5.815,0,0,0,4.288-5.412V2.79C-84.247,2.482-84.233,2.593-86.648-.012Z" transform="translate(96.494 0.013)" fill="none" stroke="#000" stroke-linecap="round" stroke-linejoin="round" stroke-miterlimit="10" stroke-width="1.5"/>
          </g>
          <g id="g1851" transform="translate(7.595)">
            <path id="path1853" d="M-18.418-92.817v-.39a.56.56,0,0,1,.6-.558,14.728,14.728,0,0,0,9.241-2.64,0,0,0,0,1,.005,0c2.415,2.6,2.4,2.494,2.4,2.8v.779a2.827,2.827,0,0,1,2.092.732v-3.392A7.741,7.741,0,0,0-8.8-102.641a8.271,8.271,0,0,0-11.714,7.492v3.122A3.062,3.062,0,0,1-18.418-92.817Z" transform="translate(20.511 103.365)" fill="none" stroke="#000" stroke-linecap="round" stroke-linejoin="round" stroke-miterlimit="10" stroke-width="1.5"/>
          </g>
          <g id="g1855" transform="translate(21.931 10.534)">
            <path id="path1857" d="M-.038-.052V4.473c0,.057,0,.114,0,.171A2.574,2.574,0,0,0,2.8,2.3,2.573,2.573,0,0,0-.038-.052Z" transform="translate(0.043 0.058)" fill="none" stroke="#000" stroke-linecap="round" stroke-linejoin="round" stroke-miterlimit="10" stroke-width="1.5"/>
          </g>
          <g id="g1859" transform="translate(6.852 10.546)">
            <path id="path1861" d="M-24.962-39.774v-4.518A2.694,2.694,0,0,0-27.8-41.951,2.574,2.574,0,0,0-24.958-39.6C-24.96-39.66-24.962-39.717-24.962-39.774Z" transform="translate(27.799 44.293)" fill="none" stroke="#000" stroke-linecap="round" stroke-linejoin="round" stroke-miterlimit="10" stroke-width="1.5"/>
          </g>
          <g id="g1863" transform="translate(10.206 20.036)">
            <path id="path1865" d="M-81.049-25.683a.155.155,0,0,1-.1-.144V-28.6a6,6,0,0,1-3.419,1.065,6.338,6.338,0,0,1-3.448-.974v2.683a.154.154,0,0,1-.1.144l-2.146.832c.86.952,1.82,2,2.7,2.955a3.95,3.95,0,0,0,5.81,0c.893-.969,1.869-2.035,2.739-3Z" transform="translate(90.258 28.601)" fill="none" stroke="#000" stroke-linecap="round" stroke-linejoin="round" stroke-miterlimit="10" stroke-width="1.5"/>
          </g>
          <g id="g1867" transform="translate(0.019 20.036)">
            <path id="path1869" d="M-150.4-202.683a5.392,5.392,0,0,1,3.147-4.882l8.075-3.13a.666.666,0,0,0,.426-.621v-2.157a5.629,5.629,0,0,1-2.589-4.743c0,.053,0,.107,0,.16a2.411,2.411,0,0,1-2.661-2.2,1.79,1.79,0,0,1,.228-.866l-4.323-1.674a.155.155,0,0,1-.1-.144v-2.774a6,6,0,0,1-3.419,1.065,6.337,6.337,0,0,1-3.448-.974v2.683a.155.155,0,0,1-.1.144l-8.974,3.479a5.755,5.755,0,0,0-3.359,5.211v13.932a1.32,1.32,0,0,0,1.32,1.32h15.77Z" transform="translate(167.489 225.714)" fill="none" stroke="#000" stroke-linecap="round" stroke-linejoin="round" stroke-miterlimit="10" stroke-width="1.5"/>
          </g>
          <g id="g1871" transform="translate(35.19 20.315)">
            <path id="path1873" d="M-244.723-53.844l-8.628-3.341a.711.711,0,0,1-.455-.663v-2.1a5.966,5.966,0,0,1-3.342,1.019,6.284,6.284,0,0,1-3.525-1.031v2.5a.155.155,0,0,1-.1.144l-6.653,2.579a2.417,2.417,0,0,1-2.659,2.16,5.653,5.653,0,0,1-2.448,4.5v2.242a.667.667,0,0,0,.426.621l8.084,3.131a5.392,5.392,0,0,1,3.147,4.882v3.829h18.191a1.32,1.32,0,0,0,1.32-1.32V-48.634A5.755,5.755,0,0,0-244.723-53.844Z" transform="translate(272.531 59.963)" fill="none" stroke="#000" stroke-linecap="round" stroke-linejoin="round" stroke-miterlimit="10" stroke-width="1.5"/>
          </g>
          <g id="g1875" transform="translate(44.805 20.315)">
            <path id="path1877" d="M-80.179-21.958v-2.483a5.966,5.966,0,0,1-3.342,1.019,6.284,6.284,0,0,1-3.525-1.031v2.5a.155.155,0,0,1-.1.144l-2.146.832c.727.8,1.526,1.678,2.287,2.506a4.508,4.508,0,0,0,6.637,0c.775-.842,1.588-1.732,2.325-2.548l-2.039-.79A.154.154,0,0,1-80.179-21.958Z" transform="translate(89.29 24.453)" fill="none" stroke="#000" stroke-linecap="round" stroke-linejoin="round" stroke-miterlimit="10" stroke-width="1.5"/>
          </g>
          <g id="g1879" transform="translate(42.094 0)">
            <path id="path1881" d="M-43.617-178.782h0a5.975,5.975,0,0,1-2.651-4.97v-2.615h0a18.487,18.487,0,0,0,7.341-5.238.557.557,0,0,1,.818-.021,8.337,8.337,0,0,0,4.016,2.384v1a2.794,2.794,0,0,1,2.306.852v-3.645a7.917,7.917,0,0,0-4.829-7.322,8.449,8.449,0,0,0-11.96,7.657v12.4a.556.556,0,0,0,.556.556h4.4Z" transform="translate(48.573 199.097)" fill="none" stroke="#000" stroke-linecap="round" stroke-linejoin="round" stroke-miterlimit="10" stroke-width="1.5"/>
          </g>
          <g id="g1883" transform="translate(53.916 14.657)">
            <path id="path1885" d="M-23.366-7.494a6,6,0,0,1-2.655,4.819v1.019h4.41a.556.556,0,0,0,.556-.556V-8.345A2.793,2.793,0,0,1-23.366-7.494Z" transform="translate(26.021 8.345)" fill="none" stroke="#000" stroke-linecap="round" stroke-linejoin="round" stroke-miterlimit="10" stroke-width="1.5"/>
          </g>
          <g id="g1891" transform="translate(26.168 20.099)">
            <path id="path1893" d="M-83.851-1.471a.524.524,0,0,0-.671-.082,13.78,13.78,0,0,1-8.3,2.228.525.525,0,0,0-.562.523V5.8a5.661,5.661,0,0,0,5.819,5.655A5.662,5.662,0,0,0-81.905,5.8V.827c0-.275.012-.193-1.946-2.3Z" transform="translate(93.38 1.639)" fill="none" stroke="#000" stroke-linecap="round" stroke-linejoin="round" stroke-miterlimit="10" stroke-width="1.5"/>
          </g>
          <g id="g1895" transform="translate(24.207 13.42)">
            <path id="path1897" d="M-17.256-86.962v-.366a.525.525,0,0,1,.562-.523,13.782,13.782,0,0,0,8.3-2.228A.524.524,0,0,1-7.728-90c1.958,2.1,1.946,2.023,1.946,2.3v.431c0,.005,0,.01,0,.015v.284a2.648,2.648,0,0,1,1.96.686v-2.863a7.7,7.7,0,0,0-7.7-7.7,7.7,7.7,0,0,0-7.7,7.7v2.925A2.869,2.869,0,0,1-17.256-86.962Z" transform="translate(19.217 96.844)" fill="none" stroke="#000" stroke-linecap="round" stroke-linejoin="round" stroke-miterlimit="10" stroke-width="1.5"/>
          </g>
          <g id="g1899" transform="translate(37.639 23.289)">
            <path id="path1901" d="M-.035-.049v4.24c0,.053,0,.107,0,.16a2.412,2.412,0,0,0,2.662-2.2A2.411,2.411,0,0,0-.035-.049Z" transform="translate(0.039 0.055)" fill="none" stroke="#000" stroke-linecap="round" stroke-linejoin="round" stroke-miterlimit="10" stroke-width="1.5"/>
          </g>
          <g id="g1903" transform="translate(23.511 23.3)">
            <path id="path1905" d="M-23.388-37.263V-41.5A2.524,2.524,0,0,0-26.045-39.3a2.411,2.411,0,0,0,2.662,2.2C-23.385-37.157-23.388-37.21-23.388-37.263Z" transform="translate(26.045 41.498)" fill="none" stroke="#000" stroke-linecap="round" stroke-linejoin="round" stroke-miterlimit="10" stroke-width="1.5"/>
          </g>
          <g id="g1907" transform="translate(26.553 32.192)">
            <path id="path1909" d="M-47.745-55.566a6.7,6.7,0,0,0,5.424-2.759l-1.786-.692a.667.667,0,0,1-.426-.621V-61.88a5.622,5.622,0,0,1-3.2,1,5.937,5.937,0,0,1-3.23-.912v2.157a.667.667,0,0,1-.426.621l-1.779.69A6.7,6.7,0,0,0-47.745-55.566Z" transform="translate(53.171 61.88)" fill="none" stroke="#000" stroke-linecap="round" stroke-linejoin="round" stroke-miterlimit="10" stroke-width="1.5"/>
          </g>
          <g id="g1911" transform="translate(50.488 27.747)">
            <path id="path1913" d="M0,0V4.364" fill="none" stroke="#000" stroke-linecap="round" stroke-linejoin="round" stroke-miterlimit="10" stroke-width="1.5"/>
          </g>
          <g id="g1915" transform="translate(15.889 28.016)">
            <path id="path1917" d="M0,0V4.1" fill="none" stroke="#000" stroke-linecap="round" stroke-linejoin="round" stroke-miterlimit="10" stroke-width="1.5"/>
          </g>
          <g id="g1919" transform="translate(6.251 35.794)">
            <path id="path1921" d="M0,0V10.968" fill="none" stroke="#000" stroke-linecap="round" stroke-linejoin="round" stroke-miterlimit="10" stroke-width="1.5"/>
          </g>
          <g id="g1923" transform="translate(60.126 35.794)">
            <path id="path1925" d="M0,0V10.968" fill="none" stroke="#000" stroke-linecap="round" stroke-linejoin="round" stroke-miterlimit="10" stroke-width="1.5"/>
          </g>
          <g id="g1927" transform="translate(17.109 32.192)">
            <path id="path1929" d="M-151.8-129.4h12.488v-3.829a5.392,5.392,0,0,0-3.147-4.882l-8.084-3.131a.667.667,0,0,1-.426-.621v-2.242a5.622,5.622,0,0,1-3.2,1,5.937,5.937,0,0,1-3.23-.913v2.157a.667.667,0,0,1-.426.621l-8.075,3.131a5.392,5.392,0,0,0-3.147,4.882v3.829h12.488" transform="translate(169.053 144.108)" fill="none" stroke="#000" stroke-linecap="round" stroke-linejoin="round" stroke-miterlimit="10" stroke-width="1.5"/>
          </g>
        </g>
      </g>
    </g>
  </g>
</svg>
