<svg xmlns="http://www.w3.org/2000/svg" xmlns:xlink="http://www.w3.org/1999/xlink" width="113" height="113" viewBox="0 0 113 113">
  <defs>
    <filter id="Trazado_982547" x="0" y="0" width="113" height="113" filterUnits="userSpaceOnUse">
      <feOffset dy="3" input="SourceAlpha"/>
      <feGaussianBlur stdDeviation="3" result="blur"/>
      <feFlood flood-opacity="0.161"/>
      <feComposite operator="in" in2="blur"/>
      <feComposite in="SourceGraphic"/>
    </filter>
  </defs>
  <g id="Grupo_1172462" data-name="Grupo 1172462" transform="translate(-1216.5 -3042.645)">
    <g id="Grupo_1172009" data-name="Grupo 1172009" transform="translate(0 1744.5)">
      <g id="Grupo_1171049" data-name="Grupo 1171049" transform="translate(1225.5 1304.145)">
        <g id="Grupo_1148525" data-name="Grupo 1148525" transform="translate(0)">
          <g transform="matrix(1, 0, 0, 1, -9, -6)" filter="url(#Trazado_982547)">
            <g id="Trazado_982547-2" data-name="Trazado 982547" transform="translate(9 6)" fill="#f4fdfe">
              <path d="M 47.5 93.5 C 41.28937149047852 93.5 35.26533508300781 92.28397369384766 29.59518623352051 89.88570404052734 C 24.11771965026855 87.56893157958984 19.19813346862793 84.25196075439453 14.97309303283691 80.02691650390625 C 10.74804019927979 75.80186462402344 7.431066513061523 70.88229370117188 5.114293098449707 65.40481567382812 C 2.716026782989502 59.73468017578125 1.5 53.71062850952148 1.5 47.5 C 1.5 41.28937149047852 2.716026782989502 35.26533508300781 5.114293098449707 29.59518623352051 C 7.431066513061523 24.11771965026855 10.74804019927979 19.19813346862793 14.97309303283691 14.97309303283691 C 19.19813346862793 10.74804019927979 24.11771965026855 7.431066513061523 29.59518623352051 5.114293098449707 C 35.26533508300781 2.716026782989502 41.28937149047852 1.5 47.5 1.5 C 53.71062850952148 1.5 59.73468017578125 2.716026782989502 65.40481567382812 5.114293098449707 C 70.88229370117188 7.431066513061523 75.80186462402344 10.74804019927979 80.02691650390625 14.97309303283691 C 84.25196075439453 19.19813346862793 87.56893157958984 24.11771965026855 89.88570404052734 29.59518623352051 C 92.28397369384766 35.26533508300781 93.5 41.28937149047852 93.5 47.5 C 93.5 53.71062850952148 92.28397369384766 59.73468017578125 89.88570404052734 65.40481567382812 C 87.56893157958984 70.88229370117188 84.25196075439453 75.80186462402344 80.02691650390625 80.02691650390625 C 75.80186462402344 84.25196075439453 70.88229370117188 87.56893157958984 65.40481567382812 89.88570404052734 C 59.73468017578125 92.28397369384766 53.71062850952148 93.5 47.5 93.5 Z" stroke="none"/>
              <path d="M 47.5 3 C 41.49121475219727 3 35.66376876831055 4.176155090332031 30.17950439453125 6.495796203613281 C 24.88084411621094 8.736953735351562 20.12152099609375 11.94598388671875 16.03375244140625 16.03375244140625 C 11.94598388671875 20.12152099609375 8.736953735351562 24.88084411621094 6.495796203613281 30.17950439453125 C 4.176155090332031 35.66376876831055 3 41.49121475219727 3 47.5 C 3 53.50878524780273 4.176155090332031 59.33623123168945 6.495796203613281 64.82049560546875 C 8.736953735351562 70.11915588378906 11.94598388671875 74.87847900390625 16.03375244140625 78.96624755859375 C 20.12152099609375 83.05401611328125 24.88084411621094 86.26304626464844 30.17950439453125 88.50419616699219 C 35.66376876831055 90.82384490966797 41.49121475219727 92 47.5 92 C 53.50878524780273 92 59.33623123168945 90.82384490966797 64.82049560546875 88.50419616699219 C 70.11915588378906 86.26304626464844 74.87847900390625 83.05401611328125 78.96624755859375 78.96624755859375 C 83.05401611328125 74.87847900390625 86.26304626464844 70.11915588378906 88.50419616699219 64.82049560546875 C 90.82384490966797 59.33623123168945 92 53.50878524780273 92 47.5 C 92 41.49121475219727 90.82384490966797 35.66376876831055 88.50419616699219 30.17950439453125 C 86.26304626464844 24.88084411621094 83.05401611328125 20.12152099609375 78.96624755859375 16.03375244140625 C 74.87847900390625 11.94598388671875 70.11915588378906 8.736953735351562 64.82049560546875 6.495796203613281 C 59.33623123168945 4.176155090332031 53.50878524780273 3 47.5 3 M 47.5 0 C 73.7335205078125 0 95 21.2664794921875 95 47.5 C 95 73.7335205078125 73.7335205078125 95 47.5 95 C 21.2664794921875 95 0 73.7335205078125 0 47.5 C 0 21.2664794921875 21.2664794921875 0 47.5 0 Z" stroke="none" fill="#56838a"/>
            </g>
          </g>
        </g>
      </g>
    </g>
    <g id="management_17226346" transform="translate(1239.478 3039.48)">
      <path id="Trazado_1026644" data-name="Trazado 1026644" d="M27.165,178.385h49.3a2.45,2.45,0,0,0,2.444-2.444V148.488a2.453,2.453,0,0,0-2.444-2.444h-49.3a2.453,2.453,0,0,0-2.444,2.444v27.453a2.45,2.45,0,0,0,2.444,2.444Z" transform="translate(-18.293 -105.26)" fill="#4b4359" fill-rule="evenodd"/>
      <path id="Trazado_1026645" data-name="Trazado 1026645" d="M27.165,178.385H73.918a2.453,2.453,0,0,0,2.444-2.444V148.488a2.455,2.455,0,0,0-2.444-2.444H27.165a2.453,2.453,0,0,0-2.444,2.444v27.453a2.45,2.45,0,0,0,2.444,2.444Z" transform="translate(-18.293 -105.26)" fill="#574e66" fill-rule="evenodd"/>
      <path id="Trazado_1026646" data-name="Trazado 1026646" d="M55.477,176.8h46.982v25.135H55.477Z" transform="translate(-45.446 -132.413)" fill="#74c3fc"/>
      <path id="Trazado_1026647" data-name="Trazado 1026647" d="M13.35,428.795H64.3a3.352,3.352,0,0,0,3.341-3.341V422.11H10.009v3.344A3.35,3.35,0,0,0,13.35,428.795Z" transform="translate(-5.305 -348.985)" fill="#e1dae7" fill-rule="evenodd"/>
      <path id="Trazado_1026648" data-name="Trazado 1026648" d="M13.35,428.795H61.757a3.352,3.352,0,0,0,3.341-3.341V422.11H10.009v3.344a3.35,3.35,0,0,0,3.341,3.341Z" transform="translate(-5.305 -348.985)" fill="#ebe6ef" fill-rule="evenodd"/>
      <path id="Trazado_1026649" data-name="Trazado 1026649" d="M193.861,425.454h11.609a1.679,1.679,0,0,0,1.67-1.674v-1.67h-14.95v1.67a1.679,1.679,0,0,0,1.67,1.674Z" transform="translate(-166.144 -348.985)" fill="#40374f" fill-rule="evenodd"/>
      <path id="Trazado_1026650" data-name="Trazado 1026650" d="M193.862,425.454h8.8a1.677,1.677,0,0,0,1.67-1.674v-1.67H192.192v1.67A1.679,1.679,0,0,0,193.862,425.454Z" transform="translate(-166.145 -348.985)" fill="#4b4359" fill-rule="evenodd"/>
      <path id="Trazado_1026651" data-name="Trazado 1026651" d="M432.939,176.8H435.7v25.135h-2.763Z" transform="translate(-378.689 -132.413)" fill="#4bb3fd"/>
      <g id="Grupo_1172461" data-name="Grupo 1172461" transform="translate(15.135 27.523)">
        <path id="Trazado_1026652" data-name="Trazado 1026652" d="M267.125,352.038h-9.833a1.3,1.3,0,0,0-1.292,1.3v2.019a1.3,1.3,0,0,0,1.3,1.3l9.83,0a1.3,1.3,0,0,0,1.3-1.292v-2.019A1.3,1.3,0,0,0,267.125,352.038Z" transform="translate(-237.613 -314.646)" fill="#3198fc" fill-rule="evenodd"/>
        <path id="Trazado_1026653" data-name="Trazado 1026653" d="M265.012,352.038h-7.721a1.3,1.3,0,0,0-1.292,1.3v2.019a1.3,1.3,0,0,0,1.3,1.3l7.711,0C265,355.14,265.008,353.2,265.012,352.038Z" transform="translate(-237.612 -314.646)" fill="#4bb3fd" fill-rule="evenodd"/>
        <path id="Trazado_1026654" data-name="Trazado 1026654" d="M280.131,132.76c-.08-2.341,1.478-3.281,2.969-4.715,2.391-2.295,4.46-4.52,4.779-6.585.189-1.255.056-12.516-.764-15.229-.508-1.68-1.315-2.843-2.557-2.511-.824.183-1.554,1.169-1.541,2.992.02,3.1.133,8.153-.638,11.128-1.674-2.912-8.508,3.513-9.723,5.167-1.428,1.946-1.345,5.855-1.232,9.753h8.707Z" transform="translate(-251.181 -95.368)" fill="#f6b4a8" fill-rule="evenodd"/>
        <path id="Trazado_1026655" data-name="Trazado 1026655" d="M284.531,104.2c-.814.2-1.527,1.179-1.514,2.985.02,3.1.133,8.153-.638,11.128-1.674-2.912-8.508,3.513-9.723,5.167-1.428,1.946-1.345,5.855-1.232,9.753h7.156c0-.581.007-.97.007-1.009.163-1.953,1.587-2.853,2.959-4.171,2.391-2.3,4.463-4.52,4.779-6.585.193-1.255.056-12.516-.764-15.229a5.187,5.187,0,0,0-1.029-2.039Z" transform="translate(-251.181 -95.845)" fill="#f9c9c0" fill-rule="evenodd"/>
        <path id="Trazado_1026656" data-name="Trazado 1026656" d="M346.354,211.332c1.355,2.175-1.029,4.9-2.677,6.522a.7.7,0,0,1-.99-1q3.377-3.362,2.464-4.789a15.828,15.828,0,0,0,.322-1.674,2.882,2.882,0,0,1,.88.943Z" transform="translate(-313.953 -189.591)" fill="#f6b4a8" fill-rule="evenodd"/>
        <path id="Trazado_1026657" data-name="Trazado 1026657" d="M151.279,352.038h9.83a1.3,1.3,0,0,1,1.3,1.3v2.019a1.3,1.3,0,0,1-1.3,1.3l-9.83,0a1.3,1.3,0,0,1-1.3-1.292v-2.019A1.3,1.3,0,0,1,151.279,352.038Z" transform="translate(-144.017 -314.646)" fill="#3198fc" fill-rule="evenodd"/>
        <path id="Trazado_1026658" data-name="Trazado 1026658" d="M179.068,352.038h7.717a1.3,1.3,0,0,1,1.3,1.3v2.019a1.3,1.3,0,0,1-1.3,1.3l-7.711,0C179.075,355.14,179.071,353.2,179.068,352.038Z" transform="translate(-169.694 -314.646)" fill="#4bb3fd" fill-rule="evenodd"/>
        <path id="Trazado_1026659" data-name="Trazado 1026659" d="M106.872,132.76c.08-2.341-1.478-3.281-2.969-4.715-2.391-2.295-4.463-4.52-4.779-6.585-.189-1.255-.056-12.516.764-15.229.508-1.68,1.315-2.843,2.557-2.511.824.183,1.554,1.169,1.541,2.992-.02,3.1-.133,8.153.638,11.128,1.674-2.912,8.508,3.513,9.723,5.167,1.428,1.946,1.345,5.855,1.232,9.753h-8.707Z" transform="translate(-99.049 -95.368)" fill="#f6b4a8" fill-rule="evenodd"/>
        <path id="Trazado_1026660" data-name="Trazado 1026660" d="M114.174,104.2c.814.2,1.528,1.179,1.514,2.985-.02,3.1-.133,8.153.638,11.128,1.674-2.912,8.508,3.513,9.723,5.167,1.428,1.946,1.345,5.855,1.232,9.753h-7.156c0-.581-.007-.97-.01-1.009-.159-1.953-1.584-2.853-2.955-4.171-2.391-2.3-4.463-4.52-4.779-6.585-.193-1.255-.056-12.516.764-15.229a5.187,5.187,0,0,1,1.029-2.039Z" transform="translate(-110.751 -95.845)" fill="#f9c9c0" fill-rule="evenodd"/>
        <path id="Trazado_1026661" data-name="Trazado 1026661" d="M133.358,211.332c-1.355,2.175,1.026,4.9,2.677,6.522a.7.7,0,0,0,.99-1q-3.377-3.362-2.464-4.789a15.817,15.817,0,0,1-.322-1.674,2.881,2.881,0,0,0-.88.943Z" transform="translate(-128.985 -189.591)" fill="#f6b4a8" fill-rule="evenodd"/>
        <path id="Trazado_1026662" data-name="Trazado 1026662" d="M178.244,35.019a8.99,8.99,0,0,1,1.923.8l1.378-.8a.835.835,0,0,1,1.019.136l.867.867.87.867a.84.84,0,0,1,.133,1.019l-.8,1.381a9.036,9.036,0,0,1,.8,1.919l1.537.415a.832.832,0,0,1,.628.814v2.454a.835.835,0,0,1-.628.814l-1.537.412a8.991,8.991,0,0,1-.8,1.923l.8,1.381a.835.835,0,0,1-.136,1.019l-.867.867-.867.867a.835.835,0,0,1-1.019.136l-1.378-.8a8.99,8.99,0,0,1-1.923.8l-.412,1.537a.836.836,0,0,1-.817.624h-2.454a.832.832,0,0,1-.814-.624l-.412-1.537a8.99,8.99,0,0,1-1.923-.8l-1.381.794a.83.83,0,0,1-1.019-.133l-.867-.867-.867-.867a.835.835,0,0,1-.133-1.019l.8-1.381a8.667,8.667,0,0,1-.8-1.923l-1.541-.412a.835.835,0,0,1-.624-.814V42.437a.839.839,0,0,1,.624-.817l1.541-.412a8.706,8.706,0,0,1,.8-1.919l-.8-1.381a.835.835,0,0,1,.133-1.019l.867-.867.867-.867a.835.835,0,0,1,1.019-.136l1.381.8a8.99,8.99,0,0,1,1.923-.8l.412-1.537a.833.833,0,0,1,.817-.624h2.451a.833.833,0,0,1,.817.624l.412,1.537Z" transform="translate(-157.257 -32.857)" fill="#ffc738" fill-rule="evenodd"/>
        <path id="Trazado_1026663" data-name="Trazado 1026663" d="M241.208,35.016a8.99,8.99,0,0,1,1.923.8l1.378-.8a.835.835,0,0,1,1.019.136l.867.867.87.867a.84.84,0,0,1,.133,1.019l-.8,1.381a9.035,9.035,0,0,1,.8,1.919l1.537.415a.832.832,0,0,1,.628.814v2.454a.835.835,0,0,1-.628.814l-1.537.412a8.99,8.99,0,0,1-.8,1.923l.8,1.381a.835.835,0,0,1-.136,1.019l-.867.867-.867.867a.835.835,0,0,1-1.019.136l-1.378-.8a8.99,8.99,0,0,1-1.923.8l-.412,1.537a.836.836,0,0,1-.817.624h-2.454a.832.832,0,0,1-.814-.624l-.412-1.537a8.676,8.676,0,0,0,0-17.291l.412-1.537a.833.833,0,0,1,.817-.624h2.451a.833.833,0,0,1,.817.624l.412,1.537Z" transform="translate(-220.221 -32.854)" fill="#ffb122" fill-rule="evenodd"/>
        <path id="Trazado_1026664" data-name="Trazado 1026664" d="M222.787,95.233a4.571,4.571,0,1,0-4.573-4.573A4.578,4.578,0,0,0,222.787,95.233Z" transform="translate(-204.254 -79.854)" fill="#f28d00" fill-rule="evenodd"/>
        <path id="Trazado_1026665" data-name="Trazado 1026665" d="M221.379,96.662a4.572,4.572,0,0,1,0-8.7,4.571,4.571,0,0,1,0,8.7Z" transform="translate(-204.254 -81.506)" fill="#ff9b0d" fill-rule="evenodd"/>
      </g>
      <path id="Trazado_1026666" data-name="Trazado 1026666" d="M33.668,34.464A3.865,3.865,0,1,1,29.8,38.329,3.869,3.869,0,0,1,33.668,34.464Zm0,9.139a5.273,5.273,0,1,0-5.277-5.273A5.278,5.278,0,0,0,33.668,43.6ZM61.635,76.465A2.64,2.64,0,0,1,59,79.105H8.045a2.64,2.64,0,0,1-2.637-2.64V73.829H25.343V74.8a2.376,2.376,0,0,0,2.374,2.374H39.327A2.376,2.376,0,0,0,41.7,74.8v-.966H61.636v2.637ZM26.751,73.829H40.293V74.8a.965.965,0,0,1-.966.966H27.717a.967.967,0,0,1-.966-.966ZM7.131,70.681V43.228a1.742,1.742,0,0,1,1.74-1.74H14.8c-.063.687-.116,1.431-.159,2.2H10.03a.7.7,0,0,0-.7.7V69.521a.7.7,0,0,0,.7.7H57.013a.7.7,0,0,0,.7-.7V44.387a.7.7,0,0,0-.7-.7h-4.6c-.047-.764-.1-1.508-.163-2.2h5.924a1.742,1.742,0,0,1,1.74,1.74V70.681a1.742,1.742,0,0,1-1.74,1.74H8.872a1.742,1.742,0,0,1-1.74-1.74Zm9.517-32.089c.319-1.053.87-2.258,1.7-2.036a.1.1,0,0,0,.033.007c.5.11,1,.863.986,2.3,0,.249,0,.515-.007.787-.027,3.151-.063,7.429.6,10.261C19.206,51.7,21.421,54.1,23.2,55.787a.7.7,0,1,0,.97-1.02c-3.278-3.108-3.022-4.148-2.863-4.39l.01-.02s0-.007.007-.01a.727.727,0,0,1,.658-.392.816.816,0,0,1,.09,0c2.188,0,6.745,4.2,7.8,5.629,1.232,1.674,1.205,5.283,1.116,8.631H23.639c-.189-1.823-1.342-2.859-2.457-3.869-.232-.209-.472-.425-.7-.651-2.056-1.973-4.27-4.241-4.569-6.183-.113-.737-.1-5.121.1-9.032a.823.823,0,0,0,.007-.09v-.013c.063-1.262.149-2.467.256-3.484a.411.411,0,0,0,.007-.063,13.992,13.992,0,0,1,.375-2.235Zm7.857,2.9a9.434,9.434,0,0,0,.511,1.209l-.571.986H20.78c-.017-.75-.02-1.488-.02-2.2ZM23.563,37.1a.13.13,0,0,1,.1-.136l1.541-.412a.7.7,0,0,0,.495-.491,8.05,8.05,0,0,1,.734-1.767.715.715,0,0,0,0-.7l-.8-1.378a.132.132,0,0,1,.023-.169l1.73-1.733a.137.137,0,0,1,.173-.023l1.381.8a.7.7,0,0,0,.694,0,8.542,8.542,0,0,1,1.773-.734.7.7,0,0,0,.488-.495l.412-1.538a.133.133,0,0,1,.136-.106h2.451a.133.133,0,0,1,.136.106l.412,1.538a.705.705,0,0,0,.488.495A8.529,8.529,0,0,1,37.7,31.1a.7.7,0,0,0,.694,0l1.375-.8a.139.139,0,0,1,.173.02l1.737,1.737a.136.136,0,0,1,.023.169l-.8,1.378a.7.7,0,0,0-.007.7,8.333,8.333,0,0,1,.734,1.77.705.705,0,0,0,.495.488l1.537.412a.132.132,0,0,1,.106.136v2.451a.136.136,0,0,1-.106.14l-1.537.412h-.007c-.027.01-.053.017-.08.027s-.053.027-.076.04l-.017.01-.053.033c-.007.007-.013.01-.02.017a.309.309,0,0,0-.05.043l-.01.01c-.02.02-.037.04-.056.06,0,.007-.007.01-.01.017s-.023.033-.037.053a.045.045,0,0,0-.01.017.712.712,0,0,0-.037.07.012.012,0,0,0,0,.007.45.45,0,0,0-.027.08,0,0,0,0,0,0,0,8.355,8.355,0,0,1-.734,1.773.7.7,0,0,0,0,.694l.8,1.381a.132.132,0,0,1-.023.169l-1.733,1.733a.132.132,0,0,1-.169.023l-1.378-.8a.7.7,0,0,0-.694-.007,8.188,8.188,0,0,1-1.773.734.716.716,0,0,0-.488.5l-.409,1.531a.139.139,0,0,1-.14.11H32.439a.129.129,0,0,1-.133-.106l-.412-1.534a.71.71,0,0,0-.488-.5,8.187,8.187,0,0,1-1.773-.734.693.693,0,0,0-.342-.09.7.7,0,0,0-.352.1l-1.381.794a.127.127,0,0,1-.169-.02l-1.733-1.737a.129.129,0,0,1-.02-.166l.8-1.381a.714.714,0,0,0,0-.7,7.909,7.909,0,0,1-.734-1.767,0,0,0,0,0,0,0,.588.588,0,0,0-.063-.156.069.069,0,0,0-.013-.02.472.472,0,0,0-.033-.053.032.032,0,0,1-.013-.017c-.017-.02-.037-.04-.053-.06,0,0-.007,0-.01-.007a.694.694,0,0,0-.053-.047.068.068,0,0,0-.02-.013.3.3,0,0,0-.053-.037l-.017-.01c-.023-.013-.05-.027-.076-.04s-.053-.017-.08-.027h-.007l-1.541-.412a.136.136,0,0,1-.1-.14V37.1Zm22.7,6.579H42.893l-.575-.99a9.861,9.861,0,0,0,.508-1.205h3.457C46.284,42.195,46.28,42.932,46.264,43.683Zm2.4-7.12a.115.115,0,0,0,.033-.007c.83-.222,1.385.983,1.7,2.036a13.637,13.637,0,0,1,.375,2.232.485.485,0,0,0,.007.07c.106,1.013.193,2.218.256,3.48v.013a.8.8,0,0,0,.007.09c.2,3.912.209,8.3.1,9.029-.3,1.946-2.514,4.214-4.569,6.19-.232.222-.472.438-.7.648-1.116,1.009-2.268,2.046-2.457,3.869H36.062c-.09-3.347-.113-6.957,1.116-8.631,1.066-1.455,5.738-5.748,7.887-5.625a.727.727,0,0,1,.658.392s.007.007.007.01a.07.07,0,0,0,.013.02c.156.242.412,1.282-2.866,4.39a.7.7,0,0,0,.97,1.02c1.78-1.687,3.992-4.088,3.234-5.874.664-2.833.628-7.11.6-10.258,0-.276,0-.541-.007-.79-.01-1.438.488-2.192.986-2.3ZM44.826,64.222c.173-1.2.953-1.909,1.979-2.833.239-.216.488-.442.737-.681,2.833-2.723,4.656-4.842,4.984-6.99a85.592,85.592,0,0,0-.047-8.627h3.829V68.818H46.556a1.91,1.91,0,0,0,.09-.588V66.208a2,2,0,0,0-1.82-1.986ZM21.162,48.707a31.019,31.019,0,0,1-.339-3.616h3.493a1.521,1.521,0,0,0,.342.511l1.737,1.74a1.537,1.537,0,0,0,1.866.242l1.043-.6a9.789,9.789,0,0,0,1.328.548l.312,1.162a1.546,1.546,0,0,0,1.494,1.149h2.454a1.537,1.537,0,0,0,1.5-1.149l.312-1.162a9.654,9.654,0,0,0,1.328-.548l1.043.6a1.547,1.547,0,0,0,1.866-.246l1.73-1.733a1.544,1.544,0,0,0,.345-.515h3.2a31.835,31.835,0,0,1-.335,3.616,2.315,2.315,0,0,0-.741-.156c-3.009-.176-8.129,4.875-9.1,6.2-1.5,2.049-1.488,5.765-1.388,9.474a1.992,1.992,0,0,0-1.132.468,1.983,1.983,0,0,0-1.132-.468c.1-3.709.113-7.425-1.388-9.474-.956-1.3-5.921-6.2-8.953-6.2-.05,0-.1,0-.149.007a2.3,2.3,0,0,0-.737.156Zm-6.645,5.011c.329,2.149,2.152,4.267,4.984,6.99.249.239.5.465.737.681,1.026.923,1.807,1.634,1.979,2.833a2,2,0,0,0-1.82,1.986V68.23a1.909,1.909,0,0,0,.09.588H10.735V45.091h3.829a85.582,85.582,0,0,0-.047,8.627Zm7.88,15.1a.59.59,0,0,1-.591-.588V66.207a.592.592,0,0,1,.591-.588H32.23a.59.59,0,0,1,.588.591V68.23a.59.59,0,0,1-.591.588H22.4Zm12.42,0a.59.59,0,0,1-.591-.588V66.211a.59.59,0,0,1,.588-.591h9.833a.592.592,0,0,1,.591.588V68.23a.59.59,0,0,1-.591.588h-9.83Zm27.523,3.6H60.8a3.124,3.124,0,0,0,.525-1.74V43.228a3.153,3.153,0,0,0-3.148-3.148H52.1a12.872,12.872,0,0,0-.355-1.9c-.946-3.125-2.527-3.218-3.4-2.992-1.019.232-2.1,1.318-2.079,3.683,0,.252,0,.515.007.79,0,.136,0,.276,0,.415H45.091a1.515,1.515,0,0,0,.09-.525V37.1a1.529,1.529,0,0,0-1.149-1.494L42.87,35.3a9.485,9.485,0,0,0-.551-1.328l.6-1.043a1.552,1.552,0,0,0-.246-1.87L40.94,29.323a1.552,1.552,0,0,0-1.87-.246l-1.039.6a9.651,9.651,0,0,0-1.328-.551l-.312-1.159a1.533,1.533,0,0,0-1.5-1.152H32.442a1.534,1.534,0,0,0-1.5,1.149l-.312,1.162a9.835,9.835,0,0,0-1.328.551l-1.043-.6a1.539,1.539,0,0,0-1.87.246l-1.733,1.733a1.529,1.529,0,0,0-.242,1.87l.6,1.043a9.22,9.22,0,0,0-.555,1.328L23.3,35.61A1.53,1.53,0,0,0,22.155,37.1v2.451a1.6,1.6,0,0,0,.09.525H20.767c0-.139,0-.279,0-.415,0-.276,0-.538.007-.79.017-2.364-1.059-3.45-2.079-3.683-.87-.226-2.451-.133-3.4,2.992a12.868,12.868,0,0,0-.355,1.9H8.872a3.153,3.153,0,0,0-3.148,3.148V70.68a3.15,3.15,0,0,0,.525,1.74H4.7a.7.7,0,0,0-.7.7v3.341a4.05,4.05,0,0,0,4.045,4.048H59a4.05,4.05,0,0,0,4.045-4.048V73.125a.7.7,0,0,0-.7-.7Z" transform="translate(0 0)" fill="#070202"/>
    </g>
  </g>
</svg>
