<svg xmlns="http://www.w3.org/2000/svg" xmlns:xlink="http://www.w3.org/1999/xlink" width="110" height="110" viewBox="0 0 110 110">
  <defs>
    <filter id="Trazado_982547" x="0" y="0" width="110" height="110" filterUnits="userSpaceOnUse">
      <feOffset dy="3" input="SourceAlpha"/>
      <feGaussianBlur stdDeviation="3" result="blur"/>
      <feFlood flood-opacity="0.161"/>
      <feComposite operator="in" in2="blur"/>
      <feComposite in="SourceGraphic"/>
    </filter>
  </defs>
  <g id="Grupo_1172349" data-name="Grupo 1172349" transform="translate(-1112 -1960)">
    <g id="Grupo_1164700" data-name="Grupo 1164700" transform="translate(1121 1966)">
      <g id="Grupo_1160931" data-name="Grupo 1160931" transform="translate(0)">
        <g id="Grupo_1160749" data-name="Grupo 1160749" transform="translate(0)">
          <g id="Grupo_1158891" data-name="Grupo 1158891" transform="translate(0 0)">
            <g id="Grupo_1157406" data-name="Grupo 1157406" transform="translate(0)">
              <g id="Grupo_1155793" data-name="Grupo 1155793" transform="translate(0)">
                <g id="Grupo_1154704" data-name="Grupo 1154704" transform="translate(0)">
                  <g id="Grupo_1150790" data-name="Grupo 1150790" transform="translate(0)">
                    <g id="Grupo_1154214" data-name="Grupo 1154214" transform="translate(0)">
                      <g id="Grupo_1152583" data-name="Grupo 1152583" transform="translate(0 0)">
                        <g id="Grupo_1146973" data-name="Grupo 1146973" transform="translate(0 0)">
                          <g id="Grupo_1146954" data-name="Grupo 1146954">
                            <g transform="matrix(1, 0, 0, 1, -9, -6)" filter="url(#Trazado_982547)">
                              <g id="Trazado_982547-2" data-name="Trazado 982547" transform="translate(9 6)" fill="#edf3fc">
                                <path d="M 46.00000381469727 90.49988555908203 C 39.99188232421875 90.49988555908203 34.16427230834961 89.32352447509766 28.67905807495117 87.00347137451172 C 23.38020324707031 84.76226043701172 18.62104415893555 81.55342864990234 14.53375053405762 77.46615600585938 C 10.44647026062012 73.37887573242188 7.237643718719482 68.61971282958984 4.996417045593262 63.32085800170898 C 2.676363706588745 57.83565902709961 1.500003814697266 52.00806045532227 1.500003814697266 45.99993896484375 C 1.500003814697266 39.99181747436523 2.676363706588745 34.16421890258789 4.996417045593262 28.67901802062988 C 7.237643718719482 23.38017845153809 10.44647026062012 18.62101936340332 14.53375053405762 14.53373908996582 C 18.62104415893555 10.44645881652832 23.38020324707031 7.237632274627686 28.67905807495117 4.996418952941895 C 34.16427230834961 2.676365613937378 39.99188232421875 1.500005602836609 46.00000381469727 1.500005602836609 C 52.00812530517578 1.500005602836609 57.83573532104492 2.676365613937378 63.32094955444336 4.996418952941895 C 68.61980438232422 7.237632274627686 73.37897491455078 10.44645881652832 77.46625518798828 14.53373908996582 C 81.55355072021484 18.62101936340332 84.76236724853516 23.38017845153809 87.00359344482422 28.67901802062988 C 89.32364654541016 34.16421890258789 90.5 39.99181747436523 90.5 45.99993896484375 C 90.5 52.00806045532227 89.32364654541016 57.83565902709961 87.00359344482422 63.32085800170898 C 84.76236724853516 68.61971282958984 81.55355072021484 73.37887573242188 77.46625518798828 77.46615600585938 C 73.37897491455078 81.55342864990234 68.61980438232422 84.76226043701172 63.32094955444336 87.00347137451172 C 57.83573532104492 89.32352447509766 52.00812530517578 90.49988555908203 46.00000381469727 90.49988555908203 Z" stroke="none"/>
                                <path d="M 46.00000381469727 2.999992370605469 C 40.19371795654297 2.999992370605469 34.56270217895508 4.136497497558594 29.26338958740234 6.377906799316406 C 24.14333343505859 8.543510437011719 19.54441833496094 11.64437866210938 15.59440612792969 15.59439849853516 C 11.64440155029297 19.54439544677734 8.54351806640625 24.14329528808594 6.377914428710938 29.26335144042969 C 4.136505126953125 34.56266784667969 3.000007629394531 40.19366836547852 3.000007629394531 45.99993896484375 C 3.000007629394531 51.80620956420898 4.136505126953125 57.43722534179688 6.377914428710938 62.73654174804688 C 8.54351806640625 67.85658264160156 11.64440155029297 72.45548248291016 15.59440612792969 76.40549468994141 C 19.54441833496094 80.35549926757812 24.14333343505859 83.45636749267578 29.26337432861328 85.62196350097656 C 34.56270217895508 87.86338043212891 40.19371795654297 88.9998779296875 46.00000381469727 88.9998779296875 C 51.80628967285156 88.9998779296875 57.43730545043945 87.86338043212891 62.73663330078125 85.62196350097656 C 67.85667419433594 83.45636749267578 72.45558929443359 80.35549926757812 76.40560150146484 76.40549468994141 C 80.35560607910156 72.45548248291016 83.45648956298828 67.85658264160156 85.62208557128906 62.73654174804688 C 87.86350250244141 57.43722534179688 89 51.80620956420898 89 45.99993896484375 C 89 40.19366836547852 87.86350250244141 34.56266784667969 85.62208557128906 29.26335144042969 C 83.45648956298828 24.14329528808594 80.35560607910156 19.54439544677734 76.40560150146484 15.59439849853516 C 72.45558929443359 11.64437866210938 67.85667419433594 8.543510437011719 62.73661804199219 6.377906799316406 C 57.43730545043945 4.136497497558594 51.80628967285156 2.999992370605469 46.00000381469727 2.999992370605469 M 46.00000381469727 -7.62939453125e-06 C 71.40510559082031 -7.62939453125e-06 92 20.59487915039062 92 45.99993896484375 C 92 71.40501403808594 71.40510559082031 91.99988555908203 46.00000381469727 91.99988555908203 C 20.59490203857422 91.99988555908203 7.62939453125e-06 71.40501403808594 7.62939453125e-06 45.99993896484375 C 7.62939453125e-06 20.59487915039062 20.59490203857422 -7.62939453125e-06 46.00000381469727 -7.62939453125e-06 Z" stroke="none" fill="#5692e8"/>
                              </g>
                            </g>
                          </g>
                        </g>
                      </g>
                    </g>
                  </g>
                </g>
              </g>
            </g>
          </g>
        </g>
      </g>
    </g>
    <g id="psychology_9071748" transform="translate(1078.794 1974.338)">
      <g id="Grupo_1172353" data-name="Grupo 1172353" transform="translate(64.069 7.5)">
        <g id="Grupo_1172352" data-name="Grupo 1172352" transform="translate(0 0)">
          <g id="Grupo_1172351" data-name="Grupo 1172351">
            <path id="Trazado_1026350" data-name="Trazado 1026350" d="M212.846,284.19l4.458,25.754H187.577l4.655-25.754Z" transform="translate(-173.14 -251.846)" fill="#fed2a4"/>
            <path id="Trazado_1026351" data-name="Trazado 1026351" d="M220.745,284.19H200.131l-3.609,19.968a20.015,20.015,0,0,0,15.2-7.781l1.208-1.567a23.715,23.715,0,0,0,8.773-5.1Z" transform="translate(-181.039 -251.846)" fill="#ffbd86"/>
            <path id="Trazado_1026352" data-name="Trazado 1026352" d="M108.944,27.781a20.282,20.282,0,1,0-40.563.194V29.91a9.04,9.04,0,0,1-1.157,4.426l-2.963,5.278a1.434,1.434,0,0,0-.163.425,1.367,1.367,0,0,0,1,1.591l3.288.856-.543,1.673a.762.762,0,0,0,.315.877l.708.452a.762.762,0,0,1,.128,1.181.761.761,0,0,0-.1.952l.643.992a.762.762,0,0,1,.123.414v3.2a4.056,4.056,0,0,0,4.056,4.056H78.9a16.479,16.479,0,0,0,13.048-6.414l1.1-1.428a4.176,4.176,0,0,1,2-1.4A20.29,20.29,0,0,0,108.944,27.781Z" transform="translate(-64.072 -7.5)" fill="#ffe5c2"/>
            <path id="Trazado_1026353" data-name="Trazado 1026353" d="M146.48,70.226A20.292,20.292,0,0,1,134.9,98.886a4.177,4.177,0,0,0-2,1.4l-1.1,1.428a16.479,16.479,0,0,1-13.048,6.414h-5.188a4.04,4.04,0,0,1-1.691-.369,4.056,4.056,0,0,0,4.053,3.912h5.188a16.479,16.479,0,0,0,13.048-6.414l1.1-1.428a4.176,4.176,0,0,1,2-1.4,20.285,20.285,0,0,0,9.222-32.2Z" transform="translate(-106.279 -62.893)" fill="#fed2a4"/>
          </g>
        </g>
      </g>
      <path id="Trazado_1026354" data-name="Trazado 1026354" d="M68.808,146.81A20.56,20.56,0,0,0,68.379,151v1.935a9.045,9.045,0,0,1-1.157,4.426l-2.965,5.278a1.45,1.45,0,0,0-.162.424,1.368,1.368,0,0,0,1,1.591l3.288.856-.544,1.673a.764.764,0,0,0,.314.878l.708.451a.762.762,0,0,1,.129,1.182.761.761,0,0,0-.1.953l.643.991a.767.767,0,0,1,.122.414v3.2a4.056,4.056,0,0,0,4.056,4.055H78.9a16.476,16.476,0,0,0,13.048-6.414l1.1-1.427a4.174,4.174,0,0,1,2-1.405A20.33,20.33,0,0,0,107.3,158.807" transform="translate(0 -123.025)" fill="none" stroke="#000" stroke-linecap="round" stroke-linejoin="round" stroke-miterlimit="10" stroke-width="1.5"/>
      <path id="Trazado_1026355" data-name="Trazado 1026355" d="M115.091,19.886a20.26,20.26,0,0,1,38.493,12" transform="translate(-45.058 0)" fill="none" stroke="#000" stroke-linecap="round" stroke-linejoin="round" stroke-miterlimit="10" stroke-width="1.5"/>
      <line id="Línea_742" data-name="Línea 742" y1="9.368" x2="1.693" transform="translate(78.506 56.23)" fill="none" stroke="#000" stroke-linecap="round" stroke-linejoin="round" stroke-miterlimit="10" stroke-width="1.5"/>
      <line id="Línea_743" data-name="Línea 743" x1="1.281" y1="7.405" transform="translate(106.952 58.193)" fill="none" stroke="#000" stroke-linecap="round" stroke-linejoin="round" stroke-miterlimit="10" stroke-width="1.5"/>
      <line id="Línea_744" data-name="Línea 744" x1="2.268" y1="13.1" transform="translate(103.986 41.063)" fill="none" stroke="#000" stroke-linecap="round" stroke-linejoin="round" stroke-miterlimit="10" stroke-width="1.5"/>
      <g id="Grupo_1172354" data-name="Grupo 1172354" transform="translate(86.861 11.5)">
        <path id="Trazado_1026356" data-name="Trazado 1026356" d="M259.048,48.382l2.5-6.572a.151.151,0,0,1,.28,0l2.48,6.572" transform="translate(-259.048 -41.716)" fill="none" stroke="#000" stroke-linecap="round" stroke-linejoin="round" stroke-miterlimit="10" stroke-width="1.5"/>
        <line id="Línea_745" data-name="Línea 745" x2="3.714" transform="translate(0.781 5.029)" fill="none" stroke="#000" stroke-linecap="round" stroke-linejoin="round" stroke-miterlimit="10" stroke-width="1.5"/>
      </g>
      <g id="Grupo_1172355" data-name="Grupo 1172355" transform="translate(78.506 14.833)">
        <path id="Trazado_1026357" data-name="Trazado 1026357" d="M192.7,102.489a1.534,1.534,0,0,1,1.534-1.534c.42,0,1.936-.007,1.936-.007v3.074h-1.936A1.534,1.534,0,0,1,192.7,102.489Z" transform="translate(-192.099 -97.357)" fill="none" stroke="#000" stroke-linecap="round" stroke-linejoin="round" stroke-miterlimit="10" stroke-width="1.5"/>
        <path id="Trazado_1026358" data-name="Trazado 1026358" d="M187.577,72.028a1.794,1.794,0,0,1,1.794-1.794c.491,0,2.274-.008,2.274-.008v3.6h-2.274A1.794,1.794,0,0,1,187.577,72.028Z" transform="translate(-187.577 -70.226)" fill="none" stroke="#000" stroke-linecap="round" stroke-linejoin="round" stroke-miterlimit="10" stroke-width="1.5"/>
      </g>
      <g id="Grupo_1172356" data-name="Grupo 1172356" transform="translate(95.138 16.529)">
        <path id="Trazado_1026359" data-name="Trazado 1026359" d="M332.545,84.735a3.333,3.333,0,1,0,2.993,5.629,2.624,2.624,0,0,0,.819-2.15" transform="translate(-329.849 -84.735)" fill="none" stroke="#000" stroke-linecap="round" stroke-linejoin="round" stroke-miterlimit="10" stroke-width="1.5"/>
      </g>
      <g id="Grupo_1172357" data-name="Grupo 1172357" transform="translate(82.955 22.212)">
        <line id="Línea_746" data-name="Línea 746" x2="4.713" y2="4.713" transform="translate(0 3.262)" fill="none" stroke="#000" stroke-linecap="round" stroke-linejoin="round" stroke-miterlimit="10" stroke-width="1.5"/>
        <line id="Línea_747" data-name="Línea 747" x2="4.713" y2="4.713" transform="translate(3.262)" fill="none" stroke="#000" stroke-linecap="round" stroke-linejoin="round" stroke-miterlimit="10" stroke-width="1.5"/>
        <line id="Línea_748" data-name="Línea 748" y1="3.262" x2="3.262" transform="translate(2.276 2.276)" fill="none" stroke="#000" stroke-linecap="round" stroke-linejoin="round" stroke-miterlimit="10" stroke-width="1.5"/>
      </g>
      <g id="Grupo_1172358" data-name="Grupo 1172358" transform="translate(92.142 26.119)">
        <path id="Trazado_1026360" data-name="Trazado 1026360" d="M306.277,169.452s.945.933,1.309,1.3a1.881,1.881,0,1,0,2.66-2.66l-1.312-1.312-4.713,4.713" transform="translate(-304.221 -166.777)" fill="none" stroke="#000" stroke-linecap="round" stroke-linejoin="round" stroke-miterlimit="10" stroke-width="1.5"/>
      </g>
    </g>
  </g>
</svg>
