<svg xmlns="http://www.w3.org/2000/svg" xmlns:xlink="http://www.w3.org/1999/xlink" width="110" height="110" viewBox="0 0 110 110">
  <defs>
    <filter id="Trazado_982547" x="0" y="0" width="110" height="110" filterUnits="userSpaceOnUse">
      <feOffset dy="3" input="SourceAlpha"/>
      <feGaussianBlur stdDeviation="3" result="blur"/>
      <feFlood flood-opacity="0.161"/>
      <feComposite operator="in" in2="blur"/>
      <feComposite in="SourceGraphic"/>
    </filter>
  </defs>
  <g id="Grupo_1172362" data-name="Grupo 1172362" transform="translate(-268 -1703.208)">
    <g id="Grupo_1171903" data-name="Grupo 1171903" transform="translate(-844 -256.792)">
      <g id="Grupo_1164700" data-name="Grupo 1164700" transform="translate(1121 1966)">
        <g id="Grupo_1160931" data-name="Grupo 1160931" transform="translate(0)">
          <g id="Grupo_1160749" data-name="Grupo 1160749" transform="translate(0)">
            <g id="Grupo_1158891" data-name="Grupo 1158891" transform="translate(0 0)">
              <g id="Grupo_1157406" data-name="Grupo 1157406" transform="translate(0)">
                <g id="Grupo_1155793" data-name="Grupo 1155793" transform="translate(0)">
                  <g id="Grupo_1154704" data-name="Grupo 1154704" transform="translate(0)">
                    <g id="Grupo_1150790" data-name="Grupo 1150790" transform="translate(0)">
                      <g id="Grupo_1154214" data-name="Grupo 1154214" transform="translate(0)">
                        <g id="Grupo_1152583" data-name="Grupo 1152583" transform="translate(0 0)">
                          <g id="Grupo_1146973" data-name="Grupo 1146973" transform="translate(0 0)">
                            <g id="Grupo_1146954" data-name="Grupo 1146954">
                              <g transform="matrix(1, 0, 0, 1, -9, -6)" filter="url(#Trazado_982547)">
                                <g id="Trazado_982547-2" data-name="Trazado 982547" transform="translate(9 6)" fill="#edf3fc">
                                  <path d="M 46.00000381469727 90.49988555908203 C 39.99188232421875 90.49988555908203 34.16427230834961 89.32352447509766 28.67905807495117 87.00347137451172 C 23.38020324707031 84.76226043701172 18.62104415893555 81.55342864990234 14.53375053405762 77.46615600585938 C 10.44647026062012 73.37887573242188 7.237643718719482 68.61971282958984 4.996417045593262 63.32085800170898 C 2.676363706588745 57.83565902709961 1.500003814697266 52.00806045532227 1.500003814697266 45.99993896484375 C 1.500003814697266 39.99181747436523 2.676363706588745 34.16421890258789 4.996417045593262 28.67901802062988 C 7.237643718719482 23.38017845153809 10.44647026062012 18.62101936340332 14.53375053405762 14.53373908996582 C 18.62104415893555 10.44645881652832 23.38020324707031 7.237632274627686 28.67905807495117 4.996418952941895 C 34.16427230834961 2.676365613937378 39.99188232421875 1.500005602836609 46.00000381469727 1.500005602836609 C 52.00812530517578 1.500005602836609 57.83573532104492 2.676365613937378 63.32094955444336 4.996418952941895 C 68.61980438232422 7.237632274627686 73.37897491455078 10.44645881652832 77.46625518798828 14.53373908996582 C 81.55355072021484 18.62101936340332 84.76236724853516 23.38017845153809 87.00359344482422 28.67901802062988 C 89.32364654541016 34.16421890258789 90.5 39.99181747436523 90.5 45.99993896484375 C 90.5 52.00806045532227 89.32364654541016 57.83565902709961 87.00359344482422 63.32085800170898 C 84.76236724853516 68.61971282958984 81.55355072021484 73.37887573242188 77.46625518798828 77.46615600585938 C 73.37897491455078 81.55342864990234 68.61980438232422 84.76226043701172 63.32094955444336 87.00347137451172 C 57.83573532104492 89.32352447509766 52.00812530517578 90.49988555908203 46.00000381469727 90.49988555908203 Z" stroke="none"/>
                                  <path d="M 46.00000381469727 2.999992370605469 C 40.19371795654297 2.999992370605469 34.56270217895508 4.136497497558594 29.26338958740234 6.377906799316406 C 24.14333343505859 8.543510437011719 19.54441833496094 11.64437866210938 15.59440612792969 15.59439849853516 C 11.64440155029297 19.54439544677734 8.54351806640625 24.14329528808594 6.377914428710938 29.26335144042969 C 4.136505126953125 34.56266784667969 3.000007629394531 40.19366836547852 3.000007629394531 45.99993896484375 C 3.000007629394531 51.80620956420898 4.136505126953125 57.43722534179688 6.377914428710938 62.73654174804688 C 8.54351806640625 67.85658264160156 11.64440155029297 72.45548248291016 15.59440612792969 76.40549468994141 C 19.54441833496094 80.35549926757812 24.14333343505859 83.45636749267578 29.26337432861328 85.62196350097656 C 34.56270217895508 87.86338043212891 40.19371795654297 88.9998779296875 46.00000381469727 88.9998779296875 C 51.80628967285156 88.9998779296875 57.43730545043945 87.86338043212891 62.73663330078125 85.62196350097656 C 67.85667419433594 83.45636749267578 72.45558929443359 80.35549926757812 76.40560150146484 76.40549468994141 C 80.35560607910156 72.45548248291016 83.45648956298828 67.85658264160156 85.62208557128906 62.73654174804688 C 87.86350250244141 57.43722534179688 89 51.80620956420898 89 45.99993896484375 C 89 40.19366836547852 87.86350250244141 34.56266784667969 85.62208557128906 29.26335144042969 C 83.45648956298828 24.14329528808594 80.35560607910156 19.54439544677734 76.40560150146484 15.59439849853516 C 72.45558929443359 11.64437866210938 67.85667419433594 8.543510437011719 62.73661804199219 6.377906799316406 C 57.43730545043945 4.136497497558594 51.80628967285156 2.999992370605469 46.00000381469727 2.999992370605469 M 46.00000381469727 -7.62939453125e-06 C 71.40510559082031 -7.62939453125e-06 92 20.59487915039062 92 45.99993896484375 C 92 71.40501403808594 71.40510559082031 91.99988555908203 46.00000381469727 91.99988555908203 C 20.59490203857422 91.99988555908203 7.62939453125e-06 71.40501403808594 7.62939453125e-06 45.99993896484375 C 7.62939453125e-06 20.59487915039062 20.59490203857422 -7.62939453125e-06 46.00000381469727 -7.62939453125e-06 Z" stroke="none" fill="#5692e8"/>
                                </g>
                              </g>
                            </g>
                          </g>
                        </g>
                      </g>
                    </g>
                  </g>
                </g>
              </g>
            </g>
          </g>
        </g>
      </g>
    </g>
    <g id="boy_921006" transform="translate(246.346 1725.334)">
      <path id="Trazado_1026361" data-name="Trazado 1026361" d="M102,350.239l-9.759-2.87-7.382,4.922a2.852,2.852,0,0,1-3.164,0l-7.382-4.922-9.759,2.87a5.7,5.7,0,0,0-4.095,5.473v9.993H106.1v-9.993A5.7,5.7,0,0,0,102,350.239Z" transform="translate(-6.624 -306.832)" fill="#cdf5a0"/>
      <path id="Trazado_1026362" data-name="Trazado 1026362" d="M144.115,276.369H123.2a5.7,5.7,0,0,0-5.7,5.7A11.409,11.409,0,0,0,128.9,293.483h9.508a11.41,11.41,0,0,0,11.409-11.409A5.7,5.7,0,0,0,144.115,276.369Z" transform="translate(-57.002 -244.118)" fill="#b4f09b"/>
      <path id="Trazado_1026363" data-name="Trazado 1026363" d="M173.1,300.811a2.092,2.092,0,0,1,1.16,3.832l-9.784,6.523a2.852,2.852,0,0,1-3.164,0l-9.784-6.523a2.092,2.092,0,0,1,1.16-3.832Z" transform="translate(-86.235 -265.708)" fill="#64dca0"/>
      <path id="Trazado_1026364" data-name="Trazado 1026364" d="M179.18,291.851l7.382,4.922a2.852,2.852,0,0,0,3.164,0l7.382-4.922h0l-.262-.077a2.853,2.853,0,0,1-2.048-2.737v-4.521H181.489v4.521a2.853,2.853,0,0,1-2.048,2.737l-.262.077Z" transform="translate(-111.491 -251.314)" fill="#b67f5f"/>
      <path id="Trazado_1026365" data-name="Trazado 1026365" d="M198.967,287.589a14.013,14.013,0,0,0,13.311,0v-3.072H198.967Z" transform="translate(-128.969 -251.315)" fill="#a06e50"/>
      <path id="Trazado_1026366" data-name="Trazado 1026366" d="M147.442,75.942h-.475V64.533H120.344V75.942h-.475a2.377,2.377,0,1,0,0,4.754h1.474a12.348,12.348,0,0,0,24.624,0h1.474a2.377,2.377,0,0,0,0-4.754Z" transform="translate(-57.001 -57.002)" fill="#cd916e"/>
      <path id="Trazado_1026367" data-name="Trazado 1026367" d="M158.64,7.5a8.557,8.557,0,0,0-8.557,8.557h19.966a8.559,8.559,0,0,0,8.491-7.489.957.957,0,0,0-.95-1.068Z" transform="translate(-85.789 -6.625)" fill="#5a4650"/>
      <path id="Trazado_1026368" data-name="Trazado 1026368" d="M120.344,80.827v9.508h-.475a2.377,2.377,0,0,0,0,4.754h1.474a12.272,12.272,0,0,0,14.22,11.249,12.352,12.352,0,0,1-10.465-12.2V87.483a3.8,3.8,0,0,1,3.8-3.8h11.409a1.9,1.9,0,0,0,1.9-1.9v-.951Z" transform="translate(-57.001 -71.395)" fill="#b67f5f"/>
      <path id="Trazado_1026369" data-name="Trazado 1026369" d="M237.637,7.5H219.986a8.537,8.537,0,0,0-1.848,3.3,1.9,1.9,0,0,0,1.838,2.407h16.489a8.518,8.518,0,0,0,2.122-4.637A.957.957,0,0,0,237.637,7.5Z" transform="translate(-145.836 -6.625)" fill="#64505a"/>
      <path id="Trazado_1026373" data-name="Trazado 1026373" d="M95.625,42.567l-2.554-.751a12.237,12.237,0,0,0,.622-3.86,6.587,6.587,0,0,0-6.58-6.58h-.436a13.189,13.189,0,0,0,3.087-6.807H90.3a3.356,3.356,0,0,0,3.371-2.92,3.252,3.252,0,0,0-2.836-3.56V7.627A9.4,9.4,0,0,0,93.692.875.875.875,0,0,0,92.817,0H71.9a9.443,9.443,0,0,0-9.432,9.432v8.674a3.33,3.33,0,0,0-2.836,2.878,3.253,3.253,0,0,0,3.236,3.585h.676a13.189,13.189,0,0,0,3.086,6.807H66.2a6.587,6.587,0,0,0-6.58,6.58,12.238,12.238,0,0,0,.622,3.86l-2.554.751A6.617,6.617,0,0,0,52.96,48.88v9.993a.875.875,0,1,0,1.75,0V48.88a4.857,4.857,0,0,1,3.467-4.633l2.734-.8a12.306,12.306,0,0,0,10.114,6.766v8.664a.875.875,0,1,0,1.75,0V50.24h7.757v8.633a.875.875,0,0,0,1.75,0V50.209A12.306,12.306,0,0,0,92.4,43.442l2.734.8A4.856,4.856,0,0,1,98.6,48.88v9.993a.875.875,0,0,0,1.75,0V48.88A6.617,6.617,0,0,0,95.625,42.567Zm-10.145-2.99a1.988,1.988,0,0,1-1.295-1.854V35.979H86.86a1.217,1.217,0,0,1,.675,2.229ZM64.294,21.868a.875.875,0,0,0-.875.875v.076h-.551a1.5,1.5,0,0,1-1.494-1.66A1.592,1.592,0,0,1,63,19.815h.34a.875.875,0,0,0,.875-.875V9.432A7.691,7.691,0,0,1,71.9,1.75H91.892A7.693,7.693,0,0,1,84.26,8.557H67.146a.875.875,0,0,0,0,1.75H84.26A9.376,9.376,0,0,0,89.09,8.975V18.94a.875.875,0,0,0,.875.875h.475a1.5,1.5,0,0,1,1.494,1.66A1.592,1.592,0,0,1,90.3,22.819h-.416v-.066a.875.875,0,0,0-.875-.875h0a.875.875,0,0,0-.875.875,11.485,11.485,0,0,1-22.969-.009A.875.875,0,0,0,64.294,21.868Zm3.535,17.709-2.055-1.37a1.217,1.217,0,0,1,.675-2.229h2.675v1.744A1.989,1.989,0,0,1,67.829,39.578Zm14.454,8.876v-.99a.875.875,0,1,0-1.75,0V48.49H72.775V47.464a.875.875,0,1,0-1.75,0v.99a10.548,10.548,0,0,1-9.659-10.5A4.835,4.835,0,0,1,66.2,33.126h2.261q.325.257.667.495v.607H66.448A2.967,2.967,0,0,0,64.8,39.664l9.784,6.522a3.718,3.718,0,0,0,4.135,0l2.221-1.481a.875.875,0,0,0-.971-1.456L77.751,44.73a1.973,1.973,0,0,1-2.194,0l-6.116-4.077a3.746,3.746,0,0,0,1.432-2.93V34.648a13.217,13.217,0,0,0,11.561,0v3.076a3.746,3.746,0,0,0,1.432,2.93l-.567.378a.875.875,0,1,0,.971,1.456L88.5,39.664a2.967,2.967,0,0,0-1.646-5.436H84.184V33.62q.341-.237.666-.494h2.262a4.835,4.835,0,0,1,4.829,4.83A10.547,10.547,0,0,1,82.283,48.453Z"/>
    </g>
  </g>
</svg>
