<svg xmlns="http://www.w3.org/2000/svg" xmlns:xlink="http://www.w3.org/1999/xlink" width="110" height="110" viewBox="0 0 110 110">
  <defs>
    <filter id="Trazado_982547" x="0" y="0" width="110" height="110" filterUnits="userSpaceOnUse">
      <feOffset dy="3" input="SourceAlpha"/>
      <feGaussianBlur stdDeviation="3" result="blur"/>
      <feFlood flood-opacity="0.161"/>
      <feComposite operator="in" in2="blur"/>
      <feComposite in="SourceGraphic"/>
    </filter>
  </defs>
  <g id="Grupo_1172361" data-name="Grupo 1172361" transform="translate(-1112 -1960)">
    <g id="Grupo_1164700" data-name="Grupo 1164700" transform="translate(1121 1966)">
      <g id="Grupo_1160931" data-name="Grupo 1160931" transform="translate(0)">
        <g id="Grupo_1160749" data-name="Grupo 1160749" transform="translate(0)">
          <g id="Grupo_1158891" data-name="Grupo 1158891" transform="translate(0 0)">
            <g id="Grupo_1157406" data-name="Grupo 1157406" transform="translate(0)">
              <g id="Grupo_1155793" data-name="Grupo 1155793" transform="translate(0)">
                <g id="Grupo_1154704" data-name="Grupo 1154704" transform="translate(0)">
                  <g id="Grupo_1150790" data-name="Grupo 1150790" transform="translate(0)">
                    <g id="Grupo_1154214" data-name="Grupo 1154214" transform="translate(0)">
                      <g id="Grupo_1152583" data-name="Grupo 1152583" transform="translate(0 0)">
                        <g id="Grupo_1146973" data-name="Grupo 1146973" transform="translate(0 0)">
                          <g id="Grupo_1146954" data-name="Grupo 1146954">
                            <g transform="matrix(1, 0, 0, 1, -9, -6)" filter="url(#Trazado_982547)">
                              <g id="Trazado_982547-2" data-name="Trazado 982547" transform="translate(9 6)" fill="#edf3fc">
                                <path d="M 46.00000381469727 90.49988555908203 C 39.99188232421875 90.49988555908203 34.16427230834961 89.32352447509766 28.67905807495117 87.00347137451172 C 23.38020324707031 84.76226043701172 18.62104415893555 81.55342864990234 14.53375053405762 77.46615600585938 C 10.44647026062012 73.37887573242188 7.237643718719482 68.61971282958984 4.996417045593262 63.32085800170898 C 2.676363706588745 57.83565902709961 1.500003814697266 52.00806045532227 1.500003814697266 45.99993896484375 C 1.500003814697266 39.99181747436523 2.676363706588745 34.16421890258789 4.996417045593262 28.67901802062988 C 7.237643718719482 23.38017845153809 10.44647026062012 18.62101936340332 14.53375053405762 14.53373908996582 C 18.62104415893555 10.44645881652832 23.38020324707031 7.237632274627686 28.67905807495117 4.996418952941895 C 34.16427230834961 2.676365613937378 39.99188232421875 1.500005602836609 46.00000381469727 1.500005602836609 C 52.00812530517578 1.500005602836609 57.83573532104492 2.676365613937378 63.32094955444336 4.996418952941895 C 68.61980438232422 7.237632274627686 73.37897491455078 10.44645881652832 77.46625518798828 14.53373908996582 C 81.55355072021484 18.62101936340332 84.76236724853516 23.38017845153809 87.00359344482422 28.67901802062988 C 89.32364654541016 34.16421890258789 90.5 39.99181747436523 90.5 45.99993896484375 C 90.5 52.00806045532227 89.32364654541016 57.83565902709961 87.00359344482422 63.32085800170898 C 84.76236724853516 68.61971282958984 81.55355072021484 73.37887573242188 77.46625518798828 77.46615600585938 C 73.37897491455078 81.55342864990234 68.61980438232422 84.76226043701172 63.32094955444336 87.00347137451172 C 57.83573532104492 89.32352447509766 52.00812530517578 90.49988555908203 46.00000381469727 90.49988555908203 Z" stroke="none"/>
                                <path d="M 46.00000381469727 2.999992370605469 C 40.19371795654297 2.999992370605469 34.56270217895508 4.136497497558594 29.26338958740234 6.377906799316406 C 24.14333343505859 8.543510437011719 19.54441833496094 11.64437866210938 15.59440612792969 15.59439849853516 C 11.64440155029297 19.54439544677734 8.54351806640625 24.14329528808594 6.377914428710938 29.26335144042969 C 4.136505126953125 34.56266784667969 3.000007629394531 40.19366836547852 3.000007629394531 45.99993896484375 C 3.000007629394531 51.80620956420898 4.136505126953125 57.43722534179688 6.377914428710938 62.73654174804688 C 8.54351806640625 67.85658264160156 11.64440155029297 72.45548248291016 15.59440612792969 76.40549468994141 C 19.54441833496094 80.35549926757812 24.14333343505859 83.45636749267578 29.26337432861328 85.62196350097656 C 34.56270217895508 87.86338043212891 40.19371795654297 88.9998779296875 46.00000381469727 88.9998779296875 C 51.80628967285156 88.9998779296875 57.43730545043945 87.86338043212891 62.73663330078125 85.62196350097656 C 67.85667419433594 83.45636749267578 72.45558929443359 80.35549926757812 76.40560150146484 76.40549468994141 C 80.35560607910156 72.45548248291016 83.45648956298828 67.85658264160156 85.62208557128906 62.73654174804688 C 87.86350250244141 57.43722534179688 89 51.80620956420898 89 45.99993896484375 C 89 40.19366836547852 87.86350250244141 34.56266784667969 85.62208557128906 29.26335144042969 C 83.45648956298828 24.14329528808594 80.35560607910156 19.54439544677734 76.40560150146484 15.59439849853516 C 72.45558929443359 11.64437866210938 67.85667419433594 8.543510437011719 62.73661804199219 6.377906799316406 C 57.43730545043945 4.136497497558594 51.80628967285156 2.999992370605469 46.00000381469727 2.999992370605469 M 46.00000381469727 -7.62939453125e-06 C 71.40510559082031 -7.62939453125e-06 92 20.59487915039062 92 45.99993896484375 C 92 71.40501403808594 71.40510559082031 91.99988555908203 46.00000381469727 91.99988555908203 C 20.59490203857422 91.99988555908203 7.62939453125e-06 71.40501403808594 7.62939453125e-06 45.99993896484375 C 7.62939453125e-06 20.59487915039062 20.59490203857422 -7.62939453125e-06 46.00000381469727 -7.62939453125e-06 Z" stroke="none" fill="#5692e8"/>
                              </g>
                            </g>
                          </g>
                        </g>
                      </g>
                    </g>
                  </g>
                </g>
              </g>
            </g>
          </g>
        </g>
      </g>
    </g>
    <g id="Layer_x0020_1" transform="translate(1136.041 1983.233)">
      <path id="Trazado_1026350" data-name="Trazado 1026350" d="M10.592,28.1a3.207,3.207,0,0,1,2.726-4.876.768.768,0,1,1,0,1.536,1.689,1.689,0,0,0,.038,3.378h6.488a2.9,2.9,0,0,0,0-5.8.768.768,0,1,1,0-1.536,4.443,4.443,0,0,1,3.34,7.333h6.3a4.424,4.424,0,0,1,3.34-7.333.768.768,0,0,1,0,1.536,2.9,2.9,0,1,0,.077,5.8h8.753a4.817,4.817,0,0,0,1.958-.384,14.8,14.8,0,0,1-7.486-14.4,4.327,4.327,0,0,0-2.611,0,5.546,5.546,0,0,1-3.186,4.453.764.764,0,0,1-.653-1.382c4.377-2,2.035-9.176-3.378-9.176a5.629,5.629,0,0,0-5.567,4.876,5.464,5.464,0,0,1,2.687,4.722.768.768,0,0,1-1.536,0,4.061,4.061,0,0,0-2.227-3.57,5.192,5.192,0,0,0-1.113-.154,4.049,4.049,0,0,0-3.993,3.494,3.943,3.943,0,0,0,2.3,3.609.782.782,0,0,1-.653,1.42A5.524,5.524,0,0,1,13.011,17.2a5.648,5.648,0,1,0-2.419,10.9Zm43.766-6.411H51.748a2.563,2.563,0,0,1-4.876,0h-.845a3.782,3.782,0,1,1,0-7.563h7.755a2.246,2.246,0,0,0,0-4.492h-.845a2.571,2.571,0,0,1-4.914,0H44.492a.768.768,0,1,1,0-1.536h3.57a2.544,2.544,0,0,1,4.837,0h.883a3.782,3.782,0,1,1,0,7.563H46.028a2.246,2.246,0,0,0,0,4.492h.845a2.557,2.557,0,0,1,4.876,0h2.611a2.555,2.555,0,1,1,0,1.536Zm-4.031-.729a1.019,1.019,0,1,0-2.035-.038A1.019,1.019,0,0,0,50.328,20.962ZM49.483,8.83a1.019,1.019,0,1,0,2.035.077A1.019,1.019,0,0,0,49.483,8.83Zm7.333,11.057a1.017,1.017,0,0,0,0,2.035A1.017,1.017,0,0,0,56.816,19.887ZM45.375,28.6a7.117,7.117,0,0,1-3.724,1.075H11.015a7.19,7.19,0,0,1-6.642-4.453A23.759,23.759,0,0,0,2.185,40.58a10.165,10.165,0,0,0,3.724,6.3c1.92-2.035,2.419-7.947,2.073-10.1-.115-.653.384-1.574,1.229-1.42a5.215,5.215,0,0,1,3.34,1.612c1.459-2.534.576-3.186,1.574-3.609a.934.934,0,0,1,1.037.154c5.567,4.453,16.086,7.486,21.384,1.5,1.881-2.15,2.918-.845,4.569.5,6.565,5.413.691,7.448,5.605,12.247,5.221-3.916,6.565-11.748,4.876-18.121A14.75,14.75,0,0,1,45.375,28.6Zm7.755.883c1.8,7.064.154,15.549-5.759,19.695-1.651,9.79-9.943,16.355-20.655,16.355-11.1,0-19.465-6.757-21.422-17.238A11.436,11.436,0,0,1,.687,40.925a25.463,25.463,0,0,1,3.148-17.89,2.906,2.906,0,0,1-.038-.576A7.2,7.2,0,0,1,13.2,15.625a5.592,5.592,0,0,1,6.027-3.993,7.206,7.206,0,0,1,14.2.154,5.786,5.786,0,0,1,2.918.038A14.837,14.837,0,1,1,53.13,29.485ZM50.865,1.536A13.3,13.3,0,1,0,64.187,14.819,13.288,13.288,0,0,0,50.865,1.536Zm-5.029,47.49c-5.874-5.567.23-7.448-5.72-12.324C38.273,35.167,38.5,35.09,37.7,36.05c-5.72,6.411-16.585,3.724-22.766-.806a14.376,14.376,0,0,1-1.612,3.494.781.781,0,0,1-1.382.038,3.426,3.426,0,0,0-2.38-1.8c.307,2.8-.307,8.945-2.726,11.172C8.749,57.971,16.351,64,26.793,64,36.814,63.96,44.262,58.086,45.836,49.026Zm-19.5,11.94c-1.92,0-5.3-1.19-4.3-2.419.845-1.075,1.382.883,4.3.883,2.879,0,3.455-1.958,4.261-.883C31.592,59.814,28.176,60.966,26.333,60.966Z" transform="translate(0)" fill-rule="evenodd"/>
      <path id="Trazado_1026351" data-name="Trazado 1026351" d="M161.972,204.088a2.9,2.9,0,1,0,.077,5.8H170.8a4.817,4.817,0,0,0,1.958-.384,14.8,14.8,0,0,1-7.486-14.4,4.327,4.327,0,0,0-2.611,0,5.546,5.546,0,0,1-3.186,4.453.764.764,0,0,1-.653-1.382c4.377-2,2.035-9.176-3.378-9.176a5.629,5.629,0,0,0-5.567,4.876,5.464,5.464,0,0,1,2.687,4.722.768.768,0,0,1-1.536,0,4.061,4.061,0,0,0-2.227-3.57,5.192,5.192,0,0,0-1.113-.154,4.049,4.049,0,0,0-3.993,3.494,3.943,3.943,0,0,0,2.3,3.609.782.782,0,0,1-.653,1.421,5.524,5.524,0,0,1-3.187-4.453,5.648,5.648,0,1,0-2.419,10.9,3.207,3.207,0,0,1,2.726-4.876.768.768,0,1,1,0,1.536,1.689,1.689,0,0,0,.038,3.378H149a2.9,2.9,0,0,0,0-5.8.768.768,0,1,1,0-1.536,4.443,4.443,0,0,1,3.34,7.333h6.3a4.424,4.424,0,0,1,3.34-7.333A.768.768,0,0,1,161.972,204.088Z" transform="translate(-129.151 -181.744)" fill="#ffa721" fill-rule="evenodd"/>
      <path id="Trazado_1026352" data-name="Trazado 1026352" d="M1449.758,518a1.017,1.017,0,0,0,0,2.035A1.017,1.017,0,0,0,1449.758,518Z" transform="translate(-1392.942 -498.113)" fill="#ff3e1a" fill-rule="evenodd"/>
      <path id="Trazado_1026353" data-name="Trazado 1026353" d="M1253,518.719a1.018,1.018,0,0,0,2.035.038A1.018,1.018,0,1,0,1253,518.719Z" transform="translate(-1204.707 -497.795)" fill="#ff3e1a" fill-rule="evenodd"/>
      <path id="Trazado_1026354" data-name="Trazado 1026354" d="M983.291,58.62a2.557,2.557,0,0,1,4.876,0h2.611a2.555,2.555,0,1,1,0,1.536h-2.611a2.563,2.563,0,0,1-4.876,0h-.845a3.782,3.782,0,1,1,0-7.563H990.2a2.246,2.246,0,0,0,0-4.492h-.845a2.571,2.571,0,0,1-4.914,0H980.91a.768.768,0,1,1,0-1.536h3.57a2.544,2.544,0,0,1,4.837,0h.883a3.782,3.782,0,1,1,0,7.563h-7.755a2.246,2.246,0,0,0,0,4.492ZM974,53.283A13.3,13.3,0,1,0,987.283,40,13.321,13.321,0,0,0,974,53.283Z" transform="translate(-936.418 -38.464)" fill="#f1f1ff" fill-rule="evenodd"/>
      <path id="Trazado_1026355" data-name="Trazado 1026355" d="M1284,206.419a1.019,1.019,0,1,0,2.035.077A1.019,1.019,0,0,0,1284,206.419Z" transform="translate(-1234.517 -197.589)" fill="#ff3e1a" fill-rule="evenodd"/>
      <path id="Trazado_1026356" data-name="Trazado 1026356" d="M204.79,918.806c-5.682,6.411-16.508,3.724-22.728-.806a11.2,11.2,0,0,1-1.612,3.455.739.739,0,0,1-1.344.038,3.481,3.481,0,0,0-2.38-1.766c.307,2.764-.307,8.945-2.726,11.172,1.92,9.79,9.483,15.817,19.925,15.779,10.02,0,17.468-5.874,19.042-14.934-5.912-5.528.23-7.41-5.72-12.285C205.4,917.923,205.635,917.846,204.79,918.806ZM189.2,941.265c.806-1.075,1.344.883,4.261.883,2.879,0,3.455-1.958,4.262-.883,1,1.267-2.419,2.419-4.262,2.419C191.545,943.684,188.2,942.494,189.2,941.265Z" transform="translate(-167.132 -882.757)" fill="#ffc06d" fill-rule="evenodd"/>
      <path id="Trazado_1026357" data-name="Trazado 1026357" d="M54.47,665.293c5.567,4.453,16.048,7.486,21.307,1.5,1.92-2.15,2.956-.845,4.569.5,6.565,5.413.691,7.448,5.644,12.208,5.221-3.878,6.527-11.709,4.837-18.083a4.166,4.166,0,0,1-.691.038,15.179,15.179,0,0,1-5.49-1.036,7.483,7.483,0,0,1-3.762,1.036H50.324A7.19,7.19,0,0,1,43.682,657a23.758,23.758,0,0,0-2.188,15.357,10.128,10.128,0,0,0,3.724,6.258c1.92-2.035,2.419-7.947,2.073-10.1-.115-.614.384-1.536,1.229-1.382a4.945,4.945,0,0,1,3.3,1.612c1.459-2.534.576-3.187,1.612-3.609A.944.944,0,0,1,54.47,665.293Z" transform="translate(-39.271 -631.777)" fill="#a98356" fill-rule="evenodd"/>
    </g>
  </g>
</svg>
